%TF.GenerationSoftware,KiCad,Pcbnew,7.0.1*%
%TF.CreationDate,2023-03-21T08:10:22+02:00*%
%TF.ProjectId,FullSchematic,46756c6c-5363-4686-956d-617469632e6b,rev?*%
%TF.SameCoordinates,Original*%
%TF.FileFunction,Legend,Top*%
%TF.FilePolarity,Positive*%
%FSLAX46Y46*%
G04 Gerber Fmt 4.6, Leading zero omitted, Abs format (unit mm)*
G04 Created by KiCad (PCBNEW 7.0.1) date 2023-03-21 08:10:22*
%MOMM*%
%LPD*%
G01*
G04 APERTURE LIST*
%ADD10C,0.150000*%
%ADD11C,0.254000*%
%ADD12C,0.100000*%
%ADD13C,0.200000*%
%ADD14C,0.120000*%
%ADD15C,1.000000*%
G04 APERTURE END LIST*
D10*
X156972000Y-93472000D02*
X171704000Y-93472000D01*
X171704000Y-99060000D01*
X156972000Y-99060000D01*
X156972000Y-93472000D01*
X160623238Y-95905619D02*
X161194666Y-95905619D01*
X160908952Y-96905619D02*
X160908952Y-95905619D01*
X161670857Y-96905619D02*
X161575619Y-96858000D01*
X161575619Y-96858000D02*
X161528000Y-96810380D01*
X161528000Y-96810380D02*
X161480381Y-96715142D01*
X161480381Y-96715142D02*
X161480381Y-96429428D01*
X161480381Y-96429428D02*
X161528000Y-96334190D01*
X161528000Y-96334190D02*
X161575619Y-96286571D01*
X161575619Y-96286571D02*
X161670857Y-96238952D01*
X161670857Y-96238952D02*
X161813714Y-96238952D01*
X161813714Y-96238952D02*
X161908952Y-96286571D01*
X161908952Y-96286571D02*
X161956571Y-96334190D01*
X161956571Y-96334190D02*
X162004190Y-96429428D01*
X162004190Y-96429428D02*
X162004190Y-96715142D01*
X162004190Y-96715142D02*
X161956571Y-96810380D01*
X161956571Y-96810380D02*
X161908952Y-96858000D01*
X161908952Y-96858000D02*
X161813714Y-96905619D01*
X161813714Y-96905619D02*
X161670857Y-96905619D01*
X162861333Y-96238952D02*
X162861333Y-96905619D01*
X162432762Y-96238952D02*
X162432762Y-96762761D01*
X162432762Y-96762761D02*
X162480381Y-96858000D01*
X162480381Y-96858000D02*
X162575619Y-96905619D01*
X162575619Y-96905619D02*
X162718476Y-96905619D01*
X162718476Y-96905619D02*
X162813714Y-96858000D01*
X162813714Y-96858000D02*
X162861333Y-96810380D01*
X163766095Y-96858000D02*
X163670857Y-96905619D01*
X163670857Y-96905619D02*
X163480381Y-96905619D01*
X163480381Y-96905619D02*
X163385143Y-96858000D01*
X163385143Y-96858000D02*
X163337524Y-96810380D01*
X163337524Y-96810380D02*
X163289905Y-96715142D01*
X163289905Y-96715142D02*
X163289905Y-96429428D01*
X163289905Y-96429428D02*
X163337524Y-96334190D01*
X163337524Y-96334190D02*
X163385143Y-96286571D01*
X163385143Y-96286571D02*
X163480381Y-96238952D01*
X163480381Y-96238952D02*
X163670857Y-96238952D01*
X163670857Y-96238952D02*
X163766095Y-96286571D01*
X164194667Y-96905619D02*
X164194667Y-95905619D01*
X164623238Y-96905619D02*
X164623238Y-96381809D01*
X164623238Y-96381809D02*
X164575619Y-96286571D01*
X164575619Y-96286571D02*
X164480381Y-96238952D01*
X164480381Y-96238952D02*
X164337524Y-96238952D01*
X164337524Y-96238952D02*
X164242286Y-96286571D01*
X164242286Y-96286571D02*
X164194667Y-96334190D01*
X165861334Y-96905619D02*
X165861334Y-95905619D01*
X165861334Y-95905619D02*
X166242286Y-95905619D01*
X166242286Y-95905619D02*
X166337524Y-95953238D01*
X166337524Y-95953238D02*
X166385143Y-96000857D01*
X166385143Y-96000857D02*
X166432762Y-96096095D01*
X166432762Y-96096095D02*
X166432762Y-96238952D01*
X166432762Y-96238952D02*
X166385143Y-96334190D01*
X166385143Y-96334190D02*
X166337524Y-96381809D01*
X166337524Y-96381809D02*
X166242286Y-96429428D01*
X166242286Y-96429428D02*
X165861334Y-96429428D01*
X167289905Y-96905619D02*
X167289905Y-96381809D01*
X167289905Y-96381809D02*
X167242286Y-96286571D01*
X167242286Y-96286571D02*
X167147048Y-96238952D01*
X167147048Y-96238952D02*
X166956572Y-96238952D01*
X166956572Y-96238952D02*
X166861334Y-96286571D01*
X167289905Y-96858000D02*
X167194667Y-96905619D01*
X167194667Y-96905619D02*
X166956572Y-96905619D01*
X166956572Y-96905619D02*
X166861334Y-96858000D01*
X166861334Y-96858000D02*
X166813715Y-96762761D01*
X166813715Y-96762761D02*
X166813715Y-96667523D01*
X166813715Y-96667523D02*
X166861334Y-96572285D01*
X166861334Y-96572285D02*
X166956572Y-96524666D01*
X166956572Y-96524666D02*
X167194667Y-96524666D01*
X167194667Y-96524666D02*
X167289905Y-96477047D01*
X168194667Y-96905619D02*
X168194667Y-95905619D01*
X168194667Y-96858000D02*
X168099429Y-96905619D01*
X168099429Y-96905619D02*
X167908953Y-96905619D01*
X167908953Y-96905619D02*
X167813715Y-96858000D01*
X167813715Y-96858000D02*
X167766096Y-96810380D01*
X167766096Y-96810380D02*
X167718477Y-96715142D01*
X167718477Y-96715142D02*
X167718477Y-96429428D01*
X167718477Y-96429428D02*
X167766096Y-96334190D01*
X167766096Y-96334190D02*
X167813715Y-96286571D01*
X167813715Y-96286571D02*
X167908953Y-96238952D01*
X167908953Y-96238952D02*
X168099429Y-96238952D01*
X168099429Y-96238952D02*
X168194667Y-96286571D01*
D11*
%TO.C,D4*%
X95075526Y-99297381D02*
X93805526Y-99297381D01*
X93805526Y-99297381D02*
X93805526Y-98995000D01*
X93805526Y-98995000D02*
X93866002Y-98813571D01*
X93866002Y-98813571D02*
X93986954Y-98692619D01*
X93986954Y-98692619D02*
X94107907Y-98632142D01*
X94107907Y-98632142D02*
X94349811Y-98571666D01*
X94349811Y-98571666D02*
X94531240Y-98571666D01*
X94531240Y-98571666D02*
X94773145Y-98632142D01*
X94773145Y-98632142D02*
X94894097Y-98692619D01*
X94894097Y-98692619D02*
X95015050Y-98813571D01*
X95015050Y-98813571D02*
X95075526Y-98995000D01*
X95075526Y-98995000D02*
X95075526Y-99297381D01*
X94228859Y-97483095D02*
X95075526Y-97483095D01*
X93745050Y-97785476D02*
X94652192Y-98087857D01*
X94652192Y-98087857D02*
X94652192Y-97301666D01*
D10*
%TO.C,TP9*%
X134374095Y-130526619D02*
X134945523Y-130526619D01*
X134659809Y-131526619D02*
X134659809Y-130526619D01*
X135278857Y-131526619D02*
X135278857Y-130526619D01*
X135278857Y-130526619D02*
X135659809Y-130526619D01*
X135659809Y-130526619D02*
X135755047Y-130574238D01*
X135755047Y-130574238D02*
X135802666Y-130621857D01*
X135802666Y-130621857D02*
X135850285Y-130717095D01*
X135850285Y-130717095D02*
X135850285Y-130859952D01*
X135850285Y-130859952D02*
X135802666Y-130955190D01*
X135802666Y-130955190D02*
X135755047Y-131002809D01*
X135755047Y-131002809D02*
X135659809Y-131050428D01*
X135659809Y-131050428D02*
X135278857Y-131050428D01*
X136326476Y-131526619D02*
X136516952Y-131526619D01*
X136516952Y-131526619D02*
X136612190Y-131479000D01*
X136612190Y-131479000D02*
X136659809Y-131431380D01*
X136659809Y-131431380D02*
X136755047Y-131288523D01*
X136755047Y-131288523D02*
X136802666Y-131098047D01*
X136802666Y-131098047D02*
X136802666Y-130717095D01*
X136802666Y-130717095D02*
X136755047Y-130621857D01*
X136755047Y-130621857D02*
X136707428Y-130574238D01*
X136707428Y-130574238D02*
X136612190Y-130526619D01*
X136612190Y-130526619D02*
X136421714Y-130526619D01*
X136421714Y-130526619D02*
X136326476Y-130574238D01*
X136326476Y-130574238D02*
X136278857Y-130621857D01*
X136278857Y-130621857D02*
X136231238Y-130717095D01*
X136231238Y-130717095D02*
X136231238Y-130955190D01*
X136231238Y-130955190D02*
X136278857Y-131050428D01*
X136278857Y-131050428D02*
X136326476Y-131098047D01*
X136326476Y-131098047D02*
X136421714Y-131145666D01*
X136421714Y-131145666D02*
X136612190Y-131145666D01*
X136612190Y-131145666D02*
X136707428Y-131098047D01*
X136707428Y-131098047D02*
X136755047Y-131050428D01*
X136755047Y-131050428D02*
X136802666Y-130955190D01*
%TO.C,U2*%
X109793095Y-108867619D02*
X109793095Y-109677142D01*
X109793095Y-109677142D02*
X109840714Y-109772380D01*
X109840714Y-109772380D02*
X109888333Y-109820000D01*
X109888333Y-109820000D02*
X109983571Y-109867619D01*
X109983571Y-109867619D02*
X110174047Y-109867619D01*
X110174047Y-109867619D02*
X110269285Y-109820000D01*
X110269285Y-109820000D02*
X110316904Y-109772380D01*
X110316904Y-109772380D02*
X110364523Y-109677142D01*
X110364523Y-109677142D02*
X110364523Y-108867619D01*
X110793095Y-108962857D02*
X110840714Y-108915238D01*
X110840714Y-108915238D02*
X110935952Y-108867619D01*
X110935952Y-108867619D02*
X111174047Y-108867619D01*
X111174047Y-108867619D02*
X111269285Y-108915238D01*
X111269285Y-108915238D02*
X111316904Y-108962857D01*
X111316904Y-108962857D02*
X111364523Y-109058095D01*
X111364523Y-109058095D02*
X111364523Y-109153333D01*
X111364523Y-109153333D02*
X111316904Y-109296190D01*
X111316904Y-109296190D02*
X110745476Y-109867619D01*
X110745476Y-109867619D02*
X111364523Y-109867619D01*
%TO.C,C12*%
X139057142Y-92117380D02*
X139009523Y-92165000D01*
X139009523Y-92165000D02*
X138866666Y-92212619D01*
X138866666Y-92212619D02*
X138771428Y-92212619D01*
X138771428Y-92212619D02*
X138628571Y-92165000D01*
X138628571Y-92165000D02*
X138533333Y-92069761D01*
X138533333Y-92069761D02*
X138485714Y-91974523D01*
X138485714Y-91974523D02*
X138438095Y-91784047D01*
X138438095Y-91784047D02*
X138438095Y-91641190D01*
X138438095Y-91641190D02*
X138485714Y-91450714D01*
X138485714Y-91450714D02*
X138533333Y-91355476D01*
X138533333Y-91355476D02*
X138628571Y-91260238D01*
X138628571Y-91260238D02*
X138771428Y-91212619D01*
X138771428Y-91212619D02*
X138866666Y-91212619D01*
X138866666Y-91212619D02*
X139009523Y-91260238D01*
X139009523Y-91260238D02*
X139057142Y-91307857D01*
X140009523Y-92212619D02*
X139438095Y-92212619D01*
X139723809Y-92212619D02*
X139723809Y-91212619D01*
X139723809Y-91212619D02*
X139628571Y-91355476D01*
X139628571Y-91355476D02*
X139533333Y-91450714D01*
X139533333Y-91450714D02*
X139438095Y-91498333D01*
X140390476Y-91307857D02*
X140438095Y-91260238D01*
X140438095Y-91260238D02*
X140533333Y-91212619D01*
X140533333Y-91212619D02*
X140771428Y-91212619D01*
X140771428Y-91212619D02*
X140866666Y-91260238D01*
X140866666Y-91260238D02*
X140914285Y-91307857D01*
X140914285Y-91307857D02*
X140961904Y-91403095D01*
X140961904Y-91403095D02*
X140961904Y-91498333D01*
X140961904Y-91498333D02*
X140914285Y-91641190D01*
X140914285Y-91641190D02*
X140342857Y-92212619D01*
X140342857Y-92212619D02*
X140961904Y-92212619D01*
%TO.C,TP14*%
X145581905Y-86364619D02*
X146153333Y-86364619D01*
X145867619Y-87364619D02*
X145867619Y-86364619D01*
X146486667Y-87364619D02*
X146486667Y-86364619D01*
X146486667Y-86364619D02*
X146867619Y-86364619D01*
X146867619Y-86364619D02*
X146962857Y-86412238D01*
X146962857Y-86412238D02*
X147010476Y-86459857D01*
X147010476Y-86459857D02*
X147058095Y-86555095D01*
X147058095Y-86555095D02*
X147058095Y-86697952D01*
X147058095Y-86697952D02*
X147010476Y-86793190D01*
X147010476Y-86793190D02*
X146962857Y-86840809D01*
X146962857Y-86840809D02*
X146867619Y-86888428D01*
X146867619Y-86888428D02*
X146486667Y-86888428D01*
X148010476Y-87364619D02*
X147439048Y-87364619D01*
X147724762Y-87364619D02*
X147724762Y-86364619D01*
X147724762Y-86364619D02*
X147629524Y-86507476D01*
X147629524Y-86507476D02*
X147534286Y-86602714D01*
X147534286Y-86602714D02*
X147439048Y-86650333D01*
X148867619Y-86697952D02*
X148867619Y-87364619D01*
X148629524Y-86317000D02*
X148391429Y-87031285D01*
X148391429Y-87031285D02*
X149010476Y-87031285D01*
D11*
%TO.C,U3*%
X147272526Y-103392619D02*
X148300621Y-103392619D01*
X148300621Y-103392619D02*
X148421573Y-103332142D01*
X148421573Y-103332142D02*
X148482050Y-103271666D01*
X148482050Y-103271666D02*
X148542526Y-103150714D01*
X148542526Y-103150714D02*
X148542526Y-102908809D01*
X148542526Y-102908809D02*
X148482050Y-102787857D01*
X148482050Y-102787857D02*
X148421573Y-102727380D01*
X148421573Y-102727380D02*
X148300621Y-102666904D01*
X148300621Y-102666904D02*
X147272526Y-102666904D01*
X147272526Y-102183095D02*
X147272526Y-101396904D01*
X147272526Y-101396904D02*
X147756335Y-101820238D01*
X147756335Y-101820238D02*
X147756335Y-101638809D01*
X147756335Y-101638809D02*
X147816811Y-101517857D01*
X147816811Y-101517857D02*
X147877288Y-101457381D01*
X147877288Y-101457381D02*
X147998240Y-101396904D01*
X147998240Y-101396904D02*
X148300621Y-101396904D01*
X148300621Y-101396904D02*
X148421573Y-101457381D01*
X148421573Y-101457381D02*
X148482050Y-101517857D01*
X148482050Y-101517857D02*
X148542526Y-101638809D01*
X148542526Y-101638809D02*
X148542526Y-102001666D01*
X148542526Y-102001666D02*
X148482050Y-102122619D01*
X148482050Y-102122619D02*
X148421573Y-102183095D01*
D10*
%TO.C,TP19*%
X104433905Y-88904619D02*
X105005333Y-88904619D01*
X104719619Y-89904619D02*
X104719619Y-88904619D01*
X105338667Y-89904619D02*
X105338667Y-88904619D01*
X105338667Y-88904619D02*
X105719619Y-88904619D01*
X105719619Y-88904619D02*
X105814857Y-88952238D01*
X105814857Y-88952238D02*
X105862476Y-88999857D01*
X105862476Y-88999857D02*
X105910095Y-89095095D01*
X105910095Y-89095095D02*
X105910095Y-89237952D01*
X105910095Y-89237952D02*
X105862476Y-89333190D01*
X105862476Y-89333190D02*
X105814857Y-89380809D01*
X105814857Y-89380809D02*
X105719619Y-89428428D01*
X105719619Y-89428428D02*
X105338667Y-89428428D01*
X106862476Y-89904619D02*
X106291048Y-89904619D01*
X106576762Y-89904619D02*
X106576762Y-88904619D01*
X106576762Y-88904619D02*
X106481524Y-89047476D01*
X106481524Y-89047476D02*
X106386286Y-89142714D01*
X106386286Y-89142714D02*
X106291048Y-89190333D01*
X107338667Y-89904619D02*
X107529143Y-89904619D01*
X107529143Y-89904619D02*
X107624381Y-89857000D01*
X107624381Y-89857000D02*
X107672000Y-89809380D01*
X107672000Y-89809380D02*
X107767238Y-89666523D01*
X107767238Y-89666523D02*
X107814857Y-89476047D01*
X107814857Y-89476047D02*
X107814857Y-89095095D01*
X107814857Y-89095095D02*
X107767238Y-88999857D01*
X107767238Y-88999857D02*
X107719619Y-88952238D01*
X107719619Y-88952238D02*
X107624381Y-88904619D01*
X107624381Y-88904619D02*
X107433905Y-88904619D01*
X107433905Y-88904619D02*
X107338667Y-88952238D01*
X107338667Y-88952238D02*
X107291048Y-88999857D01*
X107291048Y-88999857D02*
X107243429Y-89095095D01*
X107243429Y-89095095D02*
X107243429Y-89333190D01*
X107243429Y-89333190D02*
X107291048Y-89428428D01*
X107291048Y-89428428D02*
X107338667Y-89476047D01*
X107338667Y-89476047D02*
X107433905Y-89523666D01*
X107433905Y-89523666D02*
X107624381Y-89523666D01*
X107624381Y-89523666D02*
X107719619Y-89476047D01*
X107719619Y-89476047D02*
X107767238Y-89428428D01*
X107767238Y-89428428D02*
X107814857Y-89333190D01*
D11*
%TO.C,C10*%
X98002573Y-92256428D02*
X98063050Y-92316904D01*
X98063050Y-92316904D02*
X98123526Y-92498333D01*
X98123526Y-92498333D02*
X98123526Y-92619285D01*
X98123526Y-92619285D02*
X98063050Y-92800714D01*
X98063050Y-92800714D02*
X97942097Y-92921666D01*
X97942097Y-92921666D02*
X97821145Y-92982143D01*
X97821145Y-92982143D02*
X97579240Y-93042619D01*
X97579240Y-93042619D02*
X97397811Y-93042619D01*
X97397811Y-93042619D02*
X97155907Y-92982143D01*
X97155907Y-92982143D02*
X97034954Y-92921666D01*
X97034954Y-92921666D02*
X96914002Y-92800714D01*
X96914002Y-92800714D02*
X96853526Y-92619285D01*
X96853526Y-92619285D02*
X96853526Y-92498333D01*
X96853526Y-92498333D02*
X96914002Y-92316904D01*
X96914002Y-92316904D02*
X96974478Y-92256428D01*
X98123526Y-91046904D02*
X98123526Y-91772619D01*
X98123526Y-91409762D02*
X96853526Y-91409762D01*
X96853526Y-91409762D02*
X97034954Y-91530714D01*
X97034954Y-91530714D02*
X97155907Y-91651666D01*
X97155907Y-91651666D02*
X97216383Y-91772619D01*
X96853526Y-90260714D02*
X96853526Y-90139761D01*
X96853526Y-90139761D02*
X96914002Y-90018809D01*
X96914002Y-90018809D02*
X96974478Y-89958333D01*
X96974478Y-89958333D02*
X97095430Y-89897857D01*
X97095430Y-89897857D02*
X97337335Y-89837380D01*
X97337335Y-89837380D02*
X97639716Y-89837380D01*
X97639716Y-89837380D02*
X97881621Y-89897857D01*
X97881621Y-89897857D02*
X98002573Y-89958333D01*
X98002573Y-89958333D02*
X98063050Y-90018809D01*
X98063050Y-90018809D02*
X98123526Y-90139761D01*
X98123526Y-90139761D02*
X98123526Y-90260714D01*
X98123526Y-90260714D02*
X98063050Y-90381666D01*
X98063050Y-90381666D02*
X98002573Y-90442142D01*
X98002573Y-90442142D02*
X97881621Y-90502619D01*
X97881621Y-90502619D02*
X97639716Y-90563095D01*
X97639716Y-90563095D02*
X97337335Y-90563095D01*
X97337335Y-90563095D02*
X97095430Y-90502619D01*
X97095430Y-90502619D02*
X96974478Y-90442142D01*
X96974478Y-90442142D02*
X96914002Y-90381666D01*
X96914002Y-90381666D02*
X96853526Y-90260714D01*
%TO.C,Qrevpol1*%
X112468478Y-84303809D02*
X112408002Y-84424761D01*
X112408002Y-84424761D02*
X112287050Y-84545714D01*
X112287050Y-84545714D02*
X112105621Y-84727142D01*
X112105621Y-84727142D02*
X112045145Y-84848095D01*
X112045145Y-84848095D02*
X112045145Y-84969047D01*
X112347526Y-84908571D02*
X112287050Y-85029523D01*
X112287050Y-85029523D02*
X112166097Y-85150476D01*
X112166097Y-85150476D02*
X111924192Y-85210952D01*
X111924192Y-85210952D02*
X111500859Y-85210952D01*
X111500859Y-85210952D02*
X111258954Y-85150476D01*
X111258954Y-85150476D02*
X111138002Y-85029523D01*
X111138002Y-85029523D02*
X111077526Y-84908571D01*
X111077526Y-84908571D02*
X111077526Y-84666666D01*
X111077526Y-84666666D02*
X111138002Y-84545714D01*
X111138002Y-84545714D02*
X111258954Y-84424761D01*
X111258954Y-84424761D02*
X111500859Y-84364285D01*
X111500859Y-84364285D02*
X111924192Y-84364285D01*
X111924192Y-84364285D02*
X112166097Y-84424761D01*
X112166097Y-84424761D02*
X112287050Y-84545714D01*
X112287050Y-84545714D02*
X112347526Y-84666666D01*
X112347526Y-84666666D02*
X112347526Y-84908571D01*
X112347526Y-83820000D02*
X111500859Y-83820000D01*
X111742764Y-83820000D02*
X111621811Y-83759523D01*
X111621811Y-83759523D02*
X111561335Y-83699047D01*
X111561335Y-83699047D02*
X111500859Y-83578095D01*
X111500859Y-83578095D02*
X111500859Y-83457142D01*
X112287050Y-82550000D02*
X112347526Y-82670952D01*
X112347526Y-82670952D02*
X112347526Y-82912857D01*
X112347526Y-82912857D02*
X112287050Y-83033810D01*
X112287050Y-83033810D02*
X112166097Y-83094286D01*
X112166097Y-83094286D02*
X111682288Y-83094286D01*
X111682288Y-83094286D02*
X111561335Y-83033810D01*
X111561335Y-83033810D02*
X111500859Y-82912857D01*
X111500859Y-82912857D02*
X111500859Y-82670952D01*
X111500859Y-82670952D02*
X111561335Y-82550000D01*
X111561335Y-82550000D02*
X111682288Y-82489524D01*
X111682288Y-82489524D02*
X111803240Y-82489524D01*
X111803240Y-82489524D02*
X111924192Y-83094286D01*
X111500859Y-82066191D02*
X112347526Y-81763810D01*
X112347526Y-81763810D02*
X111500859Y-81461429D01*
X111500859Y-80977620D02*
X112770859Y-80977620D01*
X111561335Y-80977620D02*
X111500859Y-80856667D01*
X111500859Y-80856667D02*
X111500859Y-80614762D01*
X111500859Y-80614762D02*
X111561335Y-80493810D01*
X111561335Y-80493810D02*
X111621811Y-80433334D01*
X111621811Y-80433334D02*
X111742764Y-80372858D01*
X111742764Y-80372858D02*
X112105621Y-80372858D01*
X112105621Y-80372858D02*
X112226573Y-80433334D01*
X112226573Y-80433334D02*
X112287050Y-80493810D01*
X112287050Y-80493810D02*
X112347526Y-80614762D01*
X112347526Y-80614762D02*
X112347526Y-80856667D01*
X112347526Y-80856667D02*
X112287050Y-80977620D01*
X112347526Y-79647143D02*
X112287050Y-79768095D01*
X112287050Y-79768095D02*
X112226573Y-79828572D01*
X112226573Y-79828572D02*
X112105621Y-79889048D01*
X112105621Y-79889048D02*
X111742764Y-79889048D01*
X111742764Y-79889048D02*
X111621811Y-79828572D01*
X111621811Y-79828572D02*
X111561335Y-79768095D01*
X111561335Y-79768095D02*
X111500859Y-79647143D01*
X111500859Y-79647143D02*
X111500859Y-79465714D01*
X111500859Y-79465714D02*
X111561335Y-79344762D01*
X111561335Y-79344762D02*
X111621811Y-79284286D01*
X111621811Y-79284286D02*
X111742764Y-79223810D01*
X111742764Y-79223810D02*
X112105621Y-79223810D01*
X112105621Y-79223810D02*
X112226573Y-79284286D01*
X112226573Y-79284286D02*
X112287050Y-79344762D01*
X112287050Y-79344762D02*
X112347526Y-79465714D01*
X112347526Y-79465714D02*
X112347526Y-79647143D01*
X112347526Y-78498095D02*
X112287050Y-78619047D01*
X112287050Y-78619047D02*
X112166097Y-78679524D01*
X112166097Y-78679524D02*
X111077526Y-78679524D01*
X112347526Y-77349047D02*
X112347526Y-78074762D01*
X112347526Y-77711905D02*
X111077526Y-77711905D01*
X111077526Y-77711905D02*
X111258954Y-77832857D01*
X111258954Y-77832857D02*
X111379907Y-77953809D01*
X111379907Y-77953809D02*
X111440383Y-78074762D01*
D10*
%TO.C,TP12*%
X145581905Y-73664619D02*
X146153333Y-73664619D01*
X145867619Y-74664619D02*
X145867619Y-73664619D01*
X146486667Y-74664619D02*
X146486667Y-73664619D01*
X146486667Y-73664619D02*
X146867619Y-73664619D01*
X146867619Y-73664619D02*
X146962857Y-73712238D01*
X146962857Y-73712238D02*
X147010476Y-73759857D01*
X147010476Y-73759857D02*
X147058095Y-73855095D01*
X147058095Y-73855095D02*
X147058095Y-73997952D01*
X147058095Y-73997952D02*
X147010476Y-74093190D01*
X147010476Y-74093190D02*
X146962857Y-74140809D01*
X146962857Y-74140809D02*
X146867619Y-74188428D01*
X146867619Y-74188428D02*
X146486667Y-74188428D01*
X148010476Y-74664619D02*
X147439048Y-74664619D01*
X147724762Y-74664619D02*
X147724762Y-73664619D01*
X147724762Y-73664619D02*
X147629524Y-73807476D01*
X147629524Y-73807476D02*
X147534286Y-73902714D01*
X147534286Y-73902714D02*
X147439048Y-73950333D01*
X148391429Y-73759857D02*
X148439048Y-73712238D01*
X148439048Y-73712238D02*
X148534286Y-73664619D01*
X148534286Y-73664619D02*
X148772381Y-73664619D01*
X148772381Y-73664619D02*
X148867619Y-73712238D01*
X148867619Y-73712238D02*
X148915238Y-73759857D01*
X148915238Y-73759857D02*
X148962857Y-73855095D01*
X148962857Y-73855095D02*
X148962857Y-73950333D01*
X148962857Y-73950333D02*
X148915238Y-74093190D01*
X148915238Y-74093190D02*
X148343810Y-74664619D01*
X148343810Y-74664619D02*
X148962857Y-74664619D01*
D11*
%TO.C,C9*%
X96986573Y-124671666D02*
X97047050Y-124732142D01*
X97047050Y-124732142D02*
X97107526Y-124913571D01*
X97107526Y-124913571D02*
X97107526Y-125034523D01*
X97107526Y-125034523D02*
X97047050Y-125215952D01*
X97047050Y-125215952D02*
X96926097Y-125336904D01*
X96926097Y-125336904D02*
X96805145Y-125397381D01*
X96805145Y-125397381D02*
X96563240Y-125457857D01*
X96563240Y-125457857D02*
X96381811Y-125457857D01*
X96381811Y-125457857D02*
X96139907Y-125397381D01*
X96139907Y-125397381D02*
X96018954Y-125336904D01*
X96018954Y-125336904D02*
X95898002Y-125215952D01*
X95898002Y-125215952D02*
X95837526Y-125034523D01*
X95837526Y-125034523D02*
X95837526Y-124913571D01*
X95837526Y-124913571D02*
X95898002Y-124732142D01*
X95898002Y-124732142D02*
X95958478Y-124671666D01*
X97107526Y-124066904D02*
X97107526Y-123825000D01*
X97107526Y-123825000D02*
X97047050Y-123704047D01*
X97047050Y-123704047D02*
X96986573Y-123643571D01*
X96986573Y-123643571D02*
X96805145Y-123522619D01*
X96805145Y-123522619D02*
X96563240Y-123462142D01*
X96563240Y-123462142D02*
X96079430Y-123462142D01*
X96079430Y-123462142D02*
X95958478Y-123522619D01*
X95958478Y-123522619D02*
X95898002Y-123583095D01*
X95898002Y-123583095D02*
X95837526Y-123704047D01*
X95837526Y-123704047D02*
X95837526Y-123945952D01*
X95837526Y-123945952D02*
X95898002Y-124066904D01*
X95898002Y-124066904D02*
X95958478Y-124127381D01*
X95958478Y-124127381D02*
X96079430Y-124187857D01*
X96079430Y-124187857D02*
X96381811Y-124187857D01*
X96381811Y-124187857D02*
X96502764Y-124127381D01*
X96502764Y-124127381D02*
X96563240Y-124066904D01*
X96563240Y-124066904D02*
X96623716Y-123945952D01*
X96623716Y-123945952D02*
X96623716Y-123704047D01*
X96623716Y-123704047D02*
X96563240Y-123583095D01*
X96563240Y-123583095D02*
X96502764Y-123522619D01*
X96502764Y-123522619D02*
X96381811Y-123462142D01*
D10*
%TO.C,TP11*%
X137961905Y-73664619D02*
X138533333Y-73664619D01*
X138247619Y-74664619D02*
X138247619Y-73664619D01*
X138866667Y-74664619D02*
X138866667Y-73664619D01*
X138866667Y-73664619D02*
X139247619Y-73664619D01*
X139247619Y-73664619D02*
X139342857Y-73712238D01*
X139342857Y-73712238D02*
X139390476Y-73759857D01*
X139390476Y-73759857D02*
X139438095Y-73855095D01*
X139438095Y-73855095D02*
X139438095Y-73997952D01*
X139438095Y-73997952D02*
X139390476Y-74093190D01*
X139390476Y-74093190D02*
X139342857Y-74140809D01*
X139342857Y-74140809D02*
X139247619Y-74188428D01*
X139247619Y-74188428D02*
X138866667Y-74188428D01*
X140390476Y-74664619D02*
X139819048Y-74664619D01*
X140104762Y-74664619D02*
X140104762Y-73664619D01*
X140104762Y-73664619D02*
X140009524Y-73807476D01*
X140009524Y-73807476D02*
X139914286Y-73902714D01*
X139914286Y-73902714D02*
X139819048Y-73950333D01*
X141342857Y-74664619D02*
X140771429Y-74664619D01*
X141057143Y-74664619D02*
X141057143Y-73664619D01*
X141057143Y-73664619D02*
X140961905Y-73807476D01*
X140961905Y-73807476D02*
X140866667Y-73902714D01*
X140866667Y-73902714D02*
X140771429Y-73950333D01*
D11*
%TO.C,C8*%
X96986573Y-127211666D02*
X97047050Y-127272142D01*
X97047050Y-127272142D02*
X97107526Y-127453571D01*
X97107526Y-127453571D02*
X97107526Y-127574523D01*
X97107526Y-127574523D02*
X97047050Y-127755952D01*
X97047050Y-127755952D02*
X96926097Y-127876904D01*
X96926097Y-127876904D02*
X96805145Y-127937381D01*
X96805145Y-127937381D02*
X96563240Y-127997857D01*
X96563240Y-127997857D02*
X96381811Y-127997857D01*
X96381811Y-127997857D02*
X96139907Y-127937381D01*
X96139907Y-127937381D02*
X96018954Y-127876904D01*
X96018954Y-127876904D02*
X95898002Y-127755952D01*
X95898002Y-127755952D02*
X95837526Y-127574523D01*
X95837526Y-127574523D02*
X95837526Y-127453571D01*
X95837526Y-127453571D02*
X95898002Y-127272142D01*
X95898002Y-127272142D02*
X95958478Y-127211666D01*
X96381811Y-126485952D02*
X96321335Y-126606904D01*
X96321335Y-126606904D02*
X96260859Y-126667381D01*
X96260859Y-126667381D02*
X96139907Y-126727857D01*
X96139907Y-126727857D02*
X96079430Y-126727857D01*
X96079430Y-126727857D02*
X95958478Y-126667381D01*
X95958478Y-126667381D02*
X95898002Y-126606904D01*
X95898002Y-126606904D02*
X95837526Y-126485952D01*
X95837526Y-126485952D02*
X95837526Y-126244047D01*
X95837526Y-126244047D02*
X95898002Y-126123095D01*
X95898002Y-126123095D02*
X95958478Y-126062619D01*
X95958478Y-126062619D02*
X96079430Y-126002142D01*
X96079430Y-126002142D02*
X96139907Y-126002142D01*
X96139907Y-126002142D02*
X96260859Y-126062619D01*
X96260859Y-126062619D02*
X96321335Y-126123095D01*
X96321335Y-126123095D02*
X96381811Y-126244047D01*
X96381811Y-126244047D02*
X96381811Y-126485952D01*
X96381811Y-126485952D02*
X96442288Y-126606904D01*
X96442288Y-126606904D02*
X96502764Y-126667381D01*
X96502764Y-126667381D02*
X96623716Y-126727857D01*
X96623716Y-126727857D02*
X96865621Y-126727857D01*
X96865621Y-126727857D02*
X96986573Y-126667381D01*
X96986573Y-126667381D02*
X97047050Y-126606904D01*
X97047050Y-126606904D02*
X97107526Y-126485952D01*
X97107526Y-126485952D02*
X97107526Y-126244047D01*
X97107526Y-126244047D02*
X97047050Y-126123095D01*
X97047050Y-126123095D02*
X96986573Y-126062619D01*
X96986573Y-126062619D02*
X96865621Y-126002142D01*
X96865621Y-126002142D02*
X96623716Y-126002142D01*
X96623716Y-126002142D02*
X96502764Y-126062619D01*
X96502764Y-126062619D02*
X96442288Y-126123095D01*
X96442288Y-126123095D02*
X96381811Y-126244047D01*
%TO.C,C1*%
X140166573Y-108161666D02*
X140227050Y-108222142D01*
X140227050Y-108222142D02*
X140287526Y-108403571D01*
X140287526Y-108403571D02*
X140287526Y-108524523D01*
X140287526Y-108524523D02*
X140227050Y-108705952D01*
X140227050Y-108705952D02*
X140106097Y-108826904D01*
X140106097Y-108826904D02*
X139985145Y-108887381D01*
X139985145Y-108887381D02*
X139743240Y-108947857D01*
X139743240Y-108947857D02*
X139561811Y-108947857D01*
X139561811Y-108947857D02*
X139319907Y-108887381D01*
X139319907Y-108887381D02*
X139198954Y-108826904D01*
X139198954Y-108826904D02*
X139078002Y-108705952D01*
X139078002Y-108705952D02*
X139017526Y-108524523D01*
X139017526Y-108524523D02*
X139017526Y-108403571D01*
X139017526Y-108403571D02*
X139078002Y-108222142D01*
X139078002Y-108222142D02*
X139138478Y-108161666D01*
X140287526Y-106952142D02*
X140287526Y-107677857D01*
X140287526Y-107315000D02*
X139017526Y-107315000D01*
X139017526Y-107315000D02*
X139198954Y-107435952D01*
X139198954Y-107435952D02*
X139319907Y-107556904D01*
X139319907Y-107556904D02*
X139380383Y-107677857D01*
%TO.C,Qrevpol2*%
X85036478Y-125959809D02*
X84976002Y-126080761D01*
X84976002Y-126080761D02*
X84855050Y-126201714D01*
X84855050Y-126201714D02*
X84673621Y-126383142D01*
X84673621Y-126383142D02*
X84613145Y-126504095D01*
X84613145Y-126504095D02*
X84613145Y-126625047D01*
X84915526Y-126564571D02*
X84855050Y-126685523D01*
X84855050Y-126685523D02*
X84734097Y-126806476D01*
X84734097Y-126806476D02*
X84492192Y-126866952D01*
X84492192Y-126866952D02*
X84068859Y-126866952D01*
X84068859Y-126866952D02*
X83826954Y-126806476D01*
X83826954Y-126806476D02*
X83706002Y-126685523D01*
X83706002Y-126685523D02*
X83645526Y-126564571D01*
X83645526Y-126564571D02*
X83645526Y-126322666D01*
X83645526Y-126322666D02*
X83706002Y-126201714D01*
X83706002Y-126201714D02*
X83826954Y-126080761D01*
X83826954Y-126080761D02*
X84068859Y-126020285D01*
X84068859Y-126020285D02*
X84492192Y-126020285D01*
X84492192Y-126020285D02*
X84734097Y-126080761D01*
X84734097Y-126080761D02*
X84855050Y-126201714D01*
X84855050Y-126201714D02*
X84915526Y-126322666D01*
X84915526Y-126322666D02*
X84915526Y-126564571D01*
X84915526Y-125476000D02*
X84068859Y-125476000D01*
X84310764Y-125476000D02*
X84189811Y-125415523D01*
X84189811Y-125415523D02*
X84129335Y-125355047D01*
X84129335Y-125355047D02*
X84068859Y-125234095D01*
X84068859Y-125234095D02*
X84068859Y-125113142D01*
X84855050Y-124206000D02*
X84915526Y-124326952D01*
X84915526Y-124326952D02*
X84915526Y-124568857D01*
X84915526Y-124568857D02*
X84855050Y-124689810D01*
X84855050Y-124689810D02*
X84734097Y-124750286D01*
X84734097Y-124750286D02*
X84250288Y-124750286D01*
X84250288Y-124750286D02*
X84129335Y-124689810D01*
X84129335Y-124689810D02*
X84068859Y-124568857D01*
X84068859Y-124568857D02*
X84068859Y-124326952D01*
X84068859Y-124326952D02*
X84129335Y-124206000D01*
X84129335Y-124206000D02*
X84250288Y-124145524D01*
X84250288Y-124145524D02*
X84371240Y-124145524D01*
X84371240Y-124145524D02*
X84492192Y-124750286D01*
X84068859Y-123722191D02*
X84915526Y-123419810D01*
X84915526Y-123419810D02*
X84068859Y-123117429D01*
X84068859Y-122633620D02*
X85338859Y-122633620D01*
X84129335Y-122633620D02*
X84068859Y-122512667D01*
X84068859Y-122512667D02*
X84068859Y-122270762D01*
X84068859Y-122270762D02*
X84129335Y-122149810D01*
X84129335Y-122149810D02*
X84189811Y-122089334D01*
X84189811Y-122089334D02*
X84310764Y-122028858D01*
X84310764Y-122028858D02*
X84673621Y-122028858D01*
X84673621Y-122028858D02*
X84794573Y-122089334D01*
X84794573Y-122089334D02*
X84855050Y-122149810D01*
X84855050Y-122149810D02*
X84915526Y-122270762D01*
X84915526Y-122270762D02*
X84915526Y-122512667D01*
X84915526Y-122512667D02*
X84855050Y-122633620D01*
X84915526Y-121303143D02*
X84855050Y-121424095D01*
X84855050Y-121424095D02*
X84794573Y-121484572D01*
X84794573Y-121484572D02*
X84673621Y-121545048D01*
X84673621Y-121545048D02*
X84310764Y-121545048D01*
X84310764Y-121545048D02*
X84189811Y-121484572D01*
X84189811Y-121484572D02*
X84129335Y-121424095D01*
X84129335Y-121424095D02*
X84068859Y-121303143D01*
X84068859Y-121303143D02*
X84068859Y-121121714D01*
X84068859Y-121121714D02*
X84129335Y-121000762D01*
X84129335Y-121000762D02*
X84189811Y-120940286D01*
X84189811Y-120940286D02*
X84310764Y-120879810D01*
X84310764Y-120879810D02*
X84673621Y-120879810D01*
X84673621Y-120879810D02*
X84794573Y-120940286D01*
X84794573Y-120940286D02*
X84855050Y-121000762D01*
X84855050Y-121000762D02*
X84915526Y-121121714D01*
X84915526Y-121121714D02*
X84915526Y-121303143D01*
X84915526Y-120154095D02*
X84855050Y-120275047D01*
X84855050Y-120275047D02*
X84734097Y-120335524D01*
X84734097Y-120335524D02*
X83645526Y-120335524D01*
X83766478Y-119730762D02*
X83706002Y-119670286D01*
X83706002Y-119670286D02*
X83645526Y-119549333D01*
X83645526Y-119549333D02*
X83645526Y-119246952D01*
X83645526Y-119246952D02*
X83706002Y-119126000D01*
X83706002Y-119126000D02*
X83766478Y-119065524D01*
X83766478Y-119065524D02*
X83887430Y-119005047D01*
X83887430Y-119005047D02*
X84008383Y-119005047D01*
X84008383Y-119005047D02*
X84189811Y-119065524D01*
X84189811Y-119065524D02*
X84915526Y-119791238D01*
X84915526Y-119791238D02*
X84915526Y-119005047D01*
%TO.C,R2*%
X151463526Y-115527666D02*
X150858764Y-115951000D01*
X151463526Y-116253381D02*
X150193526Y-116253381D01*
X150193526Y-116253381D02*
X150193526Y-115769571D01*
X150193526Y-115769571D02*
X150254002Y-115648619D01*
X150254002Y-115648619D02*
X150314478Y-115588142D01*
X150314478Y-115588142D02*
X150435430Y-115527666D01*
X150435430Y-115527666D02*
X150616859Y-115527666D01*
X150616859Y-115527666D02*
X150737811Y-115588142D01*
X150737811Y-115588142D02*
X150798288Y-115648619D01*
X150798288Y-115648619D02*
X150858764Y-115769571D01*
X150858764Y-115769571D02*
X150858764Y-116253381D01*
X150314478Y-115043857D02*
X150254002Y-114983381D01*
X150254002Y-114983381D02*
X150193526Y-114862428D01*
X150193526Y-114862428D02*
X150193526Y-114560047D01*
X150193526Y-114560047D02*
X150254002Y-114439095D01*
X150254002Y-114439095D02*
X150314478Y-114378619D01*
X150314478Y-114378619D02*
X150435430Y-114318142D01*
X150435430Y-114318142D02*
X150556383Y-114318142D01*
X150556383Y-114318142D02*
X150737811Y-114378619D01*
X150737811Y-114378619D02*
X151463526Y-115104333D01*
X151463526Y-115104333D02*
X151463526Y-114318142D01*
%TO.C,R15*%
X106371571Y-86947526D02*
X105948237Y-86342764D01*
X105645856Y-86947526D02*
X105645856Y-85677526D01*
X105645856Y-85677526D02*
X106129666Y-85677526D01*
X106129666Y-85677526D02*
X106250618Y-85738002D01*
X106250618Y-85738002D02*
X106311095Y-85798478D01*
X106311095Y-85798478D02*
X106371571Y-85919430D01*
X106371571Y-85919430D02*
X106371571Y-86100859D01*
X106371571Y-86100859D02*
X106311095Y-86221811D01*
X106311095Y-86221811D02*
X106250618Y-86282288D01*
X106250618Y-86282288D02*
X106129666Y-86342764D01*
X106129666Y-86342764D02*
X105645856Y-86342764D01*
X107581095Y-86947526D02*
X106855380Y-86947526D01*
X107218237Y-86947526D02*
X107218237Y-85677526D01*
X107218237Y-85677526D02*
X107097285Y-85858954D01*
X107097285Y-85858954D02*
X106976333Y-85979907D01*
X106976333Y-85979907D02*
X106855380Y-86040383D01*
X108730142Y-85677526D02*
X108125380Y-85677526D01*
X108125380Y-85677526D02*
X108064904Y-86282288D01*
X108064904Y-86282288D02*
X108125380Y-86221811D01*
X108125380Y-86221811D02*
X108246333Y-86161335D01*
X108246333Y-86161335D02*
X108548714Y-86161335D01*
X108548714Y-86161335D02*
X108669666Y-86221811D01*
X108669666Y-86221811D02*
X108730142Y-86282288D01*
X108730142Y-86282288D02*
X108790619Y-86403240D01*
X108790619Y-86403240D02*
X108790619Y-86705621D01*
X108790619Y-86705621D02*
X108730142Y-86826573D01*
X108730142Y-86826573D02*
X108669666Y-86887050D01*
X108669666Y-86887050D02*
X108548714Y-86947526D01*
X108548714Y-86947526D02*
X108246333Y-86947526D01*
X108246333Y-86947526D02*
X108125380Y-86887050D01*
X108125380Y-86887050D02*
X108064904Y-86826573D01*
%TO.C,R17*%
X94113571Y-117935526D02*
X93690237Y-117330764D01*
X93387856Y-117935526D02*
X93387856Y-116665526D01*
X93387856Y-116665526D02*
X93871666Y-116665526D01*
X93871666Y-116665526D02*
X93992618Y-116726002D01*
X93992618Y-116726002D02*
X94053095Y-116786478D01*
X94053095Y-116786478D02*
X94113571Y-116907430D01*
X94113571Y-116907430D02*
X94113571Y-117088859D01*
X94113571Y-117088859D02*
X94053095Y-117209811D01*
X94053095Y-117209811D02*
X93992618Y-117270288D01*
X93992618Y-117270288D02*
X93871666Y-117330764D01*
X93871666Y-117330764D02*
X93387856Y-117330764D01*
X95323095Y-117935526D02*
X94597380Y-117935526D01*
X94960237Y-117935526D02*
X94960237Y-116665526D01*
X94960237Y-116665526D02*
X94839285Y-116846954D01*
X94839285Y-116846954D02*
X94718333Y-116967907D01*
X94718333Y-116967907D02*
X94597380Y-117028383D01*
X95746428Y-116665526D02*
X96593095Y-116665526D01*
X96593095Y-116665526D02*
X96048809Y-117935526D01*
D10*
%TO.C,U4*%
X123578095Y-99012619D02*
X123578095Y-99822142D01*
X123578095Y-99822142D02*
X123625714Y-99917380D01*
X123625714Y-99917380D02*
X123673333Y-99965000D01*
X123673333Y-99965000D02*
X123768571Y-100012619D01*
X123768571Y-100012619D02*
X123959047Y-100012619D01*
X123959047Y-100012619D02*
X124054285Y-99965000D01*
X124054285Y-99965000D02*
X124101904Y-99917380D01*
X124101904Y-99917380D02*
X124149523Y-99822142D01*
X124149523Y-99822142D02*
X124149523Y-99012619D01*
X125054285Y-99345952D02*
X125054285Y-100012619D01*
X124816190Y-98965000D02*
X124578095Y-99679285D01*
X124578095Y-99679285D02*
X125197142Y-99679285D01*
%TO.C,TP16*%
X84621905Y-88904619D02*
X85193333Y-88904619D01*
X84907619Y-89904619D02*
X84907619Y-88904619D01*
X85526667Y-89904619D02*
X85526667Y-88904619D01*
X85526667Y-88904619D02*
X85907619Y-88904619D01*
X85907619Y-88904619D02*
X86002857Y-88952238D01*
X86002857Y-88952238D02*
X86050476Y-88999857D01*
X86050476Y-88999857D02*
X86098095Y-89095095D01*
X86098095Y-89095095D02*
X86098095Y-89237952D01*
X86098095Y-89237952D02*
X86050476Y-89333190D01*
X86050476Y-89333190D02*
X86002857Y-89380809D01*
X86002857Y-89380809D02*
X85907619Y-89428428D01*
X85907619Y-89428428D02*
X85526667Y-89428428D01*
X87050476Y-89904619D02*
X86479048Y-89904619D01*
X86764762Y-89904619D02*
X86764762Y-88904619D01*
X86764762Y-88904619D02*
X86669524Y-89047476D01*
X86669524Y-89047476D02*
X86574286Y-89142714D01*
X86574286Y-89142714D02*
X86479048Y-89190333D01*
X87907619Y-88904619D02*
X87717143Y-88904619D01*
X87717143Y-88904619D02*
X87621905Y-88952238D01*
X87621905Y-88952238D02*
X87574286Y-88999857D01*
X87574286Y-88999857D02*
X87479048Y-89142714D01*
X87479048Y-89142714D02*
X87431429Y-89333190D01*
X87431429Y-89333190D02*
X87431429Y-89714142D01*
X87431429Y-89714142D02*
X87479048Y-89809380D01*
X87479048Y-89809380D02*
X87526667Y-89857000D01*
X87526667Y-89857000D02*
X87621905Y-89904619D01*
X87621905Y-89904619D02*
X87812381Y-89904619D01*
X87812381Y-89904619D02*
X87907619Y-89857000D01*
X87907619Y-89857000D02*
X87955238Y-89809380D01*
X87955238Y-89809380D02*
X88002857Y-89714142D01*
X88002857Y-89714142D02*
X88002857Y-89476047D01*
X88002857Y-89476047D02*
X87955238Y-89380809D01*
X87955238Y-89380809D02*
X87907619Y-89333190D01*
X87907619Y-89333190D02*
X87812381Y-89285571D01*
X87812381Y-89285571D02*
X87621905Y-89285571D01*
X87621905Y-89285571D02*
X87526667Y-89333190D01*
X87526667Y-89333190D02*
X87479048Y-89380809D01*
X87479048Y-89380809D02*
X87431429Y-89476047D01*
%TO.C,R11*%
X136606619Y-120367857D02*
X136130428Y-120701190D01*
X136606619Y-120939285D02*
X135606619Y-120939285D01*
X135606619Y-120939285D02*
X135606619Y-120558333D01*
X135606619Y-120558333D02*
X135654238Y-120463095D01*
X135654238Y-120463095D02*
X135701857Y-120415476D01*
X135701857Y-120415476D02*
X135797095Y-120367857D01*
X135797095Y-120367857D02*
X135939952Y-120367857D01*
X135939952Y-120367857D02*
X136035190Y-120415476D01*
X136035190Y-120415476D02*
X136082809Y-120463095D01*
X136082809Y-120463095D02*
X136130428Y-120558333D01*
X136130428Y-120558333D02*
X136130428Y-120939285D01*
X136606619Y-119415476D02*
X136606619Y-119986904D01*
X136606619Y-119701190D02*
X135606619Y-119701190D01*
X135606619Y-119701190D02*
X135749476Y-119796428D01*
X135749476Y-119796428D02*
X135844714Y-119891666D01*
X135844714Y-119891666D02*
X135892333Y-119986904D01*
X136606619Y-118463095D02*
X136606619Y-119034523D01*
X136606619Y-118748809D02*
X135606619Y-118748809D01*
X135606619Y-118748809D02*
X135749476Y-118844047D01*
X135749476Y-118844047D02*
X135844714Y-118939285D01*
X135844714Y-118939285D02*
X135892333Y-119034523D01*
%TO.C,TP7*%
X157484619Y-113021904D02*
X157484619Y-112450476D01*
X158484619Y-112736190D02*
X157484619Y-112736190D01*
X158484619Y-112117142D02*
X157484619Y-112117142D01*
X157484619Y-112117142D02*
X157484619Y-111736190D01*
X157484619Y-111736190D02*
X157532238Y-111640952D01*
X157532238Y-111640952D02*
X157579857Y-111593333D01*
X157579857Y-111593333D02*
X157675095Y-111545714D01*
X157675095Y-111545714D02*
X157817952Y-111545714D01*
X157817952Y-111545714D02*
X157913190Y-111593333D01*
X157913190Y-111593333D02*
X157960809Y-111640952D01*
X157960809Y-111640952D02*
X158008428Y-111736190D01*
X158008428Y-111736190D02*
X158008428Y-112117142D01*
X157484619Y-111212380D02*
X157484619Y-110545714D01*
X157484619Y-110545714D02*
X158484619Y-110974285D01*
D11*
%TO.C,C2*%
X119676333Y-115782573D02*
X119615857Y-115843050D01*
X119615857Y-115843050D02*
X119434428Y-115903526D01*
X119434428Y-115903526D02*
X119313476Y-115903526D01*
X119313476Y-115903526D02*
X119132047Y-115843050D01*
X119132047Y-115843050D02*
X119011095Y-115722097D01*
X119011095Y-115722097D02*
X118950618Y-115601145D01*
X118950618Y-115601145D02*
X118890142Y-115359240D01*
X118890142Y-115359240D02*
X118890142Y-115177811D01*
X118890142Y-115177811D02*
X118950618Y-114935907D01*
X118950618Y-114935907D02*
X119011095Y-114814954D01*
X119011095Y-114814954D02*
X119132047Y-114694002D01*
X119132047Y-114694002D02*
X119313476Y-114633526D01*
X119313476Y-114633526D02*
X119434428Y-114633526D01*
X119434428Y-114633526D02*
X119615857Y-114694002D01*
X119615857Y-114694002D02*
X119676333Y-114754478D01*
X120160142Y-114754478D02*
X120220618Y-114694002D01*
X120220618Y-114694002D02*
X120341571Y-114633526D01*
X120341571Y-114633526D02*
X120643952Y-114633526D01*
X120643952Y-114633526D02*
X120764904Y-114694002D01*
X120764904Y-114694002D02*
X120825380Y-114754478D01*
X120825380Y-114754478D02*
X120885857Y-114875430D01*
X120885857Y-114875430D02*
X120885857Y-114996383D01*
X120885857Y-114996383D02*
X120825380Y-115177811D01*
X120825380Y-115177811D02*
X120099666Y-115903526D01*
X120099666Y-115903526D02*
X120885857Y-115903526D01*
D10*
%TO.C,TP10*%
X136437905Y-113762619D02*
X137009333Y-113762619D01*
X136723619Y-114762619D02*
X136723619Y-113762619D01*
X137342667Y-114762619D02*
X137342667Y-113762619D01*
X137342667Y-113762619D02*
X137723619Y-113762619D01*
X137723619Y-113762619D02*
X137818857Y-113810238D01*
X137818857Y-113810238D02*
X137866476Y-113857857D01*
X137866476Y-113857857D02*
X137914095Y-113953095D01*
X137914095Y-113953095D02*
X137914095Y-114095952D01*
X137914095Y-114095952D02*
X137866476Y-114191190D01*
X137866476Y-114191190D02*
X137818857Y-114238809D01*
X137818857Y-114238809D02*
X137723619Y-114286428D01*
X137723619Y-114286428D02*
X137342667Y-114286428D01*
X138866476Y-114762619D02*
X138295048Y-114762619D01*
X138580762Y-114762619D02*
X138580762Y-113762619D01*
X138580762Y-113762619D02*
X138485524Y-113905476D01*
X138485524Y-113905476D02*
X138390286Y-114000714D01*
X138390286Y-114000714D02*
X138295048Y-114048333D01*
X139485524Y-113762619D02*
X139580762Y-113762619D01*
X139580762Y-113762619D02*
X139676000Y-113810238D01*
X139676000Y-113810238D02*
X139723619Y-113857857D01*
X139723619Y-113857857D02*
X139771238Y-113953095D01*
X139771238Y-113953095D02*
X139818857Y-114143571D01*
X139818857Y-114143571D02*
X139818857Y-114381666D01*
X139818857Y-114381666D02*
X139771238Y-114572142D01*
X139771238Y-114572142D02*
X139723619Y-114667380D01*
X139723619Y-114667380D02*
X139676000Y-114715000D01*
X139676000Y-114715000D02*
X139580762Y-114762619D01*
X139580762Y-114762619D02*
X139485524Y-114762619D01*
X139485524Y-114762619D02*
X139390286Y-114715000D01*
X139390286Y-114715000D02*
X139342667Y-114667380D01*
X139342667Y-114667380D02*
X139295048Y-114572142D01*
X139295048Y-114572142D02*
X139247429Y-114381666D01*
X139247429Y-114381666D02*
X139247429Y-114143571D01*
X139247429Y-114143571D02*
X139295048Y-113953095D01*
X139295048Y-113953095D02*
X139342667Y-113857857D01*
X139342667Y-113857857D02*
X139390286Y-113810238D01*
X139390286Y-113810238D02*
X139485524Y-113762619D01*
D11*
%TO.C,C4*%
X159098333Y-105114573D02*
X159037857Y-105175050D01*
X159037857Y-105175050D02*
X158856428Y-105235526D01*
X158856428Y-105235526D02*
X158735476Y-105235526D01*
X158735476Y-105235526D02*
X158554047Y-105175050D01*
X158554047Y-105175050D02*
X158433095Y-105054097D01*
X158433095Y-105054097D02*
X158372618Y-104933145D01*
X158372618Y-104933145D02*
X158312142Y-104691240D01*
X158312142Y-104691240D02*
X158312142Y-104509811D01*
X158312142Y-104509811D02*
X158372618Y-104267907D01*
X158372618Y-104267907D02*
X158433095Y-104146954D01*
X158433095Y-104146954D02*
X158554047Y-104026002D01*
X158554047Y-104026002D02*
X158735476Y-103965526D01*
X158735476Y-103965526D02*
X158856428Y-103965526D01*
X158856428Y-103965526D02*
X159037857Y-104026002D01*
X159037857Y-104026002D02*
X159098333Y-104086478D01*
X160186904Y-104388859D02*
X160186904Y-105235526D01*
X159884523Y-103905050D02*
X159582142Y-104812192D01*
X159582142Y-104812192D02*
X160368333Y-104812192D01*
D10*
%TO.C,Q1*%
X121517857Y-82275238D02*
X121470238Y-82370476D01*
X121470238Y-82370476D02*
X121375000Y-82465714D01*
X121375000Y-82465714D02*
X121232142Y-82608571D01*
X121232142Y-82608571D02*
X121184523Y-82703809D01*
X121184523Y-82703809D02*
X121184523Y-82799047D01*
X121422619Y-82751428D02*
X121375000Y-82846666D01*
X121375000Y-82846666D02*
X121279761Y-82941904D01*
X121279761Y-82941904D02*
X121089285Y-82989523D01*
X121089285Y-82989523D02*
X120755952Y-82989523D01*
X120755952Y-82989523D02*
X120565476Y-82941904D01*
X120565476Y-82941904D02*
X120470238Y-82846666D01*
X120470238Y-82846666D02*
X120422619Y-82751428D01*
X120422619Y-82751428D02*
X120422619Y-82560952D01*
X120422619Y-82560952D02*
X120470238Y-82465714D01*
X120470238Y-82465714D02*
X120565476Y-82370476D01*
X120565476Y-82370476D02*
X120755952Y-82322857D01*
X120755952Y-82322857D02*
X121089285Y-82322857D01*
X121089285Y-82322857D02*
X121279761Y-82370476D01*
X121279761Y-82370476D02*
X121375000Y-82465714D01*
X121375000Y-82465714D02*
X121422619Y-82560952D01*
X121422619Y-82560952D02*
X121422619Y-82751428D01*
X121422619Y-81370476D02*
X121422619Y-81941904D01*
X121422619Y-81656190D02*
X120422619Y-81656190D01*
X120422619Y-81656190D02*
X120565476Y-81751428D01*
X120565476Y-81751428D02*
X120660714Y-81846666D01*
X120660714Y-81846666D02*
X120708333Y-81941904D01*
%TO.C,TP15*%
X88685905Y-75154619D02*
X89257333Y-75154619D01*
X88971619Y-76154619D02*
X88971619Y-75154619D01*
X89590667Y-76154619D02*
X89590667Y-75154619D01*
X89590667Y-75154619D02*
X89971619Y-75154619D01*
X89971619Y-75154619D02*
X90066857Y-75202238D01*
X90066857Y-75202238D02*
X90114476Y-75249857D01*
X90114476Y-75249857D02*
X90162095Y-75345095D01*
X90162095Y-75345095D02*
X90162095Y-75487952D01*
X90162095Y-75487952D02*
X90114476Y-75583190D01*
X90114476Y-75583190D02*
X90066857Y-75630809D01*
X90066857Y-75630809D02*
X89971619Y-75678428D01*
X89971619Y-75678428D02*
X89590667Y-75678428D01*
X91114476Y-76154619D02*
X90543048Y-76154619D01*
X90828762Y-76154619D02*
X90828762Y-75154619D01*
X90828762Y-75154619D02*
X90733524Y-75297476D01*
X90733524Y-75297476D02*
X90638286Y-75392714D01*
X90638286Y-75392714D02*
X90543048Y-75440333D01*
X92019238Y-75154619D02*
X91543048Y-75154619D01*
X91543048Y-75154619D02*
X91495429Y-75630809D01*
X91495429Y-75630809D02*
X91543048Y-75583190D01*
X91543048Y-75583190D02*
X91638286Y-75535571D01*
X91638286Y-75535571D02*
X91876381Y-75535571D01*
X91876381Y-75535571D02*
X91971619Y-75583190D01*
X91971619Y-75583190D02*
X92019238Y-75630809D01*
X92019238Y-75630809D02*
X92066857Y-75726047D01*
X92066857Y-75726047D02*
X92066857Y-75964142D01*
X92066857Y-75964142D02*
X92019238Y-76059380D01*
X92019238Y-76059380D02*
X91971619Y-76107000D01*
X91971619Y-76107000D02*
X91876381Y-76154619D01*
X91876381Y-76154619D02*
X91638286Y-76154619D01*
X91638286Y-76154619D02*
X91543048Y-76107000D01*
X91543048Y-76107000D02*
X91495429Y-76059380D01*
D11*
%TO.C,U1*%
X100632380Y-123777526D02*
X100632380Y-124805621D01*
X100632380Y-124805621D02*
X100692857Y-124926573D01*
X100692857Y-124926573D02*
X100753333Y-124987050D01*
X100753333Y-124987050D02*
X100874285Y-125047526D01*
X100874285Y-125047526D02*
X101116190Y-125047526D01*
X101116190Y-125047526D02*
X101237142Y-124987050D01*
X101237142Y-124987050D02*
X101297619Y-124926573D01*
X101297619Y-124926573D02*
X101358095Y-124805621D01*
X101358095Y-124805621D02*
X101358095Y-123777526D01*
X102628095Y-125047526D02*
X101902380Y-125047526D01*
X102265237Y-125047526D02*
X102265237Y-123777526D01*
X102265237Y-123777526D02*
X102144285Y-123958954D01*
X102144285Y-123958954D02*
X102023333Y-124079907D01*
X102023333Y-124079907D02*
X101902380Y-124140383D01*
D10*
%TO.C,D2*%
X145057905Y-125430619D02*
X145057905Y-124430619D01*
X145057905Y-124430619D02*
X145296000Y-124430619D01*
X145296000Y-124430619D02*
X145438857Y-124478238D01*
X145438857Y-124478238D02*
X145534095Y-124573476D01*
X145534095Y-124573476D02*
X145581714Y-124668714D01*
X145581714Y-124668714D02*
X145629333Y-124859190D01*
X145629333Y-124859190D02*
X145629333Y-125002047D01*
X145629333Y-125002047D02*
X145581714Y-125192523D01*
X145581714Y-125192523D02*
X145534095Y-125287761D01*
X145534095Y-125287761D02*
X145438857Y-125383000D01*
X145438857Y-125383000D02*
X145296000Y-125430619D01*
X145296000Y-125430619D02*
X145057905Y-125430619D01*
X146010286Y-124525857D02*
X146057905Y-124478238D01*
X146057905Y-124478238D02*
X146153143Y-124430619D01*
X146153143Y-124430619D02*
X146391238Y-124430619D01*
X146391238Y-124430619D02*
X146486476Y-124478238D01*
X146486476Y-124478238D02*
X146534095Y-124525857D01*
X146534095Y-124525857D02*
X146581714Y-124621095D01*
X146581714Y-124621095D02*
X146581714Y-124716333D01*
X146581714Y-124716333D02*
X146534095Y-124859190D01*
X146534095Y-124859190D02*
X145962667Y-125430619D01*
X145962667Y-125430619D02*
X146581714Y-125430619D01*
%TO.C,TP1*%
X136914095Y-98048619D02*
X137485523Y-98048619D01*
X137199809Y-99048619D02*
X137199809Y-98048619D01*
X137818857Y-99048619D02*
X137818857Y-98048619D01*
X137818857Y-98048619D02*
X138199809Y-98048619D01*
X138199809Y-98048619D02*
X138295047Y-98096238D01*
X138295047Y-98096238D02*
X138342666Y-98143857D01*
X138342666Y-98143857D02*
X138390285Y-98239095D01*
X138390285Y-98239095D02*
X138390285Y-98381952D01*
X138390285Y-98381952D02*
X138342666Y-98477190D01*
X138342666Y-98477190D02*
X138295047Y-98524809D01*
X138295047Y-98524809D02*
X138199809Y-98572428D01*
X138199809Y-98572428D02*
X137818857Y-98572428D01*
X139342666Y-99048619D02*
X138771238Y-99048619D01*
X139056952Y-99048619D02*
X139056952Y-98048619D01*
X139056952Y-98048619D02*
X138961714Y-98191476D01*
X138961714Y-98191476D02*
X138866476Y-98286714D01*
X138866476Y-98286714D02*
X138771238Y-98334333D01*
%TO.C,TP17*%
X122205905Y-92686619D02*
X122777333Y-92686619D01*
X122491619Y-93686619D02*
X122491619Y-92686619D01*
X123110667Y-93686619D02*
X123110667Y-92686619D01*
X123110667Y-92686619D02*
X123491619Y-92686619D01*
X123491619Y-92686619D02*
X123586857Y-92734238D01*
X123586857Y-92734238D02*
X123634476Y-92781857D01*
X123634476Y-92781857D02*
X123682095Y-92877095D01*
X123682095Y-92877095D02*
X123682095Y-93019952D01*
X123682095Y-93019952D02*
X123634476Y-93115190D01*
X123634476Y-93115190D02*
X123586857Y-93162809D01*
X123586857Y-93162809D02*
X123491619Y-93210428D01*
X123491619Y-93210428D02*
X123110667Y-93210428D01*
X124634476Y-93686619D02*
X124063048Y-93686619D01*
X124348762Y-93686619D02*
X124348762Y-92686619D01*
X124348762Y-92686619D02*
X124253524Y-92829476D01*
X124253524Y-92829476D02*
X124158286Y-92924714D01*
X124158286Y-92924714D02*
X124063048Y-92972333D01*
X124967810Y-92686619D02*
X125634476Y-92686619D01*
X125634476Y-92686619D02*
X125205905Y-93686619D01*
D12*
%TO.C,P1*%
X159789905Y-82766619D02*
X159789905Y-81766619D01*
X159789905Y-81766619D02*
X160170857Y-81766619D01*
X160170857Y-81766619D02*
X160266095Y-81814238D01*
X160266095Y-81814238D02*
X160313714Y-81861857D01*
X160313714Y-81861857D02*
X160361333Y-81957095D01*
X160361333Y-81957095D02*
X160361333Y-82099952D01*
X160361333Y-82099952D02*
X160313714Y-82195190D01*
X160313714Y-82195190D02*
X160266095Y-82242809D01*
X160266095Y-82242809D02*
X160170857Y-82290428D01*
X160170857Y-82290428D02*
X159789905Y-82290428D01*
X161313714Y-82766619D02*
X160742286Y-82766619D01*
X161028000Y-82766619D02*
X161028000Y-81766619D01*
X161028000Y-81766619D02*
X160932762Y-81909476D01*
X160932762Y-81909476D02*
X160837524Y-82004714D01*
X160837524Y-82004714D02*
X160742286Y-82052333D01*
D10*
%TO.C,TP2*%
X140978095Y-130018619D02*
X141549523Y-130018619D01*
X141263809Y-131018619D02*
X141263809Y-130018619D01*
X141882857Y-131018619D02*
X141882857Y-130018619D01*
X141882857Y-130018619D02*
X142263809Y-130018619D01*
X142263809Y-130018619D02*
X142359047Y-130066238D01*
X142359047Y-130066238D02*
X142406666Y-130113857D01*
X142406666Y-130113857D02*
X142454285Y-130209095D01*
X142454285Y-130209095D02*
X142454285Y-130351952D01*
X142454285Y-130351952D02*
X142406666Y-130447190D01*
X142406666Y-130447190D02*
X142359047Y-130494809D01*
X142359047Y-130494809D02*
X142263809Y-130542428D01*
X142263809Y-130542428D02*
X141882857Y-130542428D01*
X142835238Y-130113857D02*
X142882857Y-130066238D01*
X142882857Y-130066238D02*
X142978095Y-130018619D01*
X142978095Y-130018619D02*
X143216190Y-130018619D01*
X143216190Y-130018619D02*
X143311428Y-130066238D01*
X143311428Y-130066238D02*
X143359047Y-130113857D01*
X143359047Y-130113857D02*
X143406666Y-130209095D01*
X143406666Y-130209095D02*
X143406666Y-130304333D01*
X143406666Y-130304333D02*
X143359047Y-130447190D01*
X143359047Y-130447190D02*
X142787619Y-131018619D01*
X142787619Y-131018619D02*
X143406666Y-131018619D01*
D11*
%TO.C,R4*%
X103928333Y-79835526D02*
X103504999Y-79230764D01*
X103202618Y-79835526D02*
X103202618Y-78565526D01*
X103202618Y-78565526D02*
X103686428Y-78565526D01*
X103686428Y-78565526D02*
X103807380Y-78626002D01*
X103807380Y-78626002D02*
X103867857Y-78686478D01*
X103867857Y-78686478D02*
X103928333Y-78807430D01*
X103928333Y-78807430D02*
X103928333Y-78988859D01*
X103928333Y-78988859D02*
X103867857Y-79109811D01*
X103867857Y-79109811D02*
X103807380Y-79170288D01*
X103807380Y-79170288D02*
X103686428Y-79230764D01*
X103686428Y-79230764D02*
X103202618Y-79230764D01*
X105016904Y-78988859D02*
X105016904Y-79835526D01*
X104714523Y-78505050D02*
X104412142Y-79412192D01*
X104412142Y-79412192D02*
X105198333Y-79412192D01*
%TO.C,R7*%
X84915526Y-117051666D02*
X84310764Y-117475000D01*
X84915526Y-117777381D02*
X83645526Y-117777381D01*
X83645526Y-117777381D02*
X83645526Y-117293571D01*
X83645526Y-117293571D02*
X83706002Y-117172619D01*
X83706002Y-117172619D02*
X83766478Y-117112142D01*
X83766478Y-117112142D02*
X83887430Y-117051666D01*
X83887430Y-117051666D02*
X84068859Y-117051666D01*
X84068859Y-117051666D02*
X84189811Y-117112142D01*
X84189811Y-117112142D02*
X84250288Y-117172619D01*
X84250288Y-117172619D02*
X84310764Y-117293571D01*
X84310764Y-117293571D02*
X84310764Y-117777381D01*
X83645526Y-116628333D02*
X83645526Y-115781666D01*
X83645526Y-115781666D02*
X84915526Y-116325952D01*
D10*
%TO.C,IC1*%
X138962619Y-83006189D02*
X137962619Y-83006189D01*
X138867380Y-81958571D02*
X138915000Y-82006190D01*
X138915000Y-82006190D02*
X138962619Y-82149047D01*
X138962619Y-82149047D02*
X138962619Y-82244285D01*
X138962619Y-82244285D02*
X138915000Y-82387142D01*
X138915000Y-82387142D02*
X138819761Y-82482380D01*
X138819761Y-82482380D02*
X138724523Y-82529999D01*
X138724523Y-82529999D02*
X138534047Y-82577618D01*
X138534047Y-82577618D02*
X138391190Y-82577618D01*
X138391190Y-82577618D02*
X138200714Y-82529999D01*
X138200714Y-82529999D02*
X138105476Y-82482380D01*
X138105476Y-82482380D02*
X138010238Y-82387142D01*
X138010238Y-82387142D02*
X137962619Y-82244285D01*
X137962619Y-82244285D02*
X137962619Y-82149047D01*
X137962619Y-82149047D02*
X138010238Y-82006190D01*
X138010238Y-82006190D02*
X138057857Y-81958571D01*
X138962619Y-81006190D02*
X138962619Y-81577618D01*
X138962619Y-81291904D02*
X137962619Y-81291904D01*
X137962619Y-81291904D02*
X138105476Y-81387142D01*
X138105476Y-81387142D02*
X138200714Y-81482380D01*
X138200714Y-81482380D02*
X138248333Y-81577618D01*
D11*
%TO.C,C11*%
X101050573Y-92256428D02*
X101111050Y-92316904D01*
X101111050Y-92316904D02*
X101171526Y-92498333D01*
X101171526Y-92498333D02*
X101171526Y-92619285D01*
X101171526Y-92619285D02*
X101111050Y-92800714D01*
X101111050Y-92800714D02*
X100990097Y-92921666D01*
X100990097Y-92921666D02*
X100869145Y-92982143D01*
X100869145Y-92982143D02*
X100627240Y-93042619D01*
X100627240Y-93042619D02*
X100445811Y-93042619D01*
X100445811Y-93042619D02*
X100203907Y-92982143D01*
X100203907Y-92982143D02*
X100082954Y-92921666D01*
X100082954Y-92921666D02*
X99962002Y-92800714D01*
X99962002Y-92800714D02*
X99901526Y-92619285D01*
X99901526Y-92619285D02*
X99901526Y-92498333D01*
X99901526Y-92498333D02*
X99962002Y-92316904D01*
X99962002Y-92316904D02*
X100022478Y-92256428D01*
X101171526Y-91046904D02*
X101171526Y-91772619D01*
X101171526Y-91409762D02*
X99901526Y-91409762D01*
X99901526Y-91409762D02*
X100082954Y-91530714D01*
X100082954Y-91530714D02*
X100203907Y-91651666D01*
X100203907Y-91651666D02*
X100264383Y-91772619D01*
X101171526Y-89837380D02*
X101171526Y-90563095D01*
X101171526Y-90200238D02*
X99901526Y-90200238D01*
X99901526Y-90200238D02*
X100082954Y-90321190D01*
X100082954Y-90321190D02*
X100203907Y-90442142D01*
X100203907Y-90442142D02*
X100264383Y-90563095D01*
%TO.C,J2*%
X96096667Y-85677526D02*
X96096667Y-86584669D01*
X96096667Y-86584669D02*
X96036190Y-86766097D01*
X96036190Y-86766097D02*
X95915238Y-86887050D01*
X95915238Y-86887050D02*
X95733809Y-86947526D01*
X95733809Y-86947526D02*
X95612857Y-86947526D01*
X96640952Y-85798478D02*
X96701428Y-85738002D01*
X96701428Y-85738002D02*
X96822381Y-85677526D01*
X96822381Y-85677526D02*
X97124762Y-85677526D01*
X97124762Y-85677526D02*
X97245714Y-85738002D01*
X97245714Y-85738002D02*
X97306190Y-85798478D01*
X97306190Y-85798478D02*
X97366667Y-85919430D01*
X97366667Y-85919430D02*
X97366667Y-86040383D01*
X97366667Y-86040383D02*
X97306190Y-86221811D01*
X97306190Y-86221811D02*
X96580476Y-86947526D01*
X96580476Y-86947526D02*
X97366667Y-86947526D01*
%TO.C,R6*%
X151680333Y-107775526D02*
X151256999Y-107170764D01*
X150954618Y-107775526D02*
X150954618Y-106505526D01*
X150954618Y-106505526D02*
X151438428Y-106505526D01*
X151438428Y-106505526D02*
X151559380Y-106566002D01*
X151559380Y-106566002D02*
X151619857Y-106626478D01*
X151619857Y-106626478D02*
X151680333Y-106747430D01*
X151680333Y-106747430D02*
X151680333Y-106928859D01*
X151680333Y-106928859D02*
X151619857Y-107049811D01*
X151619857Y-107049811D02*
X151559380Y-107110288D01*
X151559380Y-107110288D02*
X151438428Y-107170764D01*
X151438428Y-107170764D02*
X150954618Y-107170764D01*
X152768904Y-106505526D02*
X152526999Y-106505526D01*
X152526999Y-106505526D02*
X152406047Y-106566002D01*
X152406047Y-106566002D02*
X152345571Y-106626478D01*
X152345571Y-106626478D02*
X152224618Y-106807907D01*
X152224618Y-106807907D02*
X152164142Y-107049811D01*
X152164142Y-107049811D02*
X152164142Y-107533621D01*
X152164142Y-107533621D02*
X152224618Y-107654573D01*
X152224618Y-107654573D02*
X152285095Y-107715050D01*
X152285095Y-107715050D02*
X152406047Y-107775526D01*
X152406047Y-107775526D02*
X152647952Y-107775526D01*
X152647952Y-107775526D02*
X152768904Y-107715050D01*
X152768904Y-107715050D02*
X152829380Y-107654573D01*
X152829380Y-107654573D02*
X152889857Y-107533621D01*
X152889857Y-107533621D02*
X152889857Y-107231240D01*
X152889857Y-107231240D02*
X152829380Y-107110288D01*
X152829380Y-107110288D02*
X152768904Y-107049811D01*
X152768904Y-107049811D02*
X152647952Y-106989335D01*
X152647952Y-106989335D02*
X152406047Y-106989335D01*
X152406047Y-106989335D02*
X152285095Y-107049811D01*
X152285095Y-107049811D02*
X152224618Y-107110288D01*
X152224618Y-107110288D02*
X152164142Y-107231240D01*
%TO.C,C3*%
X107686333Y-91398573D02*
X107625857Y-91459050D01*
X107625857Y-91459050D02*
X107444428Y-91519526D01*
X107444428Y-91519526D02*
X107323476Y-91519526D01*
X107323476Y-91519526D02*
X107142047Y-91459050D01*
X107142047Y-91459050D02*
X107021095Y-91338097D01*
X107021095Y-91338097D02*
X106960618Y-91217145D01*
X106960618Y-91217145D02*
X106900142Y-90975240D01*
X106900142Y-90975240D02*
X106900142Y-90793811D01*
X106900142Y-90793811D02*
X106960618Y-90551907D01*
X106960618Y-90551907D02*
X107021095Y-90430954D01*
X107021095Y-90430954D02*
X107142047Y-90310002D01*
X107142047Y-90310002D02*
X107323476Y-90249526D01*
X107323476Y-90249526D02*
X107444428Y-90249526D01*
X107444428Y-90249526D02*
X107625857Y-90310002D01*
X107625857Y-90310002D02*
X107686333Y-90370478D01*
X108109666Y-90249526D02*
X108895857Y-90249526D01*
X108895857Y-90249526D02*
X108472523Y-90733335D01*
X108472523Y-90733335D02*
X108653952Y-90733335D01*
X108653952Y-90733335D02*
X108774904Y-90793811D01*
X108774904Y-90793811D02*
X108835380Y-90854288D01*
X108835380Y-90854288D02*
X108895857Y-90975240D01*
X108895857Y-90975240D02*
X108895857Y-91277621D01*
X108895857Y-91277621D02*
X108835380Y-91398573D01*
X108835380Y-91398573D02*
X108774904Y-91459050D01*
X108774904Y-91459050D02*
X108653952Y-91519526D01*
X108653952Y-91519526D02*
X108291095Y-91519526D01*
X108291095Y-91519526D02*
X108170142Y-91459050D01*
X108170142Y-91459050D02*
X108109666Y-91398573D01*
D10*
%TO.C,R12*%
X127617142Y-125042619D02*
X127283809Y-124566428D01*
X127045714Y-125042619D02*
X127045714Y-124042619D01*
X127045714Y-124042619D02*
X127426666Y-124042619D01*
X127426666Y-124042619D02*
X127521904Y-124090238D01*
X127521904Y-124090238D02*
X127569523Y-124137857D01*
X127569523Y-124137857D02*
X127617142Y-124233095D01*
X127617142Y-124233095D02*
X127617142Y-124375952D01*
X127617142Y-124375952D02*
X127569523Y-124471190D01*
X127569523Y-124471190D02*
X127521904Y-124518809D01*
X127521904Y-124518809D02*
X127426666Y-124566428D01*
X127426666Y-124566428D02*
X127045714Y-124566428D01*
X128569523Y-125042619D02*
X127998095Y-125042619D01*
X128283809Y-125042619D02*
X128283809Y-124042619D01*
X128283809Y-124042619D02*
X128188571Y-124185476D01*
X128188571Y-124185476D02*
X128093333Y-124280714D01*
X128093333Y-124280714D02*
X127998095Y-124328333D01*
X128950476Y-124137857D02*
X128998095Y-124090238D01*
X128998095Y-124090238D02*
X129093333Y-124042619D01*
X129093333Y-124042619D02*
X129331428Y-124042619D01*
X129331428Y-124042619D02*
X129426666Y-124090238D01*
X129426666Y-124090238D02*
X129474285Y-124137857D01*
X129474285Y-124137857D02*
X129521904Y-124233095D01*
X129521904Y-124233095D02*
X129521904Y-124328333D01*
X129521904Y-124328333D02*
X129474285Y-124471190D01*
X129474285Y-124471190D02*
X128902857Y-125042619D01*
X128902857Y-125042619D02*
X129521904Y-125042619D01*
%TO.C,C13*%
X129319880Y-84462857D02*
X129367500Y-84510476D01*
X129367500Y-84510476D02*
X129415119Y-84653333D01*
X129415119Y-84653333D02*
X129415119Y-84748571D01*
X129415119Y-84748571D02*
X129367500Y-84891428D01*
X129367500Y-84891428D02*
X129272261Y-84986666D01*
X129272261Y-84986666D02*
X129177023Y-85034285D01*
X129177023Y-85034285D02*
X128986547Y-85081904D01*
X128986547Y-85081904D02*
X128843690Y-85081904D01*
X128843690Y-85081904D02*
X128653214Y-85034285D01*
X128653214Y-85034285D02*
X128557976Y-84986666D01*
X128557976Y-84986666D02*
X128462738Y-84891428D01*
X128462738Y-84891428D02*
X128415119Y-84748571D01*
X128415119Y-84748571D02*
X128415119Y-84653333D01*
X128415119Y-84653333D02*
X128462738Y-84510476D01*
X128462738Y-84510476D02*
X128510357Y-84462857D01*
X129415119Y-83510476D02*
X129415119Y-84081904D01*
X129415119Y-83796190D02*
X128415119Y-83796190D01*
X128415119Y-83796190D02*
X128557976Y-83891428D01*
X128557976Y-83891428D02*
X128653214Y-83986666D01*
X128653214Y-83986666D02*
X128700833Y-84081904D01*
X128415119Y-83177142D02*
X128415119Y-82558095D01*
X128415119Y-82558095D02*
X128796071Y-82891428D01*
X128796071Y-82891428D02*
X128796071Y-82748571D01*
X128796071Y-82748571D02*
X128843690Y-82653333D01*
X128843690Y-82653333D02*
X128891309Y-82605714D01*
X128891309Y-82605714D02*
X128986547Y-82558095D01*
X128986547Y-82558095D02*
X129224642Y-82558095D01*
X129224642Y-82558095D02*
X129319880Y-82605714D01*
X129319880Y-82605714D02*
X129367500Y-82653333D01*
X129367500Y-82653333D02*
X129415119Y-82748571D01*
X129415119Y-82748571D02*
X129415119Y-83034285D01*
X129415119Y-83034285D02*
X129367500Y-83129523D01*
X129367500Y-83129523D02*
X129319880Y-83177142D01*
%TO.C,TP4*%
X153678095Y-114304619D02*
X154249523Y-114304619D01*
X153963809Y-115304619D02*
X153963809Y-114304619D01*
X154582857Y-115304619D02*
X154582857Y-114304619D01*
X154582857Y-114304619D02*
X154963809Y-114304619D01*
X154963809Y-114304619D02*
X155059047Y-114352238D01*
X155059047Y-114352238D02*
X155106666Y-114399857D01*
X155106666Y-114399857D02*
X155154285Y-114495095D01*
X155154285Y-114495095D02*
X155154285Y-114637952D01*
X155154285Y-114637952D02*
X155106666Y-114733190D01*
X155106666Y-114733190D02*
X155059047Y-114780809D01*
X155059047Y-114780809D02*
X154963809Y-114828428D01*
X154963809Y-114828428D02*
X154582857Y-114828428D01*
X156011428Y-114637952D02*
X156011428Y-115304619D01*
X155773333Y-114257000D02*
X155535238Y-114971285D01*
X155535238Y-114971285D02*
X156154285Y-114971285D01*
%TO.C,BT1*%
X128125714Y-61901190D02*
X127982857Y-61853571D01*
X127982857Y-61853571D02*
X127935238Y-61805952D01*
X127935238Y-61805952D02*
X127887619Y-61710714D01*
X127887619Y-61710714D02*
X127887619Y-61567857D01*
X127887619Y-61567857D02*
X127935238Y-61472619D01*
X127935238Y-61472619D02*
X127982857Y-61425000D01*
X127982857Y-61425000D02*
X128078095Y-61377380D01*
X128078095Y-61377380D02*
X128459047Y-61377380D01*
X128459047Y-61377380D02*
X128459047Y-62377380D01*
X128459047Y-62377380D02*
X128125714Y-62377380D01*
X128125714Y-62377380D02*
X128030476Y-62329761D01*
X128030476Y-62329761D02*
X127982857Y-62282142D01*
X127982857Y-62282142D02*
X127935238Y-62186904D01*
X127935238Y-62186904D02*
X127935238Y-62091666D01*
X127935238Y-62091666D02*
X127982857Y-61996428D01*
X127982857Y-61996428D02*
X128030476Y-61948809D01*
X128030476Y-61948809D02*
X128125714Y-61901190D01*
X128125714Y-61901190D02*
X128459047Y-61901190D01*
X127601904Y-62377380D02*
X127030476Y-62377380D01*
X127316190Y-61377380D02*
X127316190Y-62377380D01*
X126173333Y-61377380D02*
X126744761Y-61377380D01*
X126459047Y-61377380D02*
X126459047Y-62377380D01*
X126459047Y-62377380D02*
X126554285Y-62234523D01*
X126554285Y-62234523D02*
X126649523Y-62139285D01*
X126649523Y-62139285D02*
X126744761Y-62091666D01*
%TO.C,TP13*%
X125261905Y-78710619D02*
X125833333Y-78710619D01*
X125547619Y-79710619D02*
X125547619Y-78710619D01*
X126166667Y-79710619D02*
X126166667Y-78710619D01*
X126166667Y-78710619D02*
X126547619Y-78710619D01*
X126547619Y-78710619D02*
X126642857Y-78758238D01*
X126642857Y-78758238D02*
X126690476Y-78805857D01*
X126690476Y-78805857D02*
X126738095Y-78901095D01*
X126738095Y-78901095D02*
X126738095Y-79043952D01*
X126738095Y-79043952D02*
X126690476Y-79139190D01*
X126690476Y-79139190D02*
X126642857Y-79186809D01*
X126642857Y-79186809D02*
X126547619Y-79234428D01*
X126547619Y-79234428D02*
X126166667Y-79234428D01*
X127690476Y-79710619D02*
X127119048Y-79710619D01*
X127404762Y-79710619D02*
X127404762Y-78710619D01*
X127404762Y-78710619D02*
X127309524Y-78853476D01*
X127309524Y-78853476D02*
X127214286Y-78948714D01*
X127214286Y-78948714D02*
X127119048Y-78996333D01*
X128023810Y-78710619D02*
X128642857Y-78710619D01*
X128642857Y-78710619D02*
X128309524Y-79091571D01*
X128309524Y-79091571D02*
X128452381Y-79091571D01*
X128452381Y-79091571D02*
X128547619Y-79139190D01*
X128547619Y-79139190D02*
X128595238Y-79186809D01*
X128595238Y-79186809D02*
X128642857Y-79282047D01*
X128642857Y-79282047D02*
X128642857Y-79520142D01*
X128642857Y-79520142D02*
X128595238Y-79615380D01*
X128595238Y-79615380D02*
X128547619Y-79663000D01*
X128547619Y-79663000D02*
X128452381Y-79710619D01*
X128452381Y-79710619D02*
X128166667Y-79710619D01*
X128166667Y-79710619D02*
X128071429Y-79663000D01*
X128071429Y-79663000D02*
X128023810Y-79615380D01*
D11*
%TO.C,R1*%
X141557526Y-115781666D02*
X140952764Y-116205000D01*
X141557526Y-116507381D02*
X140287526Y-116507381D01*
X140287526Y-116507381D02*
X140287526Y-116023571D01*
X140287526Y-116023571D02*
X140348002Y-115902619D01*
X140348002Y-115902619D02*
X140408478Y-115842142D01*
X140408478Y-115842142D02*
X140529430Y-115781666D01*
X140529430Y-115781666D02*
X140710859Y-115781666D01*
X140710859Y-115781666D02*
X140831811Y-115842142D01*
X140831811Y-115842142D02*
X140892288Y-115902619D01*
X140892288Y-115902619D02*
X140952764Y-116023571D01*
X140952764Y-116023571D02*
X140952764Y-116507381D01*
X141557526Y-114572142D02*
X141557526Y-115297857D01*
X141557526Y-114935000D02*
X140287526Y-114935000D01*
X140287526Y-114935000D02*
X140468954Y-115055952D01*
X140468954Y-115055952D02*
X140589907Y-115176904D01*
X140589907Y-115176904D02*
X140650383Y-115297857D01*
D10*
%TO.C,TP3*%
X153678095Y-127004619D02*
X154249523Y-127004619D01*
X153963809Y-128004619D02*
X153963809Y-127004619D01*
X154582857Y-128004619D02*
X154582857Y-127004619D01*
X154582857Y-127004619D02*
X154963809Y-127004619D01*
X154963809Y-127004619D02*
X155059047Y-127052238D01*
X155059047Y-127052238D02*
X155106666Y-127099857D01*
X155106666Y-127099857D02*
X155154285Y-127195095D01*
X155154285Y-127195095D02*
X155154285Y-127337952D01*
X155154285Y-127337952D02*
X155106666Y-127433190D01*
X155106666Y-127433190D02*
X155059047Y-127480809D01*
X155059047Y-127480809D02*
X154963809Y-127528428D01*
X154963809Y-127528428D02*
X154582857Y-127528428D01*
X155487619Y-127004619D02*
X156106666Y-127004619D01*
X156106666Y-127004619D02*
X155773333Y-127385571D01*
X155773333Y-127385571D02*
X155916190Y-127385571D01*
X155916190Y-127385571D02*
X156011428Y-127433190D01*
X156011428Y-127433190D02*
X156059047Y-127480809D01*
X156059047Y-127480809D02*
X156106666Y-127576047D01*
X156106666Y-127576047D02*
X156106666Y-127814142D01*
X156106666Y-127814142D02*
X156059047Y-127909380D01*
X156059047Y-127909380D02*
X156011428Y-127957000D01*
X156011428Y-127957000D02*
X155916190Y-128004619D01*
X155916190Y-128004619D02*
X155630476Y-128004619D01*
X155630476Y-128004619D02*
X155535238Y-127957000D01*
X155535238Y-127957000D02*
X155487619Y-127909380D01*
D11*
%TO.C,R3*%
X146891526Y-118575666D02*
X146286764Y-118999000D01*
X146891526Y-119301381D02*
X145621526Y-119301381D01*
X145621526Y-119301381D02*
X145621526Y-118817571D01*
X145621526Y-118817571D02*
X145682002Y-118696619D01*
X145682002Y-118696619D02*
X145742478Y-118636142D01*
X145742478Y-118636142D02*
X145863430Y-118575666D01*
X145863430Y-118575666D02*
X146044859Y-118575666D01*
X146044859Y-118575666D02*
X146165811Y-118636142D01*
X146165811Y-118636142D02*
X146226288Y-118696619D01*
X146226288Y-118696619D02*
X146286764Y-118817571D01*
X146286764Y-118817571D02*
X146286764Y-119301381D01*
X145621526Y-118152333D02*
X145621526Y-117366142D01*
X145621526Y-117366142D02*
X146105335Y-117789476D01*
X146105335Y-117789476D02*
X146105335Y-117608047D01*
X146105335Y-117608047D02*
X146165811Y-117487095D01*
X146165811Y-117487095D02*
X146226288Y-117426619D01*
X146226288Y-117426619D02*
X146347240Y-117366142D01*
X146347240Y-117366142D02*
X146649621Y-117366142D01*
X146649621Y-117366142D02*
X146770573Y-117426619D01*
X146770573Y-117426619D02*
X146831050Y-117487095D01*
X146831050Y-117487095D02*
X146891526Y-117608047D01*
X146891526Y-117608047D02*
X146891526Y-117970904D01*
X146891526Y-117970904D02*
X146831050Y-118091857D01*
X146831050Y-118091857D02*
X146770573Y-118152333D01*
D10*
%TO.C,TP8*%
X126246095Y-130018619D02*
X126817523Y-130018619D01*
X126531809Y-131018619D02*
X126531809Y-130018619D01*
X127150857Y-131018619D02*
X127150857Y-130018619D01*
X127150857Y-130018619D02*
X127531809Y-130018619D01*
X127531809Y-130018619D02*
X127627047Y-130066238D01*
X127627047Y-130066238D02*
X127674666Y-130113857D01*
X127674666Y-130113857D02*
X127722285Y-130209095D01*
X127722285Y-130209095D02*
X127722285Y-130351952D01*
X127722285Y-130351952D02*
X127674666Y-130447190D01*
X127674666Y-130447190D02*
X127627047Y-130494809D01*
X127627047Y-130494809D02*
X127531809Y-130542428D01*
X127531809Y-130542428D02*
X127150857Y-130542428D01*
X128293714Y-130447190D02*
X128198476Y-130399571D01*
X128198476Y-130399571D02*
X128150857Y-130351952D01*
X128150857Y-130351952D02*
X128103238Y-130256714D01*
X128103238Y-130256714D02*
X128103238Y-130209095D01*
X128103238Y-130209095D02*
X128150857Y-130113857D01*
X128150857Y-130113857D02*
X128198476Y-130066238D01*
X128198476Y-130066238D02*
X128293714Y-130018619D01*
X128293714Y-130018619D02*
X128484190Y-130018619D01*
X128484190Y-130018619D02*
X128579428Y-130066238D01*
X128579428Y-130066238D02*
X128627047Y-130113857D01*
X128627047Y-130113857D02*
X128674666Y-130209095D01*
X128674666Y-130209095D02*
X128674666Y-130256714D01*
X128674666Y-130256714D02*
X128627047Y-130351952D01*
X128627047Y-130351952D02*
X128579428Y-130399571D01*
X128579428Y-130399571D02*
X128484190Y-130447190D01*
X128484190Y-130447190D02*
X128293714Y-130447190D01*
X128293714Y-130447190D02*
X128198476Y-130494809D01*
X128198476Y-130494809D02*
X128150857Y-130542428D01*
X128150857Y-130542428D02*
X128103238Y-130637666D01*
X128103238Y-130637666D02*
X128103238Y-130828142D01*
X128103238Y-130828142D02*
X128150857Y-130923380D01*
X128150857Y-130923380D02*
X128198476Y-130971000D01*
X128198476Y-130971000D02*
X128293714Y-131018619D01*
X128293714Y-131018619D02*
X128484190Y-131018619D01*
X128484190Y-131018619D02*
X128579428Y-130971000D01*
X128579428Y-130971000D02*
X128627047Y-130923380D01*
X128627047Y-130923380D02*
X128674666Y-130828142D01*
X128674666Y-130828142D02*
X128674666Y-130637666D01*
X128674666Y-130637666D02*
X128627047Y-130542428D01*
X128627047Y-130542428D02*
X128579428Y-130494809D01*
X128579428Y-130494809D02*
X128484190Y-130447190D01*
D11*
%TO.C,J1*%
X89741526Y-108119332D02*
X90648669Y-108119332D01*
X90648669Y-108119332D02*
X90830097Y-108179809D01*
X90830097Y-108179809D02*
X90951050Y-108300761D01*
X90951050Y-108300761D02*
X91011526Y-108482190D01*
X91011526Y-108482190D02*
X91011526Y-108603142D01*
X91011526Y-106849332D02*
X91011526Y-107575047D01*
X91011526Y-107212190D02*
X89741526Y-107212190D01*
X89741526Y-107212190D02*
X89922954Y-107333142D01*
X89922954Y-107333142D02*
X90043907Y-107454094D01*
X90043907Y-107454094D02*
X90104383Y-107575047D01*
D10*
%TO.C,D3*%
X145565905Y-131526619D02*
X145565905Y-130526619D01*
X145565905Y-130526619D02*
X145804000Y-130526619D01*
X145804000Y-130526619D02*
X145946857Y-130574238D01*
X145946857Y-130574238D02*
X146042095Y-130669476D01*
X146042095Y-130669476D02*
X146089714Y-130764714D01*
X146089714Y-130764714D02*
X146137333Y-130955190D01*
X146137333Y-130955190D02*
X146137333Y-131098047D01*
X146137333Y-131098047D02*
X146089714Y-131288523D01*
X146089714Y-131288523D02*
X146042095Y-131383761D01*
X146042095Y-131383761D02*
X145946857Y-131479000D01*
X145946857Y-131479000D02*
X145804000Y-131526619D01*
X145804000Y-131526619D02*
X145565905Y-131526619D01*
X146470667Y-130526619D02*
X147089714Y-130526619D01*
X147089714Y-130526619D02*
X146756381Y-130907571D01*
X146756381Y-130907571D02*
X146899238Y-130907571D01*
X146899238Y-130907571D02*
X146994476Y-130955190D01*
X146994476Y-130955190D02*
X147042095Y-131002809D01*
X147042095Y-131002809D02*
X147089714Y-131098047D01*
X147089714Y-131098047D02*
X147089714Y-131336142D01*
X147089714Y-131336142D02*
X147042095Y-131431380D01*
X147042095Y-131431380D02*
X146994476Y-131479000D01*
X146994476Y-131479000D02*
X146899238Y-131526619D01*
X146899238Y-131526619D02*
X146613524Y-131526619D01*
X146613524Y-131526619D02*
X146518286Y-131479000D01*
X146518286Y-131479000D02*
X146470667Y-131431380D01*
%TO.C,TP6*%
X158758095Y-121924619D02*
X159329523Y-121924619D01*
X159043809Y-122924619D02*
X159043809Y-121924619D01*
X159662857Y-122924619D02*
X159662857Y-121924619D01*
X159662857Y-121924619D02*
X160043809Y-121924619D01*
X160043809Y-121924619D02*
X160139047Y-121972238D01*
X160139047Y-121972238D02*
X160186666Y-122019857D01*
X160186666Y-122019857D02*
X160234285Y-122115095D01*
X160234285Y-122115095D02*
X160234285Y-122257952D01*
X160234285Y-122257952D02*
X160186666Y-122353190D01*
X160186666Y-122353190D02*
X160139047Y-122400809D01*
X160139047Y-122400809D02*
X160043809Y-122448428D01*
X160043809Y-122448428D02*
X159662857Y-122448428D01*
X161091428Y-121924619D02*
X160900952Y-121924619D01*
X160900952Y-121924619D02*
X160805714Y-121972238D01*
X160805714Y-121972238D02*
X160758095Y-122019857D01*
X160758095Y-122019857D02*
X160662857Y-122162714D01*
X160662857Y-122162714D02*
X160615238Y-122353190D01*
X160615238Y-122353190D02*
X160615238Y-122734142D01*
X160615238Y-122734142D02*
X160662857Y-122829380D01*
X160662857Y-122829380D02*
X160710476Y-122877000D01*
X160710476Y-122877000D02*
X160805714Y-122924619D01*
X160805714Y-122924619D02*
X160996190Y-122924619D01*
X160996190Y-122924619D02*
X161091428Y-122877000D01*
X161091428Y-122877000D02*
X161139047Y-122829380D01*
X161139047Y-122829380D02*
X161186666Y-122734142D01*
X161186666Y-122734142D02*
X161186666Y-122496047D01*
X161186666Y-122496047D02*
X161139047Y-122400809D01*
X161139047Y-122400809D02*
X161091428Y-122353190D01*
X161091428Y-122353190D02*
X160996190Y-122305571D01*
X160996190Y-122305571D02*
X160805714Y-122305571D01*
X160805714Y-122305571D02*
X160710476Y-122353190D01*
X160710476Y-122353190D02*
X160662857Y-122400809D01*
X160662857Y-122400809D02*
X160615238Y-122496047D01*
%TO.C,TP5*%
X158758095Y-119858619D02*
X159329523Y-119858619D01*
X159043809Y-120858619D02*
X159043809Y-119858619D01*
X159662857Y-120858619D02*
X159662857Y-119858619D01*
X159662857Y-119858619D02*
X160043809Y-119858619D01*
X160043809Y-119858619D02*
X160139047Y-119906238D01*
X160139047Y-119906238D02*
X160186666Y-119953857D01*
X160186666Y-119953857D02*
X160234285Y-120049095D01*
X160234285Y-120049095D02*
X160234285Y-120191952D01*
X160234285Y-120191952D02*
X160186666Y-120287190D01*
X160186666Y-120287190D02*
X160139047Y-120334809D01*
X160139047Y-120334809D02*
X160043809Y-120382428D01*
X160043809Y-120382428D02*
X159662857Y-120382428D01*
X161139047Y-119858619D02*
X160662857Y-119858619D01*
X160662857Y-119858619D02*
X160615238Y-120334809D01*
X160615238Y-120334809D02*
X160662857Y-120287190D01*
X160662857Y-120287190D02*
X160758095Y-120239571D01*
X160758095Y-120239571D02*
X160996190Y-120239571D01*
X160996190Y-120239571D02*
X161091428Y-120287190D01*
X161091428Y-120287190D02*
X161139047Y-120334809D01*
X161139047Y-120334809D02*
X161186666Y-120430047D01*
X161186666Y-120430047D02*
X161186666Y-120668142D01*
X161186666Y-120668142D02*
X161139047Y-120763380D01*
X161139047Y-120763380D02*
X161091428Y-120811000D01*
X161091428Y-120811000D02*
X160996190Y-120858619D01*
X160996190Y-120858619D02*
X160758095Y-120858619D01*
X160758095Y-120858619D02*
X160662857Y-120811000D01*
X160662857Y-120811000D02*
X160615238Y-120763380D01*
%TO.C,D1*%
X152931905Y-125342619D02*
X152931905Y-124342619D01*
X152931905Y-124342619D02*
X153170000Y-124342619D01*
X153170000Y-124342619D02*
X153312857Y-124390238D01*
X153312857Y-124390238D02*
X153408095Y-124485476D01*
X153408095Y-124485476D02*
X153455714Y-124580714D01*
X153455714Y-124580714D02*
X153503333Y-124771190D01*
X153503333Y-124771190D02*
X153503333Y-124914047D01*
X153503333Y-124914047D02*
X153455714Y-125104523D01*
X153455714Y-125104523D02*
X153408095Y-125199761D01*
X153408095Y-125199761D02*
X153312857Y-125295000D01*
X153312857Y-125295000D02*
X153170000Y-125342619D01*
X153170000Y-125342619D02*
X152931905Y-125342619D01*
X154455714Y-125342619D02*
X153884286Y-125342619D01*
X154170000Y-125342619D02*
X154170000Y-124342619D01*
X154170000Y-124342619D02*
X154074762Y-124485476D01*
X154074762Y-124485476D02*
X153979524Y-124580714D01*
X153979524Y-124580714D02*
X153884286Y-124628333D01*
D11*
%TO.C,R5*%
X92535526Y-91651666D02*
X91930764Y-92075000D01*
X92535526Y-92377381D02*
X91265526Y-92377381D01*
X91265526Y-92377381D02*
X91265526Y-91893571D01*
X91265526Y-91893571D02*
X91326002Y-91772619D01*
X91326002Y-91772619D02*
X91386478Y-91712142D01*
X91386478Y-91712142D02*
X91507430Y-91651666D01*
X91507430Y-91651666D02*
X91688859Y-91651666D01*
X91688859Y-91651666D02*
X91809811Y-91712142D01*
X91809811Y-91712142D02*
X91870288Y-91772619D01*
X91870288Y-91772619D02*
X91930764Y-91893571D01*
X91930764Y-91893571D02*
X91930764Y-92377381D01*
X91265526Y-90502619D02*
X91265526Y-91107381D01*
X91265526Y-91107381D02*
X91870288Y-91167857D01*
X91870288Y-91167857D02*
X91809811Y-91107381D01*
X91809811Y-91107381D02*
X91749335Y-90986428D01*
X91749335Y-90986428D02*
X91749335Y-90684047D01*
X91749335Y-90684047D02*
X91809811Y-90563095D01*
X91809811Y-90563095D02*
X91870288Y-90502619D01*
X91870288Y-90502619D02*
X91991240Y-90442142D01*
X91991240Y-90442142D02*
X92293621Y-90442142D01*
X92293621Y-90442142D02*
X92414573Y-90502619D01*
X92414573Y-90502619D02*
X92475050Y-90563095D01*
X92475050Y-90563095D02*
X92535526Y-90684047D01*
X92535526Y-90684047D02*
X92535526Y-90986428D01*
X92535526Y-90986428D02*
X92475050Y-91107381D01*
X92475050Y-91107381D02*
X92414573Y-91167857D01*
%TO.C,R10*%
X93163571Y-83391526D02*
X92740237Y-82786764D01*
X92437856Y-83391526D02*
X92437856Y-82121526D01*
X92437856Y-82121526D02*
X92921666Y-82121526D01*
X92921666Y-82121526D02*
X93042618Y-82182002D01*
X93042618Y-82182002D02*
X93103095Y-82242478D01*
X93103095Y-82242478D02*
X93163571Y-82363430D01*
X93163571Y-82363430D02*
X93163571Y-82544859D01*
X93163571Y-82544859D02*
X93103095Y-82665811D01*
X93103095Y-82665811D02*
X93042618Y-82726288D01*
X93042618Y-82726288D02*
X92921666Y-82786764D01*
X92921666Y-82786764D02*
X92437856Y-82786764D01*
X94373095Y-83391526D02*
X93647380Y-83391526D01*
X94010237Y-83391526D02*
X94010237Y-82121526D01*
X94010237Y-82121526D02*
X93889285Y-82302954D01*
X93889285Y-82302954D02*
X93768333Y-82423907D01*
X93768333Y-82423907D02*
X93647380Y-82484383D01*
X95159285Y-82121526D02*
X95280238Y-82121526D01*
X95280238Y-82121526D02*
X95401190Y-82182002D01*
X95401190Y-82182002D02*
X95461666Y-82242478D01*
X95461666Y-82242478D02*
X95522142Y-82363430D01*
X95522142Y-82363430D02*
X95582619Y-82605335D01*
X95582619Y-82605335D02*
X95582619Y-82907716D01*
X95582619Y-82907716D02*
X95522142Y-83149621D01*
X95522142Y-83149621D02*
X95461666Y-83270573D01*
X95461666Y-83270573D02*
X95401190Y-83331050D01*
X95401190Y-83331050D02*
X95280238Y-83391526D01*
X95280238Y-83391526D02*
X95159285Y-83391526D01*
X95159285Y-83391526D02*
X95038333Y-83331050D01*
X95038333Y-83331050D02*
X94977857Y-83270573D01*
X94977857Y-83270573D02*
X94917380Y-83149621D01*
X94917380Y-83149621D02*
X94856904Y-82907716D01*
X94856904Y-82907716D02*
X94856904Y-82605335D01*
X94856904Y-82605335D02*
X94917380Y-82363430D01*
X94917380Y-82363430D02*
X94977857Y-82242478D01*
X94977857Y-82242478D02*
X95038333Y-82182002D01*
X95038333Y-82182002D02*
X95159285Y-82121526D01*
%TO.C,R13*%
X89995526Y-87176428D02*
X89390764Y-87599762D01*
X89995526Y-87902143D02*
X88725526Y-87902143D01*
X88725526Y-87902143D02*
X88725526Y-87418333D01*
X88725526Y-87418333D02*
X88786002Y-87297381D01*
X88786002Y-87297381D02*
X88846478Y-87236904D01*
X88846478Y-87236904D02*
X88967430Y-87176428D01*
X88967430Y-87176428D02*
X89148859Y-87176428D01*
X89148859Y-87176428D02*
X89269811Y-87236904D01*
X89269811Y-87236904D02*
X89330288Y-87297381D01*
X89330288Y-87297381D02*
X89390764Y-87418333D01*
X89390764Y-87418333D02*
X89390764Y-87902143D01*
X89995526Y-85966904D02*
X89995526Y-86692619D01*
X89995526Y-86329762D02*
X88725526Y-86329762D01*
X88725526Y-86329762D02*
X88906954Y-86450714D01*
X88906954Y-86450714D02*
X89027907Y-86571666D01*
X89027907Y-86571666D02*
X89088383Y-86692619D01*
X88725526Y-85543571D02*
X88725526Y-84757380D01*
X88725526Y-84757380D02*
X89209335Y-85180714D01*
X89209335Y-85180714D02*
X89209335Y-84999285D01*
X89209335Y-84999285D02*
X89269811Y-84878333D01*
X89269811Y-84878333D02*
X89330288Y-84817857D01*
X89330288Y-84817857D02*
X89451240Y-84757380D01*
X89451240Y-84757380D02*
X89753621Y-84757380D01*
X89753621Y-84757380D02*
X89874573Y-84817857D01*
X89874573Y-84817857D02*
X89935050Y-84878333D01*
X89935050Y-84878333D02*
X89995526Y-84999285D01*
X89995526Y-84999285D02*
X89995526Y-85362142D01*
X89995526Y-85362142D02*
X89935050Y-85483095D01*
X89935050Y-85483095D02*
X89874573Y-85543571D01*
D10*
%TO.C,LEDcharge1*%
X87330619Y-86954857D02*
X87330619Y-87431047D01*
X87330619Y-87431047D02*
X86330619Y-87431047D01*
X86806809Y-86621523D02*
X86806809Y-86288190D01*
X87330619Y-86145333D02*
X87330619Y-86621523D01*
X87330619Y-86621523D02*
X86330619Y-86621523D01*
X86330619Y-86621523D02*
X86330619Y-86145333D01*
X87330619Y-85716761D02*
X86330619Y-85716761D01*
X86330619Y-85716761D02*
X86330619Y-85478666D01*
X86330619Y-85478666D02*
X86378238Y-85335809D01*
X86378238Y-85335809D02*
X86473476Y-85240571D01*
X86473476Y-85240571D02*
X86568714Y-85192952D01*
X86568714Y-85192952D02*
X86759190Y-85145333D01*
X86759190Y-85145333D02*
X86902047Y-85145333D01*
X86902047Y-85145333D02*
X87092523Y-85192952D01*
X87092523Y-85192952D02*
X87187761Y-85240571D01*
X87187761Y-85240571D02*
X87283000Y-85335809D01*
X87283000Y-85335809D02*
X87330619Y-85478666D01*
X87330619Y-85478666D02*
X87330619Y-85716761D01*
X87283000Y-84288190D02*
X87330619Y-84383428D01*
X87330619Y-84383428D02*
X87330619Y-84573904D01*
X87330619Y-84573904D02*
X87283000Y-84669142D01*
X87283000Y-84669142D02*
X87235380Y-84716761D01*
X87235380Y-84716761D02*
X87140142Y-84764380D01*
X87140142Y-84764380D02*
X86854428Y-84764380D01*
X86854428Y-84764380D02*
X86759190Y-84716761D01*
X86759190Y-84716761D02*
X86711571Y-84669142D01*
X86711571Y-84669142D02*
X86663952Y-84573904D01*
X86663952Y-84573904D02*
X86663952Y-84383428D01*
X86663952Y-84383428D02*
X86711571Y-84288190D01*
X87330619Y-83859618D02*
X86330619Y-83859618D01*
X87330619Y-83431047D02*
X86806809Y-83431047D01*
X86806809Y-83431047D02*
X86711571Y-83478666D01*
X86711571Y-83478666D02*
X86663952Y-83573904D01*
X86663952Y-83573904D02*
X86663952Y-83716761D01*
X86663952Y-83716761D02*
X86711571Y-83811999D01*
X86711571Y-83811999D02*
X86759190Y-83859618D01*
X87330619Y-82526285D02*
X86806809Y-82526285D01*
X86806809Y-82526285D02*
X86711571Y-82573904D01*
X86711571Y-82573904D02*
X86663952Y-82669142D01*
X86663952Y-82669142D02*
X86663952Y-82859618D01*
X86663952Y-82859618D02*
X86711571Y-82954856D01*
X87283000Y-82526285D02*
X87330619Y-82621523D01*
X87330619Y-82621523D02*
X87330619Y-82859618D01*
X87330619Y-82859618D02*
X87283000Y-82954856D01*
X87283000Y-82954856D02*
X87187761Y-83002475D01*
X87187761Y-83002475D02*
X87092523Y-83002475D01*
X87092523Y-83002475D02*
X86997285Y-82954856D01*
X86997285Y-82954856D02*
X86949666Y-82859618D01*
X86949666Y-82859618D02*
X86949666Y-82621523D01*
X86949666Y-82621523D02*
X86902047Y-82526285D01*
X87330619Y-82050094D02*
X86663952Y-82050094D01*
X86854428Y-82050094D02*
X86759190Y-82002475D01*
X86759190Y-82002475D02*
X86711571Y-81954856D01*
X86711571Y-81954856D02*
X86663952Y-81859618D01*
X86663952Y-81859618D02*
X86663952Y-81764380D01*
X86663952Y-81002475D02*
X87473476Y-81002475D01*
X87473476Y-81002475D02*
X87568714Y-81050094D01*
X87568714Y-81050094D02*
X87616333Y-81097713D01*
X87616333Y-81097713D02*
X87663952Y-81192951D01*
X87663952Y-81192951D02*
X87663952Y-81335808D01*
X87663952Y-81335808D02*
X87616333Y-81431046D01*
X87283000Y-81002475D02*
X87330619Y-81097713D01*
X87330619Y-81097713D02*
X87330619Y-81288189D01*
X87330619Y-81288189D02*
X87283000Y-81383427D01*
X87283000Y-81383427D02*
X87235380Y-81431046D01*
X87235380Y-81431046D02*
X87140142Y-81478665D01*
X87140142Y-81478665D02*
X86854428Y-81478665D01*
X86854428Y-81478665D02*
X86759190Y-81431046D01*
X86759190Y-81431046D02*
X86711571Y-81383427D01*
X86711571Y-81383427D02*
X86663952Y-81288189D01*
X86663952Y-81288189D02*
X86663952Y-81097713D01*
X86663952Y-81097713D02*
X86711571Y-81002475D01*
X87283000Y-80145332D02*
X87330619Y-80240570D01*
X87330619Y-80240570D02*
X87330619Y-80431046D01*
X87330619Y-80431046D02*
X87283000Y-80526284D01*
X87283000Y-80526284D02*
X87187761Y-80573903D01*
X87187761Y-80573903D02*
X86806809Y-80573903D01*
X86806809Y-80573903D02*
X86711571Y-80526284D01*
X86711571Y-80526284D02*
X86663952Y-80431046D01*
X86663952Y-80431046D02*
X86663952Y-80240570D01*
X86663952Y-80240570D02*
X86711571Y-80145332D01*
X86711571Y-80145332D02*
X86806809Y-80097713D01*
X86806809Y-80097713D02*
X86902047Y-80097713D01*
X86902047Y-80097713D02*
X86997285Y-80573903D01*
X87330619Y-79145332D02*
X87330619Y-79716760D01*
X87330619Y-79431046D02*
X86330619Y-79431046D01*
X86330619Y-79431046D02*
X86473476Y-79526284D01*
X86473476Y-79526284D02*
X86568714Y-79621522D01*
X86568714Y-79621522D02*
X86616333Y-79716760D01*
D11*
%TO.C,R16*%
X88083571Y-129619526D02*
X87660237Y-129014764D01*
X87357856Y-129619526D02*
X87357856Y-128349526D01*
X87357856Y-128349526D02*
X87841666Y-128349526D01*
X87841666Y-128349526D02*
X87962618Y-128410002D01*
X87962618Y-128410002D02*
X88023095Y-128470478D01*
X88023095Y-128470478D02*
X88083571Y-128591430D01*
X88083571Y-128591430D02*
X88083571Y-128772859D01*
X88083571Y-128772859D02*
X88023095Y-128893811D01*
X88023095Y-128893811D02*
X87962618Y-128954288D01*
X87962618Y-128954288D02*
X87841666Y-129014764D01*
X87841666Y-129014764D02*
X87357856Y-129014764D01*
X89293095Y-129619526D02*
X88567380Y-129619526D01*
X88930237Y-129619526D02*
X88930237Y-128349526D01*
X88930237Y-128349526D02*
X88809285Y-128530954D01*
X88809285Y-128530954D02*
X88688333Y-128651907D01*
X88688333Y-128651907D02*
X88567380Y-128712383D01*
X90381666Y-128349526D02*
X90139761Y-128349526D01*
X90139761Y-128349526D02*
X90018809Y-128410002D01*
X90018809Y-128410002D02*
X89958333Y-128470478D01*
X89958333Y-128470478D02*
X89837380Y-128651907D01*
X89837380Y-128651907D02*
X89776904Y-128893811D01*
X89776904Y-128893811D02*
X89776904Y-129377621D01*
X89776904Y-129377621D02*
X89837380Y-129498573D01*
X89837380Y-129498573D02*
X89897857Y-129559050D01*
X89897857Y-129559050D02*
X90018809Y-129619526D01*
X90018809Y-129619526D02*
X90260714Y-129619526D01*
X90260714Y-129619526D02*
X90381666Y-129559050D01*
X90381666Y-129559050D02*
X90442142Y-129498573D01*
X90442142Y-129498573D02*
X90502619Y-129377621D01*
X90502619Y-129377621D02*
X90502619Y-129075240D01*
X90502619Y-129075240D02*
X90442142Y-128954288D01*
X90442142Y-128954288D02*
X90381666Y-128893811D01*
X90381666Y-128893811D02*
X90260714Y-128833335D01*
X90260714Y-128833335D02*
X90018809Y-128833335D01*
X90018809Y-128833335D02*
X89897857Y-128893811D01*
X89897857Y-128893811D02*
X89837380Y-128954288D01*
X89837380Y-128954288D02*
X89776904Y-129075240D01*
D13*
%TO.C,D4*%
X91440000Y-95560000D02*
X91440000Y-95560000D01*
X91440000Y-95760000D02*
X91440000Y-95760000D01*
X91440000Y-95760000D02*
G75*
G03*
X91440000Y-95560000I0J100000D01*
G01*
X91440000Y-95560000D02*
G75*
G03*
X91440000Y-95760000I0J-100000D01*
G01*
D14*
%TO.C,TP9*%
X135820000Y-128270000D02*
G75*
G03*
X135820000Y-128270000I-1200000J0D01*
G01*
%TO.C,U2*%
X110555000Y-108565000D02*
X114005000Y-108565000D01*
X110555000Y-108565000D02*
X108605000Y-108565000D01*
X110555000Y-98445000D02*
X112505000Y-98445000D01*
X110555000Y-98445000D02*
X108605000Y-98445000D01*
%TO.C,C12*%
X142150000Y-90200000D02*
X141650000Y-90700000D01*
X142150000Y-87600000D02*
X141650000Y-87100000D01*
X137250000Y-90700000D02*
X137750000Y-90700000D01*
X137250000Y-90700000D02*
X137250000Y-90200000D01*
X137250000Y-87100000D02*
X137750000Y-87100000D01*
X137250000Y-87100000D02*
X137250000Y-87600000D01*
%TO.C,TP14*%
X148520000Y-88900000D02*
G75*
G03*
X148520000Y-88900000I-1200000J0D01*
G01*
D13*
%TO.C,U3*%
X150535000Y-99260000D02*
X150535000Y-100760000D01*
X150405000Y-101110000D02*
X150405000Y-104310000D01*
X145505000Y-101110000D02*
X150405000Y-101110000D01*
X150405000Y-104310000D02*
X145505000Y-104310000D01*
X145505000Y-104310000D02*
X145505000Y-101110000D01*
D14*
%TO.C,TP19*%
X105340000Y-91440000D02*
G75*
G03*
X105340000Y-91440000I-1200000J0D01*
G01*
D13*
%TO.C,Qrevpol1*%
X107720000Y-82980000D02*
X107720000Y-81680000D01*
X107760000Y-81330000D02*
X107760000Y-81230000D01*
X110680000Y-81330000D02*
X107760000Y-81330000D01*
X107760000Y-81230000D02*
X110680000Y-81230000D01*
X110680000Y-81230000D02*
X110680000Y-81330000D01*
D14*
%TO.C,TP12*%
X148520000Y-76200000D02*
G75*
G03*
X148520000Y-76200000I-1200000J0D01*
G01*
%TO.C,TP11*%
X140900000Y-76200000D02*
G75*
G03*
X140900000Y-76200000I-1200000J0D01*
G01*
D13*
%TO.C,Qrevpol2*%
X85710000Y-120420000D02*
X87010000Y-120420000D01*
X87360000Y-120460000D02*
X87460000Y-120460000D01*
X87360000Y-123380000D02*
X87360000Y-120460000D01*
X87460000Y-120460000D02*
X87460000Y-123380000D01*
X87460000Y-123380000D02*
X87360000Y-123380000D01*
%TO.C,R2*%
X149128000Y-115570000D02*
X148052000Y-115570000D01*
%TO.C,R15*%
X104140000Y-83282000D02*
X104140000Y-84358000D01*
%TO.C,R17*%
X94930000Y-118842000D02*
X94930000Y-119918000D01*
D14*
%TO.C,U4*%
X95250000Y-93980000D02*
X95250000Y-113030000D01*
X95250000Y-93980000D02*
X156210000Y-93980000D01*
X156210000Y-93980000D02*
X156210000Y-113030000D01*
X156210000Y-113030000D02*
X95250000Y-113030000D01*
%TO.C,TP16*%
X87560000Y-91440000D02*
G75*
G03*
X87560000Y-91440000I-1200000J0D01*
G01*
%TO.C,TP7*%
X161220000Y-111760000D02*
G75*
G03*
X161220000Y-111760000I-1200000J0D01*
G01*
%TO.C,TP10*%
X138360000Y-116840000D02*
G75*
G03*
X138360000Y-116840000I-1200000J0D01*
G01*
%TO.C,Q1*%
X119960000Y-74310000D02*
X115220000Y-74310000D01*
X119960000Y-74310000D02*
X119960000Y-90050000D01*
X118220000Y-74310000D02*
X118220000Y-75330000D01*
X115220000Y-74310000D02*
X115220000Y-75330000D01*
X118220000Y-78130000D02*
X118220000Y-80781000D01*
X115220000Y-78130000D02*
X115220000Y-80781000D01*
X119960000Y-80580000D02*
X118220000Y-80580000D01*
X118220000Y-83580000D02*
X118220000Y-86230000D01*
X115220000Y-83580000D02*
X115220000Y-86230000D01*
X119960000Y-83781000D02*
X118220000Y-83781000D01*
X118220000Y-89030000D02*
X118220000Y-90050000D01*
X115220000Y-89030000D02*
X115220000Y-90050000D01*
X119960000Y-90050000D02*
X115220000Y-90050000D01*
%TO.C,TP15*%
X87560000Y-76200000D02*
G75*
G03*
X87560000Y-76200000I-1200000J0D01*
G01*
D13*
%TO.C,U1*%
X97575000Y-121335000D02*
X99325000Y-121335000D01*
X99850000Y-121210000D02*
X103350000Y-121210000D01*
X99850000Y-127710000D02*
X99850000Y-121210000D01*
X103350000Y-121210000D02*
X103350000Y-127710000D01*
X103350000Y-127710000D02*
X99850000Y-127710000D01*
D14*
%TO.C,D2*%
X146340000Y-123156000D02*
X146340000Y-123000000D01*
X146340000Y-120840000D02*
X146340000Y-120684000D01*
X143107666Y-122998608D02*
G75*
G03*
X146339999Y-123155515I1672334J1078608D01*
G01*
X143738871Y-122999836D02*
G75*
G03*
X145820960Y-122999999I1041129J1079836D01*
G01*
X145820960Y-120840001D02*
G75*
G03*
X143738871Y-120840164I-1040960J-1079999D01*
G01*
X146339999Y-120684485D02*
G75*
G03*
X143107666Y-120841392I-1559999J-1235515D01*
G01*
%TO.C,TP1*%
X139376000Y-100584000D02*
G75*
G03*
X139376000Y-100584000I-1200000J0D01*
G01*
%TO.C,TP17*%
X125544000Y-90424000D02*
G75*
G03*
X125544000Y-90424000I-2100000J0D01*
G01*
D12*
%TO.C,P1*%
X150368000Y-72644000D02*
X170688000Y-72644000D01*
X170688000Y-72644000D02*
X170688000Y-92964000D01*
X170688000Y-92964000D02*
X150368000Y-92964000D01*
X150368000Y-92964000D02*
X150368000Y-72644000D01*
D14*
%TO.C,TP2*%
X144710000Y-128270000D02*
G75*
G03*
X144710000Y-128270000I-1200000J0D01*
G01*
D13*
%TO.C,R4*%
X104140000Y-80742000D02*
X104140000Y-81818000D01*
%TO.C,R7*%
X86898000Y-116840000D02*
X85822000Y-116840000D01*
D14*
%TO.C,IC1*%
X139300000Y-82930000D02*
X139300000Y-81380000D01*
X141100000Y-81380000D02*
X141100000Y-82680000D01*
D13*
%TO.C,J2*%
X93070000Y-83780000D02*
X94570000Y-83780000D01*
X94920000Y-83910000D02*
X98120000Y-83910000D01*
X94920000Y-88810000D02*
X94920000Y-83910000D01*
X98120000Y-83910000D02*
X98120000Y-88810000D01*
X98120000Y-88810000D02*
X94920000Y-88810000D01*
%TO.C,R6*%
X149860000Y-108682000D02*
X149860000Y-109758000D01*
D14*
%TO.C,R12*%
X131260000Y-123780000D02*
X125260000Y-123780000D01*
X131260000Y-114980000D02*
X125260000Y-114980000D01*
X131292650Y-123757560D02*
G75*
G03*
X131260000Y-114980001I-3032650J4377560D01*
G01*
X125227350Y-115002440D02*
G75*
G03*
X125260000Y-123779999I3032650J-4377560D01*
G01*
%TO.C,C13*%
X130122500Y-90690000D02*
X130122500Y-89190000D01*
X132322500Y-90080000D02*
X132322500Y-88940000D01*
X129372500Y-89940000D02*
X130872500Y-89940000D01*
X129952500Y-88940000D02*
X134692500Y-88940000D01*
X129952500Y-88940000D02*
X129952500Y-87440000D01*
X134692500Y-88940000D02*
X134692500Y-87440000D01*
X129952500Y-87440000D02*
X130702500Y-86690000D01*
X134692500Y-87440000D02*
X133942500Y-86690000D01*
X130702500Y-86690000D02*
X129952500Y-85940000D01*
X133942500Y-86690000D02*
X134692500Y-85940000D01*
X129952500Y-85940000D02*
X129952500Y-78700000D01*
X134692500Y-85940000D02*
X134692500Y-78700000D01*
X129952500Y-78700000D02*
X134692500Y-78700000D01*
X132322500Y-77560000D02*
X132322500Y-78700000D01*
%TO.C,TP4*%
X156140000Y-116840000D02*
G75*
G03*
X156140000Y-116840000I-1200000J0D01*
G01*
D10*
%TO.C,BT1*%
X165865000Y-72190000D02*
X88815000Y-72190000D01*
X165865000Y-51540000D02*
X88815000Y-51540000D01*
X165859100Y-65217800D02*
X165859100Y-72190100D01*
X165859100Y-51539900D02*
X165859100Y-58524900D01*
D15*
X99840000Y-64365000D02*
X99840000Y-59365000D01*
X97340000Y-61890400D02*
X102340000Y-61890400D01*
D10*
X88820900Y-72177400D02*
X88820900Y-65167000D01*
X88820900Y-51552600D02*
X88820900Y-58563000D01*
D14*
%TO.C,TP13*%
X128200000Y-76200000D02*
G75*
G03*
X128200000Y-76200000I-1200000J0D01*
G01*
D13*
%TO.C,R1*%
X144048000Y-115570000D02*
X142972000Y-115570000D01*
D14*
%TO.C,TP3*%
X156140000Y-129540000D02*
G75*
G03*
X156140000Y-129540000I-1200000J0D01*
G01*
D13*
%TO.C,R3*%
X146588000Y-115570000D02*
X145512000Y-115570000D01*
D14*
%TO.C,TP8*%
X129470000Y-128270000D02*
G75*
G03*
X129470000Y-128270000I-1200000J0D01*
G01*
D12*
%TO.C,J1*%
X82058000Y-109379000D02*
X82058000Y-102179000D01*
X82558000Y-109379000D02*
X82058000Y-109379000D01*
X85558000Y-109379000D02*
X87118000Y-109379000D01*
X87118000Y-109379000D02*
X87118000Y-109379000D01*
X87118000Y-109379000D02*
X87118000Y-109279000D01*
D13*
X87958000Y-104579000D02*
X87958000Y-104579000D01*
X87958000Y-104379000D02*
X87958000Y-104379000D01*
D12*
X82058000Y-102179000D02*
X82558000Y-102179000D01*
X85558000Y-102179000D02*
X87118000Y-102179000D01*
X87118000Y-102179000D02*
X87118000Y-102279000D01*
D13*
X87958000Y-104379000D02*
G75*
G03*
X87958000Y-104579000I0J-100000D01*
G01*
X87958000Y-104579000D02*
G75*
G03*
X87958000Y-104379000I0J100000D01*
G01*
D14*
%TO.C,D3*%
X151096000Y-126710000D02*
X150940000Y-126710000D01*
X148780000Y-126710000D02*
X148624000Y-126710000D01*
X150938608Y-129942334D02*
G75*
G03*
X151095515Y-126710001I-1078608J1672334D01*
G01*
X150939836Y-129311129D02*
G75*
G03*
X150939999Y-127229040I-1079836J1041129D01*
G01*
X148780001Y-127229040D02*
G75*
G03*
X148780164Y-129311129I1079999J-1040960D01*
G01*
X148624485Y-126710001D02*
G75*
G03*
X148781392Y-129942334I1235515J-1559999D01*
G01*
%TO.C,TP6*%
X161220000Y-124460000D02*
G75*
G03*
X161220000Y-124460000I-1200000J0D01*
G01*
%TO.C,TP5*%
X161220000Y-118110000D02*
G75*
G03*
X161220000Y-118110000I-1200000J0D01*
G01*
%TO.C,D1*%
X155230000Y-123156000D02*
X155230000Y-123000000D01*
X155230000Y-120840000D02*
X155230000Y-120684000D01*
X151997666Y-122998608D02*
G75*
G03*
X155229999Y-123155515I1672334J1078608D01*
G01*
X152628871Y-122999836D02*
G75*
G03*
X154710960Y-122999999I1041129J1079836D01*
G01*
X154710960Y-120840001D02*
G75*
G03*
X152628871Y-120840164I-1040960J-1079999D01*
G01*
X155229999Y-120684485D02*
G75*
G03*
X151997666Y-120841392I-1559999J-1235515D01*
G01*
D13*
%TO.C,R5*%
X93442000Y-91440000D02*
X94518000Y-91440000D01*
%TO.C,R10*%
X97470000Y-81818000D02*
X97470000Y-80742000D01*
%TO.C,R13*%
X91978000Y-86360000D02*
X90902000Y-86360000D01*
D14*
%TO.C,LEDcharge1*%
X85056000Y-80990000D02*
X84900000Y-80990000D01*
X82740000Y-80990000D02*
X82584000Y-80990000D01*
X84898608Y-84222334D02*
G75*
G03*
X85055515Y-80990001I-1078608J1672334D01*
G01*
X84899836Y-83591129D02*
G75*
G03*
X84899999Y-81509040I-1079836J1041129D01*
G01*
X82740001Y-81509040D02*
G75*
G03*
X82740164Y-83591129I1079999J-1040960D01*
G01*
X82584485Y-80990001D02*
G75*
G03*
X82741392Y-84222334I1235515J-1559999D01*
G01*
D13*
%TO.C,R16*%
X88900000Y-126462000D02*
X88900000Y-127538000D01*
%TD*%
M02*
