%TF.GenerationSoftware,KiCad,Pcbnew,(7.0.0)*%
%TF.CreationDate,2023-04-03T20:11:10+02:00*%
%TF.ProjectId,FullSchematic,46756c6c-5363-4686-956d-617469632e6b,rev?*%
%TF.SameCoordinates,Original*%
%TF.FileFunction,Soldermask,Top*%
%TF.FilePolarity,Negative*%
%FSLAX46Y46*%
G04 Gerber Fmt 4.6, Leading zero omitted, Abs format (unit mm)*
G04 Created by KiCad (PCBNEW (7.0.0)) date 2023-04-03 20:11:10*
%MOMM*%
%LPD*%
G01*
G04 APERTURE LIST*
G04 Aperture macros list*
%AMRoundRect*
0 Rectangle with rounded corners*
0 $1 Rounding radius*
0 $2 $3 $4 $5 $6 $7 $8 $9 X,Y pos of 4 corners*
0 Add a 4 corners polygon primitive as box body*
4,1,4,$2,$3,$4,$5,$6,$7,$8,$9,$2,$3,0*
0 Add four circle primitives for the rounded corners*
1,1,$1+$1,$2,$3*
1,1,$1+$1,$4,$5*
1,1,$1+$1,$6,$7*
1,1,$1+$1,$8,$9*
0 Add four rect primitives between the rounded corners*
20,1,$1+$1,$2,$3,$4,$5,0*
20,1,$1+$1,$4,$5,$6,$7,0*
20,1,$1+$1,$6,$7,$8,$9,0*
20,1,$1+$1,$8,$9,$2,$3,0*%
G04 Aperture macros list end*
%ADD10C,2.000000*%
%ADD11R,2.150000X2.200000*%
%ADD12RoundRect,0.200000X0.275000X-0.200000X0.275000X0.200000X-0.275000X0.200000X-0.275000X-0.200000X0*%
%ADD13RoundRect,0.150000X-0.587500X-0.150000X0.587500X-0.150000X0.587500X0.150000X-0.587500X0.150000X0*%
%ADD14RoundRect,0.150000X0.825000X0.150000X-0.825000X0.150000X-0.825000X-0.150000X0.825000X-0.150000X0*%
%ADD15RoundRect,0.250000X-0.312500X-0.625000X0.312500X-0.625000X0.312500X0.625000X-0.312500X0.625000X0*%
%ADD16R,0.650000X1.500000*%
%ADD17RoundRect,0.225000X0.250000X-0.225000X0.250000X0.225000X-0.250000X0.225000X-0.250000X-0.225000X0*%
%ADD18R,1.500000X0.650000*%
%ADD19R,0.600000X1.300000*%
%ADD20C,2.500000*%
%ADD21RoundRect,0.225000X-0.250000X0.225000X-0.250000X-0.225000X0.250000X-0.225000X0.250000X0.225000X0*%
%ADD22RoundRect,0.250000X-0.650000X0.325000X-0.650000X-0.325000X0.650000X-0.325000X0.650000X0.325000X0*%
%ADD23R,1.300000X0.600000*%
%ADD24C,1.600000*%
%ADD25RoundRect,0.250000X-0.262500X-0.450000X0.262500X-0.450000X0.262500X0.450000X-0.262500X0.450000X0*%
%ADD26RoundRect,0.250000X-0.625000X0.312500X-0.625000X-0.312500X0.625000X-0.312500X0.625000X0.312500X0*%
%ADD27C,1.524000*%
%ADD28RoundRect,0.250000X0.450000X-0.262500X0.450000X0.262500X-0.450000X0.262500X-0.450000X-0.262500X0*%
%ADD29RoundRect,0.135000X0.185000X-0.135000X0.185000X0.135000X-0.185000X0.135000X-0.185000X-0.135000X0*%
%ADD30RoundRect,0.100000X0.100000X-0.130000X0.100000X0.130000X-0.100000X0.130000X-0.100000X-0.130000X0*%
%ADD31RoundRect,0.250000X0.325000X0.650000X-0.325000X0.650000X-0.325000X-0.650000X0.325000X-0.650000X0*%
%ADD32RoundRect,0.200000X-0.200000X-0.275000X0.200000X-0.275000X0.200000X0.275000X-0.200000X0.275000X0*%
%ADD33R,2.000000X1.500000*%
%ADD34R,2.000000X3.800000*%
%ADD35R,1.800000X1.800000*%
%ADD36C,1.800000*%
%ADD37R,20.000000X20.000000*%
%ADD38C,2.800000*%
%ADD39R,0.340000X0.700000*%
%ADD40R,1.000000X1.450000*%
%ADD41RoundRect,0.100000X-0.130000X-0.100000X0.130000X-0.100000X0.130000X0.100000X-0.130000X0.100000X0*%
%ADD42R,1.700000X1.700000*%
%ADD43O,1.700000X1.700000*%
%ADD44C,4.000000*%
%ADD45C,2.700000*%
%ADD46RoundRect,1.625000X2.125000X1.625000X-2.125000X1.625000X-2.125000X-1.625000X2.125000X-1.625000X0*%
%ADD47R,1.250000X0.400000*%
%ADD48C,1.300000*%
%ADD49C,1.900000*%
%ADD50RoundRect,0.250000X0.625000X-0.312500X0.625000X0.312500X-0.625000X0.312500X-0.625000X-0.312500X0*%
%ADD51RoundRect,0.250000X0.312500X0.625000X-0.312500X0.625000X-0.312500X-0.625000X0.312500X-0.625000X0*%
%ADD52RoundRect,0.218750X-0.256250X0.218750X-0.256250X-0.218750X0.256250X-0.218750X0.256250X0.218750X0*%
G04 APERTURE END LIST*
D10*
%TO.C,TP21*%
X72472000Y-79995000D03*
%TD*%
D11*
%TO.C,D4*%
X55879999Y-101939999D03*
X55879999Y-106339999D03*
%TD*%
D10*
%TO.C,TP22*%
X91160600Y-143078200D03*
%TD*%
%TO.C,TP9*%
X66132000Y-113777000D03*
%TD*%
D12*
%TO.C,R22*%
X95840000Y-79613000D03*
X95840000Y-77963000D03*
%TD*%
D13*
%TO.C,U6*%
X88885000Y-89713000D03*
X88885000Y-91613000D03*
X90760000Y-90663000D03*
%TD*%
%TO.C,Q3*%
X114793000Y-103937000D03*
X114793000Y-105837000D03*
X116668000Y-104887000D03*
%TD*%
D11*
%TO.C,D6*%
X54178199Y-86801599D03*
X54178199Y-91201599D03*
%TD*%
D14*
%TO.C,U2*%
X91522000Y-125969000D03*
X91522000Y-124699000D03*
X91522000Y-123429000D03*
X91522000Y-122159000D03*
X91522000Y-120889000D03*
X91522000Y-119619000D03*
X91522000Y-118349000D03*
X91522000Y-117079000D03*
X86572000Y-117079000D03*
X86572000Y-118349000D03*
X86572000Y-119619000D03*
X86572000Y-120889000D03*
X86572000Y-122159000D03*
X86572000Y-123429000D03*
X86572000Y-124699000D03*
X86572000Y-125969000D03*
%TD*%
D15*
%TO.C,R9*%
X88789500Y-86091000D03*
X91714500Y-86091000D03*
%TD*%
D10*
%TO.C,TP14*%
X121748000Y-92695000D03*
%TD*%
D16*
%TO.C,U3*%
X128351999Y-118028999D03*
X127081999Y-118028999D03*
X125811999Y-118028999D03*
X124541999Y-118028999D03*
X124541999Y-123428999D03*
X125811999Y-123428999D03*
X127081999Y-123428999D03*
X128351999Y-123428999D03*
%TD*%
D10*
%TO.C,TP19*%
X78568000Y-95235000D03*
%TD*%
D17*
%TO.C,C10*%
X70948000Y-96010000D03*
X70948000Y-94460000D03*
%TD*%
D18*
%TO.C,U5*%
X88567999Y-95869999D03*
X88567999Y-97139999D03*
X88567999Y-98409999D03*
X88567999Y-99679999D03*
X93967999Y-99679999D03*
X93967999Y-98409999D03*
X93967999Y-97139999D03*
X93967999Y-95869999D03*
%TD*%
D10*
%TO.C,TP5*%
X87204000Y-108443000D03*
%TD*%
D19*
%TO.C,Qrevpol1*%
X82697999Y-86124999D03*
X84597999Y-86124999D03*
X83647999Y-84024999D03*
%TD*%
D10*
%TO.C,TP12*%
X121748000Y-79995000D03*
%TD*%
D17*
%TO.C,C9*%
X73253600Y-143218200D03*
X73253600Y-141668200D03*
%TD*%
D20*
%TO.C,TP18*%
X98380000Y-98283000D03*
%TD*%
D10*
%TO.C,TP11*%
X114128000Y-79995000D03*
%TD*%
D21*
%TO.C,C8*%
X73279000Y-145669000D03*
X73279000Y-147219000D03*
%TD*%
D22*
%TO.C,C1*%
X115652000Y-124494000D03*
X115652000Y-127444000D03*
%TD*%
D23*
%TO.C,Qrevpol2*%
X64597999Y-139209999D03*
X64597999Y-141109999D03*
X66697999Y-140159999D03*
%TD*%
D13*
%TO.C,Q4*%
X120732000Y-103871000D03*
X120732000Y-105771000D03*
X122607000Y-104821000D03*
%TD*%
D24*
%TO.C,C5*%
X117136000Y-94727000D03*
X112136000Y-94727000D03*
%TD*%
D25*
%TO.C,R14*%
X89019500Y-102855000D03*
X90844500Y-102855000D03*
%TD*%
D26*
%TO.C,R2*%
X136988000Y-132888500D03*
X136988000Y-135813500D03*
%TD*%
D10*
%TO.C,TP23*%
X110998000Y-135026400D03*
%TD*%
D15*
%TO.C,R15*%
X77105500Y-87615000D03*
X80030500Y-87615000D03*
%TD*%
%TO.C,R17*%
X71705500Y-137620000D03*
X74630500Y-137620000D03*
%TD*%
D27*
%TO.C,U4*%
X75012000Y-129779000D03*
X77552000Y-129779000D03*
X80092000Y-129779000D03*
X82632000Y-129779000D03*
X85172000Y-129779000D03*
X87712000Y-129779000D03*
X90252000Y-129779000D03*
X92792000Y-129779000D03*
X95332000Y-129779000D03*
X97872000Y-129779000D03*
X100412000Y-129779000D03*
X102952000Y-129779000D03*
X105492000Y-129779000D03*
X108032000Y-129779000D03*
X110572000Y-129779000D03*
X113112000Y-129779000D03*
X115652000Y-129779000D03*
X118192000Y-129779000D03*
X120732000Y-129779000D03*
X123272000Y-129779000D03*
X125812000Y-129779000D03*
X128352000Y-129779000D03*
X130892000Y-129779000D03*
X133432000Y-129779000D03*
X133432000Y-113269000D03*
X130892000Y-113269000D03*
X128352000Y-113269000D03*
X125812000Y-113269000D03*
X123272000Y-113269000D03*
X120732000Y-113269000D03*
X118192000Y-113269000D03*
X115652000Y-113269000D03*
X113112000Y-113269000D03*
X110572000Y-113269000D03*
X108032000Y-113269000D03*
X105492000Y-113269000D03*
X102952000Y-113269000D03*
X100412000Y-113269000D03*
X97872000Y-113269000D03*
X95332000Y-113269000D03*
X92792000Y-113269000D03*
X90252000Y-113269000D03*
X87712000Y-113269000D03*
X85172000Y-113269000D03*
X82632000Y-113269000D03*
X80092000Y-113269000D03*
X77552000Y-113269000D03*
X75012000Y-113269000D03*
%TD*%
D10*
%TO.C,TP16*%
X60788000Y-95235000D03*
%TD*%
D28*
%TO.C,R18*%
X83140000Y-79574500D03*
X83140000Y-77749500D03*
%TD*%
D29*
%TO.C,R19*%
X86696000Y-79172000D03*
X86696000Y-78152000D03*
%TD*%
D30*
%TO.C,R11*%
X66640000Y-105552000D03*
X66640000Y-104912000D03*
%TD*%
D10*
%TO.C,TP7*%
X138512000Y-129779000D03*
%TD*%
D31*
%TO.C,C2*%
X97995000Y-132588000D03*
X95045000Y-132588000D03*
%TD*%
D10*
%TO.C,TP10*%
X68672000Y-102347000D03*
%TD*%
%TO.C,TP15*%
X60788000Y-79995000D03*
%TD*%
D32*
%TO.C,R8*%
X89427000Y-83043000D03*
X91077000Y-83043000D03*
%TD*%
D33*
%TO.C,U1*%
X76687999Y-140399999D03*
X76687999Y-142699999D03*
X76687999Y-144999999D03*
D34*
X82987999Y-142699999D03*
%TD*%
D35*
%TO.C,D2*%
X134447999Y-140700999D03*
D36*
X131908000Y-140701000D03*
%TD*%
D10*
%TO.C,TP1*%
X116668000Y-118603000D03*
%TD*%
%TO.C,TP20*%
X85172000Y-93711000D03*
%TD*%
D13*
%TO.C,Q2*%
X84742500Y-102921000D03*
X84742500Y-104821000D03*
X86617500Y-103871000D03*
%TD*%
D37*
%TO.C,P1*%
X137159999Y-86867999D03*
%TD*%
D10*
%TO.C,TP2*%
X131908000Y-147051000D03*
%TD*%
D15*
%TO.C,R4*%
X77105500Y-85075000D03*
X80030500Y-85075000D03*
%TD*%
D38*
%TO.C,TP17*%
X101936000Y-91171000D03*
%TD*%
D26*
%TO.C,R7*%
X64598000Y-133617500D03*
X64598000Y-136542500D03*
%TD*%
D39*
%TO.C,IC1*%
X114127999Y-86574999D03*
X114627999Y-86574999D03*
X115127999Y-86574999D03*
X115127999Y-85074999D03*
X114627999Y-85074999D03*
X114127999Y-85074999D03*
%TD*%
D21*
%TO.C,C11*%
X73488000Y-94460000D03*
X73488000Y-96010000D03*
%TD*%
D13*
%TO.C,Q1*%
X109126500Y-103937000D03*
X109126500Y-105837000D03*
X111001500Y-104887000D03*
%TD*%
D18*
%TO.C,J2*%
X68247999Y-88249999D03*
X68247999Y-89519999D03*
X68247999Y-90789999D03*
X68247999Y-92059999D03*
X73647999Y-92059999D03*
X73647999Y-90789999D03*
X73647999Y-89519999D03*
X73647999Y-88249999D03*
%TD*%
D40*
%TO.C,R6*%
X127401999Y-127238999D03*
X129301999Y-127238999D03*
%TD*%
D41*
%TO.C,R23*%
X116668000Y-98283000D03*
X117308000Y-98283000D03*
%TD*%
D31*
%TO.C,C3*%
X96807000Y-110236000D03*
X93857000Y-110236000D03*
%TD*%
D24*
%TO.C,R12*%
X63572000Y-104887000D03*
X60572000Y-104887000D03*
%TD*%
D42*
%TO.C,J5*%
X54000399Y-75031599D03*
D43*
X54000399Y-77571599D03*
X54000399Y-80111599D03*
%TD*%
D24*
%TO.C,C13*%
X108032000Y-95115000D03*
X108032000Y-90115000D03*
%TD*%
D10*
%TO.C,TP4*%
X143338000Y-135621000D03*
%TD*%
D44*
%TO.C,BT1*%
X129368000Y-57660000D03*
X74168000Y-73660000D03*
D45*
X65948000Y-57660000D03*
D46*
X62118000Y-65660000D03*
X141418000Y-65660000D03*
%TD*%
D10*
%TO.C,TP13*%
X101428000Y-79995000D03*
%TD*%
D42*
%TO.C,J4*%
X53675999Y-136890999D03*
D43*
X53675999Y-134350999D03*
X53675999Y-131810999D03*
%TD*%
D26*
%TO.C,R1*%
X131908000Y-132888500D03*
X131908000Y-135813500D03*
%TD*%
D42*
%TO.C,J3*%
X147655999Y-104378999D03*
D43*
X147655999Y-106918999D03*
X147655999Y-109458999D03*
%TD*%
D10*
%TO.C,TP3*%
X143338000Y-148321000D03*
%TD*%
D26*
%TO.C,R3*%
X134448000Y-132888500D03*
X134448000Y-135813500D03*
%TD*%
D10*
%TO.C,TP8*%
X59782000Y-113777000D03*
%TD*%
D47*
%TO.C,J1*%
X56367999Y-121874999D03*
X56367999Y-122524999D03*
X56367999Y-123174999D03*
X56367999Y-123824999D03*
X56367999Y-124474999D03*
D48*
X55848000Y-120750000D03*
X55848000Y-125600000D03*
D49*
X53168000Y-119550000D03*
X53168000Y-126800000D03*
%TD*%
D41*
%TO.C,D5*%
X113808000Y-98283000D03*
X114448000Y-98283000D03*
%TD*%
D35*
%TO.C,D3*%
X138257999Y-145780999D03*
D36*
X138258000Y-148321000D03*
%TD*%
D10*
%TO.C,TP6*%
X148418000Y-143241000D03*
%TD*%
%TO.C,TP5*%
X92284000Y-106411000D03*
%TD*%
D35*
%TO.C,D1*%
X143337999Y-140700999D03*
D36*
X140798000Y-140701000D03*
%TD*%
D50*
%TO.C,R5*%
X68408000Y-96697500D03*
X68408000Y-93772500D03*
%TD*%
D51*
%TO.C,R10*%
X73360500Y-85075000D03*
X70435500Y-85075000D03*
%TD*%
D26*
%TO.C,R13*%
X65868000Y-88692500D03*
X65868000Y-91617500D03*
%TD*%
D52*
%TO.C,LEDcharge1*%
X58248000Y-84287500D03*
X58248000Y-85862500D03*
%TD*%
D15*
%TO.C,R16*%
X65675500Y-145240000D03*
X68600500Y-145240000D03*
%TD*%
D28*
%TO.C,R21*%
X92792000Y-79703500D03*
X92792000Y-77878500D03*
%TD*%
D31*
%TO.C,C4*%
X139427000Y-122954000D03*
X136477000Y-122954000D03*
%TD*%
D28*
%TO.C,R20*%
X89744000Y-79574500D03*
X89744000Y-77749500D03*
%TD*%
M02*
