%TF.GenerationSoftware,KiCad,Pcbnew,(7.0.0)*%
%TF.CreationDate,2023-04-03T20:11:10+02:00*%
%TF.ProjectId,FullSchematic,46756c6c-5363-4686-956d-617469632e6b,rev?*%
%TF.SameCoordinates,Original*%
%TF.FileFunction,Soldermask,Bot*%
%TF.FilePolarity,Negative*%
%FSLAX46Y46*%
G04 Gerber Fmt 4.6, Leading zero omitted, Abs format (unit mm)*
G04 Created by KiCad (PCBNEW (7.0.0)) date 2023-04-03 20:11:10*
%MOMM*%
%LPD*%
G01*
G04 APERTURE LIST*
%ADD10C,1.600000*%
%ADD11C,1.524000*%
%ADD12R,1.800000X1.800000*%
%ADD13C,1.800000*%
%ADD14C,2.800000*%
%ADD15R,1.700000X1.700000*%
%ADD16O,1.700000X1.700000*%
%ADD17C,4.000000*%
%ADD18C,2.700000*%
%ADD19C,1.300000*%
%ADD20C,1.900000*%
G04 APERTURE END LIST*
D10*
%TO.C,C5*%
X117136000Y-94727000D03*
X112136000Y-94727000D03*
%TD*%
D11*
%TO.C,U4*%
X75012000Y-129779000D03*
X77552000Y-129779000D03*
X80092000Y-129779000D03*
X82632000Y-129779000D03*
X85172000Y-129779000D03*
X87712000Y-129779000D03*
X90252000Y-129779000D03*
X92792000Y-129779000D03*
X95332000Y-129779000D03*
X97872000Y-129779000D03*
X100412000Y-129779000D03*
X102952000Y-129779000D03*
X105492000Y-129779000D03*
X108032000Y-129779000D03*
X110572000Y-129779000D03*
X113112000Y-129779000D03*
X115652000Y-129779000D03*
X118192000Y-129779000D03*
X120732000Y-129779000D03*
X123272000Y-129779000D03*
X125812000Y-129779000D03*
X128352000Y-129779000D03*
X130892000Y-129779000D03*
X133432000Y-129779000D03*
X133432000Y-113269000D03*
X130892000Y-113269000D03*
X128352000Y-113269000D03*
X125812000Y-113269000D03*
X123272000Y-113269000D03*
X120732000Y-113269000D03*
X118192000Y-113269000D03*
X115652000Y-113269000D03*
X113112000Y-113269000D03*
X110572000Y-113269000D03*
X108032000Y-113269000D03*
X105492000Y-113269000D03*
X102952000Y-113269000D03*
X100412000Y-113269000D03*
X97872000Y-113269000D03*
X95332000Y-113269000D03*
X92792000Y-113269000D03*
X90252000Y-113269000D03*
X87712000Y-113269000D03*
X85172000Y-113269000D03*
X82632000Y-113269000D03*
X80092000Y-113269000D03*
X77552000Y-113269000D03*
X75012000Y-113269000D03*
%TD*%
D12*
%TO.C,D2*%
X134447999Y-140700999D03*
D13*
X131908000Y-140701000D03*
%TD*%
D14*
%TO.C,TP17*%
X101936000Y-91171000D03*
%TD*%
D10*
%TO.C,R12*%
X63572000Y-104887000D03*
X60572000Y-104887000D03*
%TD*%
D15*
%TO.C,J5*%
X54000399Y-75031599D03*
D16*
X54000399Y-77571599D03*
X54000399Y-80111599D03*
%TD*%
D10*
%TO.C,C13*%
X108032000Y-95115000D03*
X108032000Y-90115000D03*
%TD*%
D17*
%TO.C,BT1*%
X129368000Y-57660000D03*
X74168000Y-73660000D03*
D18*
X65948000Y-57660000D03*
%TD*%
D15*
%TO.C,J4*%
X53675999Y-136890999D03*
D16*
X53675999Y-134350999D03*
X53675999Y-131810999D03*
%TD*%
D15*
%TO.C,J3*%
X147655999Y-104378999D03*
D16*
X147655999Y-106918999D03*
X147655999Y-109458999D03*
%TD*%
D19*
%TO.C,J1*%
X55848000Y-120750000D03*
X55848000Y-125600000D03*
D20*
X53168000Y-119550000D03*
X53168000Y-126800000D03*
%TD*%
D12*
%TO.C,D3*%
X138257999Y-145780999D03*
D13*
X138258000Y-148321000D03*
%TD*%
D12*
%TO.C,D1*%
X143337999Y-140700999D03*
D13*
X140798000Y-140701000D03*
%TD*%
M02*
