%TF.GenerationSoftware,KiCad,Pcbnew,7.0.1*%
%TF.CreationDate,2023-03-21T08:10:22+02:00*%
%TF.ProjectId,FullSchematic,46756c6c-5363-4686-956d-617469632e6b,rev?*%
%TF.SameCoordinates,Original*%
%TF.FileFunction,Paste,Top*%
%TF.FilePolarity,Positive*%
%FSLAX46Y46*%
G04 Gerber Fmt 4.6, Leading zero omitted, Abs format (unit mm)*
G04 Created by KiCad (PCBNEW 7.0.1) date 2023-03-21 08:10:22*
%MOMM*%
%LPD*%
G01*
G04 APERTURE LIST*
G04 Aperture macros list*
%AMRoundRect*
0 Rectangle with rounded corners*
0 $1 Rounding radius*
0 $2 $3 $4 $5 $6 $7 $8 $9 X,Y pos of 4 corners*
0 Add a 4 corners polygon primitive as box body*
4,1,4,$2,$3,$4,$5,$6,$7,$8,$9,$2,$3,0*
0 Add four circle primitives for the rounded corners*
1,1,$1+$1,$2,$3*
1,1,$1+$1,$4,$5*
1,1,$1+$1,$6,$7*
1,1,$1+$1,$8,$9*
0 Add four rect primitives between the rounded corners*
20,1,$1+$1,$2,$3,$4,$5,0*
20,1,$1+$1,$4,$5,$6,$7,0*
20,1,$1+$1,$6,$7,$8,$9,0*
20,1,$1+$1,$8,$9,$2,$3,0*%
G04 Aperture macros list end*
%ADD10R,1.400000X1.300000*%
%ADD11RoundRect,0.150000X0.825000X0.150000X-0.825000X0.150000X-0.825000X-0.150000X0.825000X-0.150000X0*%
%ADD12R,0.850000X1.000000*%
%ADD13R,0.650000X1.500000*%
%ADD14R,0.940000X0.730000*%
%ADD15R,0.600000X1.300000*%
%ADD16R,1.300000X0.600000*%
%ADD17R,1.450000X1.000000*%
%ADD18R,1.000000X1.450000*%
%ADD19RoundRect,0.079500X0.100500X-0.079500X0.100500X0.079500X-0.100500X0.079500X-0.100500X-0.079500X0*%
%ADD20R,0.730000X0.940000*%
%ADD21R,1.750000X0.950000*%
%ADD22R,1.750000X3.200000*%
%ADD23R,20.000000X20.000000*%
%ADD24R,0.340000X0.700000*%
%ADD25R,1.500000X0.650000*%
%ADD26RoundRect,1.625000X2.125000X1.625000X-2.125000X1.625000X-2.125000X-1.625000X2.125000X-1.625000X0*%
%ADD27R,1.250000X0.400000*%
G04 APERTURE END LIST*
D10*
%TO.C,D4*%
X91440000Y-97610000D03*
X91440000Y-100510000D03*
%TD*%
D11*
%TO.C,U2*%
X113030000Y-107950000D03*
X113030000Y-106680000D03*
X113030000Y-105410000D03*
X113030000Y-104140000D03*
X113030000Y-102870000D03*
X113030000Y-101600000D03*
X113030000Y-100330000D03*
X113030000Y-99060000D03*
X108080000Y-99060000D03*
X108080000Y-100330000D03*
X108080000Y-101600000D03*
X108080000Y-102870000D03*
X108080000Y-104140000D03*
X108080000Y-105410000D03*
X108080000Y-106680000D03*
X108080000Y-107950000D03*
%TD*%
D12*
%TO.C,C12*%
X141775000Y-88900000D03*
X137625000Y-88900000D03*
%TD*%
D13*
%TO.C,U3*%
X149860000Y-100010000D03*
X148590000Y-100010000D03*
X147320000Y-100010000D03*
X146050000Y-100010000D03*
X146050000Y-105410000D03*
X147320000Y-105410000D03*
X148590000Y-105410000D03*
X149860000Y-105410000D03*
%TD*%
D14*
%TO.C,C10*%
X96520000Y-92150000D03*
X96520000Y-90730000D03*
%TD*%
D15*
%TO.C,Qrevpol1*%
X108270000Y-82330000D03*
X110170000Y-82330000D03*
X109220000Y-80230000D03*
%TD*%
D14*
%TO.C,C9*%
X96520000Y-125170000D03*
X96520000Y-123750000D03*
%TD*%
%TO.C,C8*%
X96520000Y-126290000D03*
X96520000Y-127710000D03*
%TD*%
%TO.C,C1*%
X137160000Y-107240000D03*
X137160000Y-108660000D03*
%TD*%
D16*
%TO.C,Qrevpol2*%
X86360000Y-120970000D03*
X86360000Y-122870000D03*
X88460000Y-121920000D03*
%TD*%
D17*
%TO.C,R2*%
X148590000Y-114620000D03*
X148590000Y-116520000D03*
%TD*%
D18*
%TO.C,R15*%
X103190000Y-83820000D03*
X105090000Y-83820000D03*
%TD*%
%TO.C,R17*%
X93980000Y-119380000D03*
X95880000Y-119380000D03*
%TD*%
D19*
%TO.C,R11*%
X135128000Y-120070000D03*
X135128000Y-119380000D03*
%TD*%
D20*
%TO.C,C2*%
X119582000Y-113792000D03*
X118162000Y-113792000D03*
%TD*%
%TO.C,C4*%
X160020000Y-106172000D03*
X158600000Y-106172000D03*
%TD*%
D21*
%TO.C,U1*%
X98450000Y-122160000D03*
X98450000Y-124460000D03*
X98450000Y-126760000D03*
D22*
X104750000Y-124460000D03*
%TD*%
D23*
%TO.C,P1*%
X160528000Y-82804000D03*
%TD*%
D18*
%TO.C,R4*%
X103190000Y-81280000D03*
X105090000Y-81280000D03*
%TD*%
D17*
%TO.C,R7*%
X86360000Y-115890000D03*
X86360000Y-117790000D03*
%TD*%
D24*
%TO.C,IC1*%
X139700000Y-82780000D03*
X140200000Y-82780000D03*
X140700000Y-82780000D03*
X140700000Y-81280000D03*
X140200000Y-81280000D03*
X139700000Y-81280000D03*
%TD*%
D14*
%TO.C,C11*%
X99060000Y-90730000D03*
X99060000Y-92150000D03*
%TD*%
D25*
%TO.C,J2*%
X93820000Y-84455000D03*
X93820000Y-85725000D03*
X93820000Y-86995000D03*
X93820000Y-88265000D03*
X99220000Y-88265000D03*
X99220000Y-86995000D03*
X99220000Y-85725000D03*
X99220000Y-84455000D03*
%TD*%
D18*
%TO.C,R6*%
X148910000Y-109220000D03*
X150810000Y-109220000D03*
%TD*%
D20*
%TO.C,C3*%
X108608000Y-92456000D03*
X107188000Y-92456000D03*
%TD*%
D26*
%TO.C,BT1*%
X87690000Y-61865000D03*
X166990000Y-61865000D03*
%TD*%
D17*
%TO.C,R1*%
X143510000Y-114620000D03*
X143510000Y-116520000D03*
%TD*%
%TO.C,R3*%
X146050000Y-114620000D03*
X146050000Y-116520000D03*
%TD*%
D27*
%TO.C,J1*%
X87388000Y-104479000D03*
X87388000Y-105129000D03*
X87388000Y-105779000D03*
X87388000Y-106429000D03*
X87388000Y-107079000D03*
%TD*%
D17*
%TO.C,R5*%
X93980000Y-92390000D03*
X93980000Y-90490000D03*
%TD*%
D18*
%TO.C,R10*%
X98420000Y-81280000D03*
X96520000Y-81280000D03*
%TD*%
D17*
%TO.C,R13*%
X91440000Y-85410000D03*
X91440000Y-87310000D03*
%TD*%
D18*
%TO.C,R16*%
X87950000Y-127000000D03*
X89850000Y-127000000D03*
%TD*%
M02*
