%TF.GenerationSoftware,KiCad,Pcbnew,(7.0.0)*%
%TF.CreationDate,2023-04-03T20:11:10+02:00*%
%TF.ProjectId,FullSchematic,46756c6c-5363-4686-956d-617469632e6b,rev?*%
%TF.SameCoordinates,Original*%
%TF.FileFunction,Legend,Bot*%
%TF.FilePolarity,Positive*%
%FSLAX46Y46*%
G04 Gerber Fmt 4.6, Leading zero omitted, Abs format (unit mm)*
G04 Created by KiCad (PCBNEW (7.0.0)) date 2023-04-03 20:11:10*
%MOMM*%
%LPD*%
G01*
G04 APERTURE LIST*
%ADD10C,0.150000*%
G04 APERTURE END LIST*
D10*
X123190095Y-82362000D02*
X123285333Y-82314380D01*
X123285333Y-82314380D02*
X123428190Y-82314380D01*
X123428190Y-82314380D02*
X123571047Y-82362000D01*
X123571047Y-82362000D02*
X123666285Y-82457238D01*
X123666285Y-82457238D02*
X123713904Y-82552476D01*
X123713904Y-82552476D02*
X123761523Y-82742952D01*
X123761523Y-82742952D02*
X123761523Y-82885809D01*
X123761523Y-82885809D02*
X123713904Y-83076285D01*
X123713904Y-83076285D02*
X123666285Y-83171523D01*
X123666285Y-83171523D02*
X123571047Y-83266761D01*
X123571047Y-83266761D02*
X123428190Y-83314380D01*
X123428190Y-83314380D02*
X123332952Y-83314380D01*
X123332952Y-83314380D02*
X123190095Y-83266761D01*
X123190095Y-83266761D02*
X123142476Y-83219142D01*
X123142476Y-83219142D02*
X123142476Y-82885809D01*
X123142476Y-82885809D02*
X123332952Y-82885809D01*
X122713904Y-83314380D02*
X122713904Y-82647714D01*
X122713904Y-82838190D02*
X122666285Y-82742952D01*
X122666285Y-82742952D02*
X122618666Y-82695333D01*
X122618666Y-82695333D02*
X122523428Y-82647714D01*
X122523428Y-82647714D02*
X122428190Y-82647714D01*
X121951999Y-83314380D02*
X122047237Y-83266761D01*
X122047237Y-83266761D02*
X122094856Y-83219142D01*
X122094856Y-83219142D02*
X122142475Y-83123904D01*
X122142475Y-83123904D02*
X122142475Y-82838190D01*
X122142475Y-82838190D02*
X122094856Y-82742952D01*
X122094856Y-82742952D02*
X122047237Y-82695333D01*
X122047237Y-82695333D02*
X121951999Y-82647714D01*
X121951999Y-82647714D02*
X121809142Y-82647714D01*
X121809142Y-82647714D02*
X121713904Y-82695333D01*
X121713904Y-82695333D02*
X121666285Y-82742952D01*
X121666285Y-82742952D02*
X121618666Y-82838190D01*
X121618666Y-82838190D02*
X121618666Y-83123904D01*
X121618666Y-83123904D02*
X121666285Y-83219142D01*
X121666285Y-83219142D02*
X121713904Y-83266761D01*
X121713904Y-83266761D02*
X121809142Y-83314380D01*
X121809142Y-83314380D02*
X121951999Y-83314380D01*
X120761523Y-82647714D02*
X120761523Y-83314380D01*
X121190094Y-82647714D02*
X121190094Y-83171523D01*
X121190094Y-83171523D02*
X121142475Y-83266761D01*
X121142475Y-83266761D02*
X121047237Y-83314380D01*
X121047237Y-83314380D02*
X120904380Y-83314380D01*
X120904380Y-83314380D02*
X120809142Y-83266761D01*
X120809142Y-83266761D02*
X120761523Y-83219142D01*
X120285332Y-82647714D02*
X120285332Y-83647714D01*
X120285332Y-82695333D02*
X120190094Y-82647714D01*
X120190094Y-82647714D02*
X119999618Y-82647714D01*
X119999618Y-82647714D02*
X119904380Y-82695333D01*
X119904380Y-82695333D02*
X119856761Y-82742952D01*
X119856761Y-82742952D02*
X119809142Y-82838190D01*
X119809142Y-82838190D02*
X119809142Y-83123904D01*
X119809142Y-83123904D02*
X119856761Y-83219142D01*
X119856761Y-83219142D02*
X119904380Y-83266761D01*
X119904380Y-83266761D02*
X119999618Y-83314380D01*
X119999618Y-83314380D02*
X120190094Y-83314380D01*
X120190094Y-83314380D02*
X120285332Y-83266761D01*
X118256761Y-83314380D02*
X118828189Y-83314380D01*
X118542475Y-83314380D02*
X118542475Y-82314380D01*
X118542475Y-82314380D02*
X118637713Y-82457238D01*
X118637713Y-82457238D02*
X118732951Y-82552476D01*
X118732951Y-82552476D02*
X118828189Y-82600095D01*
X117399618Y-82647714D02*
X117399618Y-83314380D01*
X117637713Y-82266761D02*
X117875808Y-82981047D01*
X117875808Y-82981047D02*
X117256761Y-82981047D01*
X115751999Y-82362000D02*
X115847237Y-82314380D01*
X115847237Y-82314380D02*
X115990094Y-82314380D01*
X115990094Y-82314380D02*
X116132951Y-82362000D01*
X116132951Y-82362000D02*
X116228189Y-82457238D01*
X116228189Y-82457238D02*
X116275808Y-82552476D01*
X116275808Y-82552476D02*
X116323427Y-82742952D01*
X116323427Y-82742952D02*
X116323427Y-82885809D01*
X116323427Y-82885809D02*
X116275808Y-83076285D01*
X116275808Y-83076285D02*
X116228189Y-83171523D01*
X116228189Y-83171523D02*
X116132951Y-83266761D01*
X116132951Y-83266761D02*
X115990094Y-83314380D01*
X115990094Y-83314380D02*
X115894856Y-83314380D01*
X115894856Y-83314380D02*
X115751999Y-83266761D01*
X115751999Y-83266761D02*
X115704380Y-83219142D01*
X115704380Y-83219142D02*
X115704380Y-82885809D01*
X115704380Y-82885809D02*
X115894856Y-82885809D01*
X115275808Y-83314380D02*
X115275808Y-82647714D01*
X115275808Y-82314380D02*
X115323427Y-82362000D01*
X115323427Y-82362000D02*
X115275808Y-82409619D01*
X115275808Y-82409619D02*
X115228189Y-82362000D01*
X115228189Y-82362000D02*
X115275808Y-82314380D01*
X115275808Y-82314380D02*
X115275808Y-82409619D01*
X114942475Y-82647714D02*
X114561523Y-82647714D01*
X114799618Y-82314380D02*
X114799618Y-83171523D01*
X114799618Y-83171523D02*
X114751999Y-83266761D01*
X114751999Y-83266761D02*
X114656761Y-83314380D01*
X114656761Y-83314380D02*
X114561523Y-83314380D01*
X113485332Y-83314380D02*
X113580570Y-83266761D01*
X113580570Y-83266761D02*
X113628189Y-83171523D01*
X113628189Y-83171523D02*
X113628189Y-82314380D01*
X113104379Y-83314380D02*
X113104379Y-82647714D01*
X113104379Y-82314380D02*
X113151998Y-82362000D01*
X113151998Y-82362000D02*
X113104379Y-82409619D01*
X113104379Y-82409619D02*
X113056760Y-82362000D01*
X113056760Y-82362000D02*
X113104379Y-82314380D01*
X113104379Y-82314380D02*
X113104379Y-82409619D01*
X112628189Y-82647714D02*
X112628189Y-83314380D01*
X112628189Y-82742952D02*
X112580570Y-82695333D01*
X112580570Y-82695333D02*
X112485332Y-82647714D01*
X112485332Y-82647714D02*
X112342475Y-82647714D01*
X112342475Y-82647714D02*
X112247237Y-82695333D01*
X112247237Y-82695333D02*
X112199618Y-82790571D01*
X112199618Y-82790571D02*
X112199618Y-83314380D01*
X111723427Y-83314380D02*
X111723427Y-82314380D01*
X111628189Y-82933428D02*
X111342475Y-83314380D01*
X111342475Y-82647714D02*
X111723427Y-83028666D01*
X123761523Y-84886761D02*
X123618666Y-84934380D01*
X123618666Y-84934380D02*
X123380571Y-84934380D01*
X123380571Y-84934380D02*
X123285333Y-84886761D01*
X123285333Y-84886761D02*
X123237714Y-84839142D01*
X123237714Y-84839142D02*
X123190095Y-84743904D01*
X123190095Y-84743904D02*
X123190095Y-84648666D01*
X123190095Y-84648666D02*
X123237714Y-84553428D01*
X123237714Y-84553428D02*
X123285333Y-84505809D01*
X123285333Y-84505809D02*
X123380571Y-84458190D01*
X123380571Y-84458190D02*
X123571047Y-84410571D01*
X123571047Y-84410571D02*
X123666285Y-84362952D01*
X123666285Y-84362952D02*
X123713904Y-84315333D01*
X123713904Y-84315333D02*
X123761523Y-84220095D01*
X123761523Y-84220095D02*
X123761523Y-84124857D01*
X123761523Y-84124857D02*
X123713904Y-84029619D01*
X123713904Y-84029619D02*
X123666285Y-83982000D01*
X123666285Y-83982000D02*
X123571047Y-83934380D01*
X123571047Y-83934380D02*
X123332952Y-83934380D01*
X123332952Y-83934380D02*
X123190095Y-83982000D01*
X122761523Y-84934380D02*
X122761523Y-83934380D01*
X122761523Y-83934380D02*
X122428190Y-84648666D01*
X122428190Y-84648666D02*
X122094857Y-83934380D01*
X122094857Y-83934380D02*
X122094857Y-84934380D01*
X121618666Y-84934380D02*
X121618666Y-83934380D01*
X121618666Y-83934380D02*
X121047238Y-84934380D01*
X121047238Y-84934380D02*
X121047238Y-83934380D01*
X120618666Y-84648666D02*
X120142476Y-84648666D01*
X120713904Y-84934380D02*
X120380571Y-83934380D01*
X120380571Y-83934380D02*
X120047238Y-84934380D01*
X119713904Y-84934380D02*
X119713904Y-83934380D01*
X119237714Y-84934380D02*
X119237714Y-83934380D01*
X119237714Y-83934380D02*
X118904381Y-84648666D01*
X118904381Y-84648666D02*
X118571048Y-83934380D01*
X118571048Y-83934380D02*
X118571048Y-84934380D01*
X117904381Y-83934380D02*
X117809143Y-83934380D01*
X117809143Y-83934380D02*
X117713905Y-83982000D01*
X117713905Y-83982000D02*
X117666286Y-84029619D01*
X117666286Y-84029619D02*
X117618667Y-84124857D01*
X117618667Y-84124857D02*
X117571048Y-84315333D01*
X117571048Y-84315333D02*
X117571048Y-84553428D01*
X117571048Y-84553428D02*
X117618667Y-84743904D01*
X117618667Y-84743904D02*
X117666286Y-84839142D01*
X117666286Y-84839142D02*
X117713905Y-84886761D01*
X117713905Y-84886761D02*
X117809143Y-84934380D01*
X117809143Y-84934380D02*
X117904381Y-84934380D01*
X117904381Y-84934380D02*
X117999619Y-84886761D01*
X117999619Y-84886761D02*
X118047238Y-84839142D01*
X118047238Y-84839142D02*
X118094857Y-84743904D01*
X118094857Y-84743904D02*
X118142476Y-84553428D01*
X118142476Y-84553428D02*
X118142476Y-84315333D01*
X118142476Y-84315333D02*
X118094857Y-84124857D01*
X118094857Y-84124857D02*
X118047238Y-84029619D01*
X118047238Y-84029619D02*
X117999619Y-83982000D01*
X117999619Y-83982000D02*
X117904381Y-83934380D01*
X116952000Y-83934380D02*
X116856762Y-83934380D01*
X116856762Y-83934380D02*
X116761524Y-83982000D01*
X116761524Y-83982000D02*
X116713905Y-84029619D01*
X116713905Y-84029619D02*
X116666286Y-84124857D01*
X116666286Y-84124857D02*
X116618667Y-84315333D01*
X116618667Y-84315333D02*
X116618667Y-84553428D01*
X116618667Y-84553428D02*
X116666286Y-84743904D01*
X116666286Y-84743904D02*
X116713905Y-84839142D01*
X116713905Y-84839142D02*
X116761524Y-84886761D01*
X116761524Y-84886761D02*
X116856762Y-84934380D01*
X116856762Y-84934380D02*
X116952000Y-84934380D01*
X116952000Y-84934380D02*
X117047238Y-84886761D01*
X117047238Y-84886761D02*
X117094857Y-84839142D01*
X117094857Y-84839142D02*
X117142476Y-84743904D01*
X117142476Y-84743904D02*
X117190095Y-84553428D01*
X117190095Y-84553428D02*
X117190095Y-84315333D01*
X117190095Y-84315333D02*
X117142476Y-84124857D01*
X117142476Y-84124857D02*
X117094857Y-84029619D01*
X117094857Y-84029619D02*
X117047238Y-83982000D01*
X117047238Y-83982000D02*
X116952000Y-83934380D01*
X116237714Y-84029619D02*
X116190095Y-83982000D01*
X116190095Y-83982000D02*
X116094857Y-83934380D01*
X116094857Y-83934380D02*
X115856762Y-83934380D01*
X115856762Y-83934380D02*
X115761524Y-83982000D01*
X115761524Y-83982000D02*
X115713905Y-84029619D01*
X115713905Y-84029619D02*
X115666286Y-84124857D01*
X115666286Y-84124857D02*
X115666286Y-84220095D01*
X115666286Y-84220095D02*
X115713905Y-84362952D01*
X115713905Y-84362952D02*
X116285333Y-84934380D01*
X116285333Y-84934380D02*
X115666286Y-84934380D01*
X123428190Y-85554380D02*
X123428190Y-86268666D01*
X123428190Y-86268666D02*
X123475809Y-86411523D01*
X123475809Y-86411523D02*
X123571047Y-86506761D01*
X123571047Y-86506761D02*
X123713904Y-86554380D01*
X123713904Y-86554380D02*
X123809142Y-86554380D01*
X122951999Y-86554380D02*
X122951999Y-85554380D01*
X122951999Y-86030571D02*
X122380571Y-86030571D01*
X122380571Y-86554380D02*
X122380571Y-85554380D01*
X121904380Y-86554380D02*
X121904380Y-85554380D01*
X121904380Y-85554380D02*
X121332952Y-86554380D01*
X121332952Y-86554380D02*
X121332952Y-85554380D01*
X120904380Y-86268666D02*
X120428190Y-86268666D01*
X120999618Y-86554380D02*
X120666285Y-85554380D01*
X120666285Y-85554380D02*
X120332952Y-86554380D01*
X120047237Y-86506761D02*
X119904380Y-86554380D01*
X119904380Y-86554380D02*
X119666285Y-86554380D01*
X119666285Y-86554380D02*
X119571047Y-86506761D01*
X119571047Y-86506761D02*
X119523428Y-86459142D01*
X119523428Y-86459142D02*
X119475809Y-86363904D01*
X119475809Y-86363904D02*
X119475809Y-86268666D01*
X119475809Y-86268666D02*
X119523428Y-86173428D01*
X119523428Y-86173428D02*
X119571047Y-86125809D01*
X119571047Y-86125809D02*
X119666285Y-86078190D01*
X119666285Y-86078190D02*
X119856761Y-86030571D01*
X119856761Y-86030571D02*
X119951999Y-85982952D01*
X119951999Y-85982952D02*
X119999618Y-85935333D01*
X119999618Y-85935333D02*
X120047237Y-85840095D01*
X120047237Y-85840095D02*
X120047237Y-85744857D01*
X120047237Y-85744857D02*
X119999618Y-85649619D01*
X119999618Y-85649619D02*
X119951999Y-85602000D01*
X119951999Y-85602000D02*
X119856761Y-85554380D01*
X119856761Y-85554380D02*
X119618666Y-85554380D01*
X119618666Y-85554380D02*
X119475809Y-85602000D01*
X119047237Y-86554380D02*
X119047237Y-85554380D01*
X119047237Y-86030571D02*
X118475809Y-86030571D01*
X118475809Y-86554380D02*
X118475809Y-85554380D01*
X117809142Y-85554380D02*
X117713904Y-85554380D01*
X117713904Y-85554380D02*
X117618666Y-85602000D01*
X117618666Y-85602000D02*
X117571047Y-85649619D01*
X117571047Y-85649619D02*
X117523428Y-85744857D01*
X117523428Y-85744857D02*
X117475809Y-85935333D01*
X117475809Y-85935333D02*
X117475809Y-86173428D01*
X117475809Y-86173428D02*
X117523428Y-86363904D01*
X117523428Y-86363904D02*
X117571047Y-86459142D01*
X117571047Y-86459142D02*
X117618666Y-86506761D01*
X117618666Y-86506761D02*
X117713904Y-86554380D01*
X117713904Y-86554380D02*
X117809142Y-86554380D01*
X117809142Y-86554380D02*
X117904380Y-86506761D01*
X117904380Y-86506761D02*
X117951999Y-86459142D01*
X117951999Y-86459142D02*
X117999618Y-86363904D01*
X117999618Y-86363904D02*
X118047237Y-86173428D01*
X118047237Y-86173428D02*
X118047237Y-85935333D01*
X118047237Y-85935333D02*
X117999618Y-85744857D01*
X117999618Y-85744857D02*
X117951999Y-85649619D01*
X117951999Y-85649619D02*
X117904380Y-85602000D01*
X117904380Y-85602000D02*
X117809142Y-85554380D01*
X116856761Y-85554380D02*
X116761523Y-85554380D01*
X116761523Y-85554380D02*
X116666285Y-85602000D01*
X116666285Y-85602000D02*
X116618666Y-85649619D01*
X116618666Y-85649619D02*
X116571047Y-85744857D01*
X116571047Y-85744857D02*
X116523428Y-85935333D01*
X116523428Y-85935333D02*
X116523428Y-86173428D01*
X116523428Y-86173428D02*
X116571047Y-86363904D01*
X116571047Y-86363904D02*
X116618666Y-86459142D01*
X116618666Y-86459142D02*
X116666285Y-86506761D01*
X116666285Y-86506761D02*
X116761523Y-86554380D01*
X116761523Y-86554380D02*
X116856761Y-86554380D01*
X116856761Y-86554380D02*
X116951999Y-86506761D01*
X116951999Y-86506761D02*
X116999618Y-86459142D01*
X116999618Y-86459142D02*
X117047237Y-86363904D01*
X117047237Y-86363904D02*
X117094856Y-86173428D01*
X117094856Y-86173428D02*
X117094856Y-85935333D01*
X117094856Y-85935333D02*
X117047237Y-85744857D01*
X117047237Y-85744857D02*
X116999618Y-85649619D01*
X116999618Y-85649619D02*
X116951999Y-85602000D01*
X116951999Y-85602000D02*
X116856761Y-85554380D01*
X116047237Y-86554380D02*
X115856761Y-86554380D01*
X115856761Y-86554380D02*
X115761523Y-86506761D01*
X115761523Y-86506761D02*
X115713904Y-86459142D01*
X115713904Y-86459142D02*
X115618666Y-86316285D01*
X115618666Y-86316285D02*
X115571047Y-86125809D01*
X115571047Y-86125809D02*
X115571047Y-85744857D01*
X115571047Y-85744857D02*
X115618666Y-85649619D01*
X115618666Y-85649619D02*
X115666285Y-85602000D01*
X115666285Y-85602000D02*
X115761523Y-85554380D01*
X115761523Y-85554380D02*
X115951999Y-85554380D01*
X115951999Y-85554380D02*
X116047237Y-85602000D01*
X116047237Y-85602000D02*
X116094856Y-85649619D01*
X116094856Y-85649619D02*
X116142475Y-85744857D01*
X116142475Y-85744857D02*
X116142475Y-85982952D01*
X116142475Y-85982952D02*
X116094856Y-86078190D01*
X116094856Y-86078190D02*
X116047237Y-86125809D01*
X116047237Y-86125809D02*
X115951999Y-86173428D01*
X115951999Y-86173428D02*
X115761523Y-86173428D01*
X115761523Y-86173428D02*
X115666285Y-86125809D01*
X115666285Y-86125809D02*
X115618666Y-86078190D01*
X115618666Y-86078190D02*
X115571047Y-85982952D01*
X123713904Y-88174380D02*
X123713904Y-87174380D01*
X123142476Y-88174380D02*
X123571047Y-87602952D01*
X123142476Y-87174380D02*
X123713904Y-87745809D01*
X122713904Y-88174380D02*
X122713904Y-87174380D01*
X122713904Y-87174380D02*
X122475809Y-87174380D01*
X122475809Y-87174380D02*
X122332952Y-87222000D01*
X122332952Y-87222000D02*
X122237714Y-87317238D01*
X122237714Y-87317238D02*
X122190095Y-87412476D01*
X122190095Y-87412476D02*
X122142476Y-87602952D01*
X122142476Y-87602952D02*
X122142476Y-87745809D01*
X122142476Y-87745809D02*
X122190095Y-87936285D01*
X122190095Y-87936285D02*
X122237714Y-88031523D01*
X122237714Y-88031523D02*
X122332952Y-88126761D01*
X122332952Y-88126761D02*
X122475809Y-88174380D01*
X122475809Y-88174380D02*
X122713904Y-88174380D01*
X121809142Y-87174380D02*
X121142476Y-87174380D01*
X121142476Y-87174380D02*
X121809142Y-88174380D01*
X121809142Y-88174380D02*
X121142476Y-88174380D01*
X120761523Y-88174380D02*
X120761523Y-87174380D01*
X120190095Y-88174380D02*
X120618666Y-87602952D01*
X120190095Y-87174380D02*
X120761523Y-87745809D01*
X119761523Y-87174380D02*
X119761523Y-87983904D01*
X119761523Y-87983904D02*
X119713904Y-88079142D01*
X119713904Y-88079142D02*
X119666285Y-88126761D01*
X119666285Y-88126761D02*
X119571047Y-88174380D01*
X119571047Y-88174380D02*
X119380571Y-88174380D01*
X119380571Y-88174380D02*
X119285333Y-88126761D01*
X119285333Y-88126761D02*
X119237714Y-88079142D01*
X119237714Y-88079142D02*
X119190095Y-87983904D01*
X119190095Y-87983904D02*
X119190095Y-87174380D01*
X118713904Y-88174380D02*
X118713904Y-87174380D01*
X118713904Y-87174380D02*
X118475809Y-87174380D01*
X118475809Y-87174380D02*
X118332952Y-87222000D01*
X118332952Y-87222000D02*
X118237714Y-87317238D01*
X118237714Y-87317238D02*
X118190095Y-87412476D01*
X118190095Y-87412476D02*
X118142476Y-87602952D01*
X118142476Y-87602952D02*
X118142476Y-87745809D01*
X118142476Y-87745809D02*
X118190095Y-87936285D01*
X118190095Y-87936285D02*
X118237714Y-88031523D01*
X118237714Y-88031523D02*
X118332952Y-88126761D01*
X118332952Y-88126761D02*
X118475809Y-88174380D01*
X118475809Y-88174380D02*
X118713904Y-88174380D01*
X117523428Y-87174380D02*
X117428190Y-87174380D01*
X117428190Y-87174380D02*
X117332952Y-87222000D01*
X117332952Y-87222000D02*
X117285333Y-87269619D01*
X117285333Y-87269619D02*
X117237714Y-87364857D01*
X117237714Y-87364857D02*
X117190095Y-87555333D01*
X117190095Y-87555333D02*
X117190095Y-87793428D01*
X117190095Y-87793428D02*
X117237714Y-87983904D01*
X117237714Y-87983904D02*
X117285333Y-88079142D01*
X117285333Y-88079142D02*
X117332952Y-88126761D01*
X117332952Y-88126761D02*
X117428190Y-88174380D01*
X117428190Y-88174380D02*
X117523428Y-88174380D01*
X117523428Y-88174380D02*
X117618666Y-88126761D01*
X117618666Y-88126761D02*
X117666285Y-88079142D01*
X117666285Y-88079142D02*
X117713904Y-87983904D01*
X117713904Y-87983904D02*
X117761523Y-87793428D01*
X117761523Y-87793428D02*
X117761523Y-87555333D01*
X117761523Y-87555333D02*
X117713904Y-87364857D01*
X117713904Y-87364857D02*
X117666285Y-87269619D01*
X117666285Y-87269619D02*
X117618666Y-87222000D01*
X117618666Y-87222000D02*
X117523428Y-87174380D01*
X116571047Y-87174380D02*
X116475809Y-87174380D01*
X116475809Y-87174380D02*
X116380571Y-87222000D01*
X116380571Y-87222000D02*
X116332952Y-87269619D01*
X116332952Y-87269619D02*
X116285333Y-87364857D01*
X116285333Y-87364857D02*
X116237714Y-87555333D01*
X116237714Y-87555333D02*
X116237714Y-87793428D01*
X116237714Y-87793428D02*
X116285333Y-87983904D01*
X116285333Y-87983904D02*
X116332952Y-88079142D01*
X116332952Y-88079142D02*
X116380571Y-88126761D01*
X116380571Y-88126761D02*
X116475809Y-88174380D01*
X116475809Y-88174380D02*
X116571047Y-88174380D01*
X116571047Y-88174380D02*
X116666285Y-88126761D01*
X116666285Y-88126761D02*
X116713904Y-88079142D01*
X116713904Y-88079142D02*
X116761523Y-87983904D01*
X116761523Y-87983904D02*
X116809142Y-87793428D01*
X116809142Y-87793428D02*
X116809142Y-87555333D01*
X116809142Y-87555333D02*
X116761523Y-87364857D01*
X116761523Y-87364857D02*
X116713904Y-87269619D01*
X116713904Y-87269619D02*
X116666285Y-87222000D01*
X116666285Y-87222000D02*
X116571047Y-87174380D01*
X115285333Y-88174380D02*
X115856761Y-88174380D01*
X115571047Y-88174380D02*
X115571047Y-87174380D01*
X115571047Y-87174380D02*
X115666285Y-87317238D01*
X115666285Y-87317238D02*
X115761523Y-87412476D01*
X115761523Y-87412476D02*
X115856761Y-87460095D01*
%TO.C,G\u002A\u002A\u002A*%
G36*
X145773747Y-94608861D02*
G01*
X145773747Y-95500930D01*
X144881677Y-95500930D01*
X143989608Y-95500930D01*
X143989608Y-94608861D01*
X143989608Y-93716791D01*
X144881677Y-93716791D01*
X145773747Y-93716791D01*
X145773747Y-94608861D01*
G37*
G36*
X145773747Y-79146323D02*
G01*
X145773747Y-80038392D01*
X144881677Y-80038392D01*
X143989608Y-80038392D01*
X143989608Y-79146323D01*
X143989608Y-78254253D01*
X144881677Y-78254253D01*
X145773747Y-78254253D01*
X145773747Y-79146323D01*
G37*
G36*
X143394895Y-89256444D02*
G01*
X143394895Y-89553800D01*
X143097538Y-89553800D01*
X142800182Y-89553800D01*
X142800182Y-89256444D01*
X142800182Y-88959087D01*
X143097538Y-88959087D01*
X143394895Y-88959087D01*
X143394895Y-89256444D01*
G37*
G36*
X143394895Y-85688166D02*
G01*
X143394895Y-85985522D01*
X143097538Y-85985522D01*
X142800182Y-85985522D01*
X142800182Y-85688166D01*
X142800182Y-85390809D01*
X143097538Y-85390809D01*
X143394895Y-85390809D01*
X143394895Y-85688166D01*
G37*
G36*
X142205469Y-79146323D02*
G01*
X142205469Y-79443679D01*
X141908112Y-79443679D01*
X141610756Y-79443679D01*
X141610756Y-79146323D01*
X141610756Y-78848966D01*
X141908112Y-78848966D01*
X142205469Y-78848966D01*
X142205469Y-79146323D01*
G37*
G36*
X140421330Y-88661731D02*
G01*
X140421330Y-88959087D01*
X140123973Y-88959087D01*
X139826617Y-88959087D01*
X139826617Y-88661731D01*
X139826617Y-88364374D01*
X140123973Y-88364374D01*
X140421330Y-88364374D01*
X140421330Y-88661731D01*
G37*
G36*
X139826617Y-82119888D02*
G01*
X139826617Y-82417244D01*
X139529260Y-82417244D01*
X139231904Y-82417244D01*
X139231904Y-82119888D01*
X139231904Y-81822531D01*
X139529260Y-81822531D01*
X139826617Y-81822531D01*
X139826617Y-82119888D01*
G37*
G36*
X139826617Y-80930462D02*
G01*
X139826617Y-81227818D01*
X139529260Y-81227818D01*
X139231904Y-81227818D01*
X139231904Y-80930462D01*
X139231904Y-80633105D01*
X139529260Y-80633105D01*
X139826617Y-80633105D01*
X139826617Y-80930462D01*
G37*
G36*
X138637191Y-80930462D02*
G01*
X138637191Y-81227818D01*
X138339834Y-81227818D01*
X138042478Y-81227818D01*
X138042478Y-80930462D01*
X138042478Y-80633105D01*
X138339834Y-80633105D01*
X138637191Y-80633105D01*
X138637191Y-80930462D01*
G37*
G36*
X138042478Y-93716791D02*
G01*
X138042478Y-94311504D01*
X137745121Y-94311504D01*
X137447765Y-94311504D01*
X137447765Y-93716791D01*
X137447765Y-93122078D01*
X137745121Y-93122078D01*
X138042478Y-93122078D01*
X138042478Y-93716791D01*
G37*
G36*
X138042478Y-89553800D02*
G01*
X138042478Y-90148513D01*
X137745121Y-90148513D01*
X137447765Y-90148513D01*
X137447765Y-89553800D01*
X137447765Y-88959087D01*
X137745121Y-88959087D01*
X138042478Y-88959087D01*
X138042478Y-89553800D01*
G37*
G36*
X135663626Y-88661731D02*
G01*
X135663626Y-88959087D01*
X135366269Y-88959087D01*
X135068913Y-88959087D01*
X135068913Y-88661731D01*
X135068913Y-88364374D01*
X135366269Y-88364374D01*
X135663626Y-88364374D01*
X135663626Y-88661731D01*
G37*
G36*
X135663626Y-78848966D02*
G01*
X135663626Y-79443679D01*
X135366269Y-79443679D01*
X135068913Y-79443679D01*
X135068913Y-78848966D01*
X135068913Y-78254253D01*
X135366269Y-78254253D01*
X135663626Y-78254253D01*
X135663626Y-78848966D01*
G37*
G36*
X135068913Y-91040583D02*
G01*
X135068913Y-91337939D01*
X134771556Y-91337939D01*
X134474200Y-91337939D01*
X134474200Y-91040583D01*
X134474200Y-90743226D01*
X134771556Y-90743226D01*
X135068913Y-90743226D01*
X135068913Y-91040583D01*
G37*
G36*
X135068913Y-80930462D02*
G01*
X135068913Y-81227818D01*
X134771556Y-81227818D01*
X134474200Y-81227818D01*
X134474200Y-80930462D01*
X134474200Y-80633105D01*
X134771556Y-80633105D01*
X135068913Y-80633105D01*
X135068913Y-80930462D01*
G37*
G36*
X133879487Y-91635296D02*
G01*
X133879487Y-91932652D01*
X133582130Y-91932652D01*
X133284774Y-91932652D01*
X133284774Y-91635296D01*
X133284774Y-91337939D01*
X133582130Y-91337939D01*
X133879487Y-91337939D01*
X133879487Y-91635296D01*
G37*
G36*
X133284774Y-86282879D02*
G01*
X133284774Y-86580235D01*
X132987417Y-86580235D01*
X132690061Y-86580235D01*
X132690061Y-86282879D01*
X132690061Y-85985522D01*
X132987417Y-85985522D01*
X133284774Y-85985522D01*
X133284774Y-86282879D01*
G37*
G36*
X131500635Y-92824722D02*
G01*
X131500635Y-93122078D01*
X131203278Y-93122078D01*
X130905922Y-93122078D01*
X130905922Y-92824722D01*
X130905922Y-92527365D01*
X131203278Y-92527365D01*
X131500635Y-92527365D01*
X131500635Y-92824722D01*
G37*
G36*
X130311209Y-79146323D02*
G01*
X130311209Y-80038392D01*
X129419139Y-80038392D01*
X128527070Y-80038392D01*
X128527070Y-79146323D01*
X128527070Y-78254253D01*
X129419139Y-78254253D01*
X130311209Y-78254253D01*
X130311209Y-79146323D01*
G37*
G36*
X128527070Y-84796096D02*
G01*
X128527070Y-85390809D01*
X128229713Y-85390809D01*
X127932357Y-85390809D01*
X127932357Y-84796096D01*
X127932357Y-84201383D01*
X128229713Y-84201383D01*
X128527070Y-84201383D01*
X128527070Y-84796096D01*
G37*
G36*
X127932357Y-95798287D02*
G01*
X127932357Y-96095643D01*
X127635000Y-96095643D01*
X127337644Y-96095643D01*
X127337644Y-95798287D01*
X127337644Y-95500930D01*
X127635000Y-95500930D01*
X127932357Y-95500930D01*
X127932357Y-95798287D01*
G37*
G36*
X127932357Y-94608861D02*
G01*
X127932357Y-94906217D01*
X127635000Y-94906217D01*
X127337644Y-94906217D01*
X127337644Y-94608861D01*
X127337644Y-94311504D01*
X127635000Y-94311504D01*
X127932357Y-94311504D01*
X127932357Y-94608861D01*
G37*
G36*
X127932357Y-92230009D02*
G01*
X127932357Y-92527365D01*
X127635000Y-92527365D01*
X127337644Y-92527365D01*
X127337644Y-92230009D01*
X127337644Y-91932652D01*
X127635000Y-91932652D01*
X127932357Y-91932652D01*
X127932357Y-92230009D01*
G37*
G36*
X128527070Y-83309314D02*
G01*
X128527070Y-83606670D01*
X127932357Y-83606670D01*
X127337644Y-83606670D01*
X127337644Y-83309314D01*
X127337644Y-83011957D01*
X127932357Y-83011957D01*
X128527070Y-83011957D01*
X128527070Y-83309314D01*
G37*
G36*
X146665816Y-91337939D02*
G01*
X146963173Y-91337939D01*
X146963173Y-91635296D01*
X146963173Y-91932652D01*
X146665816Y-91932652D01*
X146368460Y-91932652D01*
X146368460Y-91635296D01*
X146368460Y-91337939D01*
X146665816Y-91337939D01*
G37*
G36*
X146368460Y-91040583D02*
G01*
X146368460Y-91337939D01*
X146071103Y-91337939D01*
X145773747Y-91337939D01*
X145773747Y-91040583D01*
X145773747Y-90743226D01*
X146071103Y-90743226D01*
X146368460Y-90743226D01*
X146368460Y-91040583D01*
G37*
G36*
X143989608Y-91337939D02*
G01*
X145179034Y-91337939D01*
X145179034Y-91635296D01*
X145179034Y-91932652D01*
X143989608Y-91932652D01*
X142800182Y-91932652D01*
X142800182Y-91635296D01*
X142800182Y-91337939D01*
X143989608Y-91337939D01*
G37*
G36*
X142800182Y-91040583D02*
G01*
X142800182Y-91337939D01*
X142502825Y-91337939D01*
X142205469Y-91337939D01*
X142205469Y-91040583D01*
X142205469Y-90743226D01*
X142502825Y-90743226D01*
X142800182Y-90743226D01*
X142800182Y-91040583D01*
G37*
G36*
X146963173Y-93160447D02*
G01*
X146963173Y-94608861D01*
X146963173Y-96690356D01*
X144881677Y-96690356D01*
X142800182Y-96690356D01*
X142800182Y-96057275D01*
X143433263Y-96057275D01*
X144881677Y-96057275D01*
X146330091Y-96057275D01*
X146330091Y-94608861D01*
X146330091Y-93160447D01*
X144881677Y-93160447D01*
X143433263Y-93160447D01*
X143433263Y-94608861D01*
X143433263Y-96057275D01*
X142800182Y-96057275D01*
X142800182Y-94608861D01*
X142800182Y-92527365D01*
X144881677Y-92527365D01*
X146963173Y-92527365D01*
X146963173Y-93160447D01*
G37*
G36*
X146963173Y-77697909D02*
G01*
X146963173Y-79146323D01*
X146963173Y-81227818D01*
X144881677Y-81227818D01*
X142800182Y-81227818D01*
X142800182Y-80594737D01*
X143433263Y-80594737D01*
X144881677Y-80594737D01*
X146330091Y-80594737D01*
X146330091Y-79146323D01*
X146330091Y-77697909D01*
X144881677Y-77697909D01*
X143433263Y-77697909D01*
X143433263Y-79146323D01*
X143433263Y-80594737D01*
X142800182Y-80594737D01*
X142800182Y-79146323D01*
X142800182Y-77064827D01*
X144881677Y-77064827D01*
X146963173Y-77064827D01*
X146963173Y-77697909D01*
G37*
G36*
X131500635Y-77697909D02*
G01*
X131500635Y-79146323D01*
X131500635Y-81227818D01*
X129419139Y-81227818D01*
X127337644Y-81227818D01*
X127337644Y-80594737D01*
X127970725Y-80594737D01*
X129419139Y-80594737D01*
X130867553Y-80594737D01*
X130867553Y-79146323D01*
X130867553Y-77697909D01*
X129419139Y-77697909D01*
X127970725Y-77697909D01*
X127970725Y-79146323D01*
X127970725Y-80594737D01*
X127337644Y-80594737D01*
X127337644Y-79146323D01*
X127337644Y-77064827D01*
X129419139Y-77064827D01*
X131500635Y-77064827D01*
X131500635Y-77697909D01*
G37*
G36*
X133582130Y-78254253D02*
G01*
X133879487Y-78254253D01*
X133879487Y-78551610D01*
X133879487Y-78848966D01*
X133582130Y-78848966D01*
X133284774Y-78848966D01*
X133284774Y-78551610D01*
X133284774Y-78254253D01*
X133582130Y-78254253D01*
G37*
G36*
X133284774Y-77659540D02*
G01*
X133284774Y-78254253D01*
X132987417Y-78254253D01*
X132690061Y-78254253D01*
X132690061Y-78551610D01*
X132690061Y-78848966D01*
X132392704Y-78848966D01*
X132095348Y-78848966D01*
X132095348Y-78254253D01*
X132095348Y-77659540D01*
X132392704Y-77659540D01*
X132690061Y-77659540D01*
X132690061Y-77362184D01*
X132690061Y-77064827D01*
X132987417Y-77064827D01*
X133284774Y-77064827D01*
X133284774Y-77659540D01*
G37*
G36*
X140421330Y-77362184D02*
G01*
X140421330Y-77659540D01*
X140718686Y-77659540D01*
X141016043Y-77659540D01*
X141016043Y-77362184D01*
X141016043Y-77064827D01*
X141610756Y-77064827D01*
X142205469Y-77064827D01*
X142205469Y-77659540D01*
X142205469Y-78254253D01*
X141016043Y-78254253D01*
X139826617Y-78254253D01*
X139826617Y-77956897D01*
X139826617Y-77659540D01*
X139529260Y-77659540D01*
X139231904Y-77659540D01*
X139231904Y-77956897D01*
X139231904Y-78254253D01*
X138934547Y-78254253D01*
X138637191Y-78254253D01*
X138637191Y-77956897D01*
X138637191Y-77659540D01*
X138339834Y-77659540D01*
X138042478Y-77659540D01*
X138042478Y-77362184D01*
X138042478Y-77064827D01*
X139231904Y-77064827D01*
X140421330Y-77064827D01*
X140421330Y-77362184D01*
G37*
G36*
X143097538Y-81822531D02*
G01*
X143989608Y-81822531D01*
X143989608Y-82119888D01*
X143989608Y-82417244D01*
X143097538Y-82417244D01*
X142205469Y-82417244D01*
X142205469Y-82119888D01*
X142205469Y-81822531D01*
X143097538Y-81822531D01*
G37*
G36*
X140421330Y-79741036D02*
G01*
X140421330Y-80038392D01*
X140718686Y-80038392D01*
X141016043Y-80038392D01*
X141016043Y-79741036D01*
X141016043Y-79443679D01*
X141313399Y-79443679D01*
X141610756Y-79443679D01*
X141610756Y-80038392D01*
X141610756Y-80633105D01*
X141313399Y-80633105D01*
X141016043Y-80633105D01*
X141016043Y-80930462D01*
X141016043Y-81227818D01*
X141313399Y-81227818D01*
X141610756Y-81227818D01*
X141610756Y-80930462D01*
X141610756Y-80633105D01*
X141908112Y-80633105D01*
X142205469Y-80633105D01*
X142205469Y-81227818D01*
X142205469Y-81822531D01*
X141610756Y-81822531D01*
X141016043Y-81822531D01*
X141016043Y-81525175D01*
X141016043Y-81227818D01*
X140718686Y-81227818D01*
X140421330Y-81227818D01*
X140421330Y-80633105D01*
X140421330Y-80038392D01*
X139826617Y-80038392D01*
X139231904Y-80038392D01*
X139231904Y-79741036D01*
X139231904Y-79443679D01*
X139826617Y-79443679D01*
X140421330Y-79443679D01*
X140421330Y-79741036D01*
G37*
G36*
X138339834Y-78848966D02*
G01*
X138637191Y-78848966D01*
X138637191Y-79443679D01*
X138637191Y-80038392D01*
X138339834Y-80038392D01*
X138042478Y-80038392D01*
X138042478Y-79443679D01*
X138042478Y-78848966D01*
X138339834Y-78848966D01*
G37*
G36*
X136555695Y-78254253D02*
G01*
X136853052Y-78254253D01*
X136853052Y-78551610D01*
X136853052Y-78848966D01*
X137150408Y-78848966D01*
X137447765Y-78848966D01*
X137447765Y-78551610D01*
X137447765Y-78254253D01*
X137745121Y-78254253D01*
X138042478Y-78254253D01*
X138042478Y-78551610D01*
X138042478Y-78848966D01*
X137745121Y-78848966D01*
X137447765Y-78848966D01*
X137447765Y-79146323D01*
X137447765Y-79443679D01*
X137150408Y-79443679D01*
X136853052Y-79443679D01*
X136853052Y-79146323D01*
X136853052Y-78848966D01*
X136555695Y-78848966D01*
X136258339Y-78848966D01*
X136258339Y-78551610D01*
X136258339Y-78254253D01*
X136555695Y-78254253D01*
G37*
G36*
X137447765Y-77362184D02*
G01*
X137447765Y-77659540D01*
X136853052Y-77659540D01*
X136258339Y-77659540D01*
X136258339Y-77956897D01*
X136258339Y-78254253D01*
X135960982Y-78254253D01*
X135663626Y-78254253D01*
X135663626Y-77956897D01*
X135663626Y-77659540D01*
X134771556Y-77659540D01*
X133879487Y-77659540D01*
X133879487Y-77362184D01*
X133879487Y-77064827D01*
X135663626Y-77064827D01*
X137447765Y-77064827D01*
X137447765Y-77362184D01*
G37*
G36*
X141908112Y-96095643D02*
G01*
X142205469Y-96095643D01*
X142205469Y-96393000D01*
X142205469Y-96690356D01*
X141908112Y-96690356D01*
X141610756Y-96690356D01*
X141610756Y-96393000D01*
X141610756Y-96095643D01*
X141908112Y-96095643D01*
G37*
G36*
X138637191Y-91635296D02*
G01*
X138637191Y-91932652D01*
X139231904Y-91932652D01*
X139826617Y-91932652D01*
X139826617Y-91635296D01*
X139826617Y-91337939D01*
X139231904Y-91337939D01*
X138637191Y-91337939D01*
X138637191Y-91040583D01*
X138637191Y-90743226D01*
X139826617Y-90743226D01*
X141016043Y-90743226D01*
X141016043Y-91040583D01*
X141016043Y-91337939D01*
X141313399Y-91337939D01*
X141610756Y-91337939D01*
X141610756Y-91635296D01*
X141610756Y-91932652D01*
X140718686Y-91932652D01*
X139826617Y-91932652D01*
X139826617Y-92824722D01*
X139826617Y-93716791D01*
X139529260Y-93716791D01*
X139231904Y-93716791D01*
X139231904Y-94014148D01*
X139231904Y-94311504D01*
X139529260Y-94311504D01*
X139826617Y-94311504D01*
X139826617Y-94014148D01*
X139826617Y-93716791D01*
X140123973Y-93716791D01*
X140421330Y-93716791D01*
X140421330Y-94014148D01*
X140421330Y-94311504D01*
X140123973Y-94311504D01*
X139826617Y-94311504D01*
X139826617Y-94906217D01*
X139826617Y-95500930D01*
X139231904Y-95500930D01*
X138637191Y-95500930D01*
X138637191Y-93716791D01*
X138637191Y-91932652D01*
X138339834Y-91932652D01*
X138042478Y-91932652D01*
X138042478Y-92230009D01*
X138042478Y-92527365D01*
X136853052Y-92527365D01*
X135663626Y-92527365D01*
X135663626Y-92824722D01*
X135663626Y-93122078D01*
X135366269Y-93122078D01*
X135068913Y-93122078D01*
X135068913Y-93419435D01*
X135068913Y-93716791D01*
X135366269Y-93716791D01*
X135663626Y-93716791D01*
X135663626Y-94014148D01*
X135663626Y-94311504D01*
X135960982Y-94311504D01*
X136258339Y-94311504D01*
X136258339Y-94014148D01*
X136258339Y-93716791D01*
X136555695Y-93716791D01*
X136853052Y-93716791D01*
X136853052Y-94014148D01*
X136853052Y-94311504D01*
X136555695Y-94311504D01*
X136258339Y-94311504D01*
X136258339Y-94608861D01*
X136258339Y-94906217D01*
X136555695Y-94906217D01*
X136853052Y-94906217D01*
X136853052Y-95203574D01*
X136853052Y-95500930D01*
X137447765Y-95500930D01*
X138042478Y-95500930D01*
X138042478Y-95798287D01*
X138042478Y-96095643D01*
X139231904Y-96095643D01*
X140421330Y-96095643D01*
X140421330Y-96393000D01*
X140421330Y-96690356D01*
X138042478Y-96690356D01*
X135663626Y-96690356D01*
X135663626Y-96393000D01*
X135663626Y-96095643D01*
X135366269Y-96095643D01*
X135068913Y-96095643D01*
X135068913Y-95798287D01*
X135068913Y-95500930D01*
X135366269Y-95500930D01*
X135663626Y-95500930D01*
X135663626Y-94906217D01*
X135663626Y-94311504D01*
X135366269Y-94311504D01*
X135068913Y-94311504D01*
X135068913Y-94608861D01*
X135068913Y-94906217D01*
X134474200Y-94906217D01*
X133879487Y-94906217D01*
X133879487Y-95500930D01*
X133879487Y-96095643D01*
X133582130Y-96095643D01*
X133284774Y-96095643D01*
X133284774Y-96393000D01*
X133284774Y-96690356D01*
X132987417Y-96690356D01*
X132690061Y-96690356D01*
X132690061Y-96393000D01*
X132690061Y-96095643D01*
X132987417Y-96095643D01*
X133284774Y-96095643D01*
X133284774Y-95500930D01*
X133284774Y-94906217D01*
X132987417Y-94906217D01*
X132690061Y-94906217D01*
X132690061Y-94608861D01*
X132690061Y-94311504D01*
X131797991Y-94311504D01*
X130905922Y-94311504D01*
X130905922Y-94608861D01*
X130905922Y-94906217D01*
X131203278Y-94906217D01*
X131500635Y-94906217D01*
X131500635Y-95203574D01*
X131500635Y-95500930D01*
X132095348Y-95500930D01*
X132690061Y-95500930D01*
X132690061Y-95798287D01*
X132690061Y-96095643D01*
X132095348Y-96095643D01*
X131500635Y-96095643D01*
X131500635Y-96393000D01*
X131500635Y-96690356D01*
X131203278Y-96690356D01*
X130905922Y-96690356D01*
X130905922Y-96393000D01*
X130905922Y-96095643D01*
X130608565Y-96095643D01*
X130311209Y-96095643D01*
X130311209Y-96393000D01*
X130311209Y-96690356D01*
X129419139Y-96690356D01*
X128527070Y-96690356D01*
X128527070Y-96393000D01*
X128527070Y-96095643D01*
X128824426Y-96095643D01*
X129121783Y-96095643D01*
X129121783Y-95798287D01*
X129121783Y-95500930D01*
X128824426Y-95500930D01*
X128527070Y-95500930D01*
X128527070Y-95203574D01*
X128527070Y-94906217D01*
X128824426Y-94906217D01*
X129121783Y-94906217D01*
X129121783Y-95203574D01*
X129121783Y-95500930D01*
X129716496Y-95500930D01*
X130311209Y-95500930D01*
X130311209Y-94906217D01*
X130311209Y-94311504D01*
X130013852Y-94311504D01*
X129716496Y-94311504D01*
X129716496Y-94014148D01*
X129716496Y-93716791D01*
X130311209Y-93716791D01*
X131203278Y-93716791D01*
X132095348Y-93716791D01*
X132095348Y-92824722D01*
X132095348Y-91932652D01*
X131203278Y-91932652D01*
X130311209Y-91932652D01*
X130311209Y-92824722D01*
X130311209Y-93716791D01*
X129716496Y-93716791D01*
X129419139Y-93716791D01*
X129121783Y-93716791D01*
X129121783Y-94014148D01*
X129121783Y-94311504D01*
X128527070Y-94311504D01*
X127932357Y-94311504D01*
X127932357Y-94014148D01*
X127932357Y-93716791D01*
X127635000Y-93716791D01*
X127337644Y-93716791D01*
X127337644Y-93419435D01*
X127337644Y-93122078D01*
X128527070Y-93122078D01*
X129716496Y-93122078D01*
X129716496Y-92824722D01*
X129716496Y-92527365D01*
X129419139Y-92527365D01*
X129121783Y-92527365D01*
X129121783Y-91932652D01*
X129121783Y-91337939D01*
X130013852Y-91337939D01*
X130905922Y-91337939D01*
X130905922Y-90743226D01*
X130905922Y-90148513D01*
X131500635Y-90148513D01*
X132095348Y-90148513D01*
X132095348Y-90445870D01*
X132095348Y-90743226D01*
X131797991Y-90743226D01*
X131500635Y-90743226D01*
X131500635Y-91040583D01*
X131500635Y-91337939D01*
X132095348Y-91337939D01*
X132690061Y-91337939D01*
X132690061Y-91932652D01*
X132690061Y-92527365D01*
X132987417Y-92527365D01*
X133284774Y-92527365D01*
X133284774Y-93419435D01*
X133284774Y-94311504D01*
X133582130Y-94311504D01*
X133879487Y-94311504D01*
X133879487Y-93716791D01*
X133879487Y-93122078D01*
X134176843Y-93122078D01*
X134474200Y-93122078D01*
X134474200Y-92527365D01*
X134474200Y-91932652D01*
X135366269Y-91932652D01*
X136258339Y-91932652D01*
X136258339Y-91635296D01*
X136258339Y-91337939D01*
X136555695Y-91337939D01*
X136853052Y-91337939D01*
X136853052Y-91635296D01*
X136853052Y-91932652D01*
X137150408Y-91932652D01*
X137447765Y-91932652D01*
X137447765Y-91635296D01*
X137447765Y-91337939D01*
X138042478Y-91337939D01*
X138637191Y-91337939D01*
X138637191Y-91635296D01*
G37*
G36*
X134176843Y-96095643D02*
G01*
X134474200Y-96095643D01*
X134474200Y-96393000D01*
X134474200Y-96690356D01*
X134176843Y-96690356D01*
X133879487Y-96690356D01*
X133879487Y-96393000D01*
X133879487Y-96095643D01*
X134176843Y-96095643D01*
G37*
G36*
X141313399Y-94311504D02*
G01*
X142205469Y-94311504D01*
X142205469Y-94906217D01*
X142205469Y-95500930D01*
X141908112Y-95500930D01*
X141610756Y-95500930D01*
X141610756Y-95798287D01*
X141610756Y-96095643D01*
X141313399Y-96095643D01*
X141016043Y-96095643D01*
X141016043Y-95798287D01*
X141016043Y-95500930D01*
X140718686Y-95500930D01*
X140421330Y-95500930D01*
X140421330Y-94906217D01*
X140421330Y-94311504D01*
X141313399Y-94311504D01*
G37*
G36*
X141908112Y-91932652D02*
G01*
X142205469Y-91932652D01*
X142205469Y-92824722D01*
X142205469Y-93716791D01*
X141908112Y-93716791D01*
X141610756Y-93716791D01*
X141610756Y-93419435D01*
X141610756Y-93122078D01*
X141313399Y-93122078D01*
X141016043Y-93122078D01*
X141016043Y-92824722D01*
X141016043Y-92527365D01*
X141313399Y-92527365D01*
X141610756Y-92527365D01*
X141610756Y-92230009D01*
X141610756Y-91932652D01*
X141908112Y-91932652D01*
G37*
G36*
X134474200Y-80335749D02*
G01*
X134474200Y-80633105D01*
X134176843Y-80633105D01*
X133879487Y-80633105D01*
X133879487Y-80930462D01*
X133879487Y-81227818D01*
X133582130Y-81227818D01*
X133284774Y-81227818D01*
X133284774Y-81525175D01*
X133284774Y-81822531D01*
X132987417Y-81822531D01*
X132690061Y-81822531D01*
X132690061Y-82119888D01*
X132690061Y-82417244D01*
X132987417Y-82417244D01*
X133284774Y-82417244D01*
X133284774Y-82119888D01*
X133284774Y-81822531D01*
X133879487Y-81822531D01*
X134474200Y-81822531D01*
X134474200Y-82119888D01*
X134474200Y-82417244D01*
X134771556Y-82417244D01*
X135068913Y-82417244D01*
X135068913Y-82119888D01*
X135068913Y-81822531D01*
X135366269Y-81822531D01*
X135663626Y-81822531D01*
X135663626Y-81227818D01*
X135663626Y-80633105D01*
X135366269Y-80633105D01*
X135068913Y-80633105D01*
X135068913Y-80335749D01*
X135068913Y-80038392D01*
X135663626Y-80038392D01*
X136258339Y-80038392D01*
X136258339Y-80633105D01*
X136258339Y-81227818D01*
X136555695Y-81227818D01*
X136853052Y-81227818D01*
X136853052Y-80930462D01*
X136853052Y-80633105D01*
X137150408Y-80633105D01*
X137447765Y-80633105D01*
X137447765Y-80930462D01*
X137447765Y-81227818D01*
X137150408Y-81227818D01*
X136853052Y-81227818D01*
X136853052Y-81525175D01*
X136853052Y-81822531D01*
X137150408Y-81822531D01*
X137447765Y-81822531D01*
X137447765Y-82417244D01*
X137447765Y-82714601D01*
X137447765Y-83606670D01*
X137745121Y-83606670D01*
X138042478Y-83606670D01*
X138042478Y-83309314D01*
X138042478Y-83011957D01*
X138339834Y-83011957D01*
X138637191Y-83011957D01*
X138637191Y-83309314D01*
X138637191Y-83606670D01*
X139231904Y-83606670D01*
X139826617Y-83606670D01*
X139826617Y-83309314D01*
X139826617Y-83011957D01*
X140421330Y-83011957D01*
X141016043Y-83011957D01*
X141016043Y-82714601D01*
X141016043Y-82417244D01*
X141313399Y-82417244D01*
X141610756Y-82417244D01*
X141610756Y-82714601D01*
X141610756Y-83011957D01*
X142502825Y-83011957D01*
X143394895Y-83011957D01*
X143394895Y-83309314D01*
X143394895Y-83606670D01*
X143097538Y-83606670D01*
X142800182Y-83606670D01*
X142800182Y-83904027D01*
X142800182Y-84201383D01*
X143989608Y-84201383D01*
X145179034Y-84201383D01*
X145179034Y-83904027D01*
X145179034Y-83606670D01*
X144584321Y-83606670D01*
X143989608Y-83606670D01*
X143989608Y-83309314D01*
X143989608Y-83011957D01*
X144286964Y-83011957D01*
X144584321Y-83011957D01*
X144584321Y-82417244D01*
X144584321Y-81822531D01*
X145179034Y-81822531D01*
X145773747Y-81822531D01*
X145773747Y-82119888D01*
X145773747Y-82417244D01*
X146071103Y-82417244D01*
X146368460Y-82417244D01*
X146368460Y-82119888D01*
X146368460Y-81822531D01*
X146665816Y-81822531D01*
X146963173Y-81822531D01*
X146963173Y-82119888D01*
X146963173Y-82417244D01*
X146665816Y-82417244D01*
X146368460Y-82417244D01*
X146368460Y-83011957D01*
X146368460Y-83606670D01*
X146071103Y-83606670D01*
X145773747Y-83606670D01*
X145773747Y-84498740D01*
X145773747Y-85390809D01*
X146071103Y-85390809D01*
X146368460Y-85390809D01*
X146368460Y-84796096D01*
X146368460Y-84201383D01*
X146665816Y-84201383D01*
X146963173Y-84201383D01*
X146963173Y-84796096D01*
X146963173Y-85390809D01*
X146665816Y-85390809D01*
X146368460Y-85390809D01*
X146368460Y-85688166D01*
X146368460Y-85985522D01*
X146071103Y-85985522D01*
X145773747Y-85985522D01*
X145773747Y-86282879D01*
X145773747Y-86580235D01*
X146071103Y-86580235D01*
X146368460Y-86580235D01*
X146368460Y-86282879D01*
X146368460Y-85985522D01*
X146665816Y-85985522D01*
X146963173Y-85985522D01*
X146963173Y-86580235D01*
X146963173Y-87174948D01*
X145773747Y-87174948D01*
X144584321Y-87174948D01*
X144584321Y-87472305D01*
X144584321Y-87769661D01*
X144881677Y-87769661D01*
X145179034Y-87769661D01*
X145179034Y-88067018D01*
X145179034Y-88364374D01*
X145476390Y-88364374D01*
X145773747Y-88364374D01*
X145773747Y-88067018D01*
X145773747Y-87769661D01*
X146071103Y-87769661D01*
X146368460Y-87769661D01*
X146368460Y-88067018D01*
X146368460Y-88364374D01*
X146665816Y-88364374D01*
X146963173Y-88364374D01*
X146963173Y-88661731D01*
X146963173Y-88959087D01*
X146368460Y-88959087D01*
X145773747Y-88959087D01*
X145773747Y-89256444D01*
X145773747Y-89553800D01*
X145179034Y-89553800D01*
X144584321Y-89553800D01*
X144584321Y-88959087D01*
X144584321Y-88364374D01*
X144286964Y-88364374D01*
X143989608Y-88364374D01*
X143989608Y-88067018D01*
X143989608Y-87769661D01*
X143692251Y-87769661D01*
X143394895Y-87769661D01*
X143394895Y-88067018D01*
X143394895Y-88364374D01*
X142800182Y-88364374D01*
X142205469Y-88364374D01*
X142205469Y-88959087D01*
X142205469Y-89553800D01*
X141908112Y-89553800D01*
X141610756Y-89553800D01*
X141610756Y-89256444D01*
X141610756Y-88959087D01*
X141313399Y-88959087D01*
X141016043Y-88959087D01*
X141016043Y-88661731D01*
X141016043Y-88364374D01*
X140718686Y-88364374D01*
X140421330Y-88364374D01*
X140421330Y-87769661D01*
X140421330Y-87174948D01*
X141016043Y-87174948D01*
X141610756Y-87174948D01*
X141610756Y-86877592D01*
X141610756Y-86580235D01*
X141908112Y-86580235D01*
X142205469Y-86580235D01*
X142205469Y-87174948D01*
X142205469Y-87769661D01*
X142800182Y-87769661D01*
X143394895Y-87769661D01*
X143394895Y-87472305D01*
X143394895Y-87174948D01*
X143097538Y-87174948D01*
X142800182Y-87174948D01*
X142800182Y-86877592D01*
X142800182Y-86580235D01*
X143097538Y-86580235D01*
X143394895Y-86580235D01*
X143394895Y-86282879D01*
X143394895Y-85985522D01*
X143692251Y-85985522D01*
X143989608Y-85985522D01*
X143989608Y-86282879D01*
X143989608Y-86580235D01*
X144584321Y-86580235D01*
X145179034Y-86580235D01*
X145179034Y-86282879D01*
X145179034Y-85985522D01*
X144881677Y-85985522D01*
X144584321Y-85985522D01*
X144584321Y-85688166D01*
X144584321Y-85390809D01*
X144881677Y-85390809D01*
X145179034Y-85390809D01*
X145179034Y-85093453D01*
X145179034Y-84796096D01*
X144584321Y-84796096D01*
X143989608Y-84796096D01*
X143989608Y-85093453D01*
X143989608Y-85390809D01*
X143692251Y-85390809D01*
X143394895Y-85390809D01*
X143394895Y-85093453D01*
X143394895Y-84796096D01*
X142800182Y-84796096D01*
X142205469Y-84796096D01*
X142205469Y-84201383D01*
X142205469Y-83606670D01*
X141610756Y-83606670D01*
X141016043Y-83606670D01*
X141016043Y-84498740D01*
X141016043Y-85390809D01*
X141610756Y-85390809D01*
X142205469Y-85390809D01*
X142205469Y-85688166D01*
X142205469Y-85985522D01*
X141908112Y-85985522D01*
X141610756Y-85985522D01*
X141610756Y-86282879D01*
X141610756Y-86580235D01*
X141313399Y-86580235D01*
X141016043Y-86580235D01*
X141016043Y-86282879D01*
X141016043Y-85985522D01*
X140421330Y-85985522D01*
X139826617Y-85985522D01*
X139826617Y-86580235D01*
X139826617Y-87174948D01*
X139231904Y-87174948D01*
X138637191Y-87174948D01*
X138637191Y-86580235D01*
X138637191Y-85985522D01*
X139231904Y-85985522D01*
X139529260Y-85985522D01*
X139826617Y-85985522D01*
X139826617Y-85688166D01*
X139826617Y-85390809D01*
X139529260Y-85390809D01*
X139231904Y-85390809D01*
X139231904Y-85688166D01*
X139231904Y-85985522D01*
X138637191Y-85985522D01*
X138042478Y-85985522D01*
X137447765Y-85985522D01*
X137447765Y-86282879D01*
X137447765Y-86580235D01*
X137150408Y-86580235D01*
X136853052Y-86580235D01*
X136853052Y-85985522D01*
X136853052Y-85390809D01*
X136555695Y-85390809D01*
X136258339Y-85390809D01*
X136258339Y-85688166D01*
X136258339Y-85985522D01*
X135366269Y-85985522D01*
X134474200Y-85985522D01*
X134474200Y-86282879D01*
X134474200Y-86580235D01*
X135366269Y-86580235D01*
X136258339Y-86580235D01*
X136258339Y-86877592D01*
X136258339Y-87174948D01*
X135663626Y-87174948D01*
X135068913Y-87174948D01*
X135068913Y-87769661D01*
X135068913Y-88364374D01*
X134474200Y-88364374D01*
X133879487Y-88364374D01*
X133879487Y-88067018D01*
X133879487Y-87769661D01*
X133284774Y-87769661D01*
X132690061Y-87769661D01*
X132690061Y-88067018D01*
X132690061Y-88364374D01*
X133284774Y-88364374D01*
X133879487Y-88364374D01*
X133879487Y-88661731D01*
X133879487Y-88959087D01*
X134176843Y-88959087D01*
X134474200Y-88959087D01*
X134474200Y-89256444D01*
X134474200Y-89553800D01*
X135068913Y-89553800D01*
X135663626Y-89553800D01*
X135663626Y-89256444D01*
X135663626Y-88959087D01*
X135960982Y-88959087D01*
X136258339Y-88959087D01*
X136258339Y-89553800D01*
X136258339Y-90148513D01*
X136853052Y-90148513D01*
X137447765Y-90148513D01*
X137447765Y-90743226D01*
X137447765Y-91337939D01*
X137150408Y-91337939D01*
X136853052Y-91337939D01*
X136853052Y-91040583D01*
X136853052Y-90743226D01*
X136555695Y-90743226D01*
X136258339Y-90743226D01*
X136258339Y-91040583D01*
X136258339Y-91337939D01*
X135960982Y-91337939D01*
X135663626Y-91337939D01*
X135663626Y-90743226D01*
X135663626Y-90148513D01*
X135068913Y-90148513D01*
X134474200Y-90148513D01*
X134474200Y-90445870D01*
X134474200Y-90743226D01*
X134176843Y-90743226D01*
X133879487Y-90743226D01*
X133879487Y-90445870D01*
X133879487Y-90148513D01*
X133582130Y-90148513D01*
X133284774Y-90148513D01*
X133284774Y-90743226D01*
X133284774Y-91337939D01*
X132987417Y-91337939D01*
X132690061Y-91337939D01*
X132690061Y-90445870D01*
X132690061Y-89553800D01*
X132987417Y-89553800D01*
X133284774Y-89553800D01*
X133284774Y-89256444D01*
X133284774Y-88959087D01*
X132095348Y-88959087D01*
X130905922Y-88959087D01*
X130905922Y-89553800D01*
X130905922Y-90148513D01*
X130608565Y-90148513D01*
X130311209Y-90148513D01*
X130311209Y-89553800D01*
X130311209Y-88959087D01*
X130608565Y-88959087D01*
X130905922Y-88959087D01*
X130905922Y-88661731D01*
X130905922Y-88364374D01*
X130608565Y-88364374D01*
X130311209Y-88364374D01*
X130311209Y-88661731D01*
X130311209Y-88959087D01*
X130013852Y-88959087D01*
X129716496Y-88959087D01*
X129716496Y-89256444D01*
X129716496Y-89553800D01*
X129419139Y-89553800D01*
X129121783Y-89553800D01*
X129121783Y-90148513D01*
X129121783Y-90743226D01*
X128824426Y-90743226D01*
X128527070Y-90743226D01*
X128527070Y-91337939D01*
X128527070Y-91932652D01*
X128229713Y-91932652D01*
X127932357Y-91932652D01*
X127932357Y-91337939D01*
X127932357Y-90743226D01*
X127635000Y-90743226D01*
X127337644Y-90743226D01*
X127337644Y-90148513D01*
X127337644Y-89553800D01*
X127635000Y-89553800D01*
X127932357Y-89553800D01*
X127932357Y-89851157D01*
X127932357Y-90148513D01*
X128229713Y-90148513D01*
X128527070Y-90148513D01*
X128527070Y-89553800D01*
X128527070Y-88959087D01*
X129121783Y-88959087D01*
X129716496Y-88959087D01*
X129716496Y-88364374D01*
X129716496Y-87769661D01*
X130311209Y-87769661D01*
X130608565Y-87769661D01*
X130905922Y-87769661D01*
X130905922Y-87174948D01*
X130905922Y-86580235D01*
X130608565Y-86580235D01*
X130311209Y-86580235D01*
X130311209Y-87174948D01*
X130311209Y-87769661D01*
X129716496Y-87769661D01*
X129419139Y-87769661D01*
X129121783Y-87769661D01*
X129121783Y-88067018D01*
X129121783Y-88364374D01*
X128824426Y-88364374D01*
X128527070Y-88364374D01*
X128527070Y-88661731D01*
X128527070Y-88959087D01*
X127932357Y-88959087D01*
X127337644Y-88959087D01*
X127337644Y-88661731D01*
X127337644Y-88364374D01*
X127635000Y-88364374D01*
X127932357Y-88364374D01*
X127932357Y-87769661D01*
X127932357Y-87174948D01*
X128229713Y-87174948D01*
X128527070Y-87174948D01*
X128527070Y-87472305D01*
X128527070Y-87769661D01*
X128824426Y-87769661D01*
X129121783Y-87769661D01*
X129121783Y-87472305D01*
X129121783Y-87174948D01*
X128824426Y-87174948D01*
X128527070Y-87174948D01*
X128527070Y-86580235D01*
X128527070Y-85985522D01*
X128824426Y-85985522D01*
X129121783Y-85985522D01*
X129121783Y-86580235D01*
X129121783Y-87174948D01*
X129419139Y-87174948D01*
X129716496Y-87174948D01*
X129716496Y-86580235D01*
X129716496Y-85985522D01*
X129419139Y-85985522D01*
X129121783Y-85985522D01*
X129121783Y-85688166D01*
X129121783Y-85390809D01*
X129716496Y-85390809D01*
X130311209Y-85390809D01*
X130311209Y-85688166D01*
X130311209Y-85985522D01*
X130608565Y-85985522D01*
X130905922Y-85985522D01*
X130905922Y-85688166D01*
X130905922Y-85390809D01*
X131203278Y-85390809D01*
X131500635Y-85390809D01*
X131500635Y-85688166D01*
X131500635Y-85985522D01*
X131797991Y-85985522D01*
X132095348Y-85985522D01*
X132095348Y-85390809D01*
X132095348Y-84796096D01*
X132392704Y-84796096D01*
X132690061Y-84796096D01*
X132690061Y-85390809D01*
X132690061Y-85985522D01*
X132392704Y-85985522D01*
X132095348Y-85985522D01*
X132095348Y-86580235D01*
X132095348Y-87174948D01*
X132690061Y-87174948D01*
X133284774Y-87174948D01*
X133879487Y-87174948D01*
X133879487Y-87472305D01*
X133879487Y-87769661D01*
X134176843Y-87769661D01*
X134474200Y-87769661D01*
X134474200Y-87472305D01*
X134474200Y-87174948D01*
X134176843Y-87174948D01*
X133879487Y-87174948D01*
X133284774Y-87174948D01*
X133284774Y-86877592D01*
X133284774Y-86580235D01*
X133582130Y-86580235D01*
X133879487Y-86580235D01*
X133879487Y-85985522D01*
X133879487Y-85390809D01*
X133582130Y-85390809D01*
X133284774Y-85390809D01*
X133284774Y-85093453D01*
X133284774Y-84796096D01*
X132987417Y-84796096D01*
X132690061Y-84796096D01*
X132690061Y-84498740D01*
X132690061Y-84201383D01*
X132987417Y-84201383D01*
X133284774Y-84201383D01*
X133284774Y-84498740D01*
X133284774Y-84796096D01*
X133879487Y-84796096D01*
X134474200Y-84796096D01*
X134474200Y-84498740D01*
X134474200Y-84201383D01*
X134771556Y-84201383D01*
X135068913Y-84201383D01*
X135068913Y-84498740D01*
X135068913Y-84796096D01*
X134771556Y-84796096D01*
X134474200Y-84796096D01*
X134474200Y-85093453D01*
X134474200Y-85390809D01*
X134771556Y-85390809D01*
X135068913Y-85390809D01*
X135068913Y-85093453D01*
X135068913Y-84796096D01*
X135366269Y-84796096D01*
X135663626Y-84796096D01*
X135663626Y-84498740D01*
X135663626Y-84201383D01*
X135366269Y-84201383D01*
X135068913Y-84201383D01*
X135068913Y-83904027D01*
X135068913Y-83606670D01*
X135663626Y-83606670D01*
X136258339Y-83606670D01*
X136258339Y-84201383D01*
X136258339Y-84796096D01*
X136853052Y-84796096D01*
X137447765Y-84796096D01*
X137447765Y-85093453D01*
X137447765Y-85390809D01*
X138042478Y-85390809D01*
X138637191Y-85390809D01*
X138637191Y-85093453D01*
X138637191Y-84796096D01*
X139231904Y-84796096D01*
X139826617Y-84796096D01*
X139826617Y-84498740D01*
X139826617Y-84201383D01*
X138637191Y-84201383D01*
X137447765Y-84201383D01*
X137447765Y-83904027D01*
X137447765Y-83606670D01*
X136853052Y-83606670D01*
X136258339Y-83606670D01*
X136258339Y-83309314D01*
X136258339Y-83011957D01*
X136555695Y-83011957D01*
X136853052Y-83011957D01*
X136853052Y-82714601D01*
X136853052Y-82417244D01*
X136555695Y-82417244D01*
X136258339Y-82417244D01*
X136258339Y-82714601D01*
X136258339Y-83011957D01*
X135366269Y-83011957D01*
X134474200Y-83011957D01*
X134474200Y-82714601D01*
X134474200Y-82417244D01*
X133879487Y-82417244D01*
X133284774Y-82417244D01*
X133284774Y-82714601D01*
X133284774Y-83011957D01*
X133582130Y-83011957D01*
X133879487Y-83011957D01*
X133879487Y-83309314D01*
X133879487Y-83606670D01*
X133284774Y-83606670D01*
X132690061Y-83606670D01*
X132690061Y-83011957D01*
X132690061Y-82417244D01*
X132392704Y-82417244D01*
X132095348Y-82417244D01*
X132095348Y-80930462D01*
X132095348Y-79443679D01*
X132392704Y-79443679D01*
X132690061Y-79443679D01*
X132690061Y-80335749D01*
X132690061Y-81227818D01*
X132987417Y-81227818D01*
X133284774Y-81227818D01*
X133284774Y-80633105D01*
X133284774Y-80038392D01*
X133879487Y-80038392D01*
X134474200Y-80038392D01*
X134474200Y-80335749D01*
G37*
G36*
X138637191Y-90445870D02*
G01*
X138637191Y-90743226D01*
X138339834Y-90743226D01*
X138042478Y-90743226D01*
X138042478Y-90445870D01*
X138042478Y-90148513D01*
X138339834Y-90148513D01*
X138637191Y-90148513D01*
X138637191Y-90445870D01*
G37*
G36*
X144881677Y-90148513D02*
G01*
X145179034Y-90148513D01*
X145179034Y-90445870D01*
X145179034Y-90743226D01*
X144881677Y-90743226D01*
X144584321Y-90743226D01*
X144584321Y-90445870D01*
X144584321Y-90148513D01*
X144881677Y-90148513D01*
G37*
G36*
X144584321Y-89851157D02*
G01*
X144584321Y-90148513D01*
X143989608Y-90148513D01*
X143394895Y-90148513D01*
X143394895Y-90445870D01*
X143394895Y-90743226D01*
X143097538Y-90743226D01*
X142800182Y-90743226D01*
X142800182Y-90445870D01*
X142800182Y-90148513D01*
X142502825Y-90148513D01*
X142205469Y-90148513D01*
X142205469Y-89851157D01*
X142205469Y-89553800D01*
X142502825Y-89553800D01*
X142800182Y-89553800D01*
X142800182Y-89851157D01*
X142800182Y-90148513D01*
X143097538Y-90148513D01*
X143394895Y-90148513D01*
X143394895Y-89851157D01*
X143394895Y-89553800D01*
X143989608Y-89553800D01*
X144584321Y-89553800D01*
X144584321Y-89851157D01*
G37*
G36*
X146368460Y-89553800D02*
G01*
X146963173Y-89553800D01*
X146963173Y-89851157D01*
X146963173Y-90148513D01*
X146368460Y-90148513D01*
X145773747Y-90148513D01*
X145773747Y-89851157D01*
X145773747Y-89553800D01*
X146368460Y-89553800D01*
G37*
G36*
X138042478Y-86877592D02*
G01*
X138042478Y-87174948D01*
X138339834Y-87174948D01*
X138637191Y-87174948D01*
X138637191Y-87472305D01*
X138637191Y-87769661D01*
X138339834Y-87769661D01*
X138042478Y-87769661D01*
X138042478Y-88067018D01*
X138042478Y-88364374D01*
X138339834Y-88364374D01*
X138637191Y-88364374D01*
X138637191Y-88067018D01*
X138637191Y-87769661D01*
X138934547Y-87769661D01*
X139231904Y-87769661D01*
X139231904Y-88959087D01*
X139231904Y-90148513D01*
X138934547Y-90148513D01*
X138637191Y-90148513D01*
X138637191Y-89553800D01*
X138637191Y-88959087D01*
X138339834Y-88959087D01*
X138042478Y-88959087D01*
X138042478Y-88661731D01*
X138042478Y-88364374D01*
X137745121Y-88364374D01*
X137447765Y-88364374D01*
X137447765Y-88661731D01*
X137447765Y-88959087D01*
X137150408Y-88959087D01*
X136853052Y-88959087D01*
X136853052Y-88661731D01*
X136853052Y-88364374D01*
X136555695Y-88364374D01*
X136258339Y-88364374D01*
X136258339Y-87769661D01*
X136258339Y-87174948D01*
X136555695Y-87174948D01*
X136853052Y-87174948D01*
X136853052Y-87472305D01*
X136853052Y-87769661D01*
X137150408Y-87769661D01*
X137447765Y-87769661D01*
X137447765Y-87174948D01*
X137447765Y-86580235D01*
X137745121Y-86580235D01*
X138042478Y-86580235D01*
X138042478Y-86877592D01*
G37*
G36*
X130311209Y-84498740D02*
G01*
X130311209Y-83606670D01*
X130013852Y-83606670D01*
X129716496Y-83606670D01*
X129716496Y-84201383D01*
X129716496Y-84796096D01*
X129419139Y-84796096D01*
X129121783Y-84796096D01*
X129121783Y-83904027D01*
X129121783Y-83011957D01*
X128824426Y-83011957D01*
X128527070Y-83011957D01*
X128527070Y-82714601D01*
X128527070Y-82417244D01*
X127932357Y-82417244D01*
X127337644Y-82417244D01*
X127337644Y-82119888D01*
X127337644Y-81822531D01*
X127932357Y-81822531D01*
X128527070Y-81822531D01*
X128527070Y-82119888D01*
X128527070Y-82417244D01*
X128824426Y-82417244D01*
X129121783Y-82417244D01*
X129121783Y-82119888D01*
X129121783Y-81822531D01*
X129419139Y-81822531D01*
X129716496Y-81822531D01*
X129716496Y-82417244D01*
X129716496Y-83011957D01*
X130013852Y-83011957D01*
X130311209Y-83011957D01*
X130311209Y-82714601D01*
X130311209Y-82417244D01*
X130608565Y-82417244D01*
X130905922Y-82417244D01*
X130905922Y-82119888D01*
X130905922Y-81822531D01*
X131203278Y-81822531D01*
X131500635Y-81822531D01*
X131500635Y-82417244D01*
X131500635Y-83011957D01*
X131797991Y-83011957D01*
X132095348Y-83011957D01*
X132095348Y-83606670D01*
X132095348Y-84201383D01*
X131500635Y-84201383D01*
X130905922Y-84201383D01*
X130905922Y-84796096D01*
X130905922Y-85390809D01*
X130608565Y-85390809D01*
X130311209Y-85390809D01*
X130311209Y-84498740D01*
G37*
G36*
X134474200Y-79741036D02*
G01*
X134474200Y-79443679D01*
X134771556Y-79443679D01*
X135068913Y-79443679D01*
X135068913Y-79741036D01*
X135068913Y-80038392D01*
X134771556Y-80038392D01*
X134474200Y-80038392D01*
X134474200Y-79741036D01*
G37*
%TD*%
M02*
