%TF.GenerationSoftware,KiCad,Pcbnew,(7.0.0)*%
%TF.CreationDate,2023-04-03T20:11:10+02:00*%
%TF.ProjectId,FullSchematic,46756c6c-5363-4686-956d-617469632e6b,rev?*%
%TF.SameCoordinates,Original*%
%TF.FileFunction,Legend,Top*%
%TF.FilePolarity,Positive*%
%FSLAX46Y46*%
G04 Gerber Fmt 4.6, Leading zero omitted, Abs format (unit mm)*
G04 Created by KiCad (PCBNEW (7.0.0)) date 2023-04-03 20:11:10*
%MOMM*%
%LPD*%
G01*
G04 APERTURE LIST*
%ADD10C,0.150000*%
%ADD11C,0.254000*%
%ADD12C,0.100000*%
%ADD13C,0.120000*%
%ADD14C,0.200000*%
%ADD15C,1.000000*%
G04 APERTURE END LIST*
D10*
X127000000Y-97282000D02*
X141732000Y-97282000D01*
X141732000Y-97282000D02*
X141732000Y-102870000D01*
X141732000Y-102870000D02*
X127000000Y-102870000D01*
X127000000Y-102870000D02*
X127000000Y-97282000D01*
X56022857Y-136450380D02*
X56641904Y-136450380D01*
X56641904Y-136450380D02*
X56308571Y-136831333D01*
X56308571Y-136831333D02*
X56451428Y-136831333D01*
X56451428Y-136831333D02*
X56546666Y-136878952D01*
X56546666Y-136878952D02*
X56594285Y-136926571D01*
X56594285Y-136926571D02*
X56641904Y-137021809D01*
X56641904Y-137021809D02*
X56641904Y-137259904D01*
X56641904Y-137259904D02*
X56594285Y-137355142D01*
X56594285Y-137355142D02*
X56546666Y-137402761D01*
X56546666Y-137402761D02*
X56451428Y-137450380D01*
X56451428Y-137450380D02*
X56165714Y-137450380D01*
X56165714Y-137450380D02*
X56070476Y-137402761D01*
X56070476Y-137402761D02*
X56022857Y-137355142D01*
X57070476Y-137355142D02*
X57118095Y-137402761D01*
X57118095Y-137402761D02*
X57070476Y-137450380D01*
X57070476Y-137450380D02*
X57022857Y-137402761D01*
X57022857Y-137402761D02*
X57070476Y-137355142D01*
X57070476Y-137355142D02*
X57070476Y-137450380D01*
X57451428Y-136450380D02*
X58070475Y-136450380D01*
X58070475Y-136450380D02*
X57737142Y-136831333D01*
X57737142Y-136831333D02*
X57879999Y-136831333D01*
X57879999Y-136831333D02*
X57975237Y-136878952D01*
X57975237Y-136878952D02*
X58022856Y-136926571D01*
X58022856Y-136926571D02*
X58070475Y-137021809D01*
X58070475Y-137021809D02*
X58070475Y-137259904D01*
X58070475Y-137259904D02*
X58022856Y-137355142D01*
X58022856Y-137355142D02*
X57975237Y-137402761D01*
X57975237Y-137402761D02*
X57879999Y-137450380D01*
X57879999Y-137450380D02*
X57594285Y-137450380D01*
X57594285Y-137450380D02*
X57499047Y-137402761D01*
X57499047Y-137402761D02*
X57451428Y-137355142D01*
X58356190Y-136450380D02*
X58689523Y-137450380D01*
X58689523Y-137450380D02*
X59022856Y-136450380D01*
X129603428Y-110002571D02*
X129746285Y-110050190D01*
X129746285Y-110050190D02*
X129793904Y-110097809D01*
X129793904Y-110097809D02*
X129841523Y-110193047D01*
X129841523Y-110193047D02*
X129841523Y-110335904D01*
X129841523Y-110335904D02*
X129793904Y-110431142D01*
X129793904Y-110431142D02*
X129746285Y-110478761D01*
X129746285Y-110478761D02*
X129651047Y-110526380D01*
X129651047Y-110526380D02*
X129270095Y-110526380D01*
X129270095Y-110526380D02*
X129270095Y-109526380D01*
X129270095Y-109526380D02*
X129603428Y-109526380D01*
X129603428Y-109526380D02*
X129698666Y-109574000D01*
X129698666Y-109574000D02*
X129746285Y-109621619D01*
X129746285Y-109621619D02*
X129793904Y-109716857D01*
X129793904Y-109716857D02*
X129793904Y-109812095D01*
X129793904Y-109812095D02*
X129746285Y-109907333D01*
X129746285Y-109907333D02*
X129698666Y-109954952D01*
X129698666Y-109954952D02*
X129603428Y-110002571D01*
X129603428Y-110002571D02*
X129270095Y-110002571D01*
X130174857Y-109859714D02*
X130412952Y-110526380D01*
X130651047Y-109859714D02*
X130412952Y-110526380D01*
X130412952Y-110526380D02*
X130317714Y-110764476D01*
X130317714Y-110764476D02*
X130270095Y-110812095D01*
X130270095Y-110812095D02*
X130174857Y-110859714D01*
X131032000Y-109859714D02*
X131032000Y-110859714D01*
X131032000Y-109907333D02*
X131127238Y-109859714D01*
X131127238Y-109859714D02*
X131317714Y-109859714D01*
X131317714Y-109859714D02*
X131412952Y-109907333D01*
X131412952Y-109907333D02*
X131460571Y-109954952D01*
X131460571Y-109954952D02*
X131508190Y-110050190D01*
X131508190Y-110050190D02*
X131508190Y-110335904D01*
X131508190Y-110335904D02*
X131460571Y-110431142D01*
X131460571Y-110431142D02*
X131412952Y-110478761D01*
X131412952Y-110478761D02*
X131317714Y-110526380D01*
X131317714Y-110526380D02*
X131127238Y-110526380D01*
X131127238Y-110526380D02*
X131032000Y-110478761D01*
X132365333Y-110526380D02*
X132365333Y-110002571D01*
X132365333Y-110002571D02*
X132317714Y-109907333D01*
X132317714Y-109907333D02*
X132222476Y-109859714D01*
X132222476Y-109859714D02*
X132032000Y-109859714D01*
X132032000Y-109859714D02*
X131936762Y-109907333D01*
X132365333Y-110478761D02*
X132270095Y-110526380D01*
X132270095Y-110526380D02*
X132032000Y-110526380D01*
X132032000Y-110526380D02*
X131936762Y-110478761D01*
X131936762Y-110478761D02*
X131889143Y-110383523D01*
X131889143Y-110383523D02*
X131889143Y-110288285D01*
X131889143Y-110288285D02*
X131936762Y-110193047D01*
X131936762Y-110193047D02*
X132032000Y-110145428D01*
X132032000Y-110145428D02*
X132270095Y-110145428D01*
X132270095Y-110145428D02*
X132365333Y-110097809D01*
X132793905Y-110478761D02*
X132889143Y-110526380D01*
X132889143Y-110526380D02*
X133079619Y-110526380D01*
X133079619Y-110526380D02*
X133174857Y-110478761D01*
X133174857Y-110478761D02*
X133222476Y-110383523D01*
X133222476Y-110383523D02*
X133222476Y-110335904D01*
X133222476Y-110335904D02*
X133174857Y-110240666D01*
X133174857Y-110240666D02*
X133079619Y-110193047D01*
X133079619Y-110193047D02*
X132936762Y-110193047D01*
X132936762Y-110193047D02*
X132841524Y-110145428D01*
X132841524Y-110145428D02*
X132793905Y-110050190D01*
X132793905Y-110050190D02*
X132793905Y-110002571D01*
X132793905Y-110002571D02*
X132841524Y-109907333D01*
X132841524Y-109907333D02*
X132936762Y-109859714D01*
X132936762Y-109859714D02*
X133079619Y-109859714D01*
X133079619Y-109859714D02*
X133174857Y-109907333D01*
X133603429Y-110478761D02*
X133698667Y-110526380D01*
X133698667Y-110526380D02*
X133889143Y-110526380D01*
X133889143Y-110526380D02*
X133984381Y-110478761D01*
X133984381Y-110478761D02*
X134032000Y-110383523D01*
X134032000Y-110383523D02*
X134032000Y-110335904D01*
X134032000Y-110335904D02*
X133984381Y-110240666D01*
X133984381Y-110240666D02*
X133889143Y-110193047D01*
X133889143Y-110193047D02*
X133746286Y-110193047D01*
X133746286Y-110193047D02*
X133651048Y-110145428D01*
X133651048Y-110145428D02*
X133603429Y-110050190D01*
X133603429Y-110050190D02*
X133603429Y-110002571D01*
X133603429Y-110002571D02*
X133651048Y-109907333D01*
X133651048Y-109907333D02*
X133746286Y-109859714D01*
X133746286Y-109859714D02*
X133889143Y-109859714D01*
X133889143Y-109859714D02*
X133984381Y-109907333D01*
X135632000Y-110431142D02*
X135584381Y-110478761D01*
X135584381Y-110478761D02*
X135441524Y-110526380D01*
X135441524Y-110526380D02*
X135346286Y-110526380D01*
X135346286Y-110526380D02*
X135203429Y-110478761D01*
X135203429Y-110478761D02*
X135108191Y-110383523D01*
X135108191Y-110383523D02*
X135060572Y-110288285D01*
X135060572Y-110288285D02*
X135012953Y-110097809D01*
X135012953Y-110097809D02*
X135012953Y-109954952D01*
X135012953Y-109954952D02*
X135060572Y-109764476D01*
X135060572Y-109764476D02*
X135108191Y-109669238D01*
X135108191Y-109669238D02*
X135203429Y-109574000D01*
X135203429Y-109574000D02*
X135346286Y-109526380D01*
X135346286Y-109526380D02*
X135441524Y-109526380D01*
X135441524Y-109526380D02*
X135584381Y-109574000D01*
X135584381Y-109574000D02*
X135632000Y-109621619D01*
X136060572Y-110526380D02*
X136060572Y-109526380D01*
X136060572Y-109526380D02*
X136393905Y-110240666D01*
X136393905Y-110240666D02*
X136727238Y-109526380D01*
X136727238Y-109526380D02*
X136727238Y-110526380D01*
X137393905Y-109526380D02*
X137584381Y-109526380D01*
X137584381Y-109526380D02*
X137679619Y-109574000D01*
X137679619Y-109574000D02*
X137774857Y-109669238D01*
X137774857Y-109669238D02*
X137822476Y-109859714D01*
X137822476Y-109859714D02*
X137822476Y-110193047D01*
X137822476Y-110193047D02*
X137774857Y-110383523D01*
X137774857Y-110383523D02*
X137679619Y-110478761D01*
X137679619Y-110478761D02*
X137584381Y-110526380D01*
X137584381Y-110526380D02*
X137393905Y-110526380D01*
X137393905Y-110526380D02*
X137298667Y-110478761D01*
X137298667Y-110478761D02*
X137203429Y-110383523D01*
X137203429Y-110383523D02*
X137155810Y-110193047D01*
X137155810Y-110193047D02*
X137155810Y-109859714D01*
X137155810Y-109859714D02*
X137203429Y-109669238D01*
X137203429Y-109669238D02*
X137298667Y-109574000D01*
X137298667Y-109574000D02*
X137393905Y-109526380D01*
X138203429Y-110478761D02*
X138346286Y-110526380D01*
X138346286Y-110526380D02*
X138584381Y-110526380D01*
X138584381Y-110526380D02*
X138679619Y-110478761D01*
X138679619Y-110478761D02*
X138727238Y-110431142D01*
X138727238Y-110431142D02*
X138774857Y-110335904D01*
X138774857Y-110335904D02*
X138774857Y-110240666D01*
X138774857Y-110240666D02*
X138727238Y-110145428D01*
X138727238Y-110145428D02*
X138679619Y-110097809D01*
X138679619Y-110097809D02*
X138584381Y-110050190D01*
X138584381Y-110050190D02*
X138393905Y-110002571D01*
X138393905Y-110002571D02*
X138298667Y-109954952D01*
X138298667Y-109954952D02*
X138251048Y-109907333D01*
X138251048Y-109907333D02*
X138203429Y-109812095D01*
X138203429Y-109812095D02*
X138203429Y-109716857D01*
X138203429Y-109716857D02*
X138251048Y-109621619D01*
X138251048Y-109621619D02*
X138298667Y-109574000D01*
X138298667Y-109574000D02*
X138393905Y-109526380D01*
X138393905Y-109526380D02*
X138632000Y-109526380D01*
X138632000Y-109526380D02*
X138774857Y-109574000D01*
X140232000Y-110478761D02*
X140136762Y-110526380D01*
X140136762Y-110526380D02*
X139946286Y-110526380D01*
X139946286Y-110526380D02*
X139851048Y-110478761D01*
X139851048Y-110478761D02*
X139803429Y-110431142D01*
X139803429Y-110431142D02*
X139755810Y-110335904D01*
X139755810Y-110335904D02*
X139755810Y-110050190D01*
X139755810Y-110050190D02*
X139803429Y-109954952D01*
X139803429Y-109954952D02*
X139851048Y-109907333D01*
X139851048Y-109907333D02*
X139946286Y-109859714D01*
X139946286Y-109859714D02*
X140136762Y-109859714D01*
X140136762Y-109859714D02*
X140232000Y-109907333D01*
X140803429Y-110526380D02*
X140708191Y-110478761D01*
X140708191Y-110478761D02*
X140660572Y-110431142D01*
X140660572Y-110431142D02*
X140612953Y-110335904D01*
X140612953Y-110335904D02*
X140612953Y-110050190D01*
X140612953Y-110050190D02*
X140660572Y-109954952D01*
X140660572Y-109954952D02*
X140708191Y-109907333D01*
X140708191Y-109907333D02*
X140803429Y-109859714D01*
X140803429Y-109859714D02*
X140946286Y-109859714D01*
X140946286Y-109859714D02*
X141041524Y-109907333D01*
X141041524Y-109907333D02*
X141089143Y-109954952D01*
X141089143Y-109954952D02*
X141136762Y-110050190D01*
X141136762Y-110050190D02*
X141136762Y-110335904D01*
X141136762Y-110335904D02*
X141089143Y-110431142D01*
X141089143Y-110431142D02*
X141041524Y-110478761D01*
X141041524Y-110478761D02*
X140946286Y-110526380D01*
X140946286Y-110526380D02*
X140803429Y-110526380D01*
X141565334Y-109859714D02*
X141565334Y-110526380D01*
X141565334Y-109954952D02*
X141612953Y-109907333D01*
X141612953Y-109907333D02*
X141708191Y-109859714D01*
X141708191Y-109859714D02*
X141851048Y-109859714D01*
X141851048Y-109859714D02*
X141946286Y-109907333D01*
X141946286Y-109907333D02*
X141993905Y-110002571D01*
X141993905Y-110002571D02*
X141993905Y-110526380D01*
X142327239Y-109859714D02*
X142708191Y-109859714D01*
X142470096Y-110526380D02*
X142470096Y-109669238D01*
X142470096Y-109669238D02*
X142517715Y-109574000D01*
X142517715Y-109574000D02*
X142612953Y-109526380D01*
X142612953Y-109526380D02*
X142708191Y-109526380D01*
X143041525Y-110526380D02*
X143041525Y-109859714D01*
X143041525Y-109526380D02*
X142993906Y-109574000D01*
X142993906Y-109574000D02*
X143041525Y-109621619D01*
X143041525Y-109621619D02*
X143089144Y-109574000D01*
X143089144Y-109574000D02*
X143041525Y-109526380D01*
X143041525Y-109526380D02*
X143041525Y-109621619D01*
X143946286Y-109859714D02*
X143946286Y-110669238D01*
X143946286Y-110669238D02*
X143898667Y-110764476D01*
X143898667Y-110764476D02*
X143851048Y-110812095D01*
X143851048Y-110812095D02*
X143755810Y-110859714D01*
X143755810Y-110859714D02*
X143612953Y-110859714D01*
X143612953Y-110859714D02*
X143517715Y-110812095D01*
X143946286Y-110478761D02*
X143851048Y-110526380D01*
X143851048Y-110526380D02*
X143660572Y-110526380D01*
X143660572Y-110526380D02*
X143565334Y-110478761D01*
X143565334Y-110478761D02*
X143517715Y-110431142D01*
X143517715Y-110431142D02*
X143470096Y-110335904D01*
X143470096Y-110335904D02*
X143470096Y-110050190D01*
X143470096Y-110050190D02*
X143517715Y-109954952D01*
X143517715Y-109954952D02*
X143565334Y-109907333D01*
X143565334Y-109907333D02*
X143660572Y-109859714D01*
X143660572Y-109859714D02*
X143851048Y-109859714D01*
X143851048Y-109859714D02*
X143946286Y-109907333D01*
X136953523Y-104843142D02*
X136905904Y-104890761D01*
X136905904Y-104890761D02*
X136763047Y-104938380D01*
X136763047Y-104938380D02*
X136667809Y-104938380D01*
X136667809Y-104938380D02*
X136524952Y-104890761D01*
X136524952Y-104890761D02*
X136429714Y-104795523D01*
X136429714Y-104795523D02*
X136382095Y-104700285D01*
X136382095Y-104700285D02*
X136334476Y-104509809D01*
X136334476Y-104509809D02*
X136334476Y-104366952D01*
X136334476Y-104366952D02*
X136382095Y-104176476D01*
X136382095Y-104176476D02*
X136429714Y-104081238D01*
X136429714Y-104081238D02*
X136524952Y-103986000D01*
X136524952Y-103986000D02*
X136667809Y-103938380D01*
X136667809Y-103938380D02*
X136763047Y-103938380D01*
X136763047Y-103938380D02*
X136905904Y-103986000D01*
X136905904Y-103986000D02*
X136953523Y-104033619D01*
X137382095Y-104938380D02*
X137382095Y-103938380D01*
X137382095Y-103938380D02*
X137715428Y-104652666D01*
X137715428Y-104652666D02*
X138048761Y-103938380D01*
X138048761Y-103938380D02*
X138048761Y-104938380D01*
X138715428Y-103938380D02*
X138905904Y-103938380D01*
X138905904Y-103938380D02*
X139001142Y-103986000D01*
X139001142Y-103986000D02*
X139096380Y-104081238D01*
X139096380Y-104081238D02*
X139143999Y-104271714D01*
X139143999Y-104271714D02*
X139143999Y-104605047D01*
X139143999Y-104605047D02*
X139096380Y-104795523D01*
X139096380Y-104795523D02*
X139001142Y-104890761D01*
X139001142Y-104890761D02*
X138905904Y-104938380D01*
X138905904Y-104938380D02*
X138715428Y-104938380D01*
X138715428Y-104938380D02*
X138620190Y-104890761D01*
X138620190Y-104890761D02*
X138524952Y-104795523D01*
X138524952Y-104795523D02*
X138477333Y-104605047D01*
X138477333Y-104605047D02*
X138477333Y-104271714D01*
X138477333Y-104271714D02*
X138524952Y-104081238D01*
X138524952Y-104081238D02*
X138620190Y-103986000D01*
X138620190Y-103986000D02*
X138715428Y-103938380D01*
X139524952Y-104890761D02*
X139667809Y-104938380D01*
X139667809Y-104938380D02*
X139905904Y-104938380D01*
X139905904Y-104938380D02*
X140001142Y-104890761D01*
X140001142Y-104890761D02*
X140048761Y-104843142D01*
X140048761Y-104843142D02*
X140096380Y-104747904D01*
X140096380Y-104747904D02*
X140096380Y-104652666D01*
X140096380Y-104652666D02*
X140048761Y-104557428D01*
X140048761Y-104557428D02*
X140001142Y-104509809D01*
X140001142Y-104509809D02*
X139905904Y-104462190D01*
X139905904Y-104462190D02*
X139715428Y-104414571D01*
X139715428Y-104414571D02*
X139620190Y-104366952D01*
X139620190Y-104366952D02*
X139572571Y-104319333D01*
X139572571Y-104319333D02*
X139524952Y-104224095D01*
X139524952Y-104224095D02*
X139524952Y-104128857D01*
X139524952Y-104128857D02*
X139572571Y-104033619D01*
X139572571Y-104033619D02*
X139620190Y-103986000D01*
X139620190Y-103986000D02*
X139715428Y-103938380D01*
X139715428Y-103938380D02*
X139953523Y-103938380D01*
X139953523Y-103938380D02*
X140096380Y-103986000D01*
X141553523Y-104890761D02*
X141458285Y-104938380D01*
X141458285Y-104938380D02*
X141267809Y-104938380D01*
X141267809Y-104938380D02*
X141172571Y-104890761D01*
X141172571Y-104890761D02*
X141124952Y-104843142D01*
X141124952Y-104843142D02*
X141077333Y-104747904D01*
X141077333Y-104747904D02*
X141077333Y-104462190D01*
X141077333Y-104462190D02*
X141124952Y-104366952D01*
X141124952Y-104366952D02*
X141172571Y-104319333D01*
X141172571Y-104319333D02*
X141267809Y-104271714D01*
X141267809Y-104271714D02*
X141458285Y-104271714D01*
X141458285Y-104271714D02*
X141553523Y-104319333D01*
X142124952Y-104938380D02*
X142029714Y-104890761D01*
X142029714Y-104890761D02*
X141982095Y-104843142D01*
X141982095Y-104843142D02*
X141934476Y-104747904D01*
X141934476Y-104747904D02*
X141934476Y-104462190D01*
X141934476Y-104462190D02*
X141982095Y-104366952D01*
X141982095Y-104366952D02*
X142029714Y-104319333D01*
X142029714Y-104319333D02*
X142124952Y-104271714D01*
X142124952Y-104271714D02*
X142267809Y-104271714D01*
X142267809Y-104271714D02*
X142363047Y-104319333D01*
X142363047Y-104319333D02*
X142410666Y-104366952D01*
X142410666Y-104366952D02*
X142458285Y-104462190D01*
X142458285Y-104462190D02*
X142458285Y-104747904D01*
X142458285Y-104747904D02*
X142410666Y-104843142D01*
X142410666Y-104843142D02*
X142363047Y-104890761D01*
X142363047Y-104890761D02*
X142267809Y-104938380D01*
X142267809Y-104938380D02*
X142124952Y-104938380D01*
X142886857Y-104271714D02*
X142886857Y-104938380D01*
X142886857Y-104366952D02*
X142934476Y-104319333D01*
X142934476Y-104319333D02*
X143029714Y-104271714D01*
X143029714Y-104271714D02*
X143172571Y-104271714D01*
X143172571Y-104271714D02*
X143267809Y-104319333D01*
X143267809Y-104319333D02*
X143315428Y-104414571D01*
X143315428Y-104414571D02*
X143315428Y-104938380D01*
X143648762Y-104271714D02*
X144029714Y-104271714D01*
X143791619Y-104938380D02*
X143791619Y-104081238D01*
X143791619Y-104081238D02*
X143839238Y-103986000D01*
X143839238Y-103986000D02*
X143934476Y-103938380D01*
X143934476Y-103938380D02*
X144029714Y-103938380D01*
X144363048Y-104938380D02*
X144363048Y-104271714D01*
X144363048Y-103938380D02*
X144315429Y-103986000D01*
X144315429Y-103986000D02*
X144363048Y-104033619D01*
X144363048Y-104033619D02*
X144410667Y-103986000D01*
X144410667Y-103986000D02*
X144363048Y-103938380D01*
X144363048Y-103938380D02*
X144363048Y-104033619D01*
X145267809Y-104271714D02*
X145267809Y-105081238D01*
X145267809Y-105081238D02*
X145220190Y-105176476D01*
X145220190Y-105176476D02*
X145172571Y-105224095D01*
X145172571Y-105224095D02*
X145077333Y-105271714D01*
X145077333Y-105271714D02*
X144934476Y-105271714D01*
X144934476Y-105271714D02*
X144839238Y-105224095D01*
X145267809Y-104890761D02*
X145172571Y-104938380D01*
X145172571Y-104938380D02*
X144982095Y-104938380D01*
X144982095Y-104938380D02*
X144886857Y-104890761D01*
X144886857Y-104890761D02*
X144839238Y-104843142D01*
X144839238Y-104843142D02*
X144791619Y-104747904D01*
X144791619Y-104747904D02*
X144791619Y-104462190D01*
X144791619Y-104462190D02*
X144839238Y-104366952D01*
X144839238Y-104366952D02*
X144886857Y-104319333D01*
X144886857Y-104319333D02*
X144982095Y-104271714D01*
X144982095Y-104271714D02*
X145172571Y-104271714D01*
X145172571Y-104271714D02*
X145267809Y-104319333D01*
X130143238Y-99112380D02*
X130714666Y-99112380D01*
X130428952Y-100112380D02*
X130428952Y-99112380D01*
X131190857Y-100112380D02*
X131095619Y-100064761D01*
X131095619Y-100064761D02*
X131048000Y-100017142D01*
X131048000Y-100017142D02*
X131000381Y-99921904D01*
X131000381Y-99921904D02*
X131000381Y-99636190D01*
X131000381Y-99636190D02*
X131048000Y-99540952D01*
X131048000Y-99540952D02*
X131095619Y-99493333D01*
X131095619Y-99493333D02*
X131190857Y-99445714D01*
X131190857Y-99445714D02*
X131333714Y-99445714D01*
X131333714Y-99445714D02*
X131428952Y-99493333D01*
X131428952Y-99493333D02*
X131476571Y-99540952D01*
X131476571Y-99540952D02*
X131524190Y-99636190D01*
X131524190Y-99636190D02*
X131524190Y-99921904D01*
X131524190Y-99921904D02*
X131476571Y-100017142D01*
X131476571Y-100017142D02*
X131428952Y-100064761D01*
X131428952Y-100064761D02*
X131333714Y-100112380D01*
X131333714Y-100112380D02*
X131190857Y-100112380D01*
X132381333Y-99445714D02*
X132381333Y-100112380D01*
X131952762Y-99445714D02*
X131952762Y-99969523D01*
X131952762Y-99969523D02*
X132000381Y-100064761D01*
X132000381Y-100064761D02*
X132095619Y-100112380D01*
X132095619Y-100112380D02*
X132238476Y-100112380D01*
X132238476Y-100112380D02*
X132333714Y-100064761D01*
X132333714Y-100064761D02*
X132381333Y-100017142D01*
X133286095Y-100064761D02*
X133190857Y-100112380D01*
X133190857Y-100112380D02*
X133000381Y-100112380D01*
X133000381Y-100112380D02*
X132905143Y-100064761D01*
X132905143Y-100064761D02*
X132857524Y-100017142D01*
X132857524Y-100017142D02*
X132809905Y-99921904D01*
X132809905Y-99921904D02*
X132809905Y-99636190D01*
X132809905Y-99636190D02*
X132857524Y-99540952D01*
X132857524Y-99540952D02*
X132905143Y-99493333D01*
X132905143Y-99493333D02*
X133000381Y-99445714D01*
X133000381Y-99445714D02*
X133190857Y-99445714D01*
X133190857Y-99445714D02*
X133286095Y-99493333D01*
X133714667Y-100112380D02*
X133714667Y-99112380D01*
X134143238Y-100112380D02*
X134143238Y-99588571D01*
X134143238Y-99588571D02*
X134095619Y-99493333D01*
X134095619Y-99493333D02*
X134000381Y-99445714D01*
X134000381Y-99445714D02*
X133857524Y-99445714D01*
X133857524Y-99445714D02*
X133762286Y-99493333D01*
X133762286Y-99493333D02*
X133714667Y-99540952D01*
X135219429Y-100112380D02*
X135219429Y-99112380D01*
X135219429Y-99112380D02*
X135600381Y-99112380D01*
X135600381Y-99112380D02*
X135695619Y-99160000D01*
X135695619Y-99160000D02*
X135743238Y-99207619D01*
X135743238Y-99207619D02*
X135790857Y-99302857D01*
X135790857Y-99302857D02*
X135790857Y-99445714D01*
X135790857Y-99445714D02*
X135743238Y-99540952D01*
X135743238Y-99540952D02*
X135695619Y-99588571D01*
X135695619Y-99588571D02*
X135600381Y-99636190D01*
X135600381Y-99636190D02*
X135219429Y-99636190D01*
X136648000Y-100112380D02*
X136648000Y-99588571D01*
X136648000Y-99588571D02*
X136600381Y-99493333D01*
X136600381Y-99493333D02*
X136505143Y-99445714D01*
X136505143Y-99445714D02*
X136314667Y-99445714D01*
X136314667Y-99445714D02*
X136219429Y-99493333D01*
X136648000Y-100064761D02*
X136552762Y-100112380D01*
X136552762Y-100112380D02*
X136314667Y-100112380D01*
X136314667Y-100112380D02*
X136219429Y-100064761D01*
X136219429Y-100064761D02*
X136171810Y-99969523D01*
X136171810Y-99969523D02*
X136171810Y-99874285D01*
X136171810Y-99874285D02*
X136219429Y-99779047D01*
X136219429Y-99779047D02*
X136314667Y-99731428D01*
X136314667Y-99731428D02*
X136552762Y-99731428D01*
X136552762Y-99731428D02*
X136648000Y-99683809D01*
X137552762Y-100112380D02*
X137552762Y-99112380D01*
X137552762Y-100064761D02*
X137457524Y-100112380D01*
X137457524Y-100112380D02*
X137267048Y-100112380D01*
X137267048Y-100112380D02*
X137171810Y-100064761D01*
X137171810Y-100064761D02*
X137124191Y-100017142D01*
X137124191Y-100017142D02*
X137076572Y-99921904D01*
X137076572Y-99921904D02*
X137076572Y-99636190D01*
X137076572Y-99636190D02*
X137124191Y-99540952D01*
X137124191Y-99540952D02*
X137171810Y-99493333D01*
X137171810Y-99493333D02*
X137267048Y-99445714D01*
X137267048Y-99445714D02*
X137457524Y-99445714D01*
X137457524Y-99445714D02*
X137552762Y-99493333D01*
X56594285Y-130862380D02*
X56118095Y-130862380D01*
X56118095Y-130862380D02*
X56070476Y-131338571D01*
X56070476Y-131338571D02*
X56118095Y-131290952D01*
X56118095Y-131290952D02*
X56213333Y-131243333D01*
X56213333Y-131243333D02*
X56451428Y-131243333D01*
X56451428Y-131243333D02*
X56546666Y-131290952D01*
X56546666Y-131290952D02*
X56594285Y-131338571D01*
X56594285Y-131338571D02*
X56641904Y-131433809D01*
X56641904Y-131433809D02*
X56641904Y-131671904D01*
X56641904Y-131671904D02*
X56594285Y-131767142D01*
X56594285Y-131767142D02*
X56546666Y-131814761D01*
X56546666Y-131814761D02*
X56451428Y-131862380D01*
X56451428Y-131862380D02*
X56213333Y-131862380D01*
X56213333Y-131862380D02*
X56118095Y-131814761D01*
X56118095Y-131814761D02*
X56070476Y-131767142D01*
X56927619Y-130862380D02*
X57260952Y-131862380D01*
X57260952Y-131862380D02*
X57594285Y-130862380D01*
%TO.C,TP21*%
X70733905Y-77364380D02*
X71305333Y-77364380D01*
X71019619Y-78364380D02*
X71019619Y-77364380D01*
X71638667Y-78364380D02*
X71638667Y-77364380D01*
X71638667Y-77364380D02*
X72019619Y-77364380D01*
X72019619Y-77364380D02*
X72114857Y-77412000D01*
X72114857Y-77412000D02*
X72162476Y-77459619D01*
X72162476Y-77459619D02*
X72210095Y-77554857D01*
X72210095Y-77554857D02*
X72210095Y-77697714D01*
X72210095Y-77697714D02*
X72162476Y-77792952D01*
X72162476Y-77792952D02*
X72114857Y-77840571D01*
X72114857Y-77840571D02*
X72019619Y-77888190D01*
X72019619Y-77888190D02*
X71638667Y-77888190D01*
X72591048Y-77459619D02*
X72638667Y-77412000D01*
X72638667Y-77412000D02*
X72733905Y-77364380D01*
X72733905Y-77364380D02*
X72972000Y-77364380D01*
X72972000Y-77364380D02*
X73067238Y-77412000D01*
X73067238Y-77412000D02*
X73114857Y-77459619D01*
X73114857Y-77459619D02*
X73162476Y-77554857D01*
X73162476Y-77554857D02*
X73162476Y-77650095D01*
X73162476Y-77650095D02*
X73114857Y-77792952D01*
X73114857Y-77792952D02*
X72543429Y-78364380D01*
X72543429Y-78364380D02*
X73162476Y-78364380D01*
X74114857Y-78364380D02*
X73543429Y-78364380D01*
X73829143Y-78364380D02*
X73829143Y-77364380D01*
X73829143Y-77364380D02*
X73733905Y-77507238D01*
X73733905Y-77507238D02*
X73638667Y-77602476D01*
X73638667Y-77602476D02*
X73543429Y-77650095D01*
D11*
%TO.C,D4*%
X52942973Y-104975781D02*
X51672973Y-104975781D01*
X51672973Y-104975781D02*
X51672973Y-104673400D01*
X51672973Y-104673400D02*
X51733450Y-104491971D01*
X51733450Y-104491971D02*
X51854402Y-104371019D01*
X51854402Y-104371019D02*
X51975354Y-104310542D01*
X51975354Y-104310542D02*
X52217259Y-104250066D01*
X52217259Y-104250066D02*
X52398688Y-104250066D01*
X52398688Y-104250066D02*
X52640592Y-104310542D01*
X52640592Y-104310542D02*
X52761545Y-104371019D01*
X52761545Y-104371019D02*
X52882497Y-104491971D01*
X52882497Y-104491971D02*
X52942973Y-104673400D01*
X52942973Y-104673400D02*
X52942973Y-104975781D01*
X52096307Y-103161495D02*
X52942973Y-103161495D01*
X51612497Y-103463876D02*
X52519640Y-103766257D01*
X52519640Y-103766257D02*
X52519640Y-102980066D01*
D10*
%TO.C,TP22*%
X89422505Y-140447580D02*
X89993933Y-140447580D01*
X89708219Y-141447580D02*
X89708219Y-140447580D01*
X90327267Y-141447580D02*
X90327267Y-140447580D01*
X90327267Y-140447580D02*
X90708219Y-140447580D01*
X90708219Y-140447580D02*
X90803457Y-140495200D01*
X90803457Y-140495200D02*
X90851076Y-140542819D01*
X90851076Y-140542819D02*
X90898695Y-140638057D01*
X90898695Y-140638057D02*
X90898695Y-140780914D01*
X90898695Y-140780914D02*
X90851076Y-140876152D01*
X90851076Y-140876152D02*
X90803457Y-140923771D01*
X90803457Y-140923771D02*
X90708219Y-140971390D01*
X90708219Y-140971390D02*
X90327267Y-140971390D01*
X91279648Y-140542819D02*
X91327267Y-140495200D01*
X91327267Y-140495200D02*
X91422505Y-140447580D01*
X91422505Y-140447580D02*
X91660600Y-140447580D01*
X91660600Y-140447580D02*
X91755838Y-140495200D01*
X91755838Y-140495200D02*
X91803457Y-140542819D01*
X91803457Y-140542819D02*
X91851076Y-140638057D01*
X91851076Y-140638057D02*
X91851076Y-140733295D01*
X91851076Y-140733295D02*
X91803457Y-140876152D01*
X91803457Y-140876152D02*
X91232029Y-141447580D01*
X91232029Y-141447580D02*
X91851076Y-141447580D01*
X92232029Y-140542819D02*
X92279648Y-140495200D01*
X92279648Y-140495200D02*
X92374886Y-140447580D01*
X92374886Y-140447580D02*
X92612981Y-140447580D01*
X92612981Y-140447580D02*
X92708219Y-140495200D01*
X92708219Y-140495200D02*
X92755838Y-140542819D01*
X92755838Y-140542819D02*
X92803457Y-140638057D01*
X92803457Y-140638057D02*
X92803457Y-140733295D01*
X92803457Y-140733295D02*
X92755838Y-140876152D01*
X92755838Y-140876152D02*
X92184410Y-141447580D01*
X92184410Y-141447580D02*
X92803457Y-141447580D01*
%TO.C,TP9*%
X65886095Y-115938380D02*
X66457523Y-115938380D01*
X66171809Y-116938380D02*
X66171809Y-115938380D01*
X66790857Y-116938380D02*
X66790857Y-115938380D01*
X66790857Y-115938380D02*
X67171809Y-115938380D01*
X67171809Y-115938380D02*
X67267047Y-115986000D01*
X67267047Y-115986000D02*
X67314666Y-116033619D01*
X67314666Y-116033619D02*
X67362285Y-116128857D01*
X67362285Y-116128857D02*
X67362285Y-116271714D01*
X67362285Y-116271714D02*
X67314666Y-116366952D01*
X67314666Y-116366952D02*
X67267047Y-116414571D01*
X67267047Y-116414571D02*
X67171809Y-116462190D01*
X67171809Y-116462190D02*
X66790857Y-116462190D01*
X67838476Y-116938380D02*
X68028952Y-116938380D01*
X68028952Y-116938380D02*
X68124190Y-116890761D01*
X68124190Y-116890761D02*
X68171809Y-116843142D01*
X68171809Y-116843142D02*
X68267047Y-116700285D01*
X68267047Y-116700285D02*
X68314666Y-116509809D01*
X68314666Y-116509809D02*
X68314666Y-116128857D01*
X68314666Y-116128857D02*
X68267047Y-116033619D01*
X68267047Y-116033619D02*
X68219428Y-115986000D01*
X68219428Y-115986000D02*
X68124190Y-115938380D01*
X68124190Y-115938380D02*
X67933714Y-115938380D01*
X67933714Y-115938380D02*
X67838476Y-115986000D01*
X67838476Y-115986000D02*
X67790857Y-116033619D01*
X67790857Y-116033619D02*
X67743238Y-116128857D01*
X67743238Y-116128857D02*
X67743238Y-116366952D01*
X67743238Y-116366952D02*
X67790857Y-116462190D01*
X67790857Y-116462190D02*
X67838476Y-116509809D01*
X67838476Y-116509809D02*
X67933714Y-116557428D01*
X67933714Y-116557428D02*
X68124190Y-116557428D01*
X68124190Y-116557428D02*
X68219428Y-116509809D01*
X68219428Y-116509809D02*
X68267047Y-116462190D01*
X68267047Y-116462190D02*
X68314666Y-116366952D01*
%TO.C,R22*%
X94829980Y-79408257D02*
X94353790Y-79741590D01*
X94829980Y-79979685D02*
X93829980Y-79979685D01*
X93829980Y-79979685D02*
X93829980Y-79598733D01*
X93829980Y-79598733D02*
X93877600Y-79503495D01*
X93877600Y-79503495D02*
X93925219Y-79455876D01*
X93925219Y-79455876D02*
X94020457Y-79408257D01*
X94020457Y-79408257D02*
X94163314Y-79408257D01*
X94163314Y-79408257D02*
X94258552Y-79455876D01*
X94258552Y-79455876D02*
X94306171Y-79503495D01*
X94306171Y-79503495D02*
X94353790Y-79598733D01*
X94353790Y-79598733D02*
X94353790Y-79979685D01*
X93925219Y-79027304D02*
X93877600Y-78979685D01*
X93877600Y-78979685D02*
X93829980Y-78884447D01*
X93829980Y-78884447D02*
X93829980Y-78646352D01*
X93829980Y-78646352D02*
X93877600Y-78551114D01*
X93877600Y-78551114D02*
X93925219Y-78503495D01*
X93925219Y-78503495D02*
X94020457Y-78455876D01*
X94020457Y-78455876D02*
X94115695Y-78455876D01*
X94115695Y-78455876D02*
X94258552Y-78503495D01*
X94258552Y-78503495D02*
X94829980Y-79074923D01*
X94829980Y-79074923D02*
X94829980Y-78455876D01*
X93925219Y-78074923D02*
X93877600Y-78027304D01*
X93877600Y-78027304D02*
X93829980Y-77932066D01*
X93829980Y-77932066D02*
X93829980Y-77693971D01*
X93829980Y-77693971D02*
X93877600Y-77598733D01*
X93877600Y-77598733D02*
X93925219Y-77551114D01*
X93925219Y-77551114D02*
X94020457Y-77503495D01*
X94020457Y-77503495D02*
X94115695Y-77503495D01*
X94115695Y-77503495D02*
X94258552Y-77551114D01*
X94258552Y-77551114D02*
X94829980Y-78122542D01*
X94829980Y-78122542D02*
X94829980Y-77503495D01*
%TO.C,U6*%
X89060595Y-87630380D02*
X89060595Y-88439904D01*
X89060595Y-88439904D02*
X89108214Y-88535142D01*
X89108214Y-88535142D02*
X89155833Y-88582761D01*
X89155833Y-88582761D02*
X89251071Y-88630380D01*
X89251071Y-88630380D02*
X89441547Y-88630380D01*
X89441547Y-88630380D02*
X89536785Y-88582761D01*
X89536785Y-88582761D02*
X89584404Y-88535142D01*
X89584404Y-88535142D02*
X89632023Y-88439904D01*
X89632023Y-88439904D02*
X89632023Y-87630380D01*
X90536785Y-87630380D02*
X90346309Y-87630380D01*
X90346309Y-87630380D02*
X90251071Y-87678000D01*
X90251071Y-87678000D02*
X90203452Y-87725619D01*
X90203452Y-87725619D02*
X90108214Y-87868476D01*
X90108214Y-87868476D02*
X90060595Y-88058952D01*
X90060595Y-88058952D02*
X90060595Y-88439904D01*
X90060595Y-88439904D02*
X90108214Y-88535142D01*
X90108214Y-88535142D02*
X90155833Y-88582761D01*
X90155833Y-88582761D02*
X90251071Y-88630380D01*
X90251071Y-88630380D02*
X90441547Y-88630380D01*
X90441547Y-88630380D02*
X90536785Y-88582761D01*
X90536785Y-88582761D02*
X90584404Y-88535142D01*
X90584404Y-88535142D02*
X90632023Y-88439904D01*
X90632023Y-88439904D02*
X90632023Y-88201809D01*
X90632023Y-88201809D02*
X90584404Y-88106571D01*
X90584404Y-88106571D02*
X90536785Y-88058952D01*
X90536785Y-88058952D02*
X90441547Y-88011333D01*
X90441547Y-88011333D02*
X90251071Y-88011333D01*
X90251071Y-88011333D02*
X90155833Y-88058952D01*
X90155833Y-88058952D02*
X90108214Y-88106571D01*
X90108214Y-88106571D02*
X90060595Y-88201809D01*
%TO.C,Q3*%
X115635261Y-102949619D02*
X115540023Y-102902000D01*
X115540023Y-102902000D02*
X115444785Y-102806761D01*
X115444785Y-102806761D02*
X115301928Y-102663904D01*
X115301928Y-102663904D02*
X115206690Y-102616285D01*
X115206690Y-102616285D02*
X115111452Y-102616285D01*
X115159071Y-102854380D02*
X115063833Y-102806761D01*
X115063833Y-102806761D02*
X114968595Y-102711523D01*
X114968595Y-102711523D02*
X114920976Y-102521047D01*
X114920976Y-102521047D02*
X114920976Y-102187714D01*
X114920976Y-102187714D02*
X114968595Y-101997238D01*
X114968595Y-101997238D02*
X115063833Y-101902000D01*
X115063833Y-101902000D02*
X115159071Y-101854380D01*
X115159071Y-101854380D02*
X115349547Y-101854380D01*
X115349547Y-101854380D02*
X115444785Y-101902000D01*
X115444785Y-101902000D02*
X115540023Y-101997238D01*
X115540023Y-101997238D02*
X115587642Y-102187714D01*
X115587642Y-102187714D02*
X115587642Y-102521047D01*
X115587642Y-102521047D02*
X115540023Y-102711523D01*
X115540023Y-102711523D02*
X115444785Y-102806761D01*
X115444785Y-102806761D02*
X115349547Y-102854380D01*
X115349547Y-102854380D02*
X115159071Y-102854380D01*
X115920976Y-101854380D02*
X116540023Y-101854380D01*
X116540023Y-101854380D02*
X116206690Y-102235333D01*
X116206690Y-102235333D02*
X116349547Y-102235333D01*
X116349547Y-102235333D02*
X116444785Y-102282952D01*
X116444785Y-102282952D02*
X116492404Y-102330571D01*
X116492404Y-102330571D02*
X116540023Y-102425809D01*
X116540023Y-102425809D02*
X116540023Y-102663904D01*
X116540023Y-102663904D02*
X116492404Y-102759142D01*
X116492404Y-102759142D02*
X116444785Y-102806761D01*
X116444785Y-102806761D02*
X116349547Y-102854380D01*
X116349547Y-102854380D02*
X116063833Y-102854380D01*
X116063833Y-102854380D02*
X115968595Y-102806761D01*
X115968595Y-102806761D02*
X115920976Y-102759142D01*
D11*
%TO.C,D6*%
X57946773Y-90040581D02*
X56676773Y-90040581D01*
X56676773Y-90040581D02*
X56676773Y-89738200D01*
X56676773Y-89738200D02*
X56737250Y-89556771D01*
X56737250Y-89556771D02*
X56858202Y-89435819D01*
X56858202Y-89435819D02*
X56979154Y-89375342D01*
X56979154Y-89375342D02*
X57221059Y-89314866D01*
X57221059Y-89314866D02*
X57402488Y-89314866D01*
X57402488Y-89314866D02*
X57644392Y-89375342D01*
X57644392Y-89375342D02*
X57765345Y-89435819D01*
X57765345Y-89435819D02*
X57886297Y-89556771D01*
X57886297Y-89556771D02*
X57946773Y-89738200D01*
X57946773Y-89738200D02*
X57946773Y-90040581D01*
X56676773Y-88226295D02*
X56676773Y-88468200D01*
X56676773Y-88468200D02*
X56737250Y-88589152D01*
X56737250Y-88589152D02*
X56797726Y-88649628D01*
X56797726Y-88649628D02*
X56979154Y-88770581D01*
X56979154Y-88770581D02*
X57221059Y-88831057D01*
X57221059Y-88831057D02*
X57704869Y-88831057D01*
X57704869Y-88831057D02*
X57825821Y-88770581D01*
X57825821Y-88770581D02*
X57886297Y-88710104D01*
X57886297Y-88710104D02*
X57946773Y-88589152D01*
X57946773Y-88589152D02*
X57946773Y-88347247D01*
X57946773Y-88347247D02*
X57886297Y-88226295D01*
X57886297Y-88226295D02*
X57825821Y-88165819D01*
X57825821Y-88165819D02*
X57704869Y-88105342D01*
X57704869Y-88105342D02*
X57402488Y-88105342D01*
X57402488Y-88105342D02*
X57281535Y-88165819D01*
X57281535Y-88165819D02*
X57221059Y-88226295D01*
X57221059Y-88226295D02*
X57160583Y-88347247D01*
X57160583Y-88347247D02*
X57160583Y-88589152D01*
X57160583Y-88589152D02*
X57221059Y-88710104D01*
X57221059Y-88710104D02*
X57281535Y-88770581D01*
X57281535Y-88770581D02*
X57402488Y-88831057D01*
D10*
%TO.C,U2*%
X88285095Y-126791380D02*
X88285095Y-127600904D01*
X88285095Y-127600904D02*
X88332714Y-127696142D01*
X88332714Y-127696142D02*
X88380333Y-127743761D01*
X88380333Y-127743761D02*
X88475571Y-127791380D01*
X88475571Y-127791380D02*
X88666047Y-127791380D01*
X88666047Y-127791380D02*
X88761285Y-127743761D01*
X88761285Y-127743761D02*
X88808904Y-127696142D01*
X88808904Y-127696142D02*
X88856523Y-127600904D01*
X88856523Y-127600904D02*
X88856523Y-126791380D01*
X89285095Y-126886619D02*
X89332714Y-126839000D01*
X89332714Y-126839000D02*
X89427952Y-126791380D01*
X89427952Y-126791380D02*
X89666047Y-126791380D01*
X89666047Y-126791380D02*
X89761285Y-126839000D01*
X89761285Y-126839000D02*
X89808904Y-126886619D01*
X89808904Y-126886619D02*
X89856523Y-126981857D01*
X89856523Y-126981857D02*
X89856523Y-127077095D01*
X89856523Y-127077095D02*
X89808904Y-127219952D01*
X89808904Y-127219952D02*
X89237476Y-127791380D01*
X89237476Y-127791380D02*
X89856523Y-127791380D01*
%TO.C,R9*%
X90085333Y-84638380D02*
X89752000Y-84162190D01*
X89513905Y-84638380D02*
X89513905Y-83638380D01*
X89513905Y-83638380D02*
X89894857Y-83638380D01*
X89894857Y-83638380D02*
X89990095Y-83686000D01*
X89990095Y-83686000D02*
X90037714Y-83733619D01*
X90037714Y-83733619D02*
X90085333Y-83828857D01*
X90085333Y-83828857D02*
X90085333Y-83971714D01*
X90085333Y-83971714D02*
X90037714Y-84066952D01*
X90037714Y-84066952D02*
X89990095Y-84114571D01*
X89990095Y-84114571D02*
X89894857Y-84162190D01*
X89894857Y-84162190D02*
X89513905Y-84162190D01*
X90561524Y-84638380D02*
X90752000Y-84638380D01*
X90752000Y-84638380D02*
X90847238Y-84590761D01*
X90847238Y-84590761D02*
X90894857Y-84543142D01*
X90894857Y-84543142D02*
X90990095Y-84400285D01*
X90990095Y-84400285D02*
X91037714Y-84209809D01*
X91037714Y-84209809D02*
X91037714Y-83828857D01*
X91037714Y-83828857D02*
X90990095Y-83733619D01*
X90990095Y-83733619D02*
X90942476Y-83686000D01*
X90942476Y-83686000D02*
X90847238Y-83638380D01*
X90847238Y-83638380D02*
X90656762Y-83638380D01*
X90656762Y-83638380D02*
X90561524Y-83686000D01*
X90561524Y-83686000D02*
X90513905Y-83733619D01*
X90513905Y-83733619D02*
X90466286Y-83828857D01*
X90466286Y-83828857D02*
X90466286Y-84066952D01*
X90466286Y-84066952D02*
X90513905Y-84162190D01*
X90513905Y-84162190D02*
X90561524Y-84209809D01*
X90561524Y-84209809D02*
X90656762Y-84257428D01*
X90656762Y-84257428D02*
X90847238Y-84257428D01*
X90847238Y-84257428D02*
X90942476Y-84209809D01*
X90942476Y-84209809D02*
X90990095Y-84162190D01*
X90990095Y-84162190D02*
X91037714Y-84066952D01*
%TO.C,TP14*%
X120009905Y-90064380D02*
X120581333Y-90064380D01*
X120295619Y-91064380D02*
X120295619Y-90064380D01*
X120914667Y-91064380D02*
X120914667Y-90064380D01*
X120914667Y-90064380D02*
X121295619Y-90064380D01*
X121295619Y-90064380D02*
X121390857Y-90112000D01*
X121390857Y-90112000D02*
X121438476Y-90159619D01*
X121438476Y-90159619D02*
X121486095Y-90254857D01*
X121486095Y-90254857D02*
X121486095Y-90397714D01*
X121486095Y-90397714D02*
X121438476Y-90492952D01*
X121438476Y-90492952D02*
X121390857Y-90540571D01*
X121390857Y-90540571D02*
X121295619Y-90588190D01*
X121295619Y-90588190D02*
X120914667Y-90588190D01*
X122438476Y-91064380D02*
X121867048Y-91064380D01*
X122152762Y-91064380D02*
X122152762Y-90064380D01*
X122152762Y-90064380D02*
X122057524Y-90207238D01*
X122057524Y-90207238D02*
X121962286Y-90302476D01*
X121962286Y-90302476D02*
X121867048Y-90350095D01*
X123295619Y-90397714D02*
X123295619Y-91064380D01*
X123057524Y-90016761D02*
X122819429Y-90731047D01*
X122819429Y-90731047D02*
X123438476Y-90731047D01*
D11*
%TO.C,U3*%
X125643573Y-121411619D02*
X126671669Y-121411619D01*
X126671669Y-121411619D02*
X126792621Y-121351142D01*
X126792621Y-121351142D02*
X126853097Y-121290666D01*
X126853097Y-121290666D02*
X126913573Y-121169714D01*
X126913573Y-121169714D02*
X126913573Y-120927809D01*
X126913573Y-120927809D02*
X126853097Y-120806857D01*
X126853097Y-120806857D02*
X126792621Y-120746380D01*
X126792621Y-120746380D02*
X126671669Y-120685904D01*
X126671669Y-120685904D02*
X125643573Y-120685904D01*
X125643573Y-120202095D02*
X125643573Y-119415904D01*
X125643573Y-119415904D02*
X126127383Y-119839238D01*
X126127383Y-119839238D02*
X126127383Y-119657809D01*
X126127383Y-119657809D02*
X126187859Y-119536857D01*
X126187859Y-119536857D02*
X126248335Y-119476381D01*
X126248335Y-119476381D02*
X126369288Y-119415904D01*
X126369288Y-119415904D02*
X126671669Y-119415904D01*
X126671669Y-119415904D02*
X126792621Y-119476381D01*
X126792621Y-119476381D02*
X126853097Y-119536857D01*
X126853097Y-119536857D02*
X126913573Y-119657809D01*
X126913573Y-119657809D02*
X126913573Y-120020666D01*
X126913573Y-120020666D02*
X126853097Y-120141619D01*
X126853097Y-120141619D02*
X126792621Y-120202095D01*
D10*
%TO.C,TP19*%
X78861905Y-92604380D02*
X79433333Y-92604380D01*
X79147619Y-93604380D02*
X79147619Y-92604380D01*
X79766667Y-93604380D02*
X79766667Y-92604380D01*
X79766667Y-92604380D02*
X80147619Y-92604380D01*
X80147619Y-92604380D02*
X80242857Y-92652000D01*
X80242857Y-92652000D02*
X80290476Y-92699619D01*
X80290476Y-92699619D02*
X80338095Y-92794857D01*
X80338095Y-92794857D02*
X80338095Y-92937714D01*
X80338095Y-92937714D02*
X80290476Y-93032952D01*
X80290476Y-93032952D02*
X80242857Y-93080571D01*
X80242857Y-93080571D02*
X80147619Y-93128190D01*
X80147619Y-93128190D02*
X79766667Y-93128190D01*
X81290476Y-93604380D02*
X80719048Y-93604380D01*
X81004762Y-93604380D02*
X81004762Y-92604380D01*
X81004762Y-92604380D02*
X80909524Y-92747238D01*
X80909524Y-92747238D02*
X80814286Y-92842476D01*
X80814286Y-92842476D02*
X80719048Y-92890095D01*
X81766667Y-93604380D02*
X81957143Y-93604380D01*
X81957143Y-93604380D02*
X82052381Y-93556761D01*
X82052381Y-93556761D02*
X82100000Y-93509142D01*
X82100000Y-93509142D02*
X82195238Y-93366285D01*
X82195238Y-93366285D02*
X82242857Y-93175809D01*
X82242857Y-93175809D02*
X82242857Y-92794857D01*
X82242857Y-92794857D02*
X82195238Y-92699619D01*
X82195238Y-92699619D02*
X82147619Y-92652000D01*
X82147619Y-92652000D02*
X82052381Y-92604380D01*
X82052381Y-92604380D02*
X81861905Y-92604380D01*
X81861905Y-92604380D02*
X81766667Y-92652000D01*
X81766667Y-92652000D02*
X81719048Y-92699619D01*
X81719048Y-92699619D02*
X81671429Y-92794857D01*
X81671429Y-92794857D02*
X81671429Y-93032952D01*
X81671429Y-93032952D02*
X81719048Y-93128190D01*
X81719048Y-93128190D02*
X81766667Y-93175809D01*
X81766667Y-93175809D02*
X81861905Y-93223428D01*
X81861905Y-93223428D02*
X82052381Y-93223428D01*
X82052381Y-93223428D02*
X82147619Y-93175809D01*
X82147619Y-93175809D02*
X82195238Y-93128190D01*
X82195238Y-93128190D02*
X82242857Y-93032952D01*
%TO.C,C10*%
X69790142Y-95877857D02*
X69837761Y-95925476D01*
X69837761Y-95925476D02*
X69885380Y-96068333D01*
X69885380Y-96068333D02*
X69885380Y-96163571D01*
X69885380Y-96163571D02*
X69837761Y-96306428D01*
X69837761Y-96306428D02*
X69742523Y-96401666D01*
X69742523Y-96401666D02*
X69647285Y-96449285D01*
X69647285Y-96449285D02*
X69456809Y-96496904D01*
X69456809Y-96496904D02*
X69313952Y-96496904D01*
X69313952Y-96496904D02*
X69123476Y-96449285D01*
X69123476Y-96449285D02*
X69028238Y-96401666D01*
X69028238Y-96401666D02*
X68933000Y-96306428D01*
X68933000Y-96306428D02*
X68885380Y-96163571D01*
X68885380Y-96163571D02*
X68885380Y-96068333D01*
X68885380Y-96068333D02*
X68933000Y-95925476D01*
X68933000Y-95925476D02*
X68980619Y-95877857D01*
X69885380Y-94925476D02*
X69885380Y-95496904D01*
X69885380Y-95211190D02*
X68885380Y-95211190D01*
X68885380Y-95211190D02*
X69028238Y-95306428D01*
X69028238Y-95306428D02*
X69123476Y-95401666D01*
X69123476Y-95401666D02*
X69171095Y-95496904D01*
X68885380Y-94306428D02*
X68885380Y-94211190D01*
X68885380Y-94211190D02*
X68933000Y-94115952D01*
X68933000Y-94115952D02*
X68980619Y-94068333D01*
X68980619Y-94068333D02*
X69075857Y-94020714D01*
X69075857Y-94020714D02*
X69266333Y-93973095D01*
X69266333Y-93973095D02*
X69504428Y-93973095D01*
X69504428Y-93973095D02*
X69694904Y-94020714D01*
X69694904Y-94020714D02*
X69790142Y-94068333D01*
X69790142Y-94068333D02*
X69837761Y-94115952D01*
X69837761Y-94115952D02*
X69885380Y-94211190D01*
X69885380Y-94211190D02*
X69885380Y-94306428D01*
X69885380Y-94306428D02*
X69837761Y-94401666D01*
X69837761Y-94401666D02*
X69790142Y-94449285D01*
X69790142Y-94449285D02*
X69694904Y-94496904D01*
X69694904Y-94496904D02*
X69504428Y-94544523D01*
X69504428Y-94544523D02*
X69266333Y-94544523D01*
X69266333Y-94544523D02*
X69075857Y-94496904D01*
X69075857Y-94496904D02*
X68980619Y-94449285D01*
X68980619Y-94449285D02*
X68933000Y-94401666D01*
X68933000Y-94401666D02*
X68885380Y-94306428D01*
D11*
%TO.C,U5*%
X90300380Y-96971573D02*
X90300380Y-97999669D01*
X90300380Y-97999669D02*
X90360857Y-98120621D01*
X90360857Y-98120621D02*
X90421333Y-98181097D01*
X90421333Y-98181097D02*
X90542285Y-98241573D01*
X90542285Y-98241573D02*
X90784190Y-98241573D01*
X90784190Y-98241573D02*
X90905142Y-98181097D01*
X90905142Y-98181097D02*
X90965619Y-98120621D01*
X90965619Y-98120621D02*
X91026095Y-97999669D01*
X91026095Y-97999669D02*
X91026095Y-96971573D01*
X92235618Y-96971573D02*
X91630856Y-96971573D01*
X91630856Y-96971573D02*
X91570380Y-97576335D01*
X91570380Y-97576335D02*
X91630856Y-97515859D01*
X91630856Y-97515859D02*
X91751809Y-97455383D01*
X91751809Y-97455383D02*
X92054190Y-97455383D01*
X92054190Y-97455383D02*
X92175142Y-97515859D01*
X92175142Y-97515859D02*
X92235618Y-97576335D01*
X92235618Y-97576335D02*
X92296095Y-97697288D01*
X92296095Y-97697288D02*
X92296095Y-97999669D01*
X92296095Y-97999669D02*
X92235618Y-98120621D01*
X92235618Y-98120621D02*
X92175142Y-98181097D01*
X92175142Y-98181097D02*
X92054190Y-98241573D01*
X92054190Y-98241573D02*
X91751809Y-98241573D01*
X91751809Y-98241573D02*
X91630856Y-98181097D01*
X91630856Y-98181097D02*
X91570380Y-98120621D01*
D10*
%TO.C,TP5*%
X85942095Y-105812380D02*
X86513523Y-105812380D01*
X86227809Y-106812380D02*
X86227809Y-105812380D01*
X86846857Y-106812380D02*
X86846857Y-105812380D01*
X86846857Y-105812380D02*
X87227809Y-105812380D01*
X87227809Y-105812380D02*
X87323047Y-105860000D01*
X87323047Y-105860000D02*
X87370666Y-105907619D01*
X87370666Y-105907619D02*
X87418285Y-106002857D01*
X87418285Y-106002857D02*
X87418285Y-106145714D01*
X87418285Y-106145714D02*
X87370666Y-106240952D01*
X87370666Y-106240952D02*
X87323047Y-106288571D01*
X87323047Y-106288571D02*
X87227809Y-106336190D01*
X87227809Y-106336190D02*
X86846857Y-106336190D01*
X88323047Y-105812380D02*
X87846857Y-105812380D01*
X87846857Y-105812380D02*
X87799238Y-106288571D01*
X87799238Y-106288571D02*
X87846857Y-106240952D01*
X87846857Y-106240952D02*
X87942095Y-106193333D01*
X87942095Y-106193333D02*
X88180190Y-106193333D01*
X88180190Y-106193333D02*
X88275428Y-106240952D01*
X88275428Y-106240952D02*
X88323047Y-106288571D01*
X88323047Y-106288571D02*
X88370666Y-106383809D01*
X88370666Y-106383809D02*
X88370666Y-106621904D01*
X88370666Y-106621904D02*
X88323047Y-106717142D01*
X88323047Y-106717142D02*
X88275428Y-106764761D01*
X88275428Y-106764761D02*
X88180190Y-106812380D01*
X88180190Y-106812380D02*
X87942095Y-106812380D01*
X87942095Y-106812380D02*
X87846857Y-106764761D01*
X87846857Y-106764761D02*
X87799238Y-106717142D01*
D11*
%TO.C,Qrevpol1*%
X86775526Y-88098809D02*
X86715050Y-88219761D01*
X86715050Y-88219761D02*
X86594097Y-88340714D01*
X86594097Y-88340714D02*
X86412669Y-88522142D01*
X86412669Y-88522142D02*
X86352192Y-88643095D01*
X86352192Y-88643095D02*
X86352192Y-88764047D01*
X86654573Y-88703571D02*
X86594097Y-88824523D01*
X86594097Y-88824523D02*
X86473145Y-88945476D01*
X86473145Y-88945476D02*
X86231240Y-89005952D01*
X86231240Y-89005952D02*
X85807907Y-89005952D01*
X85807907Y-89005952D02*
X85566002Y-88945476D01*
X85566002Y-88945476D02*
X85445050Y-88824523D01*
X85445050Y-88824523D02*
X85384573Y-88703571D01*
X85384573Y-88703571D02*
X85384573Y-88461666D01*
X85384573Y-88461666D02*
X85445050Y-88340714D01*
X85445050Y-88340714D02*
X85566002Y-88219761D01*
X85566002Y-88219761D02*
X85807907Y-88159285D01*
X85807907Y-88159285D02*
X86231240Y-88159285D01*
X86231240Y-88159285D02*
X86473145Y-88219761D01*
X86473145Y-88219761D02*
X86594097Y-88340714D01*
X86594097Y-88340714D02*
X86654573Y-88461666D01*
X86654573Y-88461666D02*
X86654573Y-88703571D01*
X86654573Y-87615000D02*
X85807907Y-87615000D01*
X86049811Y-87615000D02*
X85928859Y-87554523D01*
X85928859Y-87554523D02*
X85868383Y-87494047D01*
X85868383Y-87494047D02*
X85807907Y-87373095D01*
X85807907Y-87373095D02*
X85807907Y-87252142D01*
X86594097Y-86345000D02*
X86654573Y-86465952D01*
X86654573Y-86465952D02*
X86654573Y-86707857D01*
X86654573Y-86707857D02*
X86594097Y-86828810D01*
X86594097Y-86828810D02*
X86473145Y-86889286D01*
X86473145Y-86889286D02*
X85989335Y-86889286D01*
X85989335Y-86889286D02*
X85868383Y-86828810D01*
X85868383Y-86828810D02*
X85807907Y-86707857D01*
X85807907Y-86707857D02*
X85807907Y-86465952D01*
X85807907Y-86465952D02*
X85868383Y-86345000D01*
X85868383Y-86345000D02*
X85989335Y-86284524D01*
X85989335Y-86284524D02*
X86110288Y-86284524D01*
X86110288Y-86284524D02*
X86231240Y-86889286D01*
X85807907Y-85861191D02*
X86654573Y-85558810D01*
X86654573Y-85558810D02*
X85807907Y-85256429D01*
X85807907Y-84772620D02*
X87077907Y-84772620D01*
X85868383Y-84772620D02*
X85807907Y-84651667D01*
X85807907Y-84651667D02*
X85807907Y-84409762D01*
X85807907Y-84409762D02*
X85868383Y-84288810D01*
X85868383Y-84288810D02*
X85928859Y-84228334D01*
X85928859Y-84228334D02*
X86049811Y-84167858D01*
X86049811Y-84167858D02*
X86412669Y-84167858D01*
X86412669Y-84167858D02*
X86533621Y-84228334D01*
X86533621Y-84228334D02*
X86594097Y-84288810D01*
X86594097Y-84288810D02*
X86654573Y-84409762D01*
X86654573Y-84409762D02*
X86654573Y-84651667D01*
X86654573Y-84651667D02*
X86594097Y-84772620D01*
X86654573Y-83442143D02*
X86594097Y-83563095D01*
X86594097Y-83563095D02*
X86533621Y-83623572D01*
X86533621Y-83623572D02*
X86412669Y-83684048D01*
X86412669Y-83684048D02*
X86049811Y-83684048D01*
X86049811Y-83684048D02*
X85928859Y-83623572D01*
X85928859Y-83623572D02*
X85868383Y-83563095D01*
X85868383Y-83563095D02*
X85807907Y-83442143D01*
X85807907Y-83442143D02*
X85807907Y-83260714D01*
X85807907Y-83260714D02*
X85868383Y-83139762D01*
X85868383Y-83139762D02*
X85928859Y-83079286D01*
X85928859Y-83079286D02*
X86049811Y-83018810D01*
X86049811Y-83018810D02*
X86412669Y-83018810D01*
X86412669Y-83018810D02*
X86533621Y-83079286D01*
X86533621Y-83079286D02*
X86594097Y-83139762D01*
X86594097Y-83139762D02*
X86654573Y-83260714D01*
X86654573Y-83260714D02*
X86654573Y-83442143D01*
X86654573Y-82293095D02*
X86594097Y-82414047D01*
X86594097Y-82414047D02*
X86473145Y-82474524D01*
X86473145Y-82474524D02*
X85384573Y-82474524D01*
X86654573Y-81144047D02*
X86654573Y-81869762D01*
X86654573Y-81506905D02*
X85384573Y-81506905D01*
X85384573Y-81506905D02*
X85566002Y-81627857D01*
X85566002Y-81627857D02*
X85686954Y-81748809D01*
X85686954Y-81748809D02*
X85747430Y-81869762D01*
D10*
%TO.C,TP12*%
X120009905Y-77364380D02*
X120581333Y-77364380D01*
X120295619Y-78364380D02*
X120295619Y-77364380D01*
X120914667Y-78364380D02*
X120914667Y-77364380D01*
X120914667Y-77364380D02*
X121295619Y-77364380D01*
X121295619Y-77364380D02*
X121390857Y-77412000D01*
X121390857Y-77412000D02*
X121438476Y-77459619D01*
X121438476Y-77459619D02*
X121486095Y-77554857D01*
X121486095Y-77554857D02*
X121486095Y-77697714D01*
X121486095Y-77697714D02*
X121438476Y-77792952D01*
X121438476Y-77792952D02*
X121390857Y-77840571D01*
X121390857Y-77840571D02*
X121295619Y-77888190D01*
X121295619Y-77888190D02*
X120914667Y-77888190D01*
X122438476Y-78364380D02*
X121867048Y-78364380D01*
X122152762Y-78364380D02*
X122152762Y-77364380D01*
X122152762Y-77364380D02*
X122057524Y-77507238D01*
X122057524Y-77507238D02*
X121962286Y-77602476D01*
X121962286Y-77602476D02*
X121867048Y-77650095D01*
X122819429Y-77459619D02*
X122867048Y-77412000D01*
X122867048Y-77412000D02*
X122962286Y-77364380D01*
X122962286Y-77364380D02*
X123200381Y-77364380D01*
X123200381Y-77364380D02*
X123295619Y-77412000D01*
X123295619Y-77412000D02*
X123343238Y-77459619D01*
X123343238Y-77459619D02*
X123390857Y-77554857D01*
X123390857Y-77554857D02*
X123390857Y-77650095D01*
X123390857Y-77650095D02*
X123343238Y-77792952D01*
X123343238Y-77792952D02*
X122771810Y-78364380D01*
X122771810Y-78364380D02*
X123390857Y-78364380D01*
%TO.C,C9*%
X72095742Y-142609866D02*
X72143361Y-142657485D01*
X72143361Y-142657485D02*
X72190980Y-142800342D01*
X72190980Y-142800342D02*
X72190980Y-142895580D01*
X72190980Y-142895580D02*
X72143361Y-143038437D01*
X72143361Y-143038437D02*
X72048123Y-143133675D01*
X72048123Y-143133675D02*
X71952885Y-143181294D01*
X71952885Y-143181294D02*
X71762409Y-143228913D01*
X71762409Y-143228913D02*
X71619552Y-143228913D01*
X71619552Y-143228913D02*
X71429076Y-143181294D01*
X71429076Y-143181294D02*
X71333838Y-143133675D01*
X71333838Y-143133675D02*
X71238600Y-143038437D01*
X71238600Y-143038437D02*
X71190980Y-142895580D01*
X71190980Y-142895580D02*
X71190980Y-142800342D01*
X71190980Y-142800342D02*
X71238600Y-142657485D01*
X71238600Y-142657485D02*
X71286219Y-142609866D01*
X72190980Y-142133675D02*
X72190980Y-141943199D01*
X72190980Y-141943199D02*
X72143361Y-141847961D01*
X72143361Y-141847961D02*
X72095742Y-141800342D01*
X72095742Y-141800342D02*
X71952885Y-141705104D01*
X71952885Y-141705104D02*
X71762409Y-141657485D01*
X71762409Y-141657485D02*
X71381457Y-141657485D01*
X71381457Y-141657485D02*
X71286219Y-141705104D01*
X71286219Y-141705104D02*
X71238600Y-141752723D01*
X71238600Y-141752723D02*
X71190980Y-141847961D01*
X71190980Y-141847961D02*
X71190980Y-142038437D01*
X71190980Y-142038437D02*
X71238600Y-142133675D01*
X71238600Y-142133675D02*
X71286219Y-142181294D01*
X71286219Y-142181294D02*
X71381457Y-142228913D01*
X71381457Y-142228913D02*
X71619552Y-142228913D01*
X71619552Y-142228913D02*
X71714790Y-142181294D01*
X71714790Y-142181294D02*
X71762409Y-142133675D01*
X71762409Y-142133675D02*
X71810028Y-142038437D01*
X71810028Y-142038437D02*
X71810028Y-141847961D01*
X71810028Y-141847961D02*
X71762409Y-141752723D01*
X71762409Y-141752723D02*
X71714790Y-141705104D01*
X71714790Y-141705104D02*
X71619552Y-141657485D01*
%TO.C,TP18*%
X96641905Y-95502380D02*
X97213333Y-95502380D01*
X96927619Y-96502380D02*
X96927619Y-95502380D01*
X97546667Y-96502380D02*
X97546667Y-95502380D01*
X97546667Y-95502380D02*
X97927619Y-95502380D01*
X97927619Y-95502380D02*
X98022857Y-95550000D01*
X98022857Y-95550000D02*
X98070476Y-95597619D01*
X98070476Y-95597619D02*
X98118095Y-95692857D01*
X98118095Y-95692857D02*
X98118095Y-95835714D01*
X98118095Y-95835714D02*
X98070476Y-95930952D01*
X98070476Y-95930952D02*
X98022857Y-95978571D01*
X98022857Y-95978571D02*
X97927619Y-96026190D01*
X97927619Y-96026190D02*
X97546667Y-96026190D01*
X99070476Y-96502380D02*
X98499048Y-96502380D01*
X98784762Y-96502380D02*
X98784762Y-95502380D01*
X98784762Y-95502380D02*
X98689524Y-95645238D01*
X98689524Y-95645238D02*
X98594286Y-95740476D01*
X98594286Y-95740476D02*
X98499048Y-95788095D01*
X99641905Y-95930952D02*
X99546667Y-95883333D01*
X99546667Y-95883333D02*
X99499048Y-95835714D01*
X99499048Y-95835714D02*
X99451429Y-95740476D01*
X99451429Y-95740476D02*
X99451429Y-95692857D01*
X99451429Y-95692857D02*
X99499048Y-95597619D01*
X99499048Y-95597619D02*
X99546667Y-95550000D01*
X99546667Y-95550000D02*
X99641905Y-95502380D01*
X99641905Y-95502380D02*
X99832381Y-95502380D01*
X99832381Y-95502380D02*
X99927619Y-95550000D01*
X99927619Y-95550000D02*
X99975238Y-95597619D01*
X99975238Y-95597619D02*
X100022857Y-95692857D01*
X100022857Y-95692857D02*
X100022857Y-95740476D01*
X100022857Y-95740476D02*
X99975238Y-95835714D01*
X99975238Y-95835714D02*
X99927619Y-95883333D01*
X99927619Y-95883333D02*
X99832381Y-95930952D01*
X99832381Y-95930952D02*
X99641905Y-95930952D01*
X99641905Y-95930952D02*
X99546667Y-95978571D01*
X99546667Y-95978571D02*
X99499048Y-96026190D01*
X99499048Y-96026190D02*
X99451429Y-96121428D01*
X99451429Y-96121428D02*
X99451429Y-96311904D01*
X99451429Y-96311904D02*
X99499048Y-96407142D01*
X99499048Y-96407142D02*
X99546667Y-96454761D01*
X99546667Y-96454761D02*
X99641905Y-96502380D01*
X99641905Y-96502380D02*
X99832381Y-96502380D01*
X99832381Y-96502380D02*
X99927619Y-96454761D01*
X99927619Y-96454761D02*
X99975238Y-96407142D01*
X99975238Y-96407142D02*
X100022857Y-96311904D01*
X100022857Y-96311904D02*
X100022857Y-96121428D01*
X100022857Y-96121428D02*
X99975238Y-96026190D01*
X99975238Y-96026190D02*
X99927619Y-95978571D01*
X99927619Y-95978571D02*
X99832381Y-95930952D01*
%TO.C,TP11*%
X112389905Y-77364380D02*
X112961333Y-77364380D01*
X112675619Y-78364380D02*
X112675619Y-77364380D01*
X113294667Y-78364380D02*
X113294667Y-77364380D01*
X113294667Y-77364380D02*
X113675619Y-77364380D01*
X113675619Y-77364380D02*
X113770857Y-77412000D01*
X113770857Y-77412000D02*
X113818476Y-77459619D01*
X113818476Y-77459619D02*
X113866095Y-77554857D01*
X113866095Y-77554857D02*
X113866095Y-77697714D01*
X113866095Y-77697714D02*
X113818476Y-77792952D01*
X113818476Y-77792952D02*
X113770857Y-77840571D01*
X113770857Y-77840571D02*
X113675619Y-77888190D01*
X113675619Y-77888190D02*
X113294667Y-77888190D01*
X114818476Y-78364380D02*
X114247048Y-78364380D01*
X114532762Y-78364380D02*
X114532762Y-77364380D01*
X114532762Y-77364380D02*
X114437524Y-77507238D01*
X114437524Y-77507238D02*
X114342286Y-77602476D01*
X114342286Y-77602476D02*
X114247048Y-77650095D01*
X115770857Y-78364380D02*
X115199429Y-78364380D01*
X115485143Y-78364380D02*
X115485143Y-77364380D01*
X115485143Y-77364380D02*
X115389905Y-77507238D01*
X115389905Y-77507238D02*
X115294667Y-77602476D01*
X115294667Y-77602476D02*
X115199429Y-77650095D01*
%TO.C,C8*%
X74981142Y-146610666D02*
X75028761Y-146658285D01*
X75028761Y-146658285D02*
X75076380Y-146801142D01*
X75076380Y-146801142D02*
X75076380Y-146896380D01*
X75076380Y-146896380D02*
X75028761Y-147039237D01*
X75028761Y-147039237D02*
X74933523Y-147134475D01*
X74933523Y-147134475D02*
X74838285Y-147182094D01*
X74838285Y-147182094D02*
X74647809Y-147229713D01*
X74647809Y-147229713D02*
X74504952Y-147229713D01*
X74504952Y-147229713D02*
X74314476Y-147182094D01*
X74314476Y-147182094D02*
X74219238Y-147134475D01*
X74219238Y-147134475D02*
X74124000Y-147039237D01*
X74124000Y-147039237D02*
X74076380Y-146896380D01*
X74076380Y-146896380D02*
X74076380Y-146801142D01*
X74076380Y-146801142D02*
X74124000Y-146658285D01*
X74124000Y-146658285D02*
X74171619Y-146610666D01*
X74504952Y-146039237D02*
X74457333Y-146134475D01*
X74457333Y-146134475D02*
X74409714Y-146182094D01*
X74409714Y-146182094D02*
X74314476Y-146229713D01*
X74314476Y-146229713D02*
X74266857Y-146229713D01*
X74266857Y-146229713D02*
X74171619Y-146182094D01*
X74171619Y-146182094D02*
X74124000Y-146134475D01*
X74124000Y-146134475D02*
X74076380Y-146039237D01*
X74076380Y-146039237D02*
X74076380Y-145848761D01*
X74076380Y-145848761D02*
X74124000Y-145753523D01*
X74124000Y-145753523D02*
X74171619Y-145705904D01*
X74171619Y-145705904D02*
X74266857Y-145658285D01*
X74266857Y-145658285D02*
X74314476Y-145658285D01*
X74314476Y-145658285D02*
X74409714Y-145705904D01*
X74409714Y-145705904D02*
X74457333Y-145753523D01*
X74457333Y-145753523D02*
X74504952Y-145848761D01*
X74504952Y-145848761D02*
X74504952Y-146039237D01*
X74504952Y-146039237D02*
X74552571Y-146134475D01*
X74552571Y-146134475D02*
X74600190Y-146182094D01*
X74600190Y-146182094D02*
X74695428Y-146229713D01*
X74695428Y-146229713D02*
X74885904Y-146229713D01*
X74885904Y-146229713D02*
X74981142Y-146182094D01*
X74981142Y-146182094D02*
X75028761Y-146134475D01*
X75028761Y-146134475D02*
X75076380Y-146039237D01*
X75076380Y-146039237D02*
X75076380Y-145848761D01*
X75076380Y-145848761D02*
X75028761Y-145753523D01*
X75028761Y-145753523D02*
X74981142Y-145705904D01*
X74981142Y-145705904D02*
X74885904Y-145658285D01*
X74885904Y-145658285D02*
X74695428Y-145658285D01*
X74695428Y-145658285D02*
X74600190Y-145705904D01*
X74600190Y-145705904D02*
X74552571Y-145753523D01*
X74552571Y-145753523D02*
X74504952Y-145848761D01*
%TO.C,C1*%
X117774142Y-126135666D02*
X117821761Y-126183285D01*
X117821761Y-126183285D02*
X117869380Y-126326142D01*
X117869380Y-126326142D02*
X117869380Y-126421380D01*
X117869380Y-126421380D02*
X117821761Y-126564237D01*
X117821761Y-126564237D02*
X117726523Y-126659475D01*
X117726523Y-126659475D02*
X117631285Y-126707094D01*
X117631285Y-126707094D02*
X117440809Y-126754713D01*
X117440809Y-126754713D02*
X117297952Y-126754713D01*
X117297952Y-126754713D02*
X117107476Y-126707094D01*
X117107476Y-126707094D02*
X117012238Y-126659475D01*
X117012238Y-126659475D02*
X116917000Y-126564237D01*
X116917000Y-126564237D02*
X116869380Y-126421380D01*
X116869380Y-126421380D02*
X116869380Y-126326142D01*
X116869380Y-126326142D02*
X116917000Y-126183285D01*
X116917000Y-126183285D02*
X116964619Y-126135666D01*
X117869380Y-125183285D02*
X117869380Y-125754713D01*
X117869380Y-125468999D02*
X116869380Y-125468999D01*
X116869380Y-125468999D02*
X117012238Y-125564237D01*
X117012238Y-125564237D02*
X117107476Y-125659475D01*
X117107476Y-125659475D02*
X117155095Y-125754713D01*
D11*
%TO.C,Qrevpol2*%
X63153526Y-144199809D02*
X63093050Y-144320761D01*
X63093050Y-144320761D02*
X62972097Y-144441714D01*
X62972097Y-144441714D02*
X62790669Y-144623142D01*
X62790669Y-144623142D02*
X62730192Y-144744095D01*
X62730192Y-144744095D02*
X62730192Y-144865047D01*
X63032573Y-144804571D02*
X62972097Y-144925523D01*
X62972097Y-144925523D02*
X62851145Y-145046476D01*
X62851145Y-145046476D02*
X62609240Y-145106952D01*
X62609240Y-145106952D02*
X62185907Y-145106952D01*
X62185907Y-145106952D02*
X61944002Y-145046476D01*
X61944002Y-145046476D02*
X61823050Y-144925523D01*
X61823050Y-144925523D02*
X61762573Y-144804571D01*
X61762573Y-144804571D02*
X61762573Y-144562666D01*
X61762573Y-144562666D02*
X61823050Y-144441714D01*
X61823050Y-144441714D02*
X61944002Y-144320761D01*
X61944002Y-144320761D02*
X62185907Y-144260285D01*
X62185907Y-144260285D02*
X62609240Y-144260285D01*
X62609240Y-144260285D02*
X62851145Y-144320761D01*
X62851145Y-144320761D02*
X62972097Y-144441714D01*
X62972097Y-144441714D02*
X63032573Y-144562666D01*
X63032573Y-144562666D02*
X63032573Y-144804571D01*
X63032573Y-143716000D02*
X62185907Y-143716000D01*
X62427811Y-143716000D02*
X62306859Y-143655523D01*
X62306859Y-143655523D02*
X62246383Y-143595047D01*
X62246383Y-143595047D02*
X62185907Y-143474095D01*
X62185907Y-143474095D02*
X62185907Y-143353142D01*
X62972097Y-142446000D02*
X63032573Y-142566952D01*
X63032573Y-142566952D02*
X63032573Y-142808857D01*
X63032573Y-142808857D02*
X62972097Y-142929810D01*
X62972097Y-142929810D02*
X62851145Y-142990286D01*
X62851145Y-142990286D02*
X62367335Y-142990286D01*
X62367335Y-142990286D02*
X62246383Y-142929810D01*
X62246383Y-142929810D02*
X62185907Y-142808857D01*
X62185907Y-142808857D02*
X62185907Y-142566952D01*
X62185907Y-142566952D02*
X62246383Y-142446000D01*
X62246383Y-142446000D02*
X62367335Y-142385524D01*
X62367335Y-142385524D02*
X62488288Y-142385524D01*
X62488288Y-142385524D02*
X62609240Y-142990286D01*
X62185907Y-141962191D02*
X63032573Y-141659810D01*
X63032573Y-141659810D02*
X62185907Y-141357429D01*
X62185907Y-140873620D02*
X63455907Y-140873620D01*
X62246383Y-140873620D02*
X62185907Y-140752667D01*
X62185907Y-140752667D02*
X62185907Y-140510762D01*
X62185907Y-140510762D02*
X62246383Y-140389810D01*
X62246383Y-140389810D02*
X62306859Y-140329334D01*
X62306859Y-140329334D02*
X62427811Y-140268858D01*
X62427811Y-140268858D02*
X62790669Y-140268858D01*
X62790669Y-140268858D02*
X62911621Y-140329334D01*
X62911621Y-140329334D02*
X62972097Y-140389810D01*
X62972097Y-140389810D02*
X63032573Y-140510762D01*
X63032573Y-140510762D02*
X63032573Y-140752667D01*
X63032573Y-140752667D02*
X62972097Y-140873620D01*
X63032573Y-139543143D02*
X62972097Y-139664095D01*
X62972097Y-139664095D02*
X62911621Y-139724572D01*
X62911621Y-139724572D02*
X62790669Y-139785048D01*
X62790669Y-139785048D02*
X62427811Y-139785048D01*
X62427811Y-139785048D02*
X62306859Y-139724572D01*
X62306859Y-139724572D02*
X62246383Y-139664095D01*
X62246383Y-139664095D02*
X62185907Y-139543143D01*
X62185907Y-139543143D02*
X62185907Y-139361714D01*
X62185907Y-139361714D02*
X62246383Y-139240762D01*
X62246383Y-139240762D02*
X62306859Y-139180286D01*
X62306859Y-139180286D02*
X62427811Y-139119810D01*
X62427811Y-139119810D02*
X62790669Y-139119810D01*
X62790669Y-139119810D02*
X62911621Y-139180286D01*
X62911621Y-139180286D02*
X62972097Y-139240762D01*
X62972097Y-139240762D02*
X63032573Y-139361714D01*
X63032573Y-139361714D02*
X63032573Y-139543143D01*
X63032573Y-138394095D02*
X62972097Y-138515047D01*
X62972097Y-138515047D02*
X62851145Y-138575524D01*
X62851145Y-138575524D02*
X61762573Y-138575524D01*
X61883526Y-137970762D02*
X61823050Y-137910286D01*
X61823050Y-137910286D02*
X61762573Y-137789333D01*
X61762573Y-137789333D02*
X61762573Y-137486952D01*
X61762573Y-137486952D02*
X61823050Y-137366000D01*
X61823050Y-137366000D02*
X61883526Y-137305524D01*
X61883526Y-137305524D02*
X62004478Y-137245047D01*
X62004478Y-137245047D02*
X62125430Y-137245047D01*
X62125430Y-137245047D02*
X62306859Y-137305524D01*
X62306859Y-137305524D02*
X63032573Y-138031238D01*
X63032573Y-138031238D02*
X63032573Y-137245047D01*
D10*
%TO.C,Q4*%
X121574261Y-102883619D02*
X121479023Y-102836000D01*
X121479023Y-102836000D02*
X121383785Y-102740761D01*
X121383785Y-102740761D02*
X121240928Y-102597904D01*
X121240928Y-102597904D02*
X121145690Y-102550285D01*
X121145690Y-102550285D02*
X121050452Y-102550285D01*
X121098071Y-102788380D02*
X121002833Y-102740761D01*
X121002833Y-102740761D02*
X120907595Y-102645523D01*
X120907595Y-102645523D02*
X120859976Y-102455047D01*
X120859976Y-102455047D02*
X120859976Y-102121714D01*
X120859976Y-102121714D02*
X120907595Y-101931238D01*
X120907595Y-101931238D02*
X121002833Y-101836000D01*
X121002833Y-101836000D02*
X121098071Y-101788380D01*
X121098071Y-101788380D02*
X121288547Y-101788380D01*
X121288547Y-101788380D02*
X121383785Y-101836000D01*
X121383785Y-101836000D02*
X121479023Y-101931238D01*
X121479023Y-101931238D02*
X121526642Y-102121714D01*
X121526642Y-102121714D02*
X121526642Y-102455047D01*
X121526642Y-102455047D02*
X121479023Y-102645523D01*
X121479023Y-102645523D02*
X121383785Y-102740761D01*
X121383785Y-102740761D02*
X121288547Y-102788380D01*
X121288547Y-102788380D02*
X121098071Y-102788380D01*
X122383785Y-102121714D02*
X122383785Y-102788380D01*
X122145690Y-101740761D02*
X121907595Y-102455047D01*
X121907595Y-102455047D02*
X122526642Y-102455047D01*
%TO.C,C5*%
X114469333Y-92459142D02*
X114421714Y-92506761D01*
X114421714Y-92506761D02*
X114278857Y-92554380D01*
X114278857Y-92554380D02*
X114183619Y-92554380D01*
X114183619Y-92554380D02*
X114040762Y-92506761D01*
X114040762Y-92506761D02*
X113945524Y-92411523D01*
X113945524Y-92411523D02*
X113897905Y-92316285D01*
X113897905Y-92316285D02*
X113850286Y-92125809D01*
X113850286Y-92125809D02*
X113850286Y-91982952D01*
X113850286Y-91982952D02*
X113897905Y-91792476D01*
X113897905Y-91792476D02*
X113945524Y-91697238D01*
X113945524Y-91697238D02*
X114040762Y-91602000D01*
X114040762Y-91602000D02*
X114183619Y-91554380D01*
X114183619Y-91554380D02*
X114278857Y-91554380D01*
X114278857Y-91554380D02*
X114421714Y-91602000D01*
X114421714Y-91602000D02*
X114469333Y-91649619D01*
X115374095Y-91554380D02*
X114897905Y-91554380D01*
X114897905Y-91554380D02*
X114850286Y-92030571D01*
X114850286Y-92030571D02*
X114897905Y-91982952D01*
X114897905Y-91982952D02*
X114993143Y-91935333D01*
X114993143Y-91935333D02*
X115231238Y-91935333D01*
X115231238Y-91935333D02*
X115326476Y-91982952D01*
X115326476Y-91982952D02*
X115374095Y-92030571D01*
X115374095Y-92030571D02*
X115421714Y-92125809D01*
X115421714Y-92125809D02*
X115421714Y-92363904D01*
X115421714Y-92363904D02*
X115374095Y-92459142D01*
X115374095Y-92459142D02*
X115326476Y-92506761D01*
X115326476Y-92506761D02*
X115231238Y-92554380D01*
X115231238Y-92554380D02*
X114993143Y-92554380D01*
X114993143Y-92554380D02*
X114897905Y-92506761D01*
X114897905Y-92506761D02*
X114850286Y-92459142D01*
%TO.C,R14*%
X89289142Y-101572380D02*
X88955809Y-101096190D01*
X88717714Y-101572380D02*
X88717714Y-100572380D01*
X88717714Y-100572380D02*
X89098666Y-100572380D01*
X89098666Y-100572380D02*
X89193904Y-100620000D01*
X89193904Y-100620000D02*
X89241523Y-100667619D01*
X89241523Y-100667619D02*
X89289142Y-100762857D01*
X89289142Y-100762857D02*
X89289142Y-100905714D01*
X89289142Y-100905714D02*
X89241523Y-101000952D01*
X89241523Y-101000952D02*
X89193904Y-101048571D01*
X89193904Y-101048571D02*
X89098666Y-101096190D01*
X89098666Y-101096190D02*
X88717714Y-101096190D01*
X90241523Y-101572380D02*
X89670095Y-101572380D01*
X89955809Y-101572380D02*
X89955809Y-100572380D01*
X89955809Y-100572380D02*
X89860571Y-100715238D01*
X89860571Y-100715238D02*
X89765333Y-100810476D01*
X89765333Y-100810476D02*
X89670095Y-100858095D01*
X91098666Y-100905714D02*
X91098666Y-101572380D01*
X90860571Y-100524761D02*
X90622476Y-101239047D01*
X90622476Y-101239047D02*
X91241523Y-101239047D01*
%TO.C,R2*%
X136993333Y-137527380D02*
X136660000Y-137051190D01*
X136421905Y-137527380D02*
X136421905Y-136527380D01*
X136421905Y-136527380D02*
X136802857Y-136527380D01*
X136802857Y-136527380D02*
X136898095Y-136575000D01*
X136898095Y-136575000D02*
X136945714Y-136622619D01*
X136945714Y-136622619D02*
X136993333Y-136717857D01*
X136993333Y-136717857D02*
X136993333Y-136860714D01*
X136993333Y-136860714D02*
X136945714Y-136955952D01*
X136945714Y-136955952D02*
X136898095Y-137003571D01*
X136898095Y-137003571D02*
X136802857Y-137051190D01*
X136802857Y-137051190D02*
X136421905Y-137051190D01*
X137374286Y-136622619D02*
X137421905Y-136575000D01*
X137421905Y-136575000D02*
X137517143Y-136527380D01*
X137517143Y-136527380D02*
X137755238Y-136527380D01*
X137755238Y-136527380D02*
X137850476Y-136575000D01*
X137850476Y-136575000D02*
X137898095Y-136622619D01*
X137898095Y-136622619D02*
X137945714Y-136717857D01*
X137945714Y-136717857D02*
X137945714Y-136813095D01*
X137945714Y-136813095D02*
X137898095Y-136955952D01*
X137898095Y-136955952D02*
X137326667Y-137527380D01*
X137326667Y-137527380D02*
X137945714Y-137527380D01*
%TO.C,TP23*%
X109259905Y-132395780D02*
X109831333Y-132395780D01*
X109545619Y-133395780D02*
X109545619Y-132395780D01*
X110164667Y-133395780D02*
X110164667Y-132395780D01*
X110164667Y-132395780D02*
X110545619Y-132395780D01*
X110545619Y-132395780D02*
X110640857Y-132443400D01*
X110640857Y-132443400D02*
X110688476Y-132491019D01*
X110688476Y-132491019D02*
X110736095Y-132586257D01*
X110736095Y-132586257D02*
X110736095Y-132729114D01*
X110736095Y-132729114D02*
X110688476Y-132824352D01*
X110688476Y-132824352D02*
X110640857Y-132871971D01*
X110640857Y-132871971D02*
X110545619Y-132919590D01*
X110545619Y-132919590D02*
X110164667Y-132919590D01*
X111117048Y-132491019D02*
X111164667Y-132443400D01*
X111164667Y-132443400D02*
X111259905Y-132395780D01*
X111259905Y-132395780D02*
X111498000Y-132395780D01*
X111498000Y-132395780D02*
X111593238Y-132443400D01*
X111593238Y-132443400D02*
X111640857Y-132491019D01*
X111640857Y-132491019D02*
X111688476Y-132586257D01*
X111688476Y-132586257D02*
X111688476Y-132681495D01*
X111688476Y-132681495D02*
X111640857Y-132824352D01*
X111640857Y-132824352D02*
X111069429Y-133395780D01*
X111069429Y-133395780D02*
X111688476Y-133395780D01*
X112021810Y-132395780D02*
X112640857Y-132395780D01*
X112640857Y-132395780D02*
X112307524Y-132776733D01*
X112307524Y-132776733D02*
X112450381Y-132776733D01*
X112450381Y-132776733D02*
X112545619Y-132824352D01*
X112545619Y-132824352D02*
X112593238Y-132871971D01*
X112593238Y-132871971D02*
X112640857Y-132967209D01*
X112640857Y-132967209D02*
X112640857Y-133205304D01*
X112640857Y-133205304D02*
X112593238Y-133300542D01*
X112593238Y-133300542D02*
X112545619Y-133348161D01*
X112545619Y-133348161D02*
X112450381Y-133395780D01*
X112450381Y-133395780D02*
X112164667Y-133395780D01*
X112164667Y-133395780D02*
X112069429Y-133348161D01*
X112069429Y-133348161D02*
X112021810Y-133300542D01*
%TO.C,R15*%
X78097142Y-89775380D02*
X77763809Y-89299190D01*
X77525714Y-89775380D02*
X77525714Y-88775380D01*
X77525714Y-88775380D02*
X77906666Y-88775380D01*
X77906666Y-88775380D02*
X78001904Y-88823000D01*
X78001904Y-88823000D02*
X78049523Y-88870619D01*
X78049523Y-88870619D02*
X78097142Y-88965857D01*
X78097142Y-88965857D02*
X78097142Y-89108714D01*
X78097142Y-89108714D02*
X78049523Y-89203952D01*
X78049523Y-89203952D02*
X78001904Y-89251571D01*
X78001904Y-89251571D02*
X77906666Y-89299190D01*
X77906666Y-89299190D02*
X77525714Y-89299190D01*
X79049523Y-89775380D02*
X78478095Y-89775380D01*
X78763809Y-89775380D02*
X78763809Y-88775380D01*
X78763809Y-88775380D02*
X78668571Y-88918238D01*
X78668571Y-88918238D02*
X78573333Y-89013476D01*
X78573333Y-89013476D02*
X78478095Y-89061095D01*
X79954285Y-88775380D02*
X79478095Y-88775380D01*
X79478095Y-88775380D02*
X79430476Y-89251571D01*
X79430476Y-89251571D02*
X79478095Y-89203952D01*
X79478095Y-89203952D02*
X79573333Y-89156333D01*
X79573333Y-89156333D02*
X79811428Y-89156333D01*
X79811428Y-89156333D02*
X79906666Y-89203952D01*
X79906666Y-89203952D02*
X79954285Y-89251571D01*
X79954285Y-89251571D02*
X80001904Y-89346809D01*
X80001904Y-89346809D02*
X80001904Y-89584904D01*
X80001904Y-89584904D02*
X79954285Y-89680142D01*
X79954285Y-89680142D02*
X79906666Y-89727761D01*
X79906666Y-89727761D02*
X79811428Y-89775380D01*
X79811428Y-89775380D02*
X79573333Y-89775380D01*
X79573333Y-89775380D02*
X79478095Y-89727761D01*
X79478095Y-89727761D02*
X79430476Y-89680142D01*
%TO.C,R17*%
X72525142Y-136167380D02*
X72191809Y-135691190D01*
X71953714Y-136167380D02*
X71953714Y-135167380D01*
X71953714Y-135167380D02*
X72334666Y-135167380D01*
X72334666Y-135167380D02*
X72429904Y-135215000D01*
X72429904Y-135215000D02*
X72477523Y-135262619D01*
X72477523Y-135262619D02*
X72525142Y-135357857D01*
X72525142Y-135357857D02*
X72525142Y-135500714D01*
X72525142Y-135500714D02*
X72477523Y-135595952D01*
X72477523Y-135595952D02*
X72429904Y-135643571D01*
X72429904Y-135643571D02*
X72334666Y-135691190D01*
X72334666Y-135691190D02*
X71953714Y-135691190D01*
X73477523Y-136167380D02*
X72906095Y-136167380D01*
X73191809Y-136167380D02*
X73191809Y-135167380D01*
X73191809Y-135167380D02*
X73096571Y-135310238D01*
X73096571Y-135310238D02*
X73001333Y-135405476D01*
X73001333Y-135405476D02*
X72906095Y-135453095D01*
X73810857Y-135167380D02*
X74477523Y-135167380D01*
X74477523Y-135167380D02*
X74048952Y-136167380D01*
%TO.C,U4*%
X102070095Y-116936380D02*
X102070095Y-117745904D01*
X102070095Y-117745904D02*
X102117714Y-117841142D01*
X102117714Y-117841142D02*
X102165333Y-117888761D01*
X102165333Y-117888761D02*
X102260571Y-117936380D01*
X102260571Y-117936380D02*
X102451047Y-117936380D01*
X102451047Y-117936380D02*
X102546285Y-117888761D01*
X102546285Y-117888761D02*
X102593904Y-117841142D01*
X102593904Y-117841142D02*
X102641523Y-117745904D01*
X102641523Y-117745904D02*
X102641523Y-116936380D01*
X103546285Y-117269714D02*
X103546285Y-117936380D01*
X103308190Y-116888761D02*
X103070095Y-117603047D01*
X103070095Y-117603047D02*
X103689142Y-117603047D01*
%TO.C,TP16*%
X59049905Y-92604380D02*
X59621333Y-92604380D01*
X59335619Y-93604380D02*
X59335619Y-92604380D01*
X59954667Y-93604380D02*
X59954667Y-92604380D01*
X59954667Y-92604380D02*
X60335619Y-92604380D01*
X60335619Y-92604380D02*
X60430857Y-92652000D01*
X60430857Y-92652000D02*
X60478476Y-92699619D01*
X60478476Y-92699619D02*
X60526095Y-92794857D01*
X60526095Y-92794857D02*
X60526095Y-92937714D01*
X60526095Y-92937714D02*
X60478476Y-93032952D01*
X60478476Y-93032952D02*
X60430857Y-93080571D01*
X60430857Y-93080571D02*
X60335619Y-93128190D01*
X60335619Y-93128190D02*
X59954667Y-93128190D01*
X61478476Y-93604380D02*
X60907048Y-93604380D01*
X61192762Y-93604380D02*
X61192762Y-92604380D01*
X61192762Y-92604380D02*
X61097524Y-92747238D01*
X61097524Y-92747238D02*
X61002286Y-92842476D01*
X61002286Y-92842476D02*
X60907048Y-92890095D01*
X62335619Y-92604380D02*
X62145143Y-92604380D01*
X62145143Y-92604380D02*
X62049905Y-92652000D01*
X62049905Y-92652000D02*
X62002286Y-92699619D01*
X62002286Y-92699619D02*
X61907048Y-92842476D01*
X61907048Y-92842476D02*
X61859429Y-93032952D01*
X61859429Y-93032952D02*
X61859429Y-93413904D01*
X61859429Y-93413904D02*
X61907048Y-93509142D01*
X61907048Y-93509142D02*
X61954667Y-93556761D01*
X61954667Y-93556761D02*
X62049905Y-93604380D01*
X62049905Y-93604380D02*
X62240381Y-93604380D01*
X62240381Y-93604380D02*
X62335619Y-93556761D01*
X62335619Y-93556761D02*
X62383238Y-93509142D01*
X62383238Y-93509142D02*
X62430857Y-93413904D01*
X62430857Y-93413904D02*
X62430857Y-93175809D01*
X62430857Y-93175809D02*
X62383238Y-93080571D01*
X62383238Y-93080571D02*
X62335619Y-93032952D01*
X62335619Y-93032952D02*
X62240381Y-92985333D01*
X62240381Y-92985333D02*
X62049905Y-92985333D01*
X62049905Y-92985333D02*
X61954667Y-93032952D01*
X61954667Y-93032952D02*
X61907048Y-93080571D01*
X61907048Y-93080571D02*
X61859429Y-93175809D01*
%TO.C,R18*%
X81857380Y-79304857D02*
X81381190Y-79638190D01*
X81857380Y-79876285D02*
X80857380Y-79876285D01*
X80857380Y-79876285D02*
X80857380Y-79495333D01*
X80857380Y-79495333D02*
X80905000Y-79400095D01*
X80905000Y-79400095D02*
X80952619Y-79352476D01*
X80952619Y-79352476D02*
X81047857Y-79304857D01*
X81047857Y-79304857D02*
X81190714Y-79304857D01*
X81190714Y-79304857D02*
X81285952Y-79352476D01*
X81285952Y-79352476D02*
X81333571Y-79400095D01*
X81333571Y-79400095D02*
X81381190Y-79495333D01*
X81381190Y-79495333D02*
X81381190Y-79876285D01*
X81857380Y-78352476D02*
X81857380Y-78923904D01*
X81857380Y-78638190D02*
X80857380Y-78638190D01*
X80857380Y-78638190D02*
X81000238Y-78733428D01*
X81000238Y-78733428D02*
X81095476Y-78828666D01*
X81095476Y-78828666D02*
X81143095Y-78923904D01*
X81285952Y-77781047D02*
X81238333Y-77876285D01*
X81238333Y-77876285D02*
X81190714Y-77923904D01*
X81190714Y-77923904D02*
X81095476Y-77971523D01*
X81095476Y-77971523D02*
X81047857Y-77971523D01*
X81047857Y-77971523D02*
X80952619Y-77923904D01*
X80952619Y-77923904D02*
X80905000Y-77876285D01*
X80905000Y-77876285D02*
X80857380Y-77781047D01*
X80857380Y-77781047D02*
X80857380Y-77590571D01*
X80857380Y-77590571D02*
X80905000Y-77495333D01*
X80905000Y-77495333D02*
X80952619Y-77447714D01*
X80952619Y-77447714D02*
X81047857Y-77400095D01*
X81047857Y-77400095D02*
X81095476Y-77400095D01*
X81095476Y-77400095D02*
X81190714Y-77447714D01*
X81190714Y-77447714D02*
X81238333Y-77495333D01*
X81238333Y-77495333D02*
X81285952Y-77590571D01*
X81285952Y-77590571D02*
X81285952Y-77781047D01*
X81285952Y-77781047D02*
X81333571Y-77876285D01*
X81333571Y-77876285D02*
X81381190Y-77923904D01*
X81381190Y-77923904D02*
X81476428Y-77971523D01*
X81476428Y-77971523D02*
X81666904Y-77971523D01*
X81666904Y-77971523D02*
X81762142Y-77923904D01*
X81762142Y-77923904D02*
X81809761Y-77876285D01*
X81809761Y-77876285D02*
X81857380Y-77781047D01*
X81857380Y-77781047D02*
X81857380Y-77590571D01*
X81857380Y-77590571D02*
X81809761Y-77495333D01*
X81809761Y-77495333D02*
X81762142Y-77447714D01*
X81762142Y-77447714D02*
X81666904Y-77400095D01*
X81666904Y-77400095D02*
X81476428Y-77400095D01*
X81476428Y-77400095D02*
X81381190Y-77447714D01*
X81381190Y-77447714D02*
X81333571Y-77495333D01*
X81333571Y-77495333D02*
X81285952Y-77590571D01*
%TO.C,R19*%
X85893380Y-79304857D02*
X85417190Y-79638190D01*
X85893380Y-79876285D02*
X84893380Y-79876285D01*
X84893380Y-79876285D02*
X84893380Y-79495333D01*
X84893380Y-79495333D02*
X84941000Y-79400095D01*
X84941000Y-79400095D02*
X84988619Y-79352476D01*
X84988619Y-79352476D02*
X85083857Y-79304857D01*
X85083857Y-79304857D02*
X85226714Y-79304857D01*
X85226714Y-79304857D02*
X85321952Y-79352476D01*
X85321952Y-79352476D02*
X85369571Y-79400095D01*
X85369571Y-79400095D02*
X85417190Y-79495333D01*
X85417190Y-79495333D02*
X85417190Y-79876285D01*
X85893380Y-78352476D02*
X85893380Y-78923904D01*
X85893380Y-78638190D02*
X84893380Y-78638190D01*
X84893380Y-78638190D02*
X85036238Y-78733428D01*
X85036238Y-78733428D02*
X85131476Y-78828666D01*
X85131476Y-78828666D02*
X85179095Y-78923904D01*
X85893380Y-77876285D02*
X85893380Y-77685809D01*
X85893380Y-77685809D02*
X85845761Y-77590571D01*
X85845761Y-77590571D02*
X85798142Y-77542952D01*
X85798142Y-77542952D02*
X85655285Y-77447714D01*
X85655285Y-77447714D02*
X85464809Y-77400095D01*
X85464809Y-77400095D02*
X85083857Y-77400095D01*
X85083857Y-77400095D02*
X84988619Y-77447714D01*
X84988619Y-77447714D02*
X84941000Y-77495333D01*
X84941000Y-77495333D02*
X84893380Y-77590571D01*
X84893380Y-77590571D02*
X84893380Y-77781047D01*
X84893380Y-77781047D02*
X84941000Y-77876285D01*
X84941000Y-77876285D02*
X84988619Y-77923904D01*
X84988619Y-77923904D02*
X85083857Y-77971523D01*
X85083857Y-77971523D02*
X85321952Y-77971523D01*
X85321952Y-77971523D02*
X85417190Y-77923904D01*
X85417190Y-77923904D02*
X85464809Y-77876285D01*
X85464809Y-77876285D02*
X85512428Y-77781047D01*
X85512428Y-77781047D02*
X85512428Y-77590571D01*
X85512428Y-77590571D02*
X85464809Y-77495333D01*
X85464809Y-77495333D02*
X85417190Y-77447714D01*
X85417190Y-77447714D02*
X85321952Y-77400095D01*
%TO.C,R11*%
X68023380Y-105874857D02*
X67547190Y-106208190D01*
X68023380Y-106446285D02*
X67023380Y-106446285D01*
X67023380Y-106446285D02*
X67023380Y-106065333D01*
X67023380Y-106065333D02*
X67071000Y-105970095D01*
X67071000Y-105970095D02*
X67118619Y-105922476D01*
X67118619Y-105922476D02*
X67213857Y-105874857D01*
X67213857Y-105874857D02*
X67356714Y-105874857D01*
X67356714Y-105874857D02*
X67451952Y-105922476D01*
X67451952Y-105922476D02*
X67499571Y-105970095D01*
X67499571Y-105970095D02*
X67547190Y-106065333D01*
X67547190Y-106065333D02*
X67547190Y-106446285D01*
X68023380Y-104922476D02*
X68023380Y-105493904D01*
X68023380Y-105208190D02*
X67023380Y-105208190D01*
X67023380Y-105208190D02*
X67166238Y-105303428D01*
X67166238Y-105303428D02*
X67261476Y-105398666D01*
X67261476Y-105398666D02*
X67309095Y-105493904D01*
X68023380Y-103970095D02*
X68023380Y-104541523D01*
X68023380Y-104255809D02*
X67023380Y-104255809D01*
X67023380Y-104255809D02*
X67166238Y-104351047D01*
X67166238Y-104351047D02*
X67261476Y-104446285D01*
X67261476Y-104446285D02*
X67309095Y-104541523D01*
%TO.C,TP7*%
X135881380Y-131040904D02*
X135881380Y-130469476D01*
X136881380Y-130755190D02*
X135881380Y-130755190D01*
X136881380Y-130136142D02*
X135881380Y-130136142D01*
X135881380Y-130136142D02*
X135881380Y-129755190D01*
X135881380Y-129755190D02*
X135929000Y-129659952D01*
X135929000Y-129659952D02*
X135976619Y-129612333D01*
X135976619Y-129612333D02*
X136071857Y-129564714D01*
X136071857Y-129564714D02*
X136214714Y-129564714D01*
X136214714Y-129564714D02*
X136309952Y-129612333D01*
X136309952Y-129612333D02*
X136357571Y-129659952D01*
X136357571Y-129659952D02*
X136405190Y-129755190D01*
X136405190Y-129755190D02*
X136405190Y-130136142D01*
X135881380Y-129231380D02*
X135881380Y-128564714D01*
X135881380Y-128564714D02*
X136881380Y-128993285D01*
%TO.C,C2*%
X96353333Y-134710142D02*
X96305714Y-134757761D01*
X96305714Y-134757761D02*
X96162857Y-134805380D01*
X96162857Y-134805380D02*
X96067619Y-134805380D01*
X96067619Y-134805380D02*
X95924762Y-134757761D01*
X95924762Y-134757761D02*
X95829524Y-134662523D01*
X95829524Y-134662523D02*
X95781905Y-134567285D01*
X95781905Y-134567285D02*
X95734286Y-134376809D01*
X95734286Y-134376809D02*
X95734286Y-134233952D01*
X95734286Y-134233952D02*
X95781905Y-134043476D01*
X95781905Y-134043476D02*
X95829524Y-133948238D01*
X95829524Y-133948238D02*
X95924762Y-133853000D01*
X95924762Y-133853000D02*
X96067619Y-133805380D01*
X96067619Y-133805380D02*
X96162857Y-133805380D01*
X96162857Y-133805380D02*
X96305714Y-133853000D01*
X96305714Y-133853000D02*
X96353333Y-133900619D01*
X96734286Y-133900619D02*
X96781905Y-133853000D01*
X96781905Y-133853000D02*
X96877143Y-133805380D01*
X96877143Y-133805380D02*
X97115238Y-133805380D01*
X97115238Y-133805380D02*
X97210476Y-133853000D01*
X97210476Y-133853000D02*
X97258095Y-133900619D01*
X97258095Y-133900619D02*
X97305714Y-133995857D01*
X97305714Y-133995857D02*
X97305714Y-134091095D01*
X97305714Y-134091095D02*
X97258095Y-134233952D01*
X97258095Y-134233952D02*
X96686667Y-134805380D01*
X96686667Y-134805380D02*
X97305714Y-134805380D01*
%TO.C,TP10*%
X67949905Y-99174380D02*
X68521333Y-99174380D01*
X68235619Y-100174380D02*
X68235619Y-99174380D01*
X68854667Y-100174380D02*
X68854667Y-99174380D01*
X68854667Y-99174380D02*
X69235619Y-99174380D01*
X69235619Y-99174380D02*
X69330857Y-99222000D01*
X69330857Y-99222000D02*
X69378476Y-99269619D01*
X69378476Y-99269619D02*
X69426095Y-99364857D01*
X69426095Y-99364857D02*
X69426095Y-99507714D01*
X69426095Y-99507714D02*
X69378476Y-99602952D01*
X69378476Y-99602952D02*
X69330857Y-99650571D01*
X69330857Y-99650571D02*
X69235619Y-99698190D01*
X69235619Y-99698190D02*
X68854667Y-99698190D01*
X70378476Y-100174380D02*
X69807048Y-100174380D01*
X70092762Y-100174380D02*
X70092762Y-99174380D01*
X70092762Y-99174380D02*
X69997524Y-99317238D01*
X69997524Y-99317238D02*
X69902286Y-99412476D01*
X69902286Y-99412476D02*
X69807048Y-99460095D01*
X70997524Y-99174380D02*
X71092762Y-99174380D01*
X71092762Y-99174380D02*
X71188000Y-99222000D01*
X71188000Y-99222000D02*
X71235619Y-99269619D01*
X71235619Y-99269619D02*
X71283238Y-99364857D01*
X71283238Y-99364857D02*
X71330857Y-99555333D01*
X71330857Y-99555333D02*
X71330857Y-99793428D01*
X71330857Y-99793428D02*
X71283238Y-99983904D01*
X71283238Y-99983904D02*
X71235619Y-100079142D01*
X71235619Y-100079142D02*
X71188000Y-100126761D01*
X71188000Y-100126761D02*
X71092762Y-100174380D01*
X71092762Y-100174380D02*
X70997524Y-100174380D01*
X70997524Y-100174380D02*
X70902286Y-100126761D01*
X70902286Y-100126761D02*
X70854667Y-100079142D01*
X70854667Y-100079142D02*
X70807048Y-99983904D01*
X70807048Y-99983904D02*
X70759429Y-99793428D01*
X70759429Y-99793428D02*
X70759429Y-99555333D01*
X70759429Y-99555333D02*
X70807048Y-99364857D01*
X70807048Y-99364857D02*
X70854667Y-99269619D01*
X70854667Y-99269619D02*
X70902286Y-99222000D01*
X70902286Y-99222000D02*
X70997524Y-99174380D01*
%TO.C,TP15*%
X63113905Y-78854380D02*
X63685333Y-78854380D01*
X63399619Y-79854380D02*
X63399619Y-78854380D01*
X64018667Y-79854380D02*
X64018667Y-78854380D01*
X64018667Y-78854380D02*
X64399619Y-78854380D01*
X64399619Y-78854380D02*
X64494857Y-78902000D01*
X64494857Y-78902000D02*
X64542476Y-78949619D01*
X64542476Y-78949619D02*
X64590095Y-79044857D01*
X64590095Y-79044857D02*
X64590095Y-79187714D01*
X64590095Y-79187714D02*
X64542476Y-79282952D01*
X64542476Y-79282952D02*
X64494857Y-79330571D01*
X64494857Y-79330571D02*
X64399619Y-79378190D01*
X64399619Y-79378190D02*
X64018667Y-79378190D01*
X65542476Y-79854380D02*
X64971048Y-79854380D01*
X65256762Y-79854380D02*
X65256762Y-78854380D01*
X65256762Y-78854380D02*
X65161524Y-78997238D01*
X65161524Y-78997238D02*
X65066286Y-79092476D01*
X65066286Y-79092476D02*
X64971048Y-79140095D01*
X66447238Y-78854380D02*
X65971048Y-78854380D01*
X65971048Y-78854380D02*
X65923429Y-79330571D01*
X65923429Y-79330571D02*
X65971048Y-79282952D01*
X65971048Y-79282952D02*
X66066286Y-79235333D01*
X66066286Y-79235333D02*
X66304381Y-79235333D01*
X66304381Y-79235333D02*
X66399619Y-79282952D01*
X66399619Y-79282952D02*
X66447238Y-79330571D01*
X66447238Y-79330571D02*
X66494857Y-79425809D01*
X66494857Y-79425809D02*
X66494857Y-79663904D01*
X66494857Y-79663904D02*
X66447238Y-79759142D01*
X66447238Y-79759142D02*
X66399619Y-79806761D01*
X66399619Y-79806761D02*
X66304381Y-79854380D01*
X66304381Y-79854380D02*
X66066286Y-79854380D01*
X66066286Y-79854380D02*
X65971048Y-79806761D01*
X65971048Y-79806761D02*
X65923429Y-79759142D01*
%TO.C,R8*%
X90085333Y-81980380D02*
X89752000Y-81504190D01*
X89513905Y-81980380D02*
X89513905Y-80980380D01*
X89513905Y-80980380D02*
X89894857Y-80980380D01*
X89894857Y-80980380D02*
X89990095Y-81028000D01*
X89990095Y-81028000D02*
X90037714Y-81075619D01*
X90037714Y-81075619D02*
X90085333Y-81170857D01*
X90085333Y-81170857D02*
X90085333Y-81313714D01*
X90085333Y-81313714D02*
X90037714Y-81408952D01*
X90037714Y-81408952D02*
X89990095Y-81456571D01*
X89990095Y-81456571D02*
X89894857Y-81504190D01*
X89894857Y-81504190D02*
X89513905Y-81504190D01*
X90656762Y-81408952D02*
X90561524Y-81361333D01*
X90561524Y-81361333D02*
X90513905Y-81313714D01*
X90513905Y-81313714D02*
X90466286Y-81218476D01*
X90466286Y-81218476D02*
X90466286Y-81170857D01*
X90466286Y-81170857D02*
X90513905Y-81075619D01*
X90513905Y-81075619D02*
X90561524Y-81028000D01*
X90561524Y-81028000D02*
X90656762Y-80980380D01*
X90656762Y-80980380D02*
X90847238Y-80980380D01*
X90847238Y-80980380D02*
X90942476Y-81028000D01*
X90942476Y-81028000D02*
X90990095Y-81075619D01*
X90990095Y-81075619D02*
X91037714Y-81170857D01*
X91037714Y-81170857D02*
X91037714Y-81218476D01*
X91037714Y-81218476D02*
X90990095Y-81313714D01*
X90990095Y-81313714D02*
X90942476Y-81361333D01*
X90942476Y-81361333D02*
X90847238Y-81408952D01*
X90847238Y-81408952D02*
X90656762Y-81408952D01*
X90656762Y-81408952D02*
X90561524Y-81456571D01*
X90561524Y-81456571D02*
X90513905Y-81504190D01*
X90513905Y-81504190D02*
X90466286Y-81599428D01*
X90466286Y-81599428D02*
X90466286Y-81789904D01*
X90466286Y-81789904D02*
X90513905Y-81885142D01*
X90513905Y-81885142D02*
X90561524Y-81932761D01*
X90561524Y-81932761D02*
X90656762Y-81980380D01*
X90656762Y-81980380D02*
X90847238Y-81980380D01*
X90847238Y-81980380D02*
X90942476Y-81932761D01*
X90942476Y-81932761D02*
X90990095Y-81885142D01*
X90990095Y-81885142D02*
X91037714Y-81789904D01*
X91037714Y-81789904D02*
X91037714Y-81599428D01*
X91037714Y-81599428D02*
X90990095Y-81504190D01*
X90990095Y-81504190D02*
X90942476Y-81456571D01*
X90942476Y-81456571D02*
X90847238Y-81408952D01*
%TO.C,U1*%
X79076095Y-137567380D02*
X79076095Y-138376904D01*
X79076095Y-138376904D02*
X79123714Y-138472142D01*
X79123714Y-138472142D02*
X79171333Y-138519761D01*
X79171333Y-138519761D02*
X79266571Y-138567380D01*
X79266571Y-138567380D02*
X79457047Y-138567380D01*
X79457047Y-138567380D02*
X79552285Y-138519761D01*
X79552285Y-138519761D02*
X79599904Y-138472142D01*
X79599904Y-138472142D02*
X79647523Y-138376904D01*
X79647523Y-138376904D02*
X79647523Y-137567380D01*
X80647523Y-138567380D02*
X80076095Y-138567380D01*
X80361809Y-138567380D02*
X80361809Y-137567380D01*
X80361809Y-137567380D02*
X80266571Y-137710238D01*
X80266571Y-137710238D02*
X80171333Y-137805476D01*
X80171333Y-137805476D02*
X80076095Y-137853095D01*
%TO.C,D2*%
X133455905Y-144116380D02*
X133455905Y-143116380D01*
X133455905Y-143116380D02*
X133694000Y-143116380D01*
X133694000Y-143116380D02*
X133836857Y-143164000D01*
X133836857Y-143164000D02*
X133932095Y-143259238D01*
X133932095Y-143259238D02*
X133979714Y-143354476D01*
X133979714Y-143354476D02*
X134027333Y-143544952D01*
X134027333Y-143544952D02*
X134027333Y-143687809D01*
X134027333Y-143687809D02*
X133979714Y-143878285D01*
X133979714Y-143878285D02*
X133932095Y-143973523D01*
X133932095Y-143973523D02*
X133836857Y-144068761D01*
X133836857Y-144068761D02*
X133694000Y-144116380D01*
X133694000Y-144116380D02*
X133455905Y-144116380D01*
X134408286Y-143211619D02*
X134455905Y-143164000D01*
X134455905Y-143164000D02*
X134551143Y-143116380D01*
X134551143Y-143116380D02*
X134789238Y-143116380D01*
X134789238Y-143116380D02*
X134884476Y-143164000D01*
X134884476Y-143164000D02*
X134932095Y-143211619D01*
X134932095Y-143211619D02*
X134979714Y-143306857D01*
X134979714Y-143306857D02*
X134979714Y-143402095D01*
X134979714Y-143402095D02*
X134932095Y-143544952D01*
X134932095Y-143544952D02*
X134360667Y-144116380D01*
X134360667Y-144116380D02*
X134979714Y-144116380D01*
%TO.C,TP1*%
X115406095Y-115972380D02*
X115977523Y-115972380D01*
X115691809Y-116972380D02*
X115691809Y-115972380D01*
X116310857Y-116972380D02*
X116310857Y-115972380D01*
X116310857Y-115972380D02*
X116691809Y-115972380D01*
X116691809Y-115972380D02*
X116787047Y-116020000D01*
X116787047Y-116020000D02*
X116834666Y-116067619D01*
X116834666Y-116067619D02*
X116882285Y-116162857D01*
X116882285Y-116162857D02*
X116882285Y-116305714D01*
X116882285Y-116305714D02*
X116834666Y-116400952D01*
X116834666Y-116400952D02*
X116787047Y-116448571D01*
X116787047Y-116448571D02*
X116691809Y-116496190D01*
X116691809Y-116496190D02*
X116310857Y-116496190D01*
X117834666Y-116972380D02*
X117263238Y-116972380D01*
X117548952Y-116972380D02*
X117548952Y-115972380D01*
X117548952Y-115972380D02*
X117453714Y-116115238D01*
X117453714Y-116115238D02*
X117358476Y-116210476D01*
X117358476Y-116210476D02*
X117263238Y-116258095D01*
%TO.C,TP20*%
X83433905Y-91080380D02*
X84005333Y-91080380D01*
X83719619Y-92080380D02*
X83719619Y-91080380D01*
X84338667Y-92080380D02*
X84338667Y-91080380D01*
X84338667Y-91080380D02*
X84719619Y-91080380D01*
X84719619Y-91080380D02*
X84814857Y-91128000D01*
X84814857Y-91128000D02*
X84862476Y-91175619D01*
X84862476Y-91175619D02*
X84910095Y-91270857D01*
X84910095Y-91270857D02*
X84910095Y-91413714D01*
X84910095Y-91413714D02*
X84862476Y-91508952D01*
X84862476Y-91508952D02*
X84814857Y-91556571D01*
X84814857Y-91556571D02*
X84719619Y-91604190D01*
X84719619Y-91604190D02*
X84338667Y-91604190D01*
X85291048Y-91175619D02*
X85338667Y-91128000D01*
X85338667Y-91128000D02*
X85433905Y-91080380D01*
X85433905Y-91080380D02*
X85672000Y-91080380D01*
X85672000Y-91080380D02*
X85767238Y-91128000D01*
X85767238Y-91128000D02*
X85814857Y-91175619D01*
X85814857Y-91175619D02*
X85862476Y-91270857D01*
X85862476Y-91270857D02*
X85862476Y-91366095D01*
X85862476Y-91366095D02*
X85814857Y-91508952D01*
X85814857Y-91508952D02*
X85243429Y-92080380D01*
X85243429Y-92080380D02*
X85862476Y-92080380D01*
X86481524Y-91080380D02*
X86576762Y-91080380D01*
X86576762Y-91080380D02*
X86672000Y-91128000D01*
X86672000Y-91128000D02*
X86719619Y-91175619D01*
X86719619Y-91175619D02*
X86767238Y-91270857D01*
X86767238Y-91270857D02*
X86814857Y-91461333D01*
X86814857Y-91461333D02*
X86814857Y-91699428D01*
X86814857Y-91699428D02*
X86767238Y-91889904D01*
X86767238Y-91889904D02*
X86719619Y-91985142D01*
X86719619Y-91985142D02*
X86672000Y-92032761D01*
X86672000Y-92032761D02*
X86576762Y-92080380D01*
X86576762Y-92080380D02*
X86481524Y-92080380D01*
X86481524Y-92080380D02*
X86386286Y-92032761D01*
X86386286Y-92032761D02*
X86338667Y-91985142D01*
X86338667Y-91985142D02*
X86291048Y-91889904D01*
X86291048Y-91889904D02*
X86243429Y-91699428D01*
X86243429Y-91699428D02*
X86243429Y-91461333D01*
X86243429Y-91461333D02*
X86291048Y-91270857D01*
X86291048Y-91270857D02*
X86338667Y-91175619D01*
X86338667Y-91175619D02*
X86386286Y-91128000D01*
X86386286Y-91128000D02*
X86481524Y-91080380D01*
%TO.C,Q2*%
X85584761Y-101933619D02*
X85489523Y-101886000D01*
X85489523Y-101886000D02*
X85394285Y-101790761D01*
X85394285Y-101790761D02*
X85251428Y-101647904D01*
X85251428Y-101647904D02*
X85156190Y-101600285D01*
X85156190Y-101600285D02*
X85060952Y-101600285D01*
X85108571Y-101838380D02*
X85013333Y-101790761D01*
X85013333Y-101790761D02*
X84918095Y-101695523D01*
X84918095Y-101695523D02*
X84870476Y-101505047D01*
X84870476Y-101505047D02*
X84870476Y-101171714D01*
X84870476Y-101171714D02*
X84918095Y-100981238D01*
X84918095Y-100981238D02*
X85013333Y-100886000D01*
X85013333Y-100886000D02*
X85108571Y-100838380D01*
X85108571Y-100838380D02*
X85299047Y-100838380D01*
X85299047Y-100838380D02*
X85394285Y-100886000D01*
X85394285Y-100886000D02*
X85489523Y-100981238D01*
X85489523Y-100981238D02*
X85537142Y-101171714D01*
X85537142Y-101171714D02*
X85537142Y-101505047D01*
X85537142Y-101505047D02*
X85489523Y-101695523D01*
X85489523Y-101695523D02*
X85394285Y-101790761D01*
X85394285Y-101790761D02*
X85299047Y-101838380D01*
X85299047Y-101838380D02*
X85108571Y-101838380D01*
X85918095Y-100933619D02*
X85965714Y-100886000D01*
X85965714Y-100886000D02*
X86060952Y-100838380D01*
X86060952Y-100838380D02*
X86299047Y-100838380D01*
X86299047Y-100838380D02*
X86394285Y-100886000D01*
X86394285Y-100886000D02*
X86441904Y-100933619D01*
X86441904Y-100933619D02*
X86489523Y-101028857D01*
X86489523Y-101028857D02*
X86489523Y-101124095D01*
X86489523Y-101124095D02*
X86441904Y-101266952D01*
X86441904Y-101266952D02*
X85870476Y-101838380D01*
X85870476Y-101838380D02*
X86489523Y-101838380D01*
D12*
%TO.C,P1*%
X136421905Y-86735380D02*
X136421905Y-85735380D01*
X136421905Y-85735380D02*
X136802857Y-85735380D01*
X136802857Y-85735380D02*
X136898095Y-85783000D01*
X136898095Y-85783000D02*
X136945714Y-85830619D01*
X136945714Y-85830619D02*
X136993333Y-85925857D01*
X136993333Y-85925857D02*
X136993333Y-86068714D01*
X136993333Y-86068714D02*
X136945714Y-86163952D01*
X136945714Y-86163952D02*
X136898095Y-86211571D01*
X136898095Y-86211571D02*
X136802857Y-86259190D01*
X136802857Y-86259190D02*
X136421905Y-86259190D01*
X137945714Y-86735380D02*
X137374286Y-86735380D01*
X137660000Y-86735380D02*
X137660000Y-85735380D01*
X137660000Y-85735380D02*
X137564762Y-85878238D01*
X137564762Y-85878238D02*
X137469524Y-85973476D01*
X137469524Y-85973476D02*
X137374286Y-86021095D01*
D10*
%TO.C,TP2*%
X129376095Y-148704380D02*
X129947523Y-148704380D01*
X129661809Y-149704380D02*
X129661809Y-148704380D01*
X130280857Y-149704380D02*
X130280857Y-148704380D01*
X130280857Y-148704380D02*
X130661809Y-148704380D01*
X130661809Y-148704380D02*
X130757047Y-148752000D01*
X130757047Y-148752000D02*
X130804666Y-148799619D01*
X130804666Y-148799619D02*
X130852285Y-148894857D01*
X130852285Y-148894857D02*
X130852285Y-149037714D01*
X130852285Y-149037714D02*
X130804666Y-149132952D01*
X130804666Y-149132952D02*
X130757047Y-149180571D01*
X130757047Y-149180571D02*
X130661809Y-149228190D01*
X130661809Y-149228190D02*
X130280857Y-149228190D01*
X131233238Y-148799619D02*
X131280857Y-148752000D01*
X131280857Y-148752000D02*
X131376095Y-148704380D01*
X131376095Y-148704380D02*
X131614190Y-148704380D01*
X131614190Y-148704380D02*
X131709428Y-148752000D01*
X131709428Y-148752000D02*
X131757047Y-148799619D01*
X131757047Y-148799619D02*
X131804666Y-148894857D01*
X131804666Y-148894857D02*
X131804666Y-148990095D01*
X131804666Y-148990095D02*
X131757047Y-149132952D01*
X131757047Y-149132952D02*
X131185619Y-149704380D01*
X131185619Y-149704380D02*
X131804666Y-149704380D01*
%TO.C,R4*%
X78401333Y-83622380D02*
X78068000Y-83146190D01*
X77829905Y-83622380D02*
X77829905Y-82622380D01*
X77829905Y-82622380D02*
X78210857Y-82622380D01*
X78210857Y-82622380D02*
X78306095Y-82670000D01*
X78306095Y-82670000D02*
X78353714Y-82717619D01*
X78353714Y-82717619D02*
X78401333Y-82812857D01*
X78401333Y-82812857D02*
X78401333Y-82955714D01*
X78401333Y-82955714D02*
X78353714Y-83050952D01*
X78353714Y-83050952D02*
X78306095Y-83098571D01*
X78306095Y-83098571D02*
X78210857Y-83146190D01*
X78210857Y-83146190D02*
X77829905Y-83146190D01*
X79258476Y-82955714D02*
X79258476Y-83622380D01*
X79020381Y-82574761D02*
X78782286Y-83289047D01*
X78782286Y-83289047D02*
X79401333Y-83289047D01*
%TO.C,TP17*%
X100197905Y-87788380D02*
X100769333Y-87788380D01*
X100483619Y-88788380D02*
X100483619Y-87788380D01*
X101102667Y-88788380D02*
X101102667Y-87788380D01*
X101102667Y-87788380D02*
X101483619Y-87788380D01*
X101483619Y-87788380D02*
X101578857Y-87836000D01*
X101578857Y-87836000D02*
X101626476Y-87883619D01*
X101626476Y-87883619D02*
X101674095Y-87978857D01*
X101674095Y-87978857D02*
X101674095Y-88121714D01*
X101674095Y-88121714D02*
X101626476Y-88216952D01*
X101626476Y-88216952D02*
X101578857Y-88264571D01*
X101578857Y-88264571D02*
X101483619Y-88312190D01*
X101483619Y-88312190D02*
X101102667Y-88312190D01*
X102626476Y-88788380D02*
X102055048Y-88788380D01*
X102340762Y-88788380D02*
X102340762Y-87788380D01*
X102340762Y-87788380D02*
X102245524Y-87931238D01*
X102245524Y-87931238D02*
X102150286Y-88026476D01*
X102150286Y-88026476D02*
X102055048Y-88074095D01*
X102959810Y-87788380D02*
X103626476Y-87788380D01*
X103626476Y-87788380D02*
X103197905Y-88788380D01*
%TO.C,R7*%
X66785380Y-135246666D02*
X66309190Y-135579999D01*
X66785380Y-135818094D02*
X65785380Y-135818094D01*
X65785380Y-135818094D02*
X65785380Y-135437142D01*
X65785380Y-135437142D02*
X65833000Y-135341904D01*
X65833000Y-135341904D02*
X65880619Y-135294285D01*
X65880619Y-135294285D02*
X65975857Y-135246666D01*
X65975857Y-135246666D02*
X66118714Y-135246666D01*
X66118714Y-135246666D02*
X66213952Y-135294285D01*
X66213952Y-135294285D02*
X66261571Y-135341904D01*
X66261571Y-135341904D02*
X66309190Y-135437142D01*
X66309190Y-135437142D02*
X66309190Y-135818094D01*
X65785380Y-134913332D02*
X65785380Y-134246666D01*
X65785380Y-134246666D02*
X66785380Y-134675237D01*
%TO.C,IC1*%
X113295380Y-86801189D02*
X112295380Y-86801189D01*
X113200142Y-85753571D02*
X113247761Y-85801190D01*
X113247761Y-85801190D02*
X113295380Y-85944047D01*
X113295380Y-85944047D02*
X113295380Y-86039285D01*
X113295380Y-86039285D02*
X113247761Y-86182142D01*
X113247761Y-86182142D02*
X113152523Y-86277380D01*
X113152523Y-86277380D02*
X113057285Y-86324999D01*
X113057285Y-86324999D02*
X112866809Y-86372618D01*
X112866809Y-86372618D02*
X112723952Y-86372618D01*
X112723952Y-86372618D02*
X112533476Y-86324999D01*
X112533476Y-86324999D02*
X112438238Y-86277380D01*
X112438238Y-86277380D02*
X112343000Y-86182142D01*
X112343000Y-86182142D02*
X112295380Y-86039285D01*
X112295380Y-86039285D02*
X112295380Y-85944047D01*
X112295380Y-85944047D02*
X112343000Y-85801190D01*
X112343000Y-85801190D02*
X112390619Y-85753571D01*
X113295380Y-84801190D02*
X113295380Y-85372618D01*
X113295380Y-85086904D02*
X112295380Y-85086904D01*
X112295380Y-85086904D02*
X112438238Y-85182142D01*
X112438238Y-85182142D02*
X112533476Y-85277380D01*
X112533476Y-85277380D02*
X112581095Y-85372618D01*
%TO.C,C11*%
X75190142Y-95877857D02*
X75237761Y-95925476D01*
X75237761Y-95925476D02*
X75285380Y-96068333D01*
X75285380Y-96068333D02*
X75285380Y-96163571D01*
X75285380Y-96163571D02*
X75237761Y-96306428D01*
X75237761Y-96306428D02*
X75142523Y-96401666D01*
X75142523Y-96401666D02*
X75047285Y-96449285D01*
X75047285Y-96449285D02*
X74856809Y-96496904D01*
X74856809Y-96496904D02*
X74713952Y-96496904D01*
X74713952Y-96496904D02*
X74523476Y-96449285D01*
X74523476Y-96449285D02*
X74428238Y-96401666D01*
X74428238Y-96401666D02*
X74333000Y-96306428D01*
X74333000Y-96306428D02*
X74285380Y-96163571D01*
X74285380Y-96163571D02*
X74285380Y-96068333D01*
X74285380Y-96068333D02*
X74333000Y-95925476D01*
X74333000Y-95925476D02*
X74380619Y-95877857D01*
X75285380Y-94925476D02*
X75285380Y-95496904D01*
X75285380Y-95211190D02*
X74285380Y-95211190D01*
X74285380Y-95211190D02*
X74428238Y-95306428D01*
X74428238Y-95306428D02*
X74523476Y-95401666D01*
X74523476Y-95401666D02*
X74571095Y-95496904D01*
X75285380Y-93973095D02*
X75285380Y-94544523D01*
X75285380Y-94258809D02*
X74285380Y-94258809D01*
X74285380Y-94258809D02*
X74428238Y-94354047D01*
X74428238Y-94354047D02*
X74523476Y-94449285D01*
X74523476Y-94449285D02*
X74571095Y-94544523D01*
%TO.C,Q1*%
X109968761Y-102949619D02*
X109873523Y-102902000D01*
X109873523Y-102902000D02*
X109778285Y-102806761D01*
X109778285Y-102806761D02*
X109635428Y-102663904D01*
X109635428Y-102663904D02*
X109540190Y-102616285D01*
X109540190Y-102616285D02*
X109444952Y-102616285D01*
X109492571Y-102854380D02*
X109397333Y-102806761D01*
X109397333Y-102806761D02*
X109302095Y-102711523D01*
X109302095Y-102711523D02*
X109254476Y-102521047D01*
X109254476Y-102521047D02*
X109254476Y-102187714D01*
X109254476Y-102187714D02*
X109302095Y-101997238D01*
X109302095Y-101997238D02*
X109397333Y-101902000D01*
X109397333Y-101902000D02*
X109492571Y-101854380D01*
X109492571Y-101854380D02*
X109683047Y-101854380D01*
X109683047Y-101854380D02*
X109778285Y-101902000D01*
X109778285Y-101902000D02*
X109873523Y-101997238D01*
X109873523Y-101997238D02*
X109921142Y-102187714D01*
X109921142Y-102187714D02*
X109921142Y-102521047D01*
X109921142Y-102521047D02*
X109873523Y-102711523D01*
X109873523Y-102711523D02*
X109778285Y-102806761D01*
X109778285Y-102806761D02*
X109683047Y-102854380D01*
X109683047Y-102854380D02*
X109492571Y-102854380D01*
X110873523Y-102854380D02*
X110302095Y-102854380D01*
X110587809Y-102854380D02*
X110587809Y-101854380D01*
X110587809Y-101854380D02*
X110492571Y-101997238D01*
X110492571Y-101997238D02*
X110397333Y-102092476D01*
X110397333Y-102092476D02*
X110302095Y-102140095D01*
D11*
%TO.C,J2*%
X70524667Y-89351573D02*
X70524667Y-90258716D01*
X70524667Y-90258716D02*
X70464190Y-90440145D01*
X70464190Y-90440145D02*
X70343238Y-90561097D01*
X70343238Y-90561097D02*
X70161809Y-90621573D01*
X70161809Y-90621573D02*
X70040857Y-90621573D01*
X71068952Y-89472526D02*
X71129428Y-89412050D01*
X71129428Y-89412050D02*
X71250381Y-89351573D01*
X71250381Y-89351573D02*
X71552762Y-89351573D01*
X71552762Y-89351573D02*
X71673714Y-89412050D01*
X71673714Y-89412050D02*
X71734190Y-89472526D01*
X71734190Y-89472526D02*
X71794667Y-89593478D01*
X71794667Y-89593478D02*
X71794667Y-89714430D01*
X71794667Y-89714430D02*
X71734190Y-89895859D01*
X71734190Y-89895859D02*
X71008476Y-90621573D01*
X71008476Y-90621573D02*
X71794667Y-90621573D01*
%TO.C,R6*%
X130172333Y-125673573D02*
X129748999Y-125068811D01*
X129446618Y-125673573D02*
X129446618Y-124403573D01*
X129446618Y-124403573D02*
X129930428Y-124403573D01*
X129930428Y-124403573D02*
X130051380Y-124464050D01*
X130051380Y-124464050D02*
X130111857Y-124524526D01*
X130111857Y-124524526D02*
X130172333Y-124645478D01*
X130172333Y-124645478D02*
X130172333Y-124826907D01*
X130172333Y-124826907D02*
X130111857Y-124947859D01*
X130111857Y-124947859D02*
X130051380Y-125008335D01*
X130051380Y-125008335D02*
X129930428Y-125068811D01*
X129930428Y-125068811D02*
X129446618Y-125068811D01*
X131260904Y-124403573D02*
X131018999Y-124403573D01*
X131018999Y-124403573D02*
X130898047Y-124464050D01*
X130898047Y-124464050D02*
X130837571Y-124524526D01*
X130837571Y-124524526D02*
X130716618Y-124705954D01*
X130716618Y-124705954D02*
X130656142Y-124947859D01*
X130656142Y-124947859D02*
X130656142Y-125431669D01*
X130656142Y-125431669D02*
X130716618Y-125552621D01*
X130716618Y-125552621D02*
X130777095Y-125613097D01*
X130777095Y-125613097D02*
X130898047Y-125673573D01*
X130898047Y-125673573D02*
X131139952Y-125673573D01*
X131139952Y-125673573D02*
X131260904Y-125613097D01*
X131260904Y-125613097D02*
X131321380Y-125552621D01*
X131321380Y-125552621D02*
X131381857Y-125431669D01*
X131381857Y-125431669D02*
X131381857Y-125129288D01*
X131381857Y-125129288D02*
X131321380Y-125008335D01*
X131321380Y-125008335D02*
X131260904Y-124947859D01*
X131260904Y-124947859D02*
X131139952Y-124887383D01*
X131139952Y-124887383D02*
X130898047Y-124887383D01*
X130898047Y-124887383D02*
X130777095Y-124947859D01*
X130777095Y-124947859D02*
X130716618Y-125008335D01*
X130716618Y-125008335D02*
X130656142Y-125129288D01*
D10*
%TO.C,R23*%
X116345142Y-97600380D02*
X116011809Y-97124190D01*
X115773714Y-97600380D02*
X115773714Y-96600380D01*
X115773714Y-96600380D02*
X116154666Y-96600380D01*
X116154666Y-96600380D02*
X116249904Y-96648000D01*
X116249904Y-96648000D02*
X116297523Y-96695619D01*
X116297523Y-96695619D02*
X116345142Y-96790857D01*
X116345142Y-96790857D02*
X116345142Y-96933714D01*
X116345142Y-96933714D02*
X116297523Y-97028952D01*
X116297523Y-97028952D02*
X116249904Y-97076571D01*
X116249904Y-97076571D02*
X116154666Y-97124190D01*
X116154666Y-97124190D02*
X115773714Y-97124190D01*
X116726095Y-96695619D02*
X116773714Y-96648000D01*
X116773714Y-96648000D02*
X116868952Y-96600380D01*
X116868952Y-96600380D02*
X117107047Y-96600380D01*
X117107047Y-96600380D02*
X117202285Y-96648000D01*
X117202285Y-96648000D02*
X117249904Y-96695619D01*
X117249904Y-96695619D02*
X117297523Y-96790857D01*
X117297523Y-96790857D02*
X117297523Y-96886095D01*
X117297523Y-96886095D02*
X117249904Y-97028952D01*
X117249904Y-97028952D02*
X116678476Y-97600380D01*
X116678476Y-97600380D02*
X117297523Y-97600380D01*
X117630857Y-96600380D02*
X118249904Y-96600380D01*
X118249904Y-96600380D02*
X117916571Y-96981333D01*
X117916571Y-96981333D02*
X118059428Y-96981333D01*
X118059428Y-96981333D02*
X118154666Y-97028952D01*
X118154666Y-97028952D02*
X118202285Y-97076571D01*
X118202285Y-97076571D02*
X118249904Y-97171809D01*
X118249904Y-97171809D02*
X118249904Y-97409904D01*
X118249904Y-97409904D02*
X118202285Y-97505142D01*
X118202285Y-97505142D02*
X118154666Y-97552761D01*
X118154666Y-97552761D02*
X118059428Y-97600380D01*
X118059428Y-97600380D02*
X117773714Y-97600380D01*
X117773714Y-97600380D02*
X117678476Y-97552761D01*
X117678476Y-97552761D02*
X117630857Y-97505142D01*
%TO.C,C3*%
X96353333Y-108476142D02*
X96305714Y-108523761D01*
X96305714Y-108523761D02*
X96162857Y-108571380D01*
X96162857Y-108571380D02*
X96067619Y-108571380D01*
X96067619Y-108571380D02*
X95924762Y-108523761D01*
X95924762Y-108523761D02*
X95829524Y-108428523D01*
X95829524Y-108428523D02*
X95781905Y-108333285D01*
X95781905Y-108333285D02*
X95734286Y-108142809D01*
X95734286Y-108142809D02*
X95734286Y-107999952D01*
X95734286Y-107999952D02*
X95781905Y-107809476D01*
X95781905Y-107809476D02*
X95829524Y-107714238D01*
X95829524Y-107714238D02*
X95924762Y-107619000D01*
X95924762Y-107619000D02*
X96067619Y-107571380D01*
X96067619Y-107571380D02*
X96162857Y-107571380D01*
X96162857Y-107571380D02*
X96305714Y-107619000D01*
X96305714Y-107619000D02*
X96353333Y-107666619D01*
X96686667Y-107571380D02*
X97305714Y-107571380D01*
X97305714Y-107571380D02*
X96972381Y-107952333D01*
X96972381Y-107952333D02*
X97115238Y-107952333D01*
X97115238Y-107952333D02*
X97210476Y-107999952D01*
X97210476Y-107999952D02*
X97258095Y-108047571D01*
X97258095Y-108047571D02*
X97305714Y-108142809D01*
X97305714Y-108142809D02*
X97305714Y-108380904D01*
X97305714Y-108380904D02*
X97258095Y-108476142D01*
X97258095Y-108476142D02*
X97210476Y-108523761D01*
X97210476Y-108523761D02*
X97115238Y-108571380D01*
X97115238Y-108571380D02*
X96829524Y-108571380D01*
X96829524Y-108571380D02*
X96734286Y-108523761D01*
X96734286Y-108523761D02*
X96686667Y-108476142D01*
%TO.C,R12*%
X61429142Y-108154380D02*
X61095809Y-107678190D01*
X60857714Y-108154380D02*
X60857714Y-107154380D01*
X60857714Y-107154380D02*
X61238666Y-107154380D01*
X61238666Y-107154380D02*
X61333904Y-107202000D01*
X61333904Y-107202000D02*
X61381523Y-107249619D01*
X61381523Y-107249619D02*
X61429142Y-107344857D01*
X61429142Y-107344857D02*
X61429142Y-107487714D01*
X61429142Y-107487714D02*
X61381523Y-107582952D01*
X61381523Y-107582952D02*
X61333904Y-107630571D01*
X61333904Y-107630571D02*
X61238666Y-107678190D01*
X61238666Y-107678190D02*
X60857714Y-107678190D01*
X62381523Y-108154380D02*
X61810095Y-108154380D01*
X62095809Y-108154380D02*
X62095809Y-107154380D01*
X62095809Y-107154380D02*
X62000571Y-107297238D01*
X62000571Y-107297238D02*
X61905333Y-107392476D01*
X61905333Y-107392476D02*
X61810095Y-107440095D01*
X62762476Y-107249619D02*
X62810095Y-107202000D01*
X62810095Y-107202000D02*
X62905333Y-107154380D01*
X62905333Y-107154380D02*
X63143428Y-107154380D01*
X63143428Y-107154380D02*
X63238666Y-107202000D01*
X63238666Y-107202000D02*
X63286285Y-107249619D01*
X63286285Y-107249619D02*
X63333904Y-107344857D01*
X63333904Y-107344857D02*
X63333904Y-107440095D01*
X63333904Y-107440095D02*
X63286285Y-107582952D01*
X63286285Y-107582952D02*
X62714857Y-108154380D01*
X62714857Y-108154380D02*
X63333904Y-108154380D01*
%TO.C,J5*%
X53667066Y-72068980D02*
X53667066Y-72783266D01*
X53667066Y-72783266D02*
X53619447Y-72926123D01*
X53619447Y-72926123D02*
X53524209Y-73021361D01*
X53524209Y-73021361D02*
X53381352Y-73068980D01*
X53381352Y-73068980D02*
X53286114Y-73068980D01*
X54619447Y-72068980D02*
X54143257Y-72068980D01*
X54143257Y-72068980D02*
X54095638Y-72545171D01*
X54095638Y-72545171D02*
X54143257Y-72497552D01*
X54143257Y-72497552D02*
X54238495Y-72449933D01*
X54238495Y-72449933D02*
X54476590Y-72449933D01*
X54476590Y-72449933D02*
X54571828Y-72497552D01*
X54571828Y-72497552D02*
X54619447Y-72545171D01*
X54619447Y-72545171D02*
X54667066Y-72640409D01*
X54667066Y-72640409D02*
X54667066Y-72878504D01*
X54667066Y-72878504D02*
X54619447Y-72973742D01*
X54619447Y-72973742D02*
X54571828Y-73021361D01*
X54571828Y-73021361D02*
X54476590Y-73068980D01*
X54476590Y-73068980D02*
X54238495Y-73068980D01*
X54238495Y-73068980D02*
X54143257Y-73021361D01*
X54143257Y-73021361D02*
X54095638Y-72973742D01*
%TO.C,C13*%
X106104142Y-93257857D02*
X106151761Y-93305476D01*
X106151761Y-93305476D02*
X106199380Y-93448333D01*
X106199380Y-93448333D02*
X106199380Y-93543571D01*
X106199380Y-93543571D02*
X106151761Y-93686428D01*
X106151761Y-93686428D02*
X106056523Y-93781666D01*
X106056523Y-93781666D02*
X105961285Y-93829285D01*
X105961285Y-93829285D02*
X105770809Y-93876904D01*
X105770809Y-93876904D02*
X105627952Y-93876904D01*
X105627952Y-93876904D02*
X105437476Y-93829285D01*
X105437476Y-93829285D02*
X105342238Y-93781666D01*
X105342238Y-93781666D02*
X105247000Y-93686428D01*
X105247000Y-93686428D02*
X105199380Y-93543571D01*
X105199380Y-93543571D02*
X105199380Y-93448333D01*
X105199380Y-93448333D02*
X105247000Y-93305476D01*
X105247000Y-93305476D02*
X105294619Y-93257857D01*
X106199380Y-92305476D02*
X106199380Y-92876904D01*
X106199380Y-92591190D02*
X105199380Y-92591190D01*
X105199380Y-92591190D02*
X105342238Y-92686428D01*
X105342238Y-92686428D02*
X105437476Y-92781666D01*
X105437476Y-92781666D02*
X105485095Y-92876904D01*
X105199380Y-91972142D02*
X105199380Y-91353095D01*
X105199380Y-91353095D02*
X105580333Y-91686428D01*
X105580333Y-91686428D02*
X105580333Y-91543571D01*
X105580333Y-91543571D02*
X105627952Y-91448333D01*
X105627952Y-91448333D02*
X105675571Y-91400714D01*
X105675571Y-91400714D02*
X105770809Y-91353095D01*
X105770809Y-91353095D02*
X106008904Y-91353095D01*
X106008904Y-91353095D02*
X106104142Y-91400714D01*
X106104142Y-91400714D02*
X106151761Y-91448333D01*
X106151761Y-91448333D02*
X106199380Y-91543571D01*
X106199380Y-91543571D02*
X106199380Y-91829285D01*
X106199380Y-91829285D02*
X106151761Y-91924523D01*
X106151761Y-91924523D02*
X106104142Y-91972142D01*
%TO.C,TP4*%
X142076095Y-132990380D02*
X142647523Y-132990380D01*
X142361809Y-133990380D02*
X142361809Y-132990380D01*
X142980857Y-133990380D02*
X142980857Y-132990380D01*
X142980857Y-132990380D02*
X143361809Y-132990380D01*
X143361809Y-132990380D02*
X143457047Y-133038000D01*
X143457047Y-133038000D02*
X143504666Y-133085619D01*
X143504666Y-133085619D02*
X143552285Y-133180857D01*
X143552285Y-133180857D02*
X143552285Y-133323714D01*
X143552285Y-133323714D02*
X143504666Y-133418952D01*
X143504666Y-133418952D02*
X143457047Y-133466571D01*
X143457047Y-133466571D02*
X143361809Y-133514190D01*
X143361809Y-133514190D02*
X142980857Y-133514190D01*
X144409428Y-133323714D02*
X144409428Y-133990380D01*
X144171333Y-132942761D02*
X143933238Y-133657047D01*
X143933238Y-133657047D02*
X144552285Y-133657047D01*
%TO.C,BT1*%
X102553714Y-65791428D02*
X102410857Y-65743809D01*
X102410857Y-65743809D02*
X102363238Y-65696190D01*
X102363238Y-65696190D02*
X102315619Y-65600952D01*
X102315619Y-65600952D02*
X102315619Y-65458095D01*
X102315619Y-65458095D02*
X102363238Y-65362857D01*
X102363238Y-65362857D02*
X102410857Y-65315238D01*
X102410857Y-65315238D02*
X102506095Y-65267619D01*
X102506095Y-65267619D02*
X102887047Y-65267619D01*
X102887047Y-65267619D02*
X102887047Y-66267619D01*
X102887047Y-66267619D02*
X102553714Y-66267619D01*
X102553714Y-66267619D02*
X102458476Y-66220000D01*
X102458476Y-66220000D02*
X102410857Y-66172380D01*
X102410857Y-66172380D02*
X102363238Y-66077142D01*
X102363238Y-66077142D02*
X102363238Y-65981904D01*
X102363238Y-65981904D02*
X102410857Y-65886666D01*
X102410857Y-65886666D02*
X102458476Y-65839047D01*
X102458476Y-65839047D02*
X102553714Y-65791428D01*
X102553714Y-65791428D02*
X102887047Y-65791428D01*
X102029904Y-66267619D02*
X101458476Y-66267619D01*
X101744190Y-65267619D02*
X101744190Y-66267619D01*
X100601333Y-65267619D02*
X101172761Y-65267619D01*
X100887047Y-65267619D02*
X100887047Y-66267619D01*
X100887047Y-66267619D02*
X100982285Y-66124761D01*
X100982285Y-66124761D02*
X101077523Y-66029523D01*
X101077523Y-66029523D02*
X101172761Y-65981904D01*
%TO.C,TP13*%
X99785705Y-81637980D02*
X100357133Y-81637980D01*
X100071419Y-82637980D02*
X100071419Y-81637980D01*
X100690467Y-82637980D02*
X100690467Y-81637980D01*
X100690467Y-81637980D02*
X101071419Y-81637980D01*
X101071419Y-81637980D02*
X101166657Y-81685600D01*
X101166657Y-81685600D02*
X101214276Y-81733219D01*
X101214276Y-81733219D02*
X101261895Y-81828457D01*
X101261895Y-81828457D02*
X101261895Y-81971314D01*
X101261895Y-81971314D02*
X101214276Y-82066552D01*
X101214276Y-82066552D02*
X101166657Y-82114171D01*
X101166657Y-82114171D02*
X101071419Y-82161790D01*
X101071419Y-82161790D02*
X100690467Y-82161790D01*
X102214276Y-82637980D02*
X101642848Y-82637980D01*
X101928562Y-82637980D02*
X101928562Y-81637980D01*
X101928562Y-81637980D02*
X101833324Y-81780838D01*
X101833324Y-81780838D02*
X101738086Y-81876076D01*
X101738086Y-81876076D02*
X101642848Y-81923695D01*
X102547610Y-81637980D02*
X103166657Y-81637980D01*
X103166657Y-81637980D02*
X102833324Y-82018933D01*
X102833324Y-82018933D02*
X102976181Y-82018933D01*
X102976181Y-82018933D02*
X103071419Y-82066552D01*
X103071419Y-82066552D02*
X103119038Y-82114171D01*
X103119038Y-82114171D02*
X103166657Y-82209409D01*
X103166657Y-82209409D02*
X103166657Y-82447504D01*
X103166657Y-82447504D02*
X103119038Y-82542742D01*
X103119038Y-82542742D02*
X103071419Y-82590361D01*
X103071419Y-82590361D02*
X102976181Y-82637980D01*
X102976181Y-82637980D02*
X102690467Y-82637980D01*
X102690467Y-82637980D02*
X102595229Y-82590361D01*
X102595229Y-82590361D02*
X102547610Y-82542742D01*
%TO.C,J4*%
X53342666Y-138588380D02*
X53342666Y-139302666D01*
X53342666Y-139302666D02*
X53295047Y-139445523D01*
X53295047Y-139445523D02*
X53199809Y-139540761D01*
X53199809Y-139540761D02*
X53056952Y-139588380D01*
X53056952Y-139588380D02*
X52961714Y-139588380D01*
X54247428Y-138921714D02*
X54247428Y-139588380D01*
X54009333Y-138540761D02*
X53771238Y-139255047D01*
X53771238Y-139255047D02*
X54390285Y-139255047D01*
%TO.C,R1*%
X131913333Y-137527380D02*
X131580000Y-137051190D01*
X131341905Y-137527380D02*
X131341905Y-136527380D01*
X131341905Y-136527380D02*
X131722857Y-136527380D01*
X131722857Y-136527380D02*
X131818095Y-136575000D01*
X131818095Y-136575000D02*
X131865714Y-136622619D01*
X131865714Y-136622619D02*
X131913333Y-136717857D01*
X131913333Y-136717857D02*
X131913333Y-136860714D01*
X131913333Y-136860714D02*
X131865714Y-136955952D01*
X131865714Y-136955952D02*
X131818095Y-137003571D01*
X131818095Y-137003571D02*
X131722857Y-137051190D01*
X131722857Y-137051190D02*
X131341905Y-137051190D01*
X132865714Y-137527380D02*
X132294286Y-137527380D01*
X132580000Y-137527380D02*
X132580000Y-136527380D01*
X132580000Y-136527380D02*
X132484762Y-136670238D01*
X132484762Y-136670238D02*
X132389524Y-136765476D01*
X132389524Y-136765476D02*
X132294286Y-136813095D01*
%TO.C,J3*%
X147322666Y-101416380D02*
X147322666Y-102130666D01*
X147322666Y-102130666D02*
X147275047Y-102273523D01*
X147275047Y-102273523D02*
X147179809Y-102368761D01*
X147179809Y-102368761D02*
X147036952Y-102416380D01*
X147036952Y-102416380D02*
X146941714Y-102416380D01*
X147703619Y-101416380D02*
X148322666Y-101416380D01*
X148322666Y-101416380D02*
X147989333Y-101797333D01*
X147989333Y-101797333D02*
X148132190Y-101797333D01*
X148132190Y-101797333D02*
X148227428Y-101844952D01*
X148227428Y-101844952D02*
X148275047Y-101892571D01*
X148275047Y-101892571D02*
X148322666Y-101987809D01*
X148322666Y-101987809D02*
X148322666Y-102225904D01*
X148322666Y-102225904D02*
X148275047Y-102321142D01*
X148275047Y-102321142D02*
X148227428Y-102368761D01*
X148227428Y-102368761D02*
X148132190Y-102416380D01*
X148132190Y-102416380D02*
X147846476Y-102416380D01*
X147846476Y-102416380D02*
X147751238Y-102368761D01*
X147751238Y-102368761D02*
X147703619Y-102321142D01*
%TO.C,TP3*%
X142076095Y-145690380D02*
X142647523Y-145690380D01*
X142361809Y-146690380D02*
X142361809Y-145690380D01*
X142980857Y-146690380D02*
X142980857Y-145690380D01*
X142980857Y-145690380D02*
X143361809Y-145690380D01*
X143361809Y-145690380D02*
X143457047Y-145738000D01*
X143457047Y-145738000D02*
X143504666Y-145785619D01*
X143504666Y-145785619D02*
X143552285Y-145880857D01*
X143552285Y-145880857D02*
X143552285Y-146023714D01*
X143552285Y-146023714D02*
X143504666Y-146118952D01*
X143504666Y-146118952D02*
X143457047Y-146166571D01*
X143457047Y-146166571D02*
X143361809Y-146214190D01*
X143361809Y-146214190D02*
X142980857Y-146214190D01*
X143885619Y-145690380D02*
X144504666Y-145690380D01*
X144504666Y-145690380D02*
X144171333Y-146071333D01*
X144171333Y-146071333D02*
X144314190Y-146071333D01*
X144314190Y-146071333D02*
X144409428Y-146118952D01*
X144409428Y-146118952D02*
X144457047Y-146166571D01*
X144457047Y-146166571D02*
X144504666Y-146261809D01*
X144504666Y-146261809D02*
X144504666Y-146499904D01*
X144504666Y-146499904D02*
X144457047Y-146595142D01*
X144457047Y-146595142D02*
X144409428Y-146642761D01*
X144409428Y-146642761D02*
X144314190Y-146690380D01*
X144314190Y-146690380D02*
X144028476Y-146690380D01*
X144028476Y-146690380D02*
X143933238Y-146642761D01*
X143933238Y-146642761D02*
X143885619Y-146595142D01*
%TO.C,R3*%
X134453333Y-137527380D02*
X134120000Y-137051190D01*
X133881905Y-137527380D02*
X133881905Y-136527380D01*
X133881905Y-136527380D02*
X134262857Y-136527380D01*
X134262857Y-136527380D02*
X134358095Y-136575000D01*
X134358095Y-136575000D02*
X134405714Y-136622619D01*
X134405714Y-136622619D02*
X134453333Y-136717857D01*
X134453333Y-136717857D02*
X134453333Y-136860714D01*
X134453333Y-136860714D02*
X134405714Y-136955952D01*
X134405714Y-136955952D02*
X134358095Y-137003571D01*
X134358095Y-137003571D02*
X134262857Y-137051190D01*
X134262857Y-137051190D02*
X133881905Y-137051190D01*
X134786667Y-136527380D02*
X135405714Y-136527380D01*
X135405714Y-136527380D02*
X135072381Y-136908333D01*
X135072381Y-136908333D02*
X135215238Y-136908333D01*
X135215238Y-136908333D02*
X135310476Y-136955952D01*
X135310476Y-136955952D02*
X135358095Y-137003571D01*
X135358095Y-137003571D02*
X135405714Y-137098809D01*
X135405714Y-137098809D02*
X135405714Y-137336904D01*
X135405714Y-137336904D02*
X135358095Y-137432142D01*
X135358095Y-137432142D02*
X135310476Y-137479761D01*
X135310476Y-137479761D02*
X135215238Y-137527380D01*
X135215238Y-137527380D02*
X134929524Y-137527380D01*
X134929524Y-137527380D02*
X134834286Y-137479761D01*
X134834286Y-137479761D02*
X134786667Y-137432142D01*
%TO.C,TP8*%
X57758095Y-115430380D02*
X58329523Y-115430380D01*
X58043809Y-116430380D02*
X58043809Y-115430380D01*
X58662857Y-116430380D02*
X58662857Y-115430380D01*
X58662857Y-115430380D02*
X59043809Y-115430380D01*
X59043809Y-115430380D02*
X59139047Y-115478000D01*
X59139047Y-115478000D02*
X59186666Y-115525619D01*
X59186666Y-115525619D02*
X59234285Y-115620857D01*
X59234285Y-115620857D02*
X59234285Y-115763714D01*
X59234285Y-115763714D02*
X59186666Y-115858952D01*
X59186666Y-115858952D02*
X59139047Y-115906571D01*
X59139047Y-115906571D02*
X59043809Y-115954190D01*
X59043809Y-115954190D02*
X58662857Y-115954190D01*
X59805714Y-115858952D02*
X59710476Y-115811333D01*
X59710476Y-115811333D02*
X59662857Y-115763714D01*
X59662857Y-115763714D02*
X59615238Y-115668476D01*
X59615238Y-115668476D02*
X59615238Y-115620857D01*
X59615238Y-115620857D02*
X59662857Y-115525619D01*
X59662857Y-115525619D02*
X59710476Y-115478000D01*
X59710476Y-115478000D02*
X59805714Y-115430380D01*
X59805714Y-115430380D02*
X59996190Y-115430380D01*
X59996190Y-115430380D02*
X60091428Y-115478000D01*
X60091428Y-115478000D02*
X60139047Y-115525619D01*
X60139047Y-115525619D02*
X60186666Y-115620857D01*
X60186666Y-115620857D02*
X60186666Y-115668476D01*
X60186666Y-115668476D02*
X60139047Y-115763714D01*
X60139047Y-115763714D02*
X60091428Y-115811333D01*
X60091428Y-115811333D02*
X59996190Y-115858952D01*
X59996190Y-115858952D02*
X59805714Y-115858952D01*
X59805714Y-115858952D02*
X59710476Y-115906571D01*
X59710476Y-115906571D02*
X59662857Y-115954190D01*
X59662857Y-115954190D02*
X59615238Y-116049428D01*
X59615238Y-116049428D02*
X59615238Y-116239904D01*
X59615238Y-116239904D02*
X59662857Y-116335142D01*
X59662857Y-116335142D02*
X59710476Y-116382761D01*
X59710476Y-116382761D02*
X59805714Y-116430380D01*
X59805714Y-116430380D02*
X59996190Y-116430380D01*
X59996190Y-116430380D02*
X60091428Y-116382761D01*
X60091428Y-116382761D02*
X60139047Y-116335142D01*
X60139047Y-116335142D02*
X60186666Y-116239904D01*
X60186666Y-116239904D02*
X60186666Y-116049428D01*
X60186666Y-116049428D02*
X60139047Y-115954190D01*
X60139047Y-115954190D02*
X60091428Y-115906571D01*
X60091428Y-115906571D02*
X59996190Y-115858952D01*
D11*
%TO.C,J1*%
X58600573Y-125515332D02*
X59507716Y-125515332D01*
X59507716Y-125515332D02*
X59689145Y-125575809D01*
X59689145Y-125575809D02*
X59810097Y-125696761D01*
X59810097Y-125696761D02*
X59870573Y-125878190D01*
X59870573Y-125878190D02*
X59870573Y-125999142D01*
X59870573Y-124245332D02*
X59870573Y-124971047D01*
X59870573Y-124608190D02*
X58600573Y-124608190D01*
X58600573Y-124608190D02*
X58782002Y-124729142D01*
X58782002Y-124729142D02*
X58902954Y-124850094D01*
X58902954Y-124850094D02*
X58963430Y-124971047D01*
D10*
%TO.C,D5*%
X113389905Y-97600380D02*
X113389905Y-96600380D01*
X113389905Y-96600380D02*
X113628000Y-96600380D01*
X113628000Y-96600380D02*
X113770857Y-96648000D01*
X113770857Y-96648000D02*
X113866095Y-96743238D01*
X113866095Y-96743238D02*
X113913714Y-96838476D01*
X113913714Y-96838476D02*
X113961333Y-97028952D01*
X113961333Y-97028952D02*
X113961333Y-97171809D01*
X113961333Y-97171809D02*
X113913714Y-97362285D01*
X113913714Y-97362285D02*
X113866095Y-97457523D01*
X113866095Y-97457523D02*
X113770857Y-97552761D01*
X113770857Y-97552761D02*
X113628000Y-97600380D01*
X113628000Y-97600380D02*
X113389905Y-97600380D01*
X114866095Y-96600380D02*
X114389905Y-96600380D01*
X114389905Y-96600380D02*
X114342286Y-97076571D01*
X114342286Y-97076571D02*
X114389905Y-97028952D01*
X114389905Y-97028952D02*
X114485143Y-96981333D01*
X114485143Y-96981333D02*
X114723238Y-96981333D01*
X114723238Y-96981333D02*
X114818476Y-97028952D01*
X114818476Y-97028952D02*
X114866095Y-97076571D01*
X114866095Y-97076571D02*
X114913714Y-97171809D01*
X114913714Y-97171809D02*
X114913714Y-97409904D01*
X114913714Y-97409904D02*
X114866095Y-97505142D01*
X114866095Y-97505142D02*
X114818476Y-97552761D01*
X114818476Y-97552761D02*
X114723238Y-97600380D01*
X114723238Y-97600380D02*
X114485143Y-97600380D01*
X114485143Y-97600380D02*
X114389905Y-97552761D01*
X114389905Y-97552761D02*
X114342286Y-97505142D01*
%TO.C,D3*%
X133963905Y-150212380D02*
X133963905Y-149212380D01*
X133963905Y-149212380D02*
X134202000Y-149212380D01*
X134202000Y-149212380D02*
X134344857Y-149260000D01*
X134344857Y-149260000D02*
X134440095Y-149355238D01*
X134440095Y-149355238D02*
X134487714Y-149450476D01*
X134487714Y-149450476D02*
X134535333Y-149640952D01*
X134535333Y-149640952D02*
X134535333Y-149783809D01*
X134535333Y-149783809D02*
X134487714Y-149974285D01*
X134487714Y-149974285D02*
X134440095Y-150069523D01*
X134440095Y-150069523D02*
X134344857Y-150164761D01*
X134344857Y-150164761D02*
X134202000Y-150212380D01*
X134202000Y-150212380D02*
X133963905Y-150212380D01*
X134868667Y-149212380D02*
X135487714Y-149212380D01*
X135487714Y-149212380D02*
X135154381Y-149593333D01*
X135154381Y-149593333D02*
X135297238Y-149593333D01*
X135297238Y-149593333D02*
X135392476Y-149640952D01*
X135392476Y-149640952D02*
X135440095Y-149688571D01*
X135440095Y-149688571D02*
X135487714Y-149783809D01*
X135487714Y-149783809D02*
X135487714Y-150021904D01*
X135487714Y-150021904D02*
X135440095Y-150117142D01*
X135440095Y-150117142D02*
X135392476Y-150164761D01*
X135392476Y-150164761D02*
X135297238Y-150212380D01*
X135297238Y-150212380D02*
X135011524Y-150212380D01*
X135011524Y-150212380D02*
X134916286Y-150164761D01*
X134916286Y-150164761D02*
X134868667Y-150117142D01*
%TO.C,TP6*%
X147156095Y-140610380D02*
X147727523Y-140610380D01*
X147441809Y-141610380D02*
X147441809Y-140610380D01*
X148060857Y-141610380D02*
X148060857Y-140610380D01*
X148060857Y-140610380D02*
X148441809Y-140610380D01*
X148441809Y-140610380D02*
X148537047Y-140658000D01*
X148537047Y-140658000D02*
X148584666Y-140705619D01*
X148584666Y-140705619D02*
X148632285Y-140800857D01*
X148632285Y-140800857D02*
X148632285Y-140943714D01*
X148632285Y-140943714D02*
X148584666Y-141038952D01*
X148584666Y-141038952D02*
X148537047Y-141086571D01*
X148537047Y-141086571D02*
X148441809Y-141134190D01*
X148441809Y-141134190D02*
X148060857Y-141134190D01*
X149489428Y-140610380D02*
X149298952Y-140610380D01*
X149298952Y-140610380D02*
X149203714Y-140658000D01*
X149203714Y-140658000D02*
X149156095Y-140705619D01*
X149156095Y-140705619D02*
X149060857Y-140848476D01*
X149060857Y-140848476D02*
X149013238Y-141038952D01*
X149013238Y-141038952D02*
X149013238Y-141419904D01*
X149013238Y-141419904D02*
X149060857Y-141515142D01*
X149060857Y-141515142D02*
X149108476Y-141562761D01*
X149108476Y-141562761D02*
X149203714Y-141610380D01*
X149203714Y-141610380D02*
X149394190Y-141610380D01*
X149394190Y-141610380D02*
X149489428Y-141562761D01*
X149489428Y-141562761D02*
X149537047Y-141515142D01*
X149537047Y-141515142D02*
X149584666Y-141419904D01*
X149584666Y-141419904D02*
X149584666Y-141181809D01*
X149584666Y-141181809D02*
X149537047Y-141086571D01*
X149537047Y-141086571D02*
X149489428Y-141038952D01*
X149489428Y-141038952D02*
X149394190Y-140991333D01*
X149394190Y-140991333D02*
X149203714Y-140991333D01*
X149203714Y-140991333D02*
X149108476Y-141038952D01*
X149108476Y-141038952D02*
X149060857Y-141086571D01*
X149060857Y-141086571D02*
X149013238Y-141181809D01*
%TO.C,TP5*%
X91022095Y-108064380D02*
X91593523Y-108064380D01*
X91307809Y-109064380D02*
X91307809Y-108064380D01*
X91926857Y-109064380D02*
X91926857Y-108064380D01*
X91926857Y-108064380D02*
X92307809Y-108064380D01*
X92307809Y-108064380D02*
X92403047Y-108112000D01*
X92403047Y-108112000D02*
X92450666Y-108159619D01*
X92450666Y-108159619D02*
X92498285Y-108254857D01*
X92498285Y-108254857D02*
X92498285Y-108397714D01*
X92498285Y-108397714D02*
X92450666Y-108492952D01*
X92450666Y-108492952D02*
X92403047Y-108540571D01*
X92403047Y-108540571D02*
X92307809Y-108588190D01*
X92307809Y-108588190D02*
X91926857Y-108588190D01*
X93403047Y-108064380D02*
X92926857Y-108064380D01*
X92926857Y-108064380D02*
X92879238Y-108540571D01*
X92879238Y-108540571D02*
X92926857Y-108492952D01*
X92926857Y-108492952D02*
X93022095Y-108445333D01*
X93022095Y-108445333D02*
X93260190Y-108445333D01*
X93260190Y-108445333D02*
X93355428Y-108492952D01*
X93355428Y-108492952D02*
X93403047Y-108540571D01*
X93403047Y-108540571D02*
X93450666Y-108635809D01*
X93450666Y-108635809D02*
X93450666Y-108873904D01*
X93450666Y-108873904D02*
X93403047Y-108969142D01*
X93403047Y-108969142D02*
X93355428Y-109016761D01*
X93355428Y-109016761D02*
X93260190Y-109064380D01*
X93260190Y-109064380D02*
X93022095Y-109064380D01*
X93022095Y-109064380D02*
X92926857Y-109016761D01*
X92926857Y-109016761D02*
X92879238Y-108969142D01*
%TO.C,D1*%
X141329905Y-144028380D02*
X141329905Y-143028380D01*
X141329905Y-143028380D02*
X141568000Y-143028380D01*
X141568000Y-143028380D02*
X141710857Y-143076000D01*
X141710857Y-143076000D02*
X141806095Y-143171238D01*
X141806095Y-143171238D02*
X141853714Y-143266476D01*
X141853714Y-143266476D02*
X141901333Y-143456952D01*
X141901333Y-143456952D02*
X141901333Y-143599809D01*
X141901333Y-143599809D02*
X141853714Y-143790285D01*
X141853714Y-143790285D02*
X141806095Y-143885523D01*
X141806095Y-143885523D02*
X141710857Y-143980761D01*
X141710857Y-143980761D02*
X141568000Y-144028380D01*
X141568000Y-144028380D02*
X141329905Y-144028380D01*
X142853714Y-144028380D02*
X142282286Y-144028380D01*
X142568000Y-144028380D02*
X142568000Y-143028380D01*
X142568000Y-143028380D02*
X142472762Y-143171238D01*
X142472762Y-143171238D02*
X142377524Y-143266476D01*
X142377524Y-143266476D02*
X142282286Y-143314095D01*
%TO.C,R5*%
X66955380Y-95401666D02*
X66479190Y-95734999D01*
X66955380Y-95973094D02*
X65955380Y-95973094D01*
X65955380Y-95973094D02*
X65955380Y-95592142D01*
X65955380Y-95592142D02*
X66003000Y-95496904D01*
X66003000Y-95496904D02*
X66050619Y-95449285D01*
X66050619Y-95449285D02*
X66145857Y-95401666D01*
X66145857Y-95401666D02*
X66288714Y-95401666D01*
X66288714Y-95401666D02*
X66383952Y-95449285D01*
X66383952Y-95449285D02*
X66431571Y-95496904D01*
X66431571Y-95496904D02*
X66479190Y-95592142D01*
X66479190Y-95592142D02*
X66479190Y-95973094D01*
X65955380Y-94496904D02*
X65955380Y-94973094D01*
X65955380Y-94973094D02*
X66431571Y-95020713D01*
X66431571Y-95020713D02*
X66383952Y-94973094D01*
X66383952Y-94973094D02*
X66336333Y-94877856D01*
X66336333Y-94877856D02*
X66336333Y-94639761D01*
X66336333Y-94639761D02*
X66383952Y-94544523D01*
X66383952Y-94544523D02*
X66431571Y-94496904D01*
X66431571Y-94496904D02*
X66526809Y-94449285D01*
X66526809Y-94449285D02*
X66764904Y-94449285D01*
X66764904Y-94449285D02*
X66860142Y-94496904D01*
X66860142Y-94496904D02*
X66907761Y-94544523D01*
X66907761Y-94544523D02*
X66955380Y-94639761D01*
X66955380Y-94639761D02*
X66955380Y-94877856D01*
X66955380Y-94877856D02*
X66907761Y-94973094D01*
X66907761Y-94973094D02*
X66860142Y-95020713D01*
%TO.C,R10*%
X71255142Y-87262380D02*
X70921809Y-86786190D01*
X70683714Y-87262380D02*
X70683714Y-86262380D01*
X70683714Y-86262380D02*
X71064666Y-86262380D01*
X71064666Y-86262380D02*
X71159904Y-86310000D01*
X71159904Y-86310000D02*
X71207523Y-86357619D01*
X71207523Y-86357619D02*
X71255142Y-86452857D01*
X71255142Y-86452857D02*
X71255142Y-86595714D01*
X71255142Y-86595714D02*
X71207523Y-86690952D01*
X71207523Y-86690952D02*
X71159904Y-86738571D01*
X71159904Y-86738571D02*
X71064666Y-86786190D01*
X71064666Y-86786190D02*
X70683714Y-86786190D01*
X72207523Y-87262380D02*
X71636095Y-87262380D01*
X71921809Y-87262380D02*
X71921809Y-86262380D01*
X71921809Y-86262380D02*
X71826571Y-86405238D01*
X71826571Y-86405238D02*
X71731333Y-86500476D01*
X71731333Y-86500476D02*
X71636095Y-86548095D01*
X72826571Y-86262380D02*
X72921809Y-86262380D01*
X72921809Y-86262380D02*
X73017047Y-86310000D01*
X73017047Y-86310000D02*
X73064666Y-86357619D01*
X73064666Y-86357619D02*
X73112285Y-86452857D01*
X73112285Y-86452857D02*
X73159904Y-86643333D01*
X73159904Y-86643333D02*
X73159904Y-86881428D01*
X73159904Y-86881428D02*
X73112285Y-87071904D01*
X73112285Y-87071904D02*
X73064666Y-87167142D01*
X73064666Y-87167142D02*
X73017047Y-87214761D01*
X73017047Y-87214761D02*
X72921809Y-87262380D01*
X72921809Y-87262380D02*
X72826571Y-87262380D01*
X72826571Y-87262380D02*
X72731333Y-87214761D01*
X72731333Y-87214761D02*
X72683714Y-87167142D01*
X72683714Y-87167142D02*
X72636095Y-87071904D01*
X72636095Y-87071904D02*
X72588476Y-86881428D01*
X72588476Y-86881428D02*
X72588476Y-86643333D01*
X72588476Y-86643333D02*
X72636095Y-86452857D01*
X72636095Y-86452857D02*
X72683714Y-86357619D01*
X72683714Y-86357619D02*
X72731333Y-86310000D01*
X72731333Y-86310000D02*
X72826571Y-86262380D01*
%TO.C,R13*%
X68055380Y-90797857D02*
X67579190Y-91131190D01*
X68055380Y-91369285D02*
X67055380Y-91369285D01*
X67055380Y-91369285D02*
X67055380Y-90988333D01*
X67055380Y-90988333D02*
X67103000Y-90893095D01*
X67103000Y-90893095D02*
X67150619Y-90845476D01*
X67150619Y-90845476D02*
X67245857Y-90797857D01*
X67245857Y-90797857D02*
X67388714Y-90797857D01*
X67388714Y-90797857D02*
X67483952Y-90845476D01*
X67483952Y-90845476D02*
X67531571Y-90893095D01*
X67531571Y-90893095D02*
X67579190Y-90988333D01*
X67579190Y-90988333D02*
X67579190Y-91369285D01*
X68055380Y-89845476D02*
X68055380Y-90416904D01*
X68055380Y-90131190D02*
X67055380Y-90131190D01*
X67055380Y-90131190D02*
X67198238Y-90226428D01*
X67198238Y-90226428D02*
X67293476Y-90321666D01*
X67293476Y-90321666D02*
X67341095Y-90416904D01*
X67055380Y-89512142D02*
X67055380Y-88893095D01*
X67055380Y-88893095D02*
X67436333Y-89226428D01*
X67436333Y-89226428D02*
X67436333Y-89083571D01*
X67436333Y-89083571D02*
X67483952Y-88988333D01*
X67483952Y-88988333D02*
X67531571Y-88940714D01*
X67531571Y-88940714D02*
X67626809Y-88893095D01*
X67626809Y-88893095D02*
X67864904Y-88893095D01*
X67864904Y-88893095D02*
X67960142Y-88940714D01*
X67960142Y-88940714D02*
X68007761Y-88988333D01*
X68007761Y-88988333D02*
X68055380Y-89083571D01*
X68055380Y-89083571D02*
X68055380Y-89369285D01*
X68055380Y-89369285D02*
X68007761Y-89464523D01*
X68007761Y-89464523D02*
X67960142Y-89512142D01*
%TO.C,LEDcharge1*%
X60045380Y-88717857D02*
X60045380Y-89194047D01*
X60045380Y-89194047D02*
X59045380Y-89194047D01*
X59521571Y-88384523D02*
X59521571Y-88051190D01*
X60045380Y-87908333D02*
X60045380Y-88384523D01*
X60045380Y-88384523D02*
X59045380Y-88384523D01*
X59045380Y-88384523D02*
X59045380Y-87908333D01*
X60045380Y-87479761D02*
X59045380Y-87479761D01*
X59045380Y-87479761D02*
X59045380Y-87241666D01*
X59045380Y-87241666D02*
X59093000Y-87098809D01*
X59093000Y-87098809D02*
X59188238Y-87003571D01*
X59188238Y-87003571D02*
X59283476Y-86955952D01*
X59283476Y-86955952D02*
X59473952Y-86908333D01*
X59473952Y-86908333D02*
X59616809Y-86908333D01*
X59616809Y-86908333D02*
X59807285Y-86955952D01*
X59807285Y-86955952D02*
X59902523Y-87003571D01*
X59902523Y-87003571D02*
X59997761Y-87098809D01*
X59997761Y-87098809D02*
X60045380Y-87241666D01*
X60045380Y-87241666D02*
X60045380Y-87479761D01*
X59997761Y-86051190D02*
X60045380Y-86146428D01*
X60045380Y-86146428D02*
X60045380Y-86336904D01*
X60045380Y-86336904D02*
X59997761Y-86432142D01*
X59997761Y-86432142D02*
X59950142Y-86479761D01*
X59950142Y-86479761D02*
X59854904Y-86527380D01*
X59854904Y-86527380D02*
X59569190Y-86527380D01*
X59569190Y-86527380D02*
X59473952Y-86479761D01*
X59473952Y-86479761D02*
X59426333Y-86432142D01*
X59426333Y-86432142D02*
X59378714Y-86336904D01*
X59378714Y-86336904D02*
X59378714Y-86146428D01*
X59378714Y-86146428D02*
X59426333Y-86051190D01*
X60045380Y-85622618D02*
X59045380Y-85622618D01*
X60045380Y-85194047D02*
X59521571Y-85194047D01*
X59521571Y-85194047D02*
X59426333Y-85241666D01*
X59426333Y-85241666D02*
X59378714Y-85336904D01*
X59378714Y-85336904D02*
X59378714Y-85479761D01*
X59378714Y-85479761D02*
X59426333Y-85574999D01*
X59426333Y-85574999D02*
X59473952Y-85622618D01*
X60045380Y-84289285D02*
X59521571Y-84289285D01*
X59521571Y-84289285D02*
X59426333Y-84336904D01*
X59426333Y-84336904D02*
X59378714Y-84432142D01*
X59378714Y-84432142D02*
X59378714Y-84622618D01*
X59378714Y-84622618D02*
X59426333Y-84717856D01*
X59997761Y-84289285D02*
X60045380Y-84384523D01*
X60045380Y-84384523D02*
X60045380Y-84622618D01*
X60045380Y-84622618D02*
X59997761Y-84717856D01*
X59997761Y-84717856D02*
X59902523Y-84765475D01*
X59902523Y-84765475D02*
X59807285Y-84765475D01*
X59807285Y-84765475D02*
X59712047Y-84717856D01*
X59712047Y-84717856D02*
X59664428Y-84622618D01*
X59664428Y-84622618D02*
X59664428Y-84384523D01*
X59664428Y-84384523D02*
X59616809Y-84289285D01*
X60045380Y-83813094D02*
X59378714Y-83813094D01*
X59569190Y-83813094D02*
X59473952Y-83765475D01*
X59473952Y-83765475D02*
X59426333Y-83717856D01*
X59426333Y-83717856D02*
X59378714Y-83622618D01*
X59378714Y-83622618D02*
X59378714Y-83527380D01*
X59378714Y-82765475D02*
X60188238Y-82765475D01*
X60188238Y-82765475D02*
X60283476Y-82813094D01*
X60283476Y-82813094D02*
X60331095Y-82860713D01*
X60331095Y-82860713D02*
X60378714Y-82955951D01*
X60378714Y-82955951D02*
X60378714Y-83098808D01*
X60378714Y-83098808D02*
X60331095Y-83194046D01*
X59997761Y-82765475D02*
X60045380Y-82860713D01*
X60045380Y-82860713D02*
X60045380Y-83051189D01*
X60045380Y-83051189D02*
X59997761Y-83146427D01*
X59997761Y-83146427D02*
X59950142Y-83194046D01*
X59950142Y-83194046D02*
X59854904Y-83241665D01*
X59854904Y-83241665D02*
X59569190Y-83241665D01*
X59569190Y-83241665D02*
X59473952Y-83194046D01*
X59473952Y-83194046D02*
X59426333Y-83146427D01*
X59426333Y-83146427D02*
X59378714Y-83051189D01*
X59378714Y-83051189D02*
X59378714Y-82860713D01*
X59378714Y-82860713D02*
X59426333Y-82765475D01*
X59997761Y-81908332D02*
X60045380Y-82003570D01*
X60045380Y-82003570D02*
X60045380Y-82194046D01*
X60045380Y-82194046D02*
X59997761Y-82289284D01*
X59997761Y-82289284D02*
X59902523Y-82336903D01*
X59902523Y-82336903D02*
X59521571Y-82336903D01*
X59521571Y-82336903D02*
X59426333Y-82289284D01*
X59426333Y-82289284D02*
X59378714Y-82194046D01*
X59378714Y-82194046D02*
X59378714Y-82003570D01*
X59378714Y-82003570D02*
X59426333Y-81908332D01*
X59426333Y-81908332D02*
X59521571Y-81860713D01*
X59521571Y-81860713D02*
X59616809Y-81860713D01*
X59616809Y-81860713D02*
X59712047Y-82336903D01*
X60045380Y-80908332D02*
X60045380Y-81479760D01*
X60045380Y-81194046D02*
X59045380Y-81194046D01*
X59045380Y-81194046D02*
X59188238Y-81289284D01*
X59188238Y-81289284D02*
X59283476Y-81384522D01*
X59283476Y-81384522D02*
X59331095Y-81479760D01*
%TO.C,R16*%
X66495142Y-143787380D02*
X66161809Y-143311190D01*
X65923714Y-143787380D02*
X65923714Y-142787380D01*
X65923714Y-142787380D02*
X66304666Y-142787380D01*
X66304666Y-142787380D02*
X66399904Y-142835000D01*
X66399904Y-142835000D02*
X66447523Y-142882619D01*
X66447523Y-142882619D02*
X66495142Y-142977857D01*
X66495142Y-142977857D02*
X66495142Y-143120714D01*
X66495142Y-143120714D02*
X66447523Y-143215952D01*
X66447523Y-143215952D02*
X66399904Y-143263571D01*
X66399904Y-143263571D02*
X66304666Y-143311190D01*
X66304666Y-143311190D02*
X65923714Y-143311190D01*
X67447523Y-143787380D02*
X66876095Y-143787380D01*
X67161809Y-143787380D02*
X67161809Y-142787380D01*
X67161809Y-142787380D02*
X67066571Y-142930238D01*
X67066571Y-142930238D02*
X66971333Y-143025476D01*
X66971333Y-143025476D02*
X66876095Y-143073095D01*
X68304666Y-142787380D02*
X68114190Y-142787380D01*
X68114190Y-142787380D02*
X68018952Y-142835000D01*
X68018952Y-142835000D02*
X67971333Y-142882619D01*
X67971333Y-142882619D02*
X67876095Y-143025476D01*
X67876095Y-143025476D02*
X67828476Y-143215952D01*
X67828476Y-143215952D02*
X67828476Y-143596904D01*
X67828476Y-143596904D02*
X67876095Y-143692142D01*
X67876095Y-143692142D02*
X67923714Y-143739761D01*
X67923714Y-143739761D02*
X68018952Y-143787380D01*
X68018952Y-143787380D02*
X68209428Y-143787380D01*
X68209428Y-143787380D02*
X68304666Y-143739761D01*
X68304666Y-143739761D02*
X68352285Y-143692142D01*
X68352285Y-143692142D02*
X68399904Y-143596904D01*
X68399904Y-143596904D02*
X68399904Y-143358809D01*
X68399904Y-143358809D02*
X68352285Y-143263571D01*
X68352285Y-143263571D02*
X68304666Y-143215952D01*
X68304666Y-143215952D02*
X68209428Y-143168333D01*
X68209428Y-143168333D02*
X68018952Y-143168333D01*
X68018952Y-143168333D02*
X67923714Y-143215952D01*
X67923714Y-143215952D02*
X67876095Y-143263571D01*
X67876095Y-143263571D02*
X67828476Y-143358809D01*
%TO.C,R21*%
X91604180Y-79382857D02*
X91127990Y-79716190D01*
X91604180Y-79954285D02*
X90604180Y-79954285D01*
X90604180Y-79954285D02*
X90604180Y-79573333D01*
X90604180Y-79573333D02*
X90651800Y-79478095D01*
X90651800Y-79478095D02*
X90699419Y-79430476D01*
X90699419Y-79430476D02*
X90794657Y-79382857D01*
X90794657Y-79382857D02*
X90937514Y-79382857D01*
X90937514Y-79382857D02*
X91032752Y-79430476D01*
X91032752Y-79430476D02*
X91080371Y-79478095D01*
X91080371Y-79478095D02*
X91127990Y-79573333D01*
X91127990Y-79573333D02*
X91127990Y-79954285D01*
X90699419Y-79001904D02*
X90651800Y-78954285D01*
X90651800Y-78954285D02*
X90604180Y-78859047D01*
X90604180Y-78859047D02*
X90604180Y-78620952D01*
X90604180Y-78620952D02*
X90651800Y-78525714D01*
X90651800Y-78525714D02*
X90699419Y-78478095D01*
X90699419Y-78478095D02*
X90794657Y-78430476D01*
X90794657Y-78430476D02*
X90889895Y-78430476D01*
X90889895Y-78430476D02*
X91032752Y-78478095D01*
X91032752Y-78478095D02*
X91604180Y-79049523D01*
X91604180Y-79049523D02*
X91604180Y-78430476D01*
X91604180Y-77478095D02*
X91604180Y-78049523D01*
X91604180Y-77763809D02*
X90604180Y-77763809D01*
X90604180Y-77763809D02*
X90747038Y-77859047D01*
X90747038Y-77859047D02*
X90842276Y-77954285D01*
X90842276Y-77954285D02*
X90889895Y-78049523D01*
%TO.C,C4*%
X137785333Y-121176142D02*
X137737714Y-121223761D01*
X137737714Y-121223761D02*
X137594857Y-121271380D01*
X137594857Y-121271380D02*
X137499619Y-121271380D01*
X137499619Y-121271380D02*
X137356762Y-121223761D01*
X137356762Y-121223761D02*
X137261524Y-121128523D01*
X137261524Y-121128523D02*
X137213905Y-121033285D01*
X137213905Y-121033285D02*
X137166286Y-120842809D01*
X137166286Y-120842809D02*
X137166286Y-120699952D01*
X137166286Y-120699952D02*
X137213905Y-120509476D01*
X137213905Y-120509476D02*
X137261524Y-120414238D01*
X137261524Y-120414238D02*
X137356762Y-120319000D01*
X137356762Y-120319000D02*
X137499619Y-120271380D01*
X137499619Y-120271380D02*
X137594857Y-120271380D01*
X137594857Y-120271380D02*
X137737714Y-120319000D01*
X137737714Y-120319000D02*
X137785333Y-120366619D01*
X138642476Y-120604714D02*
X138642476Y-121271380D01*
X138404381Y-120223761D02*
X138166286Y-120938047D01*
X138166286Y-120938047D02*
X138785333Y-120938047D01*
%TO.C,R20*%
X88461380Y-79304857D02*
X87985190Y-79638190D01*
X88461380Y-79876285D02*
X87461380Y-79876285D01*
X87461380Y-79876285D02*
X87461380Y-79495333D01*
X87461380Y-79495333D02*
X87509000Y-79400095D01*
X87509000Y-79400095D02*
X87556619Y-79352476D01*
X87556619Y-79352476D02*
X87651857Y-79304857D01*
X87651857Y-79304857D02*
X87794714Y-79304857D01*
X87794714Y-79304857D02*
X87889952Y-79352476D01*
X87889952Y-79352476D02*
X87937571Y-79400095D01*
X87937571Y-79400095D02*
X87985190Y-79495333D01*
X87985190Y-79495333D02*
X87985190Y-79876285D01*
X87556619Y-78923904D02*
X87509000Y-78876285D01*
X87509000Y-78876285D02*
X87461380Y-78781047D01*
X87461380Y-78781047D02*
X87461380Y-78542952D01*
X87461380Y-78542952D02*
X87509000Y-78447714D01*
X87509000Y-78447714D02*
X87556619Y-78400095D01*
X87556619Y-78400095D02*
X87651857Y-78352476D01*
X87651857Y-78352476D02*
X87747095Y-78352476D01*
X87747095Y-78352476D02*
X87889952Y-78400095D01*
X87889952Y-78400095D02*
X88461380Y-78971523D01*
X88461380Y-78971523D02*
X88461380Y-78352476D01*
X87461380Y-77733428D02*
X87461380Y-77638190D01*
X87461380Y-77638190D02*
X87509000Y-77542952D01*
X87509000Y-77542952D02*
X87556619Y-77495333D01*
X87556619Y-77495333D02*
X87651857Y-77447714D01*
X87651857Y-77447714D02*
X87842333Y-77400095D01*
X87842333Y-77400095D02*
X88080428Y-77400095D01*
X88080428Y-77400095D02*
X88270904Y-77447714D01*
X88270904Y-77447714D02*
X88366142Y-77495333D01*
X88366142Y-77495333D02*
X88413761Y-77542952D01*
X88413761Y-77542952D02*
X88461380Y-77638190D01*
X88461380Y-77638190D02*
X88461380Y-77733428D01*
X88461380Y-77733428D02*
X88413761Y-77828666D01*
X88413761Y-77828666D02*
X88366142Y-77876285D01*
X88366142Y-77876285D02*
X88270904Y-77923904D01*
X88270904Y-77923904D02*
X88080428Y-77971523D01*
X88080428Y-77971523D02*
X87842333Y-77971523D01*
X87842333Y-77971523D02*
X87651857Y-77923904D01*
X87651857Y-77923904D02*
X87556619Y-77876285D01*
X87556619Y-77876285D02*
X87509000Y-77828666D01*
X87509000Y-77828666D02*
X87461380Y-77733428D01*
D13*
%TO.C,TP21*%
X73672000Y-79995000D02*
G75*
G03*
X73672000Y-79995000I-1200000J0D01*
G01*
D14*
%TO.C,D4*%
X54070000Y-101440000D02*
X54070000Y-106840000D01*
X57690000Y-106840000D02*
X57690000Y-100865000D01*
D13*
%TO.C,TP22*%
X92360600Y-143078200D02*
G75*
G03*
X92360600Y-143078200I-1200000J0D01*
G01*
%TO.C,TP9*%
X67332000Y-113777000D02*
G75*
G03*
X67332000Y-113777000I-1200000J0D01*
G01*
%TO.C,R22*%
X95317500Y-79025258D02*
X95317500Y-78550742D01*
X96362500Y-79025258D02*
X96362500Y-78550742D01*
%TO.C,U6*%
X89822500Y-89103000D02*
X88147500Y-89103000D01*
X89822500Y-89103000D02*
X90472500Y-89103000D01*
X89822500Y-92223000D02*
X89172500Y-92223000D01*
X89822500Y-92223000D02*
X90472500Y-92223000D01*
%TO.C,Q3*%
X115730500Y-103327000D02*
X114055500Y-103327000D01*
X115730500Y-103327000D02*
X116380500Y-103327000D01*
X115730500Y-106447000D02*
X115080500Y-106447000D01*
X115730500Y-106447000D02*
X116380500Y-106447000D01*
D14*
%TO.C,D6*%
X52368200Y-86301600D02*
X52368200Y-91701600D01*
X55988200Y-91701600D02*
X55988200Y-85726600D01*
D13*
%TO.C,U2*%
X89047000Y-126584000D02*
X92497000Y-126584000D01*
X89047000Y-126584000D02*
X87097000Y-126584000D01*
X89047000Y-116464000D02*
X90997000Y-116464000D01*
X89047000Y-116464000D02*
X87097000Y-116464000D01*
%TO.C,R9*%
X89524936Y-85181000D02*
X90979064Y-85181000D01*
X89524936Y-87001000D02*
X90979064Y-87001000D01*
%TO.C,TP14*%
X122948000Y-92695000D02*
G75*
G03*
X122948000Y-92695000I-1200000J0D01*
G01*
D14*
%TO.C,U3*%
X129027000Y-117279000D02*
X129027000Y-118779000D01*
X128897000Y-119129000D02*
X128897000Y-122329000D01*
X123997000Y-119129000D02*
X128897000Y-119129000D01*
X128897000Y-122329000D02*
X123997000Y-122329000D01*
X123997000Y-122329000D02*
X123997000Y-119129000D01*
D13*
%TO.C,TP19*%
X79768000Y-95235000D02*
G75*
G03*
X79768000Y-95235000I-1200000J0D01*
G01*
%TO.C,C10*%
X70438000Y-95375580D02*
X70438000Y-95094420D01*
X71458000Y-95375580D02*
X71458000Y-95094420D01*
D14*
%TO.C,U5*%
X87818000Y-95195000D02*
X89318000Y-95195000D01*
X89668000Y-95325000D02*
X92868000Y-95325000D01*
X89668000Y-100225000D02*
X89668000Y-95325000D01*
X92868000Y-95325000D02*
X92868000Y-100225000D01*
X92868000Y-100225000D02*
X89668000Y-100225000D01*
D13*
%TO.C,TP5*%
X88404000Y-108443000D02*
G75*
G03*
X88404000Y-108443000I-1200000J0D01*
G01*
D14*
%TO.C,Qrevpol1*%
X82148000Y-86775000D02*
X82148000Y-85475000D01*
X82188000Y-85125000D02*
X82188000Y-85025000D01*
X85108000Y-85125000D02*
X82188000Y-85125000D01*
X82188000Y-85025000D02*
X85108000Y-85025000D01*
X85108000Y-85025000D02*
X85108000Y-85125000D01*
D13*
%TO.C,TP12*%
X122948000Y-79995000D02*
G75*
G03*
X122948000Y-79995000I-1200000J0D01*
G01*
%TO.C,C9*%
X72743600Y-142583780D02*
X72743600Y-142302620D01*
X73763600Y-142583780D02*
X73763600Y-142302620D01*
%TO.C,TP18*%
X99830000Y-98283000D02*
G75*
G03*
X99830000Y-98283000I-1450000J0D01*
G01*
%TO.C,TP11*%
X115328000Y-79995000D02*
G75*
G03*
X115328000Y-79995000I-1200000J0D01*
G01*
%TO.C,C8*%
X73789000Y-146303420D02*
X73789000Y-146584580D01*
X72769000Y-146303420D02*
X72769000Y-146584580D01*
%TO.C,C1*%
X116562000Y-125257748D02*
X116562000Y-126680252D01*
X114742000Y-125257748D02*
X114742000Y-126680252D01*
D14*
%TO.C,Qrevpol2*%
X63948000Y-138660000D02*
X65248000Y-138660000D01*
X65598000Y-138700000D02*
X65698000Y-138700000D01*
X65598000Y-141620000D02*
X65598000Y-138700000D01*
X65698000Y-138700000D02*
X65698000Y-141620000D01*
X65698000Y-141620000D02*
X65598000Y-141620000D01*
D13*
%TO.C,Q4*%
X121669500Y-103261000D02*
X119994500Y-103261000D01*
X121669500Y-103261000D02*
X122319500Y-103261000D01*
X121669500Y-106381000D02*
X121019500Y-106381000D01*
X121669500Y-106381000D02*
X122319500Y-106381000D01*
%TO.C,C5*%
X117106000Y-96097000D02*
X117106000Y-95782000D01*
X117106000Y-96097000D02*
X112166000Y-96097000D01*
X117106000Y-93672000D02*
X117106000Y-93357000D01*
X117106000Y-93357000D02*
X112166000Y-93357000D01*
X112166000Y-96097000D02*
X112166000Y-95782000D01*
X112166000Y-93672000D02*
X112166000Y-93357000D01*
%TO.C,R14*%
X89704936Y-102120000D02*
X90159064Y-102120000D01*
X89704936Y-103590000D02*
X90159064Y-103590000D01*
%TO.C,R2*%
X137898000Y-133623936D02*
X137898000Y-135078064D01*
X136078000Y-133623936D02*
X136078000Y-135078064D01*
%TO.C,TP23*%
X112198000Y-135026400D02*
G75*
G03*
X112198000Y-135026400I-1200000J0D01*
G01*
%TO.C,R15*%
X77840936Y-86705000D02*
X79295064Y-86705000D01*
X77840936Y-88525000D02*
X79295064Y-88525000D01*
%TO.C,R17*%
X72440936Y-136710000D02*
X73895064Y-136710000D01*
X72440936Y-138530000D02*
X73895064Y-138530000D01*
%TO.C,U4*%
X73742000Y-111999000D02*
X73742000Y-131049000D01*
X73742000Y-111999000D02*
X134702000Y-111999000D01*
X134702000Y-111999000D02*
X134702000Y-131049000D01*
X134702000Y-131049000D02*
X73742000Y-131049000D01*
%TO.C,TP16*%
X61988000Y-95235000D02*
G75*
G03*
X61988000Y-95235000I-1200000J0D01*
G01*
%TO.C,R18*%
X82405000Y-78889064D02*
X82405000Y-78434936D01*
X83875000Y-78889064D02*
X83875000Y-78434936D01*
%TO.C,R19*%
X86316000Y-78815641D02*
X86316000Y-78508359D01*
X87076000Y-78815641D02*
X87076000Y-78508359D01*
%TO.C,TP7*%
X139712000Y-129779000D02*
G75*
G03*
X139712000Y-129779000I-1200000J0D01*
G01*
%TO.C,C2*%
X97231252Y-133498000D02*
X95808748Y-133498000D01*
X97231252Y-131678000D02*
X95808748Y-131678000D01*
%TO.C,TP10*%
X69872000Y-102347000D02*
G75*
G03*
X69872000Y-102347000I-1200000J0D01*
G01*
%TO.C,TP15*%
X61988000Y-79995000D02*
G75*
G03*
X61988000Y-79995000I-1200000J0D01*
G01*
%TO.C,R8*%
X90014742Y-82520500D02*
X90489258Y-82520500D01*
X90014742Y-83565500D02*
X90489258Y-83565500D01*
%TO.C,U1*%
X75738000Y-139290000D02*
X81748000Y-139290000D01*
X77988000Y-146110000D02*
X81748000Y-146110000D01*
X81748000Y-139290000D02*
X81748000Y-140550000D01*
X81748000Y-146110000D02*
X81748000Y-144850000D01*
%TO.C,D2*%
X134738000Y-141937000D02*
X134738000Y-141781000D01*
X134738000Y-139621000D02*
X134738000Y-139465000D01*
X131505666Y-141779608D02*
G75*
G03*
X134737999Y-141936515I1672334J1078608D01*
G01*
X132136871Y-141780836D02*
G75*
G03*
X134218960Y-141780999I1041129J1079836D01*
G01*
X134218960Y-139621001D02*
G75*
G03*
X132136871Y-139621164I-1040960J-1079999D01*
G01*
X134737999Y-139465485D02*
G75*
G03*
X131505666Y-139622392I-1559999J-1235515D01*
G01*
%TO.C,TP1*%
X117868000Y-118603000D02*
G75*
G03*
X117868000Y-118603000I-1200000J0D01*
G01*
%TO.C,TP20*%
X86372000Y-93711000D02*
G75*
G03*
X86372000Y-93711000I-1200000J0D01*
G01*
%TO.C,Q2*%
X85680000Y-102311000D02*
X84005000Y-102311000D01*
X85680000Y-102311000D02*
X86330000Y-102311000D01*
X85680000Y-105431000D02*
X85030000Y-105431000D01*
X85680000Y-105431000D02*
X86330000Y-105431000D01*
D12*
%TO.C,P1*%
X127000000Y-76708000D02*
X147320000Y-76708000D01*
X147320000Y-76708000D02*
X147320000Y-97028000D01*
X147320000Y-97028000D02*
X127000000Y-97028000D01*
X127000000Y-97028000D02*
X127000000Y-76708000D01*
D13*
%TO.C,TP2*%
X133108000Y-147051000D02*
G75*
G03*
X133108000Y-147051000I-1200000J0D01*
G01*
%TO.C,R4*%
X77840936Y-84165000D02*
X79295064Y-84165000D01*
X77840936Y-85985000D02*
X79295064Y-85985000D01*
D10*
%TO.C,TP17*%
X103686000Y-91171000D02*
G75*
G03*
X103686000Y-91171000I-1750000J0D01*
G01*
D13*
%TO.C,R7*%
X65508000Y-134352936D02*
X65508000Y-135807064D01*
X63688000Y-134352936D02*
X63688000Y-135807064D01*
%TO.C,IC1*%
X113728000Y-86725000D02*
X113728000Y-85175000D01*
X115528000Y-85175000D02*
X115528000Y-86475000D01*
%TO.C,C11*%
X73998000Y-95094420D02*
X73998000Y-95375580D01*
X72978000Y-95094420D02*
X72978000Y-95375580D01*
%TO.C,Q1*%
X110064000Y-103327000D02*
X108389000Y-103327000D01*
X110064000Y-103327000D02*
X110714000Y-103327000D01*
X110064000Y-106447000D02*
X109414000Y-106447000D01*
X110064000Y-106447000D02*
X110714000Y-106447000D01*
D14*
%TO.C,J2*%
X67498000Y-87575000D02*
X68998000Y-87575000D01*
X69348000Y-87705000D02*
X72548000Y-87705000D01*
X69348000Y-92605000D02*
X69348000Y-87705000D01*
X72548000Y-87705000D02*
X72548000Y-92605000D01*
X72548000Y-92605000D02*
X69348000Y-92605000D01*
%TO.C,R6*%
X128352000Y-126701000D02*
X128352000Y-127777000D01*
D13*
%TO.C,C3*%
X96043252Y-111146000D02*
X94620748Y-111146000D01*
X96043252Y-109326000D02*
X94620748Y-109326000D01*
%TO.C,R12*%
X63472000Y-106987000D02*
X60672000Y-106987000D01*
X63472000Y-102787000D02*
X60672000Y-102787000D01*
X63458036Y-106996241D02*
G75*
G03*
X63472000Y-102787001I-1386036J2109241D01*
G01*
X60685964Y-102777759D02*
G75*
G03*
X60672000Y-106986999I1386036J-2109241D01*
G01*
%TO.C,J5*%
X52670400Y-73701600D02*
X54000400Y-73701600D01*
X52670400Y-75031600D02*
X52670400Y-73701600D01*
X52670400Y-76301600D02*
X52670400Y-81441600D01*
X52670400Y-76301600D02*
X55330400Y-76301600D01*
X52670400Y-81441600D02*
X55330400Y-81441600D01*
X55330400Y-76301600D02*
X55330400Y-81441600D01*
%TO.C,C13*%
X106962000Y-94885000D02*
X106977000Y-94885000D01*
X106962000Y-94885000D02*
X106962000Y-90345000D01*
X109087000Y-94885000D02*
X109102000Y-94885000D01*
X109102000Y-94885000D02*
X109102000Y-90345000D01*
X106962000Y-90345000D02*
X106977000Y-90345000D01*
X109087000Y-90345000D02*
X109102000Y-90345000D01*
%TO.C,TP4*%
X144538000Y-135621000D02*
G75*
G03*
X144538000Y-135621000I-1200000J0D01*
G01*
D10*
%TO.C,BT1*%
X140293000Y-75985000D02*
X63243000Y-75985000D01*
X140293000Y-55335000D02*
X63243000Y-55335000D01*
X140287100Y-69012800D02*
X140287100Y-75985100D01*
X140287100Y-55334900D02*
X140287100Y-62319900D01*
D15*
X74268000Y-68160000D02*
X74268000Y-63160000D01*
X71768000Y-65685400D02*
X76768000Y-65685400D01*
D10*
X63248900Y-75972400D02*
X63248900Y-68962000D01*
X63248900Y-55347600D02*
X63248900Y-62358000D01*
D13*
%TO.C,TP13*%
X102628000Y-79995000D02*
G75*
G03*
X102628000Y-79995000I-1200000J0D01*
G01*
%TO.C,J4*%
X55006000Y-138221000D02*
X53676000Y-138221000D01*
X55006000Y-136891000D02*
X55006000Y-138221000D01*
X55006000Y-135621000D02*
X55006000Y-130481000D01*
X55006000Y-135621000D02*
X52346000Y-135621000D01*
X55006000Y-130481000D02*
X52346000Y-130481000D01*
X52346000Y-135621000D02*
X52346000Y-130481000D01*
%TO.C,R1*%
X132818000Y-133623936D02*
X132818000Y-135078064D01*
X130998000Y-133623936D02*
X130998000Y-135078064D01*
%TO.C,J3*%
X146326000Y-103049000D02*
X147656000Y-103049000D01*
X146326000Y-104379000D02*
X146326000Y-103049000D01*
X146326000Y-105649000D02*
X146326000Y-110789000D01*
X146326000Y-105649000D02*
X148986000Y-105649000D01*
X146326000Y-110789000D02*
X148986000Y-110789000D01*
X148986000Y-105649000D02*
X148986000Y-110789000D01*
%TO.C,TP3*%
X144538000Y-148321000D02*
G75*
G03*
X144538000Y-148321000I-1200000J0D01*
G01*
%TO.C,R3*%
X135358000Y-133623936D02*
X135358000Y-135078064D01*
X133538000Y-133623936D02*
X133538000Y-135078064D01*
%TO.C,TP8*%
X60982000Y-113777000D02*
G75*
G03*
X60982000Y-113777000I-1200000J0D01*
G01*
D12*
%TO.C,J1*%
X51038000Y-126775000D02*
X51038000Y-119575000D01*
X51538000Y-126775000D02*
X51038000Y-126775000D01*
X54538000Y-126775000D02*
X56098000Y-126775000D01*
X56098000Y-126775000D02*
X56098000Y-126775000D01*
X56098000Y-126775000D02*
X56098000Y-126675000D01*
D14*
X56938000Y-121975000D02*
X56938000Y-121975000D01*
X56938000Y-121775000D02*
X56938000Y-121775000D01*
D12*
X51038000Y-119575000D02*
X51538000Y-119575000D01*
X54538000Y-119575000D02*
X56098000Y-119575000D01*
X56098000Y-119575000D02*
X56098000Y-119675000D01*
D14*
X56938000Y-121775000D02*
G75*
G03*
X56938000Y-121975000I0J-100000D01*
G01*
X56938000Y-121975000D02*
G75*
G03*
X56938000Y-121775000I0J100000D01*
G01*
D12*
%TO.C,D5*%
X113318000Y-98283000D02*
G75*
G03*
X113318000Y-98283000I-50000J0D01*
G01*
D13*
%TO.C,D3*%
X139494000Y-145491000D02*
X139338000Y-145491000D01*
X137178000Y-145491000D02*
X137022000Y-145491000D01*
X139336608Y-148723334D02*
G75*
G03*
X139493515Y-145491001I-1078608J1672334D01*
G01*
X139337836Y-148092129D02*
G75*
G03*
X139337999Y-146010040I-1079836J1041129D01*
G01*
X137178001Y-146010040D02*
G75*
G03*
X137178164Y-148092129I1079999J-1040960D01*
G01*
X137022485Y-145491001D02*
G75*
G03*
X137179392Y-148723334I1235515J-1559999D01*
G01*
%TO.C,TP6*%
X149618000Y-143241000D02*
G75*
G03*
X149618000Y-143241000I-1200000J0D01*
G01*
%TO.C,TP5*%
X93484000Y-106411000D02*
G75*
G03*
X93484000Y-106411000I-1200000J0D01*
G01*
%TO.C,D1*%
X143628000Y-141937000D02*
X143628000Y-141781000D01*
X143628000Y-139621000D02*
X143628000Y-139465000D01*
X140395666Y-141779608D02*
G75*
G03*
X143627999Y-141936515I1672334J1078608D01*
G01*
X141026871Y-141780836D02*
G75*
G03*
X143108960Y-141780999I1041129J1079836D01*
G01*
X143108960Y-139621001D02*
G75*
G03*
X141026871Y-139621164I-1040960J-1079999D01*
G01*
X143627999Y-139465485D02*
G75*
G03*
X140395666Y-139622392I-1559999J-1235515D01*
G01*
%TO.C,R5*%
X67498000Y-95962064D02*
X67498000Y-94507936D01*
X69318000Y-95962064D02*
X69318000Y-94507936D01*
%TO.C,R10*%
X72625064Y-85985000D02*
X71170936Y-85985000D01*
X72625064Y-84165000D02*
X71170936Y-84165000D01*
%TO.C,R13*%
X66778000Y-89427936D02*
X66778000Y-90882064D01*
X64958000Y-89427936D02*
X64958000Y-90882064D01*
%TO.C,LEDcharge1*%
X58983000Y-83590000D02*
X57513000Y-83590000D01*
X57513000Y-83590000D02*
X57513000Y-85875000D01*
X58983000Y-85875000D02*
X58983000Y-83590000D01*
%TO.C,R16*%
X66410936Y-144330000D02*
X67865064Y-144330000D01*
X66410936Y-146150000D02*
X67865064Y-146150000D01*
%TO.C,R21*%
X92057000Y-79018064D02*
X92057000Y-78563936D01*
X93527000Y-79018064D02*
X93527000Y-78563936D01*
%TO.C,C4*%
X138663252Y-123864000D02*
X137240748Y-123864000D01*
X138663252Y-122044000D02*
X137240748Y-122044000D01*
%TO.C,R20*%
X89009000Y-78889064D02*
X89009000Y-78434936D01*
X90479000Y-78889064D02*
X90479000Y-78434936D01*
%TD*%
M02*
